G04 #@! TF.GenerationSoftware,KiCad,Pcbnew,8.0.4*
G04 #@! TF.CreationDate,2024-08-16T16:00:28+02:00*
G04 #@! TF.ProjectId,Purrtico_M,50757272-7469-4636-9f5f-4d2e6b696361,01*
G04 #@! TF.SameCoordinates,Original*
G04 #@! TF.FileFunction,Paste,Top*
G04 #@! TF.FilePolarity,Positive*
%FSLAX46Y46*%
G04 Gerber Fmt 4.6, Leading zero omitted, Abs format (unit mm)*
G04 Created by KiCad (PCBNEW 8.0.4) date 2024-08-16 16:00:28*
%MOMM*%
%LPD*%
G01*
G04 APERTURE LIST*
G04 Aperture macros list*
%AMRoundRect*
0 Rectangle with rounded corners*
0 $1 Rounding radius*
0 $2 $3 $4 $5 $6 $7 $8 $9 X,Y pos of 4 corners*
0 Add a 4 corners polygon primitive as box body*
4,1,4,$2,$3,$4,$5,$6,$7,$8,$9,$2,$3,0*
0 Add four circle primitives for the rounded corners*
1,1,$1+$1,$2,$3*
1,1,$1+$1,$4,$5*
1,1,$1+$1,$6,$7*
1,1,$1+$1,$8,$9*
0 Add four rect primitives between the rounded corners*
20,1,$1+$1,$2,$3,$4,$5,0*
20,1,$1+$1,$4,$5,$6,$7,0*
20,1,$1+$1,$6,$7,$8,$9,0*
20,1,$1+$1,$8,$9,$2,$3,0*%
G04 Aperture macros list end*
%ADD10RoundRect,0.250000X0.312500X0.625000X-0.312500X0.625000X-0.312500X-0.625000X0.312500X-0.625000X0*%
%ADD11RoundRect,0.250000X-0.312500X-0.625000X0.312500X-0.625000X0.312500X0.625000X-0.312500X0.625000X0*%
%ADD12RoundRect,0.250000X0.650000X-0.325000X0.650000X0.325000X-0.650000X0.325000X-0.650000X-0.325000X0*%
%ADD13RoundRect,0.250000X-0.650000X0.325000X-0.650000X-0.325000X0.650000X-0.325000X0.650000X0.325000X0*%
%ADD14RoundRect,0.150000X-0.150000X0.825000X-0.150000X-0.825000X0.150000X-0.825000X0.150000X0.825000X0*%
G04 APERTURE END LIST*
D10*
X94172500Y-30480000D03*
X91247500Y-30480000D03*
D11*
X137427500Y-45120000D03*
X140352500Y-45120000D03*
D10*
X118127500Y-47660000D03*
X115202500Y-47660000D03*
X93918500Y-77724000D03*
X90993500Y-77724000D03*
X105046500Y-70104000D03*
X102121500Y-70104000D03*
D11*
X149492500Y-56550000D03*
X152417500Y-56550000D03*
X84897500Y-42545000D03*
X87822500Y-42545000D03*
D12*
X94440000Y-41480000D03*
X94440000Y-38530000D03*
D13*
X148415000Y-58885000D03*
X148415000Y-61835000D03*
D14*
X147780000Y-50900000D03*
X146510000Y-50900000D03*
X145240000Y-50900000D03*
X143970000Y-50900000D03*
X142700000Y-50900000D03*
X141430000Y-50900000D03*
X140160000Y-50900000D03*
X140160000Y-55850000D03*
X141430000Y-55850000D03*
X142700000Y-55850000D03*
X143970000Y-55850000D03*
X145240000Y-55850000D03*
X146510000Y-55850000D03*
X147780000Y-55850000D03*
D12*
X140160000Y-42785000D03*
X140160000Y-39835000D03*
D10*
X108602500Y-48260000D03*
X105677500Y-48260000D03*
X140987500Y-59725000D03*
X138062500Y-59725000D03*
D11*
X88453500Y-71882000D03*
X91378500Y-71882000D03*
X149492500Y-67345000D03*
X152417500Y-67345000D03*
D12*
X105870000Y-44690000D03*
X105870000Y-41740000D03*
D13*
X111585000Y-58250000D03*
X111585000Y-61200000D03*
D10*
X153862500Y-71755000D03*
X150937500Y-71755000D03*
X153052500Y-45755000D03*
X150127500Y-45755000D03*
X137860500Y-77470000D03*
X134935500Y-77470000D03*
D11*
X118425500Y-63535000D03*
X121350500Y-63535000D03*
X102169500Y-74168000D03*
X105094500Y-74168000D03*
D13*
X143970000Y-45550000D03*
X143970000Y-48500000D03*
D14*
X96980000Y-50900000D03*
X95710000Y-50900000D03*
X94440000Y-50900000D03*
X93170000Y-50900000D03*
X91900000Y-50900000D03*
X90630000Y-50900000D03*
X89360000Y-50900000D03*
X89360000Y-55850000D03*
X90630000Y-55850000D03*
X91900000Y-55850000D03*
X93170000Y-55850000D03*
X94440000Y-55850000D03*
X95710000Y-55850000D03*
X96980000Y-55850000D03*
D12*
X138255000Y-65010000D03*
X138255000Y-62060000D03*
D10*
X99252500Y-30480000D03*
X96327500Y-30480000D03*
X116778500Y-74422000D03*
X113853500Y-74422000D03*
D12*
X147780000Y-48500000D03*
X147780000Y-45550000D03*
D11*
X97343500Y-75184000D03*
X100268500Y-75184000D03*
D13*
X144018000Y-58215000D03*
X144018000Y-61165000D03*
D11*
X119012500Y-43850000D03*
X121937500Y-43850000D03*
X154747500Y-67310000D03*
X157672500Y-67310000D03*
X150762500Y-61630000D03*
X153687500Y-61630000D03*
X100790000Y-48930000D03*
X103715000Y-48930000D03*
D13*
X105235000Y-57580000D03*
X105235000Y-60530000D03*
D11*
X99502500Y-66040000D03*
X102427500Y-66040000D03*
D13*
X89916000Y-36117000D03*
X89916000Y-39067000D03*
D11*
X137602500Y-69215000D03*
X140527500Y-69215000D03*
D10*
X140352500Y-47660000D03*
X137427500Y-47660000D03*
X130192500Y-56550000D03*
X127267500Y-56550000D03*
X111142500Y-42580000D03*
X108217500Y-42580000D03*
D11*
X113932500Y-67980000D03*
X116857500Y-67980000D03*
D10*
X109920500Y-76835000D03*
X106995500Y-76835000D03*
X113222500Y-35560000D03*
X110297500Y-35560000D03*
D11*
X86167500Y-48260000D03*
X89092500Y-48260000D03*
D10*
X128287500Y-33020000D03*
X125362500Y-33020000D03*
D14*
X115395000Y-50900000D03*
X114125000Y-50900000D03*
X112855000Y-50900000D03*
X111585000Y-50900000D03*
X110315000Y-50900000D03*
X109045000Y-50900000D03*
X107775000Y-50900000D03*
X107775000Y-55850000D03*
X109045000Y-55850000D03*
X110315000Y-55850000D03*
X111585000Y-55850000D03*
X112855000Y-55850000D03*
X114125000Y-55850000D03*
X115395000Y-55850000D03*
D11*
X96835500Y-77978000D03*
X99760500Y-77978000D03*
D10*
X109920500Y-79502000D03*
X106995500Y-79502000D03*
D11*
X146952500Y-41945000D03*
X149877500Y-41945000D03*
D10*
X129986500Y-73660000D03*
X127061500Y-73660000D03*
X153052500Y-49565000D03*
X150127500Y-49565000D03*
D13*
X111585000Y-45550000D03*
X111585000Y-48500000D03*
X93170000Y-58680000D03*
X93170000Y-61630000D03*
D10*
X99712500Y-60995000D03*
X96787500Y-60995000D03*
D11*
X134252500Y-56550000D03*
X137177500Y-56550000D03*
D10*
X161307500Y-34960000D03*
X158382500Y-34960000D03*
D11*
X149492500Y-39405000D03*
X152417500Y-39405000D03*
D12*
X116665000Y-45325000D03*
X116665000Y-42375000D03*
D10*
X89408000Y-60706000D03*
X86483000Y-60706000D03*
X103522500Y-41910000D03*
X100597500Y-41910000D03*
D11*
X125029500Y-77470000D03*
X127954500Y-77470000D03*
D10*
X91378500Y-66802000D03*
X88453500Y-66802000D03*
D13*
X93170000Y-45345000D03*
X93170000Y-48295000D03*
D10*
X91378500Y-69342000D03*
X88453500Y-69342000D03*
M02*
