%TF.GenerationSoftware,KiCad,Pcbnew,8.0.4*%
%TF.CreationDate,2024-08-16T16:00:31+02:00*%
%TF.ProjectId,Purrtico_M,50757272-7469-4636-9f5f-4d2e6b696361,01*%
%TF.SameCoordinates,Original*%
%TF.FileFunction,Drillmap*%
%TF.FilePolarity,Positive*%
%FSLAX45Y45*%
G04 Gerber Fmt 4.5, Leading zero omitted, Abs format (unit mm)*
G04 Created by KiCad (PCBNEW 8.0.4) date 2024-08-16 16:00:31*
%MOMM*%
%LPD*%
G01*
G04 APERTURE LIST*
%ADD10C,0.100000*%
%ADD11C,0.200000*%
%ADD12C,0.320000*%
G04 APERTURE END LIST*
D10*
X7780000Y-2290000D02*
X17780000Y-2290000D01*
X17780000Y-8890000D01*
X7780000Y-8890000D01*
X7780000Y-2290000D01*
D11*
D10*
X8723950Y-5612450D02*
X8763950Y-5652450D01*
X8763950Y-5612450D02*
X8723950Y-5652450D01*
X8768400Y-7396800D02*
X8808400Y-7436800D01*
X8808400Y-7396800D02*
X8768400Y-7436800D01*
X8971600Y-4044000D02*
X9011600Y-4084000D01*
X9011600Y-4044000D02*
X8971600Y-4084000D01*
X8971600Y-4298000D02*
X9011600Y-4338000D01*
X9011600Y-4298000D02*
X8971600Y-4338000D01*
X8971600Y-5822000D02*
X9011600Y-5862000D01*
X9011600Y-5822000D02*
X8971600Y-5862000D01*
X9106500Y-4492000D02*
X9146500Y-4532000D01*
X9146500Y-4492000D02*
X9106500Y-4532000D01*
X9106500Y-6143000D02*
X9146500Y-6183000D01*
X9146500Y-6143000D02*
X9106500Y-6183000D01*
X9124000Y-4869500D02*
X9164000Y-4909500D01*
X9164000Y-4869500D02*
X9124000Y-4909500D01*
X9170000Y-5317500D02*
X9210000Y-5357500D01*
X9210000Y-5317500D02*
X9170000Y-5357500D01*
X9487500Y-4492000D02*
X9527500Y-4532000D01*
X9527500Y-4492000D02*
X9487500Y-4532000D01*
X9487500Y-4873000D02*
X9527500Y-4913000D01*
X9527500Y-4873000D02*
X9487500Y-4913000D01*
X9487500Y-6143000D02*
X9527500Y-6183000D01*
X9527500Y-6143000D02*
X9487500Y-6183000D01*
X9932000Y-5142700D02*
X9972000Y-5182700D01*
X9972000Y-5142700D02*
X9932000Y-5182700D01*
X9932000Y-5825500D02*
X9972000Y-5865500D01*
X9972000Y-5825500D02*
X9932000Y-5865500D01*
X9995500Y-6778000D02*
X10035500Y-6818000D01*
X10035500Y-6778000D02*
X9995500Y-6818000D01*
X10457500Y-5060000D02*
X10497500Y-5100000D01*
X10497500Y-5060000D02*
X10457500Y-5100000D01*
X10457500Y-6203000D02*
X10497500Y-6243000D01*
X10497500Y-6203000D02*
X10457500Y-6243000D01*
X10948000Y-6079500D02*
X10988000Y-6119500D01*
X10988000Y-6079500D02*
X10948000Y-6119500D01*
X10957200Y-5760913D02*
X10997200Y-5800913D01*
X10997200Y-5760913D02*
X10957200Y-5800913D01*
X10965500Y-4806000D02*
X11005500Y-4846000D01*
X11005500Y-4806000D02*
X10965500Y-4846000D01*
X10968500Y-4535000D02*
X11008500Y-4575000D01*
X11008500Y-4535000D02*
X10968500Y-4575000D01*
X11075000Y-6778000D02*
X11115000Y-6818000D01*
X11115000Y-6778000D02*
X11075000Y-6818000D01*
X11092500Y-6457000D02*
X11132500Y-6497000D01*
X11132500Y-6457000D02*
X11092500Y-6497000D01*
X11117900Y-7917500D02*
X11157900Y-7957500D01*
X11157900Y-7917500D02*
X11117900Y-7957500D01*
X11156000Y-7663500D02*
X11196000Y-7703500D01*
X11196000Y-7663500D02*
X11156000Y-7703500D01*
X11283000Y-7092000D02*
X11323000Y-7132000D01*
X11323000Y-7092000D02*
X11283000Y-7132000D01*
X11308500Y-4535000D02*
X11348500Y-4575000D01*
X11348500Y-4535000D02*
X11308500Y-4575000D01*
X11329000Y-5762000D02*
X11369000Y-5802000D01*
X11369000Y-5762000D02*
X11329000Y-5802000D01*
X11329000Y-6079500D02*
X11369000Y-6119500D01*
X11369000Y-6079500D02*
X11329000Y-6119500D01*
X11381200Y-4185800D02*
X11421200Y-4225800D01*
X11421200Y-4185800D02*
X11381200Y-4225800D01*
X11392500Y-3920500D02*
X11432500Y-3960500D01*
X11432500Y-3920500D02*
X11392500Y-3960500D01*
X11689400Y-6333500D02*
X11729400Y-6373500D01*
X11729400Y-6333500D02*
X11689400Y-6373500D01*
X11791000Y-5088900D02*
X11831000Y-5128900D01*
X11831000Y-5088900D02*
X11791000Y-5128900D01*
X11791000Y-5822000D02*
X11831000Y-5862000D01*
X11831000Y-5822000D02*
X11791000Y-5862000D01*
X12045000Y-4996500D02*
X12085000Y-5036500D01*
X12085000Y-4996500D02*
X12045000Y-5036500D01*
X12045000Y-5822000D02*
X12085000Y-5862000D01*
X12085000Y-5822000D02*
X12045000Y-5862000D01*
X12476800Y-7955600D02*
X12516800Y-7995600D01*
X12516800Y-7955600D02*
X12476800Y-7995600D01*
X12980000Y-3285500D02*
X13020000Y-3325500D01*
X13020000Y-3285500D02*
X12980000Y-3325500D01*
X13234000Y-5063500D02*
X13274000Y-5103500D01*
X13274000Y-5063500D02*
X13234000Y-5103500D01*
X13234000Y-5635000D02*
X13274000Y-5675000D01*
X13274000Y-5635000D02*
X13234000Y-5675000D01*
X13899200Y-7727000D02*
X13939200Y-7767000D01*
X13939200Y-7727000D02*
X13899200Y-7767000D01*
X14186500Y-4492000D02*
X14226500Y-4532000D01*
X14226500Y-4492000D02*
X14186500Y-4532000D01*
X14186500Y-4873000D02*
X14226500Y-4913000D01*
X14226500Y-4873000D02*
X14186500Y-4913000D01*
X14195700Y-5762000D02*
X14235700Y-5802000D01*
X14235700Y-5762000D02*
X14195700Y-5802000D01*
X14204000Y-6126800D02*
X14244000Y-6166800D01*
X14244000Y-6126800D02*
X14204000Y-6166800D01*
X14559600Y-6126800D02*
X14599600Y-6166800D01*
X14599600Y-6126800D02*
X14559600Y-6166800D01*
X14563243Y-5757995D02*
X14603243Y-5797995D01*
X14603243Y-5757995D02*
X14563243Y-5797995D01*
X14567500Y-4492000D02*
X14607500Y-4532000D01*
X14607500Y-4492000D02*
X14567500Y-4532000D01*
X14821500Y-6524000D02*
X14861500Y-6564000D01*
X14861500Y-6524000D02*
X14821500Y-6564000D01*
X15012000Y-4746000D02*
X15052000Y-4786000D01*
X15052000Y-4746000D02*
X15012000Y-4786000D01*
X15266000Y-6333500D02*
X15306000Y-6373500D01*
X15306000Y-6333500D02*
X15266000Y-6373500D01*
X15329500Y-5472750D02*
X15369500Y-5512750D01*
X15369500Y-5472750D02*
X15329500Y-5512750D01*
X15329500Y-6524000D02*
X15369500Y-6564000D01*
X15369500Y-6524000D02*
X15329500Y-6564000D01*
X15410500Y-4552000D02*
X15450500Y-4592000D01*
X15450500Y-4552000D02*
X15410500Y-4592000D01*
X15520000Y-5063500D02*
X15560000Y-5103500D01*
X15560000Y-5063500D02*
X15520000Y-5103500D01*
X15520000Y-5508000D02*
X15560000Y-5548000D01*
X15560000Y-5508000D02*
X15520000Y-5548000D01*
X15710500Y-5063500D02*
X15750500Y-5103500D01*
X15750500Y-5063500D02*
X15710500Y-5103500D01*
X15710500Y-5508000D02*
X15750500Y-5548000D01*
X15750500Y-5508000D02*
X15710500Y-5548000D01*
X16282000Y-3476000D02*
X16322000Y-3516000D01*
X16322000Y-3476000D02*
X16282000Y-3516000D01*
X8343500Y-6794500D02*
G75*
G02*
X8293500Y-6794500I-25000J0D01*
G01*
X8293500Y-6794500D02*
G75*
G02*
X8343500Y-6794500I25000J0D01*
G01*
X8711800Y-6350000D02*
G75*
G02*
X8661800Y-6350000I-25000J0D01*
G01*
X8661800Y-6350000D02*
G75*
G02*
X8711800Y-6350000I25000J0D01*
G01*
X8864200Y-7696200D02*
G75*
G02*
X8814200Y-7696200I-25000J0D01*
G01*
X8814200Y-7696200D02*
G75*
G02*
X8864200Y-7696200I25000J0D01*
G01*
X8991200Y-7493000D02*
G75*
G02*
X8941200Y-7493000I-25000J0D01*
G01*
X8941200Y-7493000D02*
G75*
G02*
X8991200Y-7493000I25000J0D01*
G01*
X9367400Y-6544000D02*
G75*
G02*
X9317400Y-6544000I-25000J0D01*
G01*
X9317400Y-6544000D02*
G75*
G02*
X9367400Y-6544000I25000J0D01*
G01*
X9900800Y-3877000D02*
G75*
G02*
X9850800Y-3877000I-25000J0D01*
G01*
X9850800Y-3877000D02*
G75*
G02*
X9900800Y-3877000I25000J0D01*
G01*
X10058000Y-6350000D02*
G75*
G02*
X10008000Y-6350000I-25000J0D01*
G01*
X10008000Y-6350000D02*
G75*
G02*
X10058000Y-6350000I25000J0D01*
G01*
X10058000Y-7175500D02*
G75*
G02*
X10008000Y-7175500I-25000J0D01*
G01*
X10008000Y-7175500D02*
G75*
G02*
X10058000Y-7175500I25000J0D01*
G01*
X10159600Y-4521200D02*
G75*
G02*
X10109600Y-4521200I-25000J0D01*
G01*
X10109600Y-4521200D02*
G75*
G02*
X10159600Y-4521200I25000J0D01*
G01*
X10413600Y-3200400D02*
G75*
G02*
X10363600Y-3200400I-25000J0D01*
G01*
X10363600Y-3200400D02*
G75*
G02*
X10413600Y-3200400I25000J0D01*
G01*
X10612000Y-6671000D02*
G75*
G02*
X10562000Y-6671000I-25000J0D01*
G01*
X10562000Y-6671000D02*
G75*
G02*
X10612000Y-6671000I25000J0D01*
G01*
X10967600Y-5959800D02*
G75*
G02*
X10917600Y-5959800I-25000J0D01*
G01*
X10917600Y-5959800D02*
G75*
G02*
X10967600Y-5959800I25000J0D01*
G01*
X11145400Y-7026600D02*
G75*
G02*
X11095400Y-7026600I-25000J0D01*
G01*
X11095400Y-7026600D02*
G75*
G02*
X11145400Y-7026600I25000J0D01*
G01*
X11658200Y-3454400D02*
G75*
G02*
X11608200Y-3454400I-25000J0D01*
G01*
X11608200Y-3454400D02*
G75*
G02*
X11658200Y-3454400I25000J0D01*
G01*
X11836000Y-7937500D02*
G75*
G02*
X11786000Y-7937500I-25000J0D01*
G01*
X11786000Y-7937500D02*
G75*
G02*
X11836000Y-7937500I25000J0D01*
G01*
X12026500Y-6921500D02*
G75*
G02*
X11976500Y-6921500I-25000J0D01*
G01*
X11976500Y-6921500D02*
G75*
G02*
X12026500Y-6921500I25000J0D01*
G01*
X12415400Y-4994600D02*
G75*
G02*
X12365400Y-4994600I-25000J0D01*
G01*
X12365400Y-4994600D02*
G75*
G02*
X12415400Y-4994600I25000J0D01*
G01*
X12440800Y-3683000D02*
G75*
G02*
X12390800Y-3683000I-25000J0D01*
G01*
X12390800Y-3683000D02*
G75*
G02*
X12440800Y-3683000I25000J0D01*
G01*
X12440800Y-4435800D02*
G75*
G02*
X12390800Y-4435800I-25000J0D01*
G01*
X12390800Y-4435800D02*
G75*
G02*
X12440800Y-4435800I25000J0D01*
G01*
X12644000Y-5883600D02*
G75*
G02*
X12594000Y-5883600I-25000J0D01*
G01*
X12594000Y-5883600D02*
G75*
G02*
X12644000Y-5883600I25000J0D01*
G01*
X12826600Y-6172200D02*
G75*
G02*
X12776600Y-6172200I-25000J0D01*
G01*
X12776600Y-6172200D02*
G75*
G02*
X12826600Y-6172200I25000J0D01*
G01*
X13152000Y-4131000D02*
G75*
G02*
X13102000Y-4131000I-25000J0D01*
G01*
X13102000Y-4131000D02*
G75*
G02*
X13152000Y-4131000I25000J0D01*
G01*
X13177400Y-4486600D02*
G75*
G02*
X13127400Y-4486600I-25000J0D01*
G01*
X13127400Y-4486600D02*
G75*
G02*
X13177400Y-4486600I25000J0D01*
G01*
X13456800Y-6061400D02*
G75*
G02*
X13406800Y-6061400I-25000J0D01*
G01*
X13406800Y-6061400D02*
G75*
G02*
X13456800Y-6061400I25000J0D01*
G01*
X13550500Y-7366000D02*
G75*
G02*
X13500500Y-7366000I-25000J0D01*
G01*
X13500500Y-7366000D02*
G75*
G02*
X13550500Y-7366000I25000J0D01*
G01*
X13583800Y-4258000D02*
G75*
G02*
X13533800Y-4258000I-25000J0D01*
G01*
X13533800Y-4258000D02*
G75*
G02*
X13583800Y-4258000I25000J0D01*
G01*
X14676000Y-7458400D02*
G75*
G02*
X14626000Y-7458400I-25000J0D01*
G01*
X14626000Y-7458400D02*
G75*
G02*
X14676000Y-7458400I25000J0D01*
G01*
X14701400Y-6518600D02*
G75*
G02*
X14651400Y-6518600I-25000J0D01*
G01*
X14651400Y-6518600D02*
G75*
G02*
X14701400Y-6518600I25000J0D01*
G01*
X15709500Y-8382000D02*
G75*
G02*
X15659500Y-8382000I-25000J0D01*
G01*
X15659500Y-8382000D02*
G75*
G02*
X15709500Y-8382000I25000J0D01*
G01*
X15773000Y-7162800D02*
G75*
G02*
X15723000Y-7162800I-25000J0D01*
G01*
X15723000Y-7162800D02*
G75*
G02*
X15773000Y-7162800I25000J0D01*
G01*
X16276200Y-3953000D02*
G75*
G02*
X16226200Y-3953000I-25000J0D01*
G01*
X16226200Y-3953000D02*
G75*
G02*
X16276200Y-3953000I25000J0D01*
G01*
X8364500Y-4793500D02*
X8364500Y-4873500D01*
X8324500Y-4833500D02*
X8404500Y-4833500D01*
X8364500Y-5293500D02*
X8364500Y-5373500D01*
X8324500Y-5333500D02*
X8404500Y-5333500D01*
X8364500Y-5784600D02*
X8364500Y-5864600D01*
X8324500Y-5824600D02*
X8404500Y-5824600D01*
X8364500Y-6284600D02*
X8364500Y-6364600D01*
X8324500Y-6324600D02*
X8404500Y-6324600D01*
X8364500Y-7529200D02*
X8364500Y-7609200D01*
X8324500Y-7569200D02*
X8404500Y-7569200D01*
X8364500Y-7779200D02*
X8364500Y-7859200D01*
X8324500Y-7819200D02*
X8404500Y-7819200D01*
X9596400Y-6818000D02*
X9596400Y-6898000D01*
X9556400Y-6858000D02*
X9636400Y-6858000D01*
X9596400Y-7068000D02*
X9596400Y-7148000D01*
X9556400Y-7108000D02*
X9636400Y-7108000D01*
X9761500Y-4218000D02*
X9761500Y-4298000D01*
X9721500Y-4258000D02*
X9801500Y-4258000D01*
X9761500Y-4718000D02*
X9761500Y-4798000D01*
X9721500Y-4758000D02*
X9801500Y-4758000D01*
X10206000Y-5551500D02*
X10206000Y-5631500D01*
X10166000Y-5591500D02*
X10246000Y-5591500D01*
X10206000Y-6051500D02*
X10206000Y-6131500D01*
X10166000Y-6091500D02*
X10246000Y-6091500D01*
X10841000Y-6440500D02*
X10841000Y-6520500D01*
X10801000Y-6480500D02*
X10881000Y-6480500D01*
X10841000Y-6940500D02*
X10841000Y-7020500D01*
X10801000Y-6980500D02*
X10881000Y-6980500D01*
X11303000Y-2881000D02*
X11303000Y-2961000D01*
X11263000Y-2921000D02*
X11343000Y-2921000D01*
X11303000Y-3131000D02*
X11303000Y-3211000D01*
X11263000Y-3171000D02*
X11343000Y-3171000D01*
X12111000Y-7266500D02*
X12111000Y-7346500D01*
X12071000Y-7306500D02*
X12151000Y-7306500D01*
X12111000Y-7516500D02*
X12111000Y-7596500D01*
X12071000Y-7556500D02*
X12151000Y-7556500D01*
X12365000Y-5559500D02*
X12365000Y-5639500D01*
X12325000Y-5599500D02*
X12405000Y-5599500D01*
X12365000Y-6059500D02*
X12365000Y-6139500D01*
X12325000Y-6099500D02*
X12405000Y-6099500D01*
X12682500Y-3900500D02*
X12682500Y-3980500D01*
X12642500Y-3940500D02*
X12722500Y-3940500D01*
X12682500Y-4150500D02*
X12682500Y-4230500D01*
X12642500Y-4190500D02*
X12722500Y-4190500D01*
X12809500Y-4599000D02*
X12809500Y-4679000D01*
X12769500Y-4639000D02*
X12849500Y-4639000D01*
X12809500Y-4849000D02*
X12809500Y-4929000D01*
X12769500Y-4889000D02*
X12849500Y-4889000D01*
X13271500Y-6639762D02*
X13271500Y-6719762D01*
X13231500Y-6679762D02*
X13311500Y-6679762D01*
X13271500Y-6889762D02*
X13271500Y-6969762D01*
X13231500Y-6929762D02*
X13311500Y-6929762D01*
X13430000Y-3600000D02*
X13430000Y-3680000D01*
X13390000Y-3640000D02*
X13470000Y-3640000D01*
X13430000Y-3850000D02*
X13430000Y-3930000D01*
X13390000Y-3890000D02*
X13470000Y-3890000D01*
X14524000Y-6821500D02*
X14524000Y-6901500D01*
X14484000Y-6861500D02*
X14564000Y-6861500D01*
X14524000Y-7071500D02*
X14524000Y-7151500D01*
X14484000Y-7111500D02*
X14564000Y-7111500D01*
X15443200Y-7516500D02*
X15443200Y-7596500D01*
X15403200Y-7556500D02*
X15483200Y-7556500D01*
X15443200Y-7766500D02*
X15443200Y-7846500D01*
X15403200Y-7806500D02*
X15483200Y-7806500D01*
X15667000Y-3837000D02*
X15667000Y-3917000D01*
X15627000Y-3877000D02*
X15707000Y-3877000D01*
X15667000Y-4087000D02*
X15667000Y-4167000D01*
X15627000Y-4127000D02*
X15707000Y-4127000D01*
X16129000Y-4726000D02*
X16129000Y-4806000D01*
X16089000Y-4766000D02*
X16169000Y-4766000D01*
X16129000Y-4976000D02*
X16129000Y-5056000D01*
X16089000Y-5016000D02*
X16169000Y-5016000D01*
X16192500Y-5488000D02*
X16192500Y-5568000D01*
X16152500Y-5528000D02*
X16232500Y-5528000D01*
X16192500Y-5738000D02*
X16192500Y-5818000D01*
X16152500Y-5778000D02*
X16232500Y-5778000D01*
X8992920Y-8290356D02*
X8992920Y-8219644D01*
X8922208Y-8219644D01*
X8922208Y-8290356D01*
X8992920Y-8290356D01*
X8992920Y-8544356D02*
X8992920Y-8473644D01*
X8922208Y-8473644D01*
X8922208Y-8544356D01*
X8992920Y-8544356D01*
X9179356Y-2765856D02*
X9179356Y-2695144D01*
X9108644Y-2695144D01*
X9108644Y-2765856D01*
X9179356Y-2765856D01*
X9242920Y-8294356D02*
X9242920Y-8223644D01*
X9172208Y-8223644D01*
X9172208Y-8294356D01*
X9242920Y-8294356D01*
X9242920Y-8544356D02*
X9242920Y-8473644D01*
X9172208Y-8473644D01*
X9172208Y-8544356D01*
X9242920Y-8544356D01*
X9433356Y-2765856D02*
X9433356Y-2695144D01*
X9362644Y-2695144D01*
X9362644Y-2765856D01*
X9433356Y-2765856D01*
X9492920Y-8544356D02*
X9492920Y-8473644D01*
X9422208Y-8473644D01*
X9422208Y-8544356D01*
X9492920Y-8544356D01*
X9500920Y-8290356D02*
X9500920Y-8219644D01*
X9430208Y-8219644D01*
X9430208Y-8290356D01*
X9500920Y-8290356D01*
X9687356Y-2765856D02*
X9687356Y-2695144D01*
X9616644Y-2695144D01*
X9616644Y-2765856D01*
X9687356Y-2765856D01*
X10385856Y-2765856D02*
X10385856Y-2695144D01*
X10315144Y-2695144D01*
X10315144Y-2765856D01*
X10385856Y-2765856D01*
X10639856Y-2765856D02*
X10639856Y-2695144D01*
X10569144Y-2695144D01*
X10569144Y-2765856D01*
X10639856Y-2765856D01*
X10893856Y-8544356D02*
X10893856Y-8473644D01*
X10823144Y-8473644D01*
X10823144Y-8544356D01*
X10893856Y-8544356D01*
X11147856Y-8544356D02*
X11147856Y-8473644D01*
X11077144Y-8473644D01*
X11077144Y-8544356D01*
X11147856Y-8544356D01*
X11401856Y-8544356D02*
X11401856Y-8473644D01*
X11331144Y-8473644D01*
X11331144Y-8544356D01*
X11401856Y-8544356D01*
X11973356Y-2765856D02*
X11973356Y-2695144D01*
X11902644Y-2695144D01*
X11902644Y-2765856D01*
X11973356Y-2765856D01*
X12227356Y-2765856D02*
X12227356Y-2695144D01*
X12156644Y-2695144D01*
X12156644Y-2765856D01*
X12227356Y-2765856D01*
X12802666Y-8290356D02*
X12802666Y-8219644D01*
X12731954Y-8219644D01*
X12731954Y-8290356D01*
X12802666Y-8290356D01*
X12802666Y-8544356D02*
X12802666Y-8473644D01*
X12731954Y-8473644D01*
X12731954Y-8544356D01*
X12802666Y-8544356D01*
X13052666Y-8294356D02*
X13052666Y-8223644D01*
X12981954Y-8223644D01*
X12981954Y-8294356D01*
X13052666Y-8294356D01*
X13052666Y-8544356D02*
X13052666Y-8473644D01*
X12981954Y-8473644D01*
X12981954Y-8544356D01*
X13052666Y-8544356D01*
X13302666Y-8544356D02*
X13302666Y-8473644D01*
X13231954Y-8473644D01*
X13231954Y-8544356D01*
X13302666Y-8544356D01*
X13310666Y-8290356D02*
X13310666Y-8219644D01*
X13239954Y-8219644D01*
X13239954Y-8290356D01*
X13310666Y-8290356D01*
X14305356Y-2765856D02*
X14305356Y-2695144D01*
X14234644Y-2695144D01*
X14234644Y-2765856D01*
X14305356Y-2765856D01*
X14559356Y-2765856D02*
X14559356Y-2695144D01*
X14488644Y-2695144D01*
X14488644Y-2765856D01*
X14559356Y-2765856D01*
X14703856Y-8544356D02*
X14703856Y-8473644D01*
X14633144Y-8473644D01*
X14633144Y-8544356D01*
X14703856Y-8544356D01*
X14957856Y-8544356D02*
X14957856Y-8473644D01*
X14887144Y-8473644D01*
X14887144Y-8544356D01*
X14957856Y-8544356D01*
X15211856Y-8544356D02*
X15211856Y-8473644D01*
X15141144Y-8473644D01*
X15141144Y-8544356D01*
X15211856Y-8544356D01*
X16610380Y-8544356D02*
X16610380Y-8473644D01*
X16539668Y-8473644D01*
X16539668Y-8544356D01*
X16610380Y-8544356D01*
X16864380Y-8544356D02*
X16864380Y-8473644D01*
X16793668Y-8473644D01*
X16793668Y-8544356D01*
X16864380Y-8544356D01*
X17035856Y-4801356D02*
X17035856Y-4730644D01*
X16965144Y-4730644D01*
X16965144Y-4801356D01*
X17035856Y-4801356D01*
X17035856Y-5055356D02*
X17035856Y-4984644D01*
X16965144Y-4984644D01*
X16965144Y-5055356D01*
X17035856Y-5055356D01*
X17035856Y-5309356D02*
X17035856Y-5238644D01*
X16965144Y-5238644D01*
X16965144Y-5309356D01*
X17035856Y-5309356D01*
X17035856Y-5563356D02*
X17035856Y-5492644D01*
X16965144Y-5492644D01*
X16965144Y-5563356D01*
X17035856Y-5563356D01*
X17035856Y-5817356D02*
X17035856Y-5746644D01*
X16965144Y-5746644D01*
X16965144Y-5817356D01*
X17035856Y-5817356D01*
X17118380Y-8544356D02*
X17118380Y-8473644D01*
X17047668Y-8473644D01*
X17047668Y-8544356D01*
X17118380Y-8544356D01*
X17289856Y-4801356D02*
X17289856Y-4730644D01*
X17219144Y-4730644D01*
X17219144Y-4801356D01*
X17289856Y-4801356D01*
X17289856Y-5055356D02*
X17289856Y-4984644D01*
X17219144Y-4984644D01*
X17219144Y-5055356D01*
X17289856Y-5055356D01*
X17289856Y-5309356D02*
X17289856Y-5238644D01*
X17219144Y-5238644D01*
X17219144Y-5309356D01*
X17289856Y-5309356D01*
X17289856Y-5563356D02*
X17289856Y-5492644D01*
X17219144Y-5492644D01*
X17219144Y-5563356D01*
X17289856Y-5563356D01*
X17289856Y-5817356D02*
X17289856Y-5746644D01*
X17219144Y-5746644D01*
X17219144Y-5817356D01*
X17289856Y-5817356D01*
D12*
X8382000Y-3081000D02*
X8542000Y-2921000D01*
X8382000Y-2761000D01*
X8222000Y-2921000D01*
X8382000Y-3081000D01*
X17208500Y-3081000D02*
X17368500Y-2921000D01*
X17208500Y-2761000D01*
X17048500Y-2921000D01*
X17208500Y-3081000D01*
D11*
X8035777Y-9206484D02*
X8035777Y-9006484D01*
X8035777Y-9006484D02*
X8083396Y-9006484D01*
X8083396Y-9006484D02*
X8111967Y-9016008D01*
X8111967Y-9016008D02*
X8131015Y-9035055D01*
X8131015Y-9035055D02*
X8140539Y-9054103D01*
X8140539Y-9054103D02*
X8150062Y-9092198D01*
X8150062Y-9092198D02*
X8150062Y-9120770D01*
X8150062Y-9120770D02*
X8140539Y-9158865D01*
X8140539Y-9158865D02*
X8131015Y-9177912D01*
X8131015Y-9177912D02*
X8111967Y-9196960D01*
X8111967Y-9196960D02*
X8083396Y-9206484D01*
X8083396Y-9206484D02*
X8035777Y-9206484D01*
X8235777Y-9206484D02*
X8235777Y-9073150D01*
X8235777Y-9111246D02*
X8245301Y-9092198D01*
X8245301Y-9092198D02*
X8254824Y-9082674D01*
X8254824Y-9082674D02*
X8273872Y-9073150D01*
X8273872Y-9073150D02*
X8292920Y-9073150D01*
X8359586Y-9206484D02*
X8359586Y-9073150D01*
X8359586Y-9006484D02*
X8350062Y-9016008D01*
X8350062Y-9016008D02*
X8359586Y-9025531D01*
X8359586Y-9025531D02*
X8369110Y-9016008D01*
X8369110Y-9016008D02*
X8359586Y-9006484D01*
X8359586Y-9006484D02*
X8359586Y-9025531D01*
X8483396Y-9206484D02*
X8464348Y-9196960D01*
X8464348Y-9196960D02*
X8454824Y-9177912D01*
X8454824Y-9177912D02*
X8454824Y-9006484D01*
X8588158Y-9206484D02*
X8569110Y-9196960D01*
X8569110Y-9196960D02*
X8559586Y-9177912D01*
X8559586Y-9177912D02*
X8559586Y-9006484D01*
X8816729Y-9206484D02*
X8816729Y-9006484D01*
X8816729Y-9006484D02*
X8883396Y-9149341D01*
X8883396Y-9149341D02*
X8950063Y-9006484D01*
X8950063Y-9006484D02*
X8950063Y-9206484D01*
X9131015Y-9206484D02*
X9131015Y-9101722D01*
X9131015Y-9101722D02*
X9121491Y-9082674D01*
X9121491Y-9082674D02*
X9102444Y-9073150D01*
X9102444Y-9073150D02*
X9064348Y-9073150D01*
X9064348Y-9073150D02*
X9045301Y-9082674D01*
X9131015Y-9196960D02*
X9111967Y-9206484D01*
X9111967Y-9206484D02*
X9064348Y-9206484D01*
X9064348Y-9206484D02*
X9045301Y-9196960D01*
X9045301Y-9196960D02*
X9035777Y-9177912D01*
X9035777Y-9177912D02*
X9035777Y-9158865D01*
X9035777Y-9158865D02*
X9045301Y-9139817D01*
X9045301Y-9139817D02*
X9064348Y-9130293D01*
X9064348Y-9130293D02*
X9111967Y-9130293D01*
X9111967Y-9130293D02*
X9131015Y-9120770D01*
X9226253Y-9073150D02*
X9226253Y-9273150D01*
X9226253Y-9082674D02*
X9245301Y-9073150D01*
X9245301Y-9073150D02*
X9283396Y-9073150D01*
X9283396Y-9073150D02*
X9302444Y-9082674D01*
X9302444Y-9082674D02*
X9311967Y-9092198D01*
X9311967Y-9092198D02*
X9321491Y-9111246D01*
X9321491Y-9111246D02*
X9321491Y-9168389D01*
X9321491Y-9168389D02*
X9311967Y-9187436D01*
X9311967Y-9187436D02*
X9302444Y-9196960D01*
X9302444Y-9196960D02*
X9283396Y-9206484D01*
X9283396Y-9206484D02*
X9245301Y-9206484D01*
X9245301Y-9206484D02*
X9226253Y-9196960D01*
X9407205Y-9187436D02*
X9416729Y-9196960D01*
X9416729Y-9196960D02*
X9407205Y-9206484D01*
X9407205Y-9206484D02*
X9397682Y-9196960D01*
X9397682Y-9196960D02*
X9407205Y-9187436D01*
X9407205Y-9187436D02*
X9407205Y-9206484D01*
X9407205Y-9082674D02*
X9416729Y-9092198D01*
X9416729Y-9092198D02*
X9407205Y-9101722D01*
X9407205Y-9101722D02*
X9397682Y-9092198D01*
X9397682Y-9092198D02*
X9407205Y-9082674D01*
X9407205Y-9082674D02*
X9407205Y-9101722D01*
D10*
X7735000Y-9515000D02*
X7775000Y-9555000D01*
X7775000Y-9515000D02*
X7735000Y-9555000D01*
D11*
X8073872Y-9426484D02*
X8092920Y-9426484D01*
X8092920Y-9426484D02*
X8111967Y-9436008D01*
X8111967Y-9436008D02*
X8121491Y-9445531D01*
X8121491Y-9445531D02*
X8131015Y-9464579D01*
X8131015Y-9464579D02*
X8140539Y-9502674D01*
X8140539Y-9502674D02*
X8140539Y-9550293D01*
X8140539Y-9550293D02*
X8131015Y-9588389D01*
X8131015Y-9588389D02*
X8121491Y-9607436D01*
X8121491Y-9607436D02*
X8111967Y-9616960D01*
X8111967Y-9616960D02*
X8092920Y-9626484D01*
X8092920Y-9626484D02*
X8073872Y-9626484D01*
X8073872Y-9626484D02*
X8054824Y-9616960D01*
X8054824Y-9616960D02*
X8045301Y-9607436D01*
X8045301Y-9607436D02*
X8035777Y-9588389D01*
X8035777Y-9588389D02*
X8026253Y-9550293D01*
X8026253Y-9550293D02*
X8026253Y-9502674D01*
X8026253Y-9502674D02*
X8035777Y-9464579D01*
X8035777Y-9464579D02*
X8045301Y-9445531D01*
X8045301Y-9445531D02*
X8054824Y-9436008D01*
X8054824Y-9436008D02*
X8073872Y-9426484D01*
X8226253Y-9607436D02*
X8235777Y-9616960D01*
X8235777Y-9616960D02*
X8226253Y-9626484D01*
X8226253Y-9626484D02*
X8216729Y-9616960D01*
X8216729Y-9616960D02*
X8226253Y-9607436D01*
X8226253Y-9607436D02*
X8226253Y-9626484D01*
X8407205Y-9493150D02*
X8407205Y-9626484D01*
X8359586Y-9416960D02*
X8311967Y-9559817D01*
X8311967Y-9559817D02*
X8435777Y-9559817D01*
X8550063Y-9426484D02*
X8569110Y-9426484D01*
X8569110Y-9426484D02*
X8588158Y-9436008D01*
X8588158Y-9436008D02*
X8597682Y-9445531D01*
X8597682Y-9445531D02*
X8607205Y-9464579D01*
X8607205Y-9464579D02*
X8616729Y-9502674D01*
X8616729Y-9502674D02*
X8616729Y-9550293D01*
X8616729Y-9550293D02*
X8607205Y-9588389D01*
X8607205Y-9588389D02*
X8597682Y-9607436D01*
X8597682Y-9607436D02*
X8588158Y-9616960D01*
X8588158Y-9616960D02*
X8569110Y-9626484D01*
X8569110Y-9626484D02*
X8550063Y-9626484D01*
X8550063Y-9626484D02*
X8531015Y-9616960D01*
X8531015Y-9616960D02*
X8521491Y-9607436D01*
X8521491Y-9607436D02*
X8511967Y-9588389D01*
X8511967Y-9588389D02*
X8502444Y-9550293D01*
X8502444Y-9550293D02*
X8502444Y-9502674D01*
X8502444Y-9502674D02*
X8511967Y-9464579D01*
X8511967Y-9464579D02*
X8521491Y-9445531D01*
X8521491Y-9445531D02*
X8531015Y-9436008D01*
X8531015Y-9436008D02*
X8550063Y-9426484D01*
X8740539Y-9426484D02*
X8759586Y-9426484D01*
X8759586Y-9426484D02*
X8778634Y-9436008D01*
X8778634Y-9436008D02*
X8788158Y-9445531D01*
X8788158Y-9445531D02*
X8797682Y-9464579D01*
X8797682Y-9464579D02*
X8807205Y-9502674D01*
X8807205Y-9502674D02*
X8807205Y-9550293D01*
X8807205Y-9550293D02*
X8797682Y-9588389D01*
X8797682Y-9588389D02*
X8788158Y-9607436D01*
X8788158Y-9607436D02*
X8778634Y-9616960D01*
X8778634Y-9616960D02*
X8759586Y-9626484D01*
X8759586Y-9626484D02*
X8740539Y-9626484D01*
X8740539Y-9626484D02*
X8721491Y-9616960D01*
X8721491Y-9616960D02*
X8711967Y-9607436D01*
X8711967Y-9607436D02*
X8702444Y-9588389D01*
X8702444Y-9588389D02*
X8692920Y-9550293D01*
X8692920Y-9550293D02*
X8692920Y-9502674D01*
X8692920Y-9502674D02*
X8702444Y-9464579D01*
X8702444Y-9464579D02*
X8711967Y-9445531D01*
X8711967Y-9445531D02*
X8721491Y-9436008D01*
X8721491Y-9436008D02*
X8740539Y-9426484D01*
X8892920Y-9626484D02*
X8892920Y-9493150D01*
X8892920Y-9512198D02*
X8902444Y-9502674D01*
X8902444Y-9502674D02*
X8921491Y-9493150D01*
X8921491Y-9493150D02*
X8950063Y-9493150D01*
X8950063Y-9493150D02*
X8969110Y-9502674D01*
X8969110Y-9502674D02*
X8978634Y-9521722D01*
X8978634Y-9521722D02*
X8978634Y-9626484D01*
X8978634Y-9521722D02*
X8988158Y-9502674D01*
X8988158Y-9502674D02*
X9007205Y-9493150D01*
X9007205Y-9493150D02*
X9035777Y-9493150D01*
X9035777Y-9493150D02*
X9054825Y-9502674D01*
X9054825Y-9502674D02*
X9064348Y-9521722D01*
X9064348Y-9521722D02*
X9064348Y-9626484D01*
X9159586Y-9626484D02*
X9159586Y-9493150D01*
X9159586Y-9512198D02*
X9169110Y-9502674D01*
X9169110Y-9502674D02*
X9188158Y-9493150D01*
X9188158Y-9493150D02*
X9216729Y-9493150D01*
X9216729Y-9493150D02*
X9235777Y-9502674D01*
X9235777Y-9502674D02*
X9245301Y-9521722D01*
X9245301Y-9521722D02*
X9245301Y-9626484D01*
X9245301Y-9521722D02*
X9254825Y-9502674D01*
X9254825Y-9502674D02*
X9273872Y-9493150D01*
X9273872Y-9493150D02*
X9302444Y-9493150D01*
X9302444Y-9493150D02*
X9321491Y-9502674D01*
X9321491Y-9502674D02*
X9331015Y-9521722D01*
X9331015Y-9521722D02*
X9331015Y-9626484D01*
X9721491Y-9416960D02*
X9550063Y-9674103D01*
X9978634Y-9426484D02*
X9997682Y-9426484D01*
X9997682Y-9426484D02*
X10016729Y-9436008D01*
X10016729Y-9436008D02*
X10026253Y-9445531D01*
X10026253Y-9445531D02*
X10035777Y-9464579D01*
X10035777Y-9464579D02*
X10045301Y-9502674D01*
X10045301Y-9502674D02*
X10045301Y-9550293D01*
X10045301Y-9550293D02*
X10035777Y-9588389D01*
X10035777Y-9588389D02*
X10026253Y-9607436D01*
X10026253Y-9607436D02*
X10016729Y-9616960D01*
X10016729Y-9616960D02*
X9997682Y-9626484D01*
X9997682Y-9626484D02*
X9978634Y-9626484D01*
X9978634Y-9626484D02*
X9959587Y-9616960D01*
X9959587Y-9616960D02*
X9950063Y-9607436D01*
X9950063Y-9607436D02*
X9940539Y-9588389D01*
X9940539Y-9588389D02*
X9931015Y-9550293D01*
X9931015Y-9550293D02*
X9931015Y-9502674D01*
X9931015Y-9502674D02*
X9940539Y-9464579D01*
X9940539Y-9464579D02*
X9950063Y-9445531D01*
X9950063Y-9445531D02*
X9959587Y-9436008D01*
X9959587Y-9436008D02*
X9978634Y-9426484D01*
X10131015Y-9607436D02*
X10140539Y-9616960D01*
X10140539Y-9616960D02*
X10131015Y-9626484D01*
X10131015Y-9626484D02*
X10121491Y-9616960D01*
X10121491Y-9616960D02*
X10131015Y-9607436D01*
X10131015Y-9607436D02*
X10131015Y-9626484D01*
X10264348Y-9426484D02*
X10283396Y-9426484D01*
X10283396Y-9426484D02*
X10302444Y-9436008D01*
X10302444Y-9436008D02*
X10311968Y-9445531D01*
X10311968Y-9445531D02*
X10321491Y-9464579D01*
X10321491Y-9464579D02*
X10331015Y-9502674D01*
X10331015Y-9502674D02*
X10331015Y-9550293D01*
X10331015Y-9550293D02*
X10321491Y-9588389D01*
X10321491Y-9588389D02*
X10311968Y-9607436D01*
X10311968Y-9607436D02*
X10302444Y-9616960D01*
X10302444Y-9616960D02*
X10283396Y-9626484D01*
X10283396Y-9626484D02*
X10264348Y-9626484D01*
X10264348Y-9626484D02*
X10245301Y-9616960D01*
X10245301Y-9616960D02*
X10235777Y-9607436D01*
X10235777Y-9607436D02*
X10226253Y-9588389D01*
X10226253Y-9588389D02*
X10216729Y-9550293D01*
X10216729Y-9550293D02*
X10216729Y-9502674D01*
X10216729Y-9502674D02*
X10226253Y-9464579D01*
X10226253Y-9464579D02*
X10235777Y-9445531D01*
X10235777Y-9445531D02*
X10245301Y-9436008D01*
X10245301Y-9436008D02*
X10264348Y-9426484D01*
X10521491Y-9626484D02*
X10407206Y-9626484D01*
X10464348Y-9626484D02*
X10464348Y-9426484D01*
X10464348Y-9426484D02*
X10445301Y-9455055D01*
X10445301Y-9455055D02*
X10426253Y-9474103D01*
X10426253Y-9474103D02*
X10407206Y-9483627D01*
X10702444Y-9426484D02*
X10607206Y-9426484D01*
X10607206Y-9426484D02*
X10597682Y-9521722D01*
X10597682Y-9521722D02*
X10607206Y-9512198D01*
X10607206Y-9512198D02*
X10626253Y-9502674D01*
X10626253Y-9502674D02*
X10673872Y-9502674D01*
X10673872Y-9502674D02*
X10692920Y-9512198D01*
X10692920Y-9512198D02*
X10702444Y-9521722D01*
X10702444Y-9521722D02*
X10711968Y-9540770D01*
X10711968Y-9540770D02*
X10711968Y-9588389D01*
X10711968Y-9588389D02*
X10702444Y-9607436D01*
X10702444Y-9607436D02*
X10692920Y-9616960D01*
X10692920Y-9616960D02*
X10673872Y-9626484D01*
X10673872Y-9626484D02*
X10626253Y-9626484D01*
X10626253Y-9626484D02*
X10607206Y-9616960D01*
X10607206Y-9616960D02*
X10597682Y-9607436D01*
X10778634Y-9426484D02*
X10911968Y-9426484D01*
X10911968Y-9426484D02*
X10826253Y-9626484D01*
X10978634Y-9426484D02*
X10978634Y-9464579D01*
X11054825Y-9426484D02*
X11054825Y-9464579D01*
X11350063Y-9702674D02*
X11340539Y-9693150D01*
X11340539Y-9693150D02*
X11321491Y-9664579D01*
X11321491Y-9664579D02*
X11311968Y-9645531D01*
X11311968Y-9645531D02*
X11302444Y-9616960D01*
X11302444Y-9616960D02*
X11292920Y-9569341D01*
X11292920Y-9569341D02*
X11292920Y-9531246D01*
X11292920Y-9531246D02*
X11302444Y-9483627D01*
X11302444Y-9483627D02*
X11311968Y-9455055D01*
X11311968Y-9455055D02*
X11321491Y-9436008D01*
X11321491Y-9436008D02*
X11340539Y-9407436D01*
X11340539Y-9407436D02*
X11350063Y-9397912D01*
X11521491Y-9426484D02*
X11426253Y-9426484D01*
X11426253Y-9426484D02*
X11416729Y-9521722D01*
X11416729Y-9521722D02*
X11426253Y-9512198D01*
X11426253Y-9512198D02*
X11445301Y-9502674D01*
X11445301Y-9502674D02*
X11492920Y-9502674D01*
X11492920Y-9502674D02*
X11511968Y-9512198D01*
X11511968Y-9512198D02*
X11521491Y-9521722D01*
X11521491Y-9521722D02*
X11531015Y-9540770D01*
X11531015Y-9540770D02*
X11531015Y-9588389D01*
X11531015Y-9588389D02*
X11521491Y-9607436D01*
X11521491Y-9607436D02*
X11511968Y-9616960D01*
X11511968Y-9616960D02*
X11492920Y-9626484D01*
X11492920Y-9626484D02*
X11445301Y-9626484D01*
X11445301Y-9626484D02*
X11426253Y-9616960D01*
X11426253Y-9616960D02*
X11416729Y-9607436D01*
X11626253Y-9626484D02*
X11664348Y-9626484D01*
X11664348Y-9626484D02*
X11683396Y-9616960D01*
X11683396Y-9616960D02*
X11692920Y-9607436D01*
X11692920Y-9607436D02*
X11711968Y-9578865D01*
X11711968Y-9578865D02*
X11721491Y-9540770D01*
X11721491Y-9540770D02*
X11721491Y-9464579D01*
X11721491Y-9464579D02*
X11711968Y-9445531D01*
X11711968Y-9445531D02*
X11702444Y-9436008D01*
X11702444Y-9436008D02*
X11683396Y-9426484D01*
X11683396Y-9426484D02*
X11645301Y-9426484D01*
X11645301Y-9426484D02*
X11626253Y-9436008D01*
X11626253Y-9436008D02*
X11616729Y-9445531D01*
X11616729Y-9445531D02*
X11607206Y-9464579D01*
X11607206Y-9464579D02*
X11607206Y-9512198D01*
X11607206Y-9512198D02*
X11616729Y-9531246D01*
X11616729Y-9531246D02*
X11626253Y-9540770D01*
X11626253Y-9540770D02*
X11645301Y-9550293D01*
X11645301Y-9550293D02*
X11683396Y-9550293D01*
X11683396Y-9550293D02*
X11702444Y-9540770D01*
X11702444Y-9540770D02*
X11711968Y-9531246D01*
X11711968Y-9531246D02*
X11721491Y-9512198D01*
X11959587Y-9626484D02*
X11959587Y-9426484D01*
X12045301Y-9626484D02*
X12045301Y-9521722D01*
X12045301Y-9521722D02*
X12035777Y-9502674D01*
X12035777Y-9502674D02*
X12016730Y-9493150D01*
X12016730Y-9493150D02*
X11988158Y-9493150D01*
X11988158Y-9493150D02*
X11969110Y-9502674D01*
X11969110Y-9502674D02*
X11959587Y-9512198D01*
X12169110Y-9626484D02*
X12150063Y-9616960D01*
X12150063Y-9616960D02*
X12140539Y-9607436D01*
X12140539Y-9607436D02*
X12131015Y-9588389D01*
X12131015Y-9588389D02*
X12131015Y-9531246D01*
X12131015Y-9531246D02*
X12140539Y-9512198D01*
X12140539Y-9512198D02*
X12150063Y-9502674D01*
X12150063Y-9502674D02*
X12169110Y-9493150D01*
X12169110Y-9493150D02*
X12197682Y-9493150D01*
X12197682Y-9493150D02*
X12216730Y-9502674D01*
X12216730Y-9502674D02*
X12226253Y-9512198D01*
X12226253Y-9512198D02*
X12235777Y-9531246D01*
X12235777Y-9531246D02*
X12235777Y-9588389D01*
X12235777Y-9588389D02*
X12226253Y-9607436D01*
X12226253Y-9607436D02*
X12216730Y-9616960D01*
X12216730Y-9616960D02*
X12197682Y-9626484D01*
X12197682Y-9626484D02*
X12169110Y-9626484D01*
X12350063Y-9626484D02*
X12331015Y-9616960D01*
X12331015Y-9616960D02*
X12321491Y-9597912D01*
X12321491Y-9597912D02*
X12321491Y-9426484D01*
X12502444Y-9616960D02*
X12483396Y-9626484D01*
X12483396Y-9626484D02*
X12445301Y-9626484D01*
X12445301Y-9626484D02*
X12426253Y-9616960D01*
X12426253Y-9616960D02*
X12416730Y-9597912D01*
X12416730Y-9597912D02*
X12416730Y-9521722D01*
X12416730Y-9521722D02*
X12426253Y-9502674D01*
X12426253Y-9502674D02*
X12445301Y-9493150D01*
X12445301Y-9493150D02*
X12483396Y-9493150D01*
X12483396Y-9493150D02*
X12502444Y-9502674D01*
X12502444Y-9502674D02*
X12511968Y-9521722D01*
X12511968Y-9521722D02*
X12511968Y-9540770D01*
X12511968Y-9540770D02*
X12416730Y-9559817D01*
X12588158Y-9616960D02*
X12607206Y-9626484D01*
X12607206Y-9626484D02*
X12645301Y-9626484D01*
X12645301Y-9626484D02*
X12664349Y-9616960D01*
X12664349Y-9616960D02*
X12673872Y-9597912D01*
X12673872Y-9597912D02*
X12673872Y-9588389D01*
X12673872Y-9588389D02*
X12664349Y-9569341D01*
X12664349Y-9569341D02*
X12645301Y-9559817D01*
X12645301Y-9559817D02*
X12616730Y-9559817D01*
X12616730Y-9559817D02*
X12597682Y-9550293D01*
X12597682Y-9550293D02*
X12588158Y-9531246D01*
X12588158Y-9531246D02*
X12588158Y-9521722D01*
X12588158Y-9521722D02*
X12597682Y-9502674D01*
X12597682Y-9502674D02*
X12616730Y-9493150D01*
X12616730Y-9493150D02*
X12645301Y-9493150D01*
X12645301Y-9493150D02*
X12664349Y-9502674D01*
X12740539Y-9702674D02*
X12750063Y-9693150D01*
X12750063Y-9693150D02*
X12769111Y-9664579D01*
X12769111Y-9664579D02*
X12778634Y-9645531D01*
X12778634Y-9645531D02*
X12788158Y-9616960D01*
X12788158Y-9616960D02*
X12797682Y-9569341D01*
X12797682Y-9569341D02*
X12797682Y-9531246D01*
X12797682Y-9531246D02*
X12788158Y-9483627D01*
X12788158Y-9483627D02*
X12778634Y-9455055D01*
X12778634Y-9455055D02*
X12769111Y-9436008D01*
X12769111Y-9436008D02*
X12750063Y-9407436D01*
X12750063Y-9407436D02*
X12740539Y-9397912D01*
D10*
X7775000Y-9799000D02*
G75*
G02*
X7725000Y-9799000I-25000J0D01*
G01*
X7725000Y-9799000D02*
G75*
G02*
X7775000Y-9799000I25000J0D01*
G01*
D11*
X8073872Y-9690484D02*
X8092920Y-9690484D01*
X8092920Y-9690484D02*
X8111967Y-9700008D01*
X8111967Y-9700008D02*
X8121491Y-9709531D01*
X8121491Y-9709531D02*
X8131015Y-9728579D01*
X8131015Y-9728579D02*
X8140539Y-9766674D01*
X8140539Y-9766674D02*
X8140539Y-9814293D01*
X8140539Y-9814293D02*
X8131015Y-9852389D01*
X8131015Y-9852389D02*
X8121491Y-9871436D01*
X8121491Y-9871436D02*
X8111967Y-9880960D01*
X8111967Y-9880960D02*
X8092920Y-9890484D01*
X8092920Y-9890484D02*
X8073872Y-9890484D01*
X8073872Y-9890484D02*
X8054824Y-9880960D01*
X8054824Y-9880960D02*
X8045301Y-9871436D01*
X8045301Y-9871436D02*
X8035777Y-9852389D01*
X8035777Y-9852389D02*
X8026253Y-9814293D01*
X8026253Y-9814293D02*
X8026253Y-9766674D01*
X8026253Y-9766674D02*
X8035777Y-9728579D01*
X8035777Y-9728579D02*
X8045301Y-9709531D01*
X8045301Y-9709531D02*
X8054824Y-9700008D01*
X8054824Y-9700008D02*
X8073872Y-9690484D01*
X8226253Y-9871436D02*
X8235777Y-9880960D01*
X8235777Y-9880960D02*
X8226253Y-9890484D01*
X8226253Y-9890484D02*
X8216729Y-9880960D01*
X8216729Y-9880960D02*
X8226253Y-9871436D01*
X8226253Y-9871436D02*
X8226253Y-9890484D01*
X8416729Y-9690484D02*
X8321491Y-9690484D01*
X8321491Y-9690484D02*
X8311967Y-9785722D01*
X8311967Y-9785722D02*
X8321491Y-9776198D01*
X8321491Y-9776198D02*
X8340539Y-9766674D01*
X8340539Y-9766674D02*
X8388158Y-9766674D01*
X8388158Y-9766674D02*
X8407205Y-9776198D01*
X8407205Y-9776198D02*
X8416729Y-9785722D01*
X8416729Y-9785722D02*
X8426253Y-9804770D01*
X8426253Y-9804770D02*
X8426253Y-9852389D01*
X8426253Y-9852389D02*
X8416729Y-9871436D01*
X8416729Y-9871436D02*
X8407205Y-9880960D01*
X8407205Y-9880960D02*
X8388158Y-9890484D01*
X8388158Y-9890484D02*
X8340539Y-9890484D01*
X8340539Y-9890484D02*
X8321491Y-9880960D01*
X8321491Y-9880960D02*
X8311967Y-9871436D01*
X8550063Y-9690484D02*
X8569110Y-9690484D01*
X8569110Y-9690484D02*
X8588158Y-9700008D01*
X8588158Y-9700008D02*
X8597682Y-9709531D01*
X8597682Y-9709531D02*
X8607205Y-9728579D01*
X8607205Y-9728579D02*
X8616729Y-9766674D01*
X8616729Y-9766674D02*
X8616729Y-9814293D01*
X8616729Y-9814293D02*
X8607205Y-9852389D01*
X8607205Y-9852389D02*
X8597682Y-9871436D01*
X8597682Y-9871436D02*
X8588158Y-9880960D01*
X8588158Y-9880960D02*
X8569110Y-9890484D01*
X8569110Y-9890484D02*
X8550063Y-9890484D01*
X8550063Y-9890484D02*
X8531015Y-9880960D01*
X8531015Y-9880960D02*
X8521491Y-9871436D01*
X8521491Y-9871436D02*
X8511967Y-9852389D01*
X8511967Y-9852389D02*
X8502444Y-9814293D01*
X8502444Y-9814293D02*
X8502444Y-9766674D01*
X8502444Y-9766674D02*
X8511967Y-9728579D01*
X8511967Y-9728579D02*
X8521491Y-9709531D01*
X8521491Y-9709531D02*
X8531015Y-9700008D01*
X8531015Y-9700008D02*
X8550063Y-9690484D01*
X8740539Y-9690484D02*
X8759586Y-9690484D01*
X8759586Y-9690484D02*
X8778634Y-9700008D01*
X8778634Y-9700008D02*
X8788158Y-9709531D01*
X8788158Y-9709531D02*
X8797682Y-9728579D01*
X8797682Y-9728579D02*
X8807205Y-9766674D01*
X8807205Y-9766674D02*
X8807205Y-9814293D01*
X8807205Y-9814293D02*
X8797682Y-9852389D01*
X8797682Y-9852389D02*
X8788158Y-9871436D01*
X8788158Y-9871436D02*
X8778634Y-9880960D01*
X8778634Y-9880960D02*
X8759586Y-9890484D01*
X8759586Y-9890484D02*
X8740539Y-9890484D01*
X8740539Y-9890484D02*
X8721491Y-9880960D01*
X8721491Y-9880960D02*
X8711967Y-9871436D01*
X8711967Y-9871436D02*
X8702444Y-9852389D01*
X8702444Y-9852389D02*
X8692920Y-9814293D01*
X8692920Y-9814293D02*
X8692920Y-9766674D01*
X8692920Y-9766674D02*
X8702444Y-9728579D01*
X8702444Y-9728579D02*
X8711967Y-9709531D01*
X8711967Y-9709531D02*
X8721491Y-9700008D01*
X8721491Y-9700008D02*
X8740539Y-9690484D01*
X8892920Y-9890484D02*
X8892920Y-9757150D01*
X8892920Y-9776198D02*
X8902444Y-9766674D01*
X8902444Y-9766674D02*
X8921491Y-9757150D01*
X8921491Y-9757150D02*
X8950063Y-9757150D01*
X8950063Y-9757150D02*
X8969110Y-9766674D01*
X8969110Y-9766674D02*
X8978634Y-9785722D01*
X8978634Y-9785722D02*
X8978634Y-9890484D01*
X8978634Y-9785722D02*
X8988158Y-9766674D01*
X8988158Y-9766674D02*
X9007205Y-9757150D01*
X9007205Y-9757150D02*
X9035777Y-9757150D01*
X9035777Y-9757150D02*
X9054825Y-9766674D01*
X9054825Y-9766674D02*
X9064348Y-9785722D01*
X9064348Y-9785722D02*
X9064348Y-9890484D01*
X9159586Y-9890484D02*
X9159586Y-9757150D01*
X9159586Y-9776198D02*
X9169110Y-9766674D01*
X9169110Y-9766674D02*
X9188158Y-9757150D01*
X9188158Y-9757150D02*
X9216729Y-9757150D01*
X9216729Y-9757150D02*
X9235777Y-9766674D01*
X9235777Y-9766674D02*
X9245301Y-9785722D01*
X9245301Y-9785722D02*
X9245301Y-9890484D01*
X9245301Y-9785722D02*
X9254825Y-9766674D01*
X9254825Y-9766674D02*
X9273872Y-9757150D01*
X9273872Y-9757150D02*
X9302444Y-9757150D01*
X9302444Y-9757150D02*
X9321491Y-9766674D01*
X9321491Y-9766674D02*
X9331015Y-9785722D01*
X9331015Y-9785722D02*
X9331015Y-9890484D01*
X9721491Y-9680960D02*
X9550063Y-9938103D01*
X9978634Y-9690484D02*
X9997682Y-9690484D01*
X9997682Y-9690484D02*
X10016729Y-9700008D01*
X10016729Y-9700008D02*
X10026253Y-9709531D01*
X10026253Y-9709531D02*
X10035777Y-9728579D01*
X10035777Y-9728579D02*
X10045301Y-9766674D01*
X10045301Y-9766674D02*
X10045301Y-9814293D01*
X10045301Y-9814293D02*
X10035777Y-9852389D01*
X10035777Y-9852389D02*
X10026253Y-9871436D01*
X10026253Y-9871436D02*
X10016729Y-9880960D01*
X10016729Y-9880960D02*
X9997682Y-9890484D01*
X9997682Y-9890484D02*
X9978634Y-9890484D01*
X9978634Y-9890484D02*
X9959587Y-9880960D01*
X9959587Y-9880960D02*
X9950063Y-9871436D01*
X9950063Y-9871436D02*
X9940539Y-9852389D01*
X9940539Y-9852389D02*
X9931015Y-9814293D01*
X9931015Y-9814293D02*
X9931015Y-9766674D01*
X9931015Y-9766674D02*
X9940539Y-9728579D01*
X9940539Y-9728579D02*
X9950063Y-9709531D01*
X9950063Y-9709531D02*
X9959587Y-9700008D01*
X9959587Y-9700008D02*
X9978634Y-9690484D01*
X10131015Y-9871436D02*
X10140539Y-9880960D01*
X10140539Y-9880960D02*
X10131015Y-9890484D01*
X10131015Y-9890484D02*
X10121491Y-9880960D01*
X10121491Y-9880960D02*
X10131015Y-9871436D01*
X10131015Y-9871436D02*
X10131015Y-9890484D01*
X10264348Y-9690484D02*
X10283396Y-9690484D01*
X10283396Y-9690484D02*
X10302444Y-9700008D01*
X10302444Y-9700008D02*
X10311968Y-9709531D01*
X10311968Y-9709531D02*
X10321491Y-9728579D01*
X10321491Y-9728579D02*
X10331015Y-9766674D01*
X10331015Y-9766674D02*
X10331015Y-9814293D01*
X10331015Y-9814293D02*
X10321491Y-9852389D01*
X10321491Y-9852389D02*
X10311968Y-9871436D01*
X10311968Y-9871436D02*
X10302444Y-9880960D01*
X10302444Y-9880960D02*
X10283396Y-9890484D01*
X10283396Y-9890484D02*
X10264348Y-9890484D01*
X10264348Y-9890484D02*
X10245301Y-9880960D01*
X10245301Y-9880960D02*
X10235777Y-9871436D01*
X10235777Y-9871436D02*
X10226253Y-9852389D01*
X10226253Y-9852389D02*
X10216729Y-9814293D01*
X10216729Y-9814293D02*
X10216729Y-9766674D01*
X10216729Y-9766674D02*
X10226253Y-9728579D01*
X10226253Y-9728579D02*
X10235777Y-9709531D01*
X10235777Y-9709531D02*
X10245301Y-9700008D01*
X10245301Y-9700008D02*
X10264348Y-9690484D01*
X10521491Y-9890484D02*
X10407206Y-9890484D01*
X10464348Y-9890484D02*
X10464348Y-9690484D01*
X10464348Y-9690484D02*
X10445301Y-9719055D01*
X10445301Y-9719055D02*
X10426253Y-9738103D01*
X10426253Y-9738103D02*
X10407206Y-9747627D01*
X10616729Y-9890484D02*
X10654825Y-9890484D01*
X10654825Y-9890484D02*
X10673872Y-9880960D01*
X10673872Y-9880960D02*
X10683396Y-9871436D01*
X10683396Y-9871436D02*
X10702444Y-9842865D01*
X10702444Y-9842865D02*
X10711968Y-9804770D01*
X10711968Y-9804770D02*
X10711968Y-9728579D01*
X10711968Y-9728579D02*
X10702444Y-9709531D01*
X10702444Y-9709531D02*
X10692920Y-9700008D01*
X10692920Y-9700008D02*
X10673872Y-9690484D01*
X10673872Y-9690484D02*
X10635777Y-9690484D01*
X10635777Y-9690484D02*
X10616729Y-9700008D01*
X10616729Y-9700008D02*
X10607206Y-9709531D01*
X10607206Y-9709531D02*
X10597682Y-9728579D01*
X10597682Y-9728579D02*
X10597682Y-9776198D01*
X10597682Y-9776198D02*
X10607206Y-9795246D01*
X10607206Y-9795246D02*
X10616729Y-9804770D01*
X10616729Y-9804770D02*
X10635777Y-9814293D01*
X10635777Y-9814293D02*
X10673872Y-9814293D01*
X10673872Y-9814293D02*
X10692920Y-9804770D01*
X10692920Y-9804770D02*
X10702444Y-9795246D01*
X10702444Y-9795246D02*
X10711968Y-9776198D01*
X10778634Y-9690484D02*
X10911968Y-9690484D01*
X10911968Y-9690484D02*
X10826253Y-9890484D01*
X10978634Y-9690484D02*
X10978634Y-9728579D01*
X11054825Y-9690484D02*
X11054825Y-9728579D01*
X11350063Y-9966674D02*
X11340539Y-9957150D01*
X11340539Y-9957150D02*
X11321491Y-9928579D01*
X11321491Y-9928579D02*
X11311968Y-9909531D01*
X11311968Y-9909531D02*
X11302444Y-9880960D01*
X11302444Y-9880960D02*
X11292920Y-9833341D01*
X11292920Y-9833341D02*
X11292920Y-9795246D01*
X11292920Y-9795246D02*
X11302444Y-9747627D01*
X11302444Y-9747627D02*
X11311968Y-9719055D01*
X11311968Y-9719055D02*
X11321491Y-9700008D01*
X11321491Y-9700008D02*
X11340539Y-9671436D01*
X11340539Y-9671436D02*
X11350063Y-9661912D01*
X11407206Y-9690484D02*
X11531015Y-9690484D01*
X11531015Y-9690484D02*
X11464348Y-9766674D01*
X11464348Y-9766674D02*
X11492920Y-9766674D01*
X11492920Y-9766674D02*
X11511968Y-9776198D01*
X11511968Y-9776198D02*
X11521491Y-9785722D01*
X11521491Y-9785722D02*
X11531015Y-9804770D01*
X11531015Y-9804770D02*
X11531015Y-9852389D01*
X11531015Y-9852389D02*
X11521491Y-9871436D01*
X11521491Y-9871436D02*
X11511968Y-9880960D01*
X11511968Y-9880960D02*
X11492920Y-9890484D01*
X11492920Y-9890484D02*
X11435777Y-9890484D01*
X11435777Y-9890484D02*
X11416729Y-9880960D01*
X11416729Y-9880960D02*
X11407206Y-9871436D01*
X11721491Y-9890484D02*
X11607206Y-9890484D01*
X11664348Y-9890484D02*
X11664348Y-9690484D01*
X11664348Y-9690484D02*
X11645301Y-9719055D01*
X11645301Y-9719055D02*
X11626253Y-9738103D01*
X11626253Y-9738103D02*
X11607206Y-9747627D01*
X11959587Y-9890484D02*
X11959587Y-9690484D01*
X12045301Y-9890484D02*
X12045301Y-9785722D01*
X12045301Y-9785722D02*
X12035777Y-9766674D01*
X12035777Y-9766674D02*
X12016730Y-9757150D01*
X12016730Y-9757150D02*
X11988158Y-9757150D01*
X11988158Y-9757150D02*
X11969110Y-9766674D01*
X11969110Y-9766674D02*
X11959587Y-9776198D01*
X12169110Y-9890484D02*
X12150063Y-9880960D01*
X12150063Y-9880960D02*
X12140539Y-9871436D01*
X12140539Y-9871436D02*
X12131015Y-9852389D01*
X12131015Y-9852389D02*
X12131015Y-9795246D01*
X12131015Y-9795246D02*
X12140539Y-9776198D01*
X12140539Y-9776198D02*
X12150063Y-9766674D01*
X12150063Y-9766674D02*
X12169110Y-9757150D01*
X12169110Y-9757150D02*
X12197682Y-9757150D01*
X12197682Y-9757150D02*
X12216730Y-9766674D01*
X12216730Y-9766674D02*
X12226253Y-9776198D01*
X12226253Y-9776198D02*
X12235777Y-9795246D01*
X12235777Y-9795246D02*
X12235777Y-9852389D01*
X12235777Y-9852389D02*
X12226253Y-9871436D01*
X12226253Y-9871436D02*
X12216730Y-9880960D01*
X12216730Y-9880960D02*
X12197682Y-9890484D01*
X12197682Y-9890484D02*
X12169110Y-9890484D01*
X12350063Y-9890484D02*
X12331015Y-9880960D01*
X12331015Y-9880960D02*
X12321491Y-9861912D01*
X12321491Y-9861912D02*
X12321491Y-9690484D01*
X12502444Y-9880960D02*
X12483396Y-9890484D01*
X12483396Y-9890484D02*
X12445301Y-9890484D01*
X12445301Y-9890484D02*
X12426253Y-9880960D01*
X12426253Y-9880960D02*
X12416730Y-9861912D01*
X12416730Y-9861912D02*
X12416730Y-9785722D01*
X12416730Y-9785722D02*
X12426253Y-9766674D01*
X12426253Y-9766674D02*
X12445301Y-9757150D01*
X12445301Y-9757150D02*
X12483396Y-9757150D01*
X12483396Y-9757150D02*
X12502444Y-9766674D01*
X12502444Y-9766674D02*
X12511968Y-9785722D01*
X12511968Y-9785722D02*
X12511968Y-9804770D01*
X12511968Y-9804770D02*
X12416730Y-9823817D01*
X12588158Y-9880960D02*
X12607206Y-9890484D01*
X12607206Y-9890484D02*
X12645301Y-9890484D01*
X12645301Y-9890484D02*
X12664349Y-9880960D01*
X12664349Y-9880960D02*
X12673872Y-9861912D01*
X12673872Y-9861912D02*
X12673872Y-9852389D01*
X12673872Y-9852389D02*
X12664349Y-9833341D01*
X12664349Y-9833341D02*
X12645301Y-9823817D01*
X12645301Y-9823817D02*
X12616730Y-9823817D01*
X12616730Y-9823817D02*
X12597682Y-9814293D01*
X12597682Y-9814293D02*
X12588158Y-9795246D01*
X12588158Y-9795246D02*
X12588158Y-9785722D01*
X12588158Y-9785722D02*
X12597682Y-9766674D01*
X12597682Y-9766674D02*
X12616730Y-9757150D01*
X12616730Y-9757150D02*
X12645301Y-9757150D01*
X12645301Y-9757150D02*
X12664349Y-9766674D01*
X12740539Y-9966674D02*
X12750063Y-9957150D01*
X12750063Y-9957150D02*
X12769111Y-9928579D01*
X12769111Y-9928579D02*
X12778634Y-9909531D01*
X12778634Y-9909531D02*
X12788158Y-9880960D01*
X12788158Y-9880960D02*
X12797682Y-9833341D01*
X12797682Y-9833341D02*
X12797682Y-9795246D01*
X12797682Y-9795246D02*
X12788158Y-9747627D01*
X12788158Y-9747627D02*
X12778634Y-9719055D01*
X12778634Y-9719055D02*
X12769111Y-9700008D01*
X12769111Y-9700008D02*
X12750063Y-9671436D01*
X12750063Y-9671436D02*
X12740539Y-9661912D01*
D10*
X7735000Y-10023000D02*
X7735000Y-10103000D01*
X7695000Y-10063000D02*
X7775000Y-10063000D01*
D11*
X8073872Y-9954484D02*
X8092920Y-9954484D01*
X8092920Y-9954484D02*
X8111967Y-9964008D01*
X8111967Y-9964008D02*
X8121491Y-9973531D01*
X8121491Y-9973531D02*
X8131015Y-9992579D01*
X8131015Y-9992579D02*
X8140539Y-10030674D01*
X8140539Y-10030674D02*
X8140539Y-10078293D01*
X8140539Y-10078293D02*
X8131015Y-10116389D01*
X8131015Y-10116389D02*
X8121491Y-10135436D01*
X8121491Y-10135436D02*
X8111967Y-10144960D01*
X8111967Y-10144960D02*
X8092920Y-10154484D01*
X8092920Y-10154484D02*
X8073872Y-10154484D01*
X8073872Y-10154484D02*
X8054824Y-10144960D01*
X8054824Y-10144960D02*
X8045301Y-10135436D01*
X8045301Y-10135436D02*
X8035777Y-10116389D01*
X8035777Y-10116389D02*
X8026253Y-10078293D01*
X8026253Y-10078293D02*
X8026253Y-10030674D01*
X8026253Y-10030674D02*
X8035777Y-9992579D01*
X8035777Y-9992579D02*
X8045301Y-9973531D01*
X8045301Y-9973531D02*
X8054824Y-9964008D01*
X8054824Y-9964008D02*
X8073872Y-9954484D01*
X8226253Y-10135436D02*
X8235777Y-10144960D01*
X8235777Y-10144960D02*
X8226253Y-10154484D01*
X8226253Y-10154484D02*
X8216729Y-10144960D01*
X8216729Y-10144960D02*
X8226253Y-10135436D01*
X8226253Y-10135436D02*
X8226253Y-10154484D01*
X8350062Y-10040198D02*
X8331015Y-10030674D01*
X8331015Y-10030674D02*
X8321491Y-10021150D01*
X8321491Y-10021150D02*
X8311967Y-10002103D01*
X8311967Y-10002103D02*
X8311967Y-9992579D01*
X8311967Y-9992579D02*
X8321491Y-9973531D01*
X8321491Y-9973531D02*
X8331015Y-9964008D01*
X8331015Y-9964008D02*
X8350062Y-9954484D01*
X8350062Y-9954484D02*
X8388158Y-9954484D01*
X8388158Y-9954484D02*
X8407205Y-9964008D01*
X8407205Y-9964008D02*
X8416729Y-9973531D01*
X8416729Y-9973531D02*
X8426253Y-9992579D01*
X8426253Y-9992579D02*
X8426253Y-10002103D01*
X8426253Y-10002103D02*
X8416729Y-10021150D01*
X8416729Y-10021150D02*
X8407205Y-10030674D01*
X8407205Y-10030674D02*
X8388158Y-10040198D01*
X8388158Y-10040198D02*
X8350062Y-10040198D01*
X8350062Y-10040198D02*
X8331015Y-10049722D01*
X8331015Y-10049722D02*
X8321491Y-10059246D01*
X8321491Y-10059246D02*
X8311967Y-10078293D01*
X8311967Y-10078293D02*
X8311967Y-10116389D01*
X8311967Y-10116389D02*
X8321491Y-10135436D01*
X8321491Y-10135436D02*
X8331015Y-10144960D01*
X8331015Y-10144960D02*
X8350062Y-10154484D01*
X8350062Y-10154484D02*
X8388158Y-10154484D01*
X8388158Y-10154484D02*
X8407205Y-10144960D01*
X8407205Y-10144960D02*
X8416729Y-10135436D01*
X8416729Y-10135436D02*
X8426253Y-10116389D01*
X8426253Y-10116389D02*
X8426253Y-10078293D01*
X8426253Y-10078293D02*
X8416729Y-10059246D01*
X8416729Y-10059246D02*
X8407205Y-10049722D01*
X8407205Y-10049722D02*
X8388158Y-10040198D01*
X8550063Y-9954484D02*
X8569110Y-9954484D01*
X8569110Y-9954484D02*
X8588158Y-9964008D01*
X8588158Y-9964008D02*
X8597682Y-9973531D01*
X8597682Y-9973531D02*
X8607205Y-9992579D01*
X8607205Y-9992579D02*
X8616729Y-10030674D01*
X8616729Y-10030674D02*
X8616729Y-10078293D01*
X8616729Y-10078293D02*
X8607205Y-10116389D01*
X8607205Y-10116389D02*
X8597682Y-10135436D01*
X8597682Y-10135436D02*
X8588158Y-10144960D01*
X8588158Y-10144960D02*
X8569110Y-10154484D01*
X8569110Y-10154484D02*
X8550063Y-10154484D01*
X8550063Y-10154484D02*
X8531015Y-10144960D01*
X8531015Y-10144960D02*
X8521491Y-10135436D01*
X8521491Y-10135436D02*
X8511967Y-10116389D01*
X8511967Y-10116389D02*
X8502444Y-10078293D01*
X8502444Y-10078293D02*
X8502444Y-10030674D01*
X8502444Y-10030674D02*
X8511967Y-9992579D01*
X8511967Y-9992579D02*
X8521491Y-9973531D01*
X8521491Y-9973531D02*
X8531015Y-9964008D01*
X8531015Y-9964008D02*
X8550063Y-9954484D01*
X8740539Y-9954484D02*
X8759586Y-9954484D01*
X8759586Y-9954484D02*
X8778634Y-9964008D01*
X8778634Y-9964008D02*
X8788158Y-9973531D01*
X8788158Y-9973531D02*
X8797682Y-9992579D01*
X8797682Y-9992579D02*
X8807205Y-10030674D01*
X8807205Y-10030674D02*
X8807205Y-10078293D01*
X8807205Y-10078293D02*
X8797682Y-10116389D01*
X8797682Y-10116389D02*
X8788158Y-10135436D01*
X8788158Y-10135436D02*
X8778634Y-10144960D01*
X8778634Y-10144960D02*
X8759586Y-10154484D01*
X8759586Y-10154484D02*
X8740539Y-10154484D01*
X8740539Y-10154484D02*
X8721491Y-10144960D01*
X8721491Y-10144960D02*
X8711967Y-10135436D01*
X8711967Y-10135436D02*
X8702444Y-10116389D01*
X8702444Y-10116389D02*
X8692920Y-10078293D01*
X8692920Y-10078293D02*
X8692920Y-10030674D01*
X8692920Y-10030674D02*
X8702444Y-9992579D01*
X8702444Y-9992579D02*
X8711967Y-9973531D01*
X8711967Y-9973531D02*
X8721491Y-9964008D01*
X8721491Y-9964008D02*
X8740539Y-9954484D01*
X8892920Y-10154484D02*
X8892920Y-10021150D01*
X8892920Y-10040198D02*
X8902444Y-10030674D01*
X8902444Y-10030674D02*
X8921491Y-10021150D01*
X8921491Y-10021150D02*
X8950063Y-10021150D01*
X8950063Y-10021150D02*
X8969110Y-10030674D01*
X8969110Y-10030674D02*
X8978634Y-10049722D01*
X8978634Y-10049722D02*
X8978634Y-10154484D01*
X8978634Y-10049722D02*
X8988158Y-10030674D01*
X8988158Y-10030674D02*
X9007205Y-10021150D01*
X9007205Y-10021150D02*
X9035777Y-10021150D01*
X9035777Y-10021150D02*
X9054825Y-10030674D01*
X9054825Y-10030674D02*
X9064348Y-10049722D01*
X9064348Y-10049722D02*
X9064348Y-10154484D01*
X9159586Y-10154484D02*
X9159586Y-10021150D01*
X9159586Y-10040198D02*
X9169110Y-10030674D01*
X9169110Y-10030674D02*
X9188158Y-10021150D01*
X9188158Y-10021150D02*
X9216729Y-10021150D01*
X9216729Y-10021150D02*
X9235777Y-10030674D01*
X9235777Y-10030674D02*
X9245301Y-10049722D01*
X9245301Y-10049722D02*
X9245301Y-10154484D01*
X9245301Y-10049722D02*
X9254825Y-10030674D01*
X9254825Y-10030674D02*
X9273872Y-10021150D01*
X9273872Y-10021150D02*
X9302444Y-10021150D01*
X9302444Y-10021150D02*
X9321491Y-10030674D01*
X9321491Y-10030674D02*
X9331015Y-10049722D01*
X9331015Y-10049722D02*
X9331015Y-10154484D01*
X9721491Y-9944960D02*
X9550063Y-10202103D01*
X9978634Y-9954484D02*
X9997682Y-9954484D01*
X9997682Y-9954484D02*
X10016729Y-9964008D01*
X10016729Y-9964008D02*
X10026253Y-9973531D01*
X10026253Y-9973531D02*
X10035777Y-9992579D01*
X10035777Y-9992579D02*
X10045301Y-10030674D01*
X10045301Y-10030674D02*
X10045301Y-10078293D01*
X10045301Y-10078293D02*
X10035777Y-10116389D01*
X10035777Y-10116389D02*
X10026253Y-10135436D01*
X10026253Y-10135436D02*
X10016729Y-10144960D01*
X10016729Y-10144960D02*
X9997682Y-10154484D01*
X9997682Y-10154484D02*
X9978634Y-10154484D01*
X9978634Y-10154484D02*
X9959587Y-10144960D01*
X9959587Y-10144960D02*
X9950063Y-10135436D01*
X9950063Y-10135436D02*
X9940539Y-10116389D01*
X9940539Y-10116389D02*
X9931015Y-10078293D01*
X9931015Y-10078293D02*
X9931015Y-10030674D01*
X9931015Y-10030674D02*
X9940539Y-9992579D01*
X9940539Y-9992579D02*
X9950063Y-9973531D01*
X9950063Y-9973531D02*
X9959587Y-9964008D01*
X9959587Y-9964008D02*
X9978634Y-9954484D01*
X10131015Y-10135436D02*
X10140539Y-10144960D01*
X10140539Y-10144960D02*
X10131015Y-10154484D01*
X10131015Y-10154484D02*
X10121491Y-10144960D01*
X10121491Y-10144960D02*
X10131015Y-10135436D01*
X10131015Y-10135436D02*
X10131015Y-10154484D01*
X10264348Y-9954484D02*
X10283396Y-9954484D01*
X10283396Y-9954484D02*
X10302444Y-9964008D01*
X10302444Y-9964008D02*
X10311968Y-9973531D01*
X10311968Y-9973531D02*
X10321491Y-9992579D01*
X10321491Y-9992579D02*
X10331015Y-10030674D01*
X10331015Y-10030674D02*
X10331015Y-10078293D01*
X10331015Y-10078293D02*
X10321491Y-10116389D01*
X10321491Y-10116389D02*
X10311968Y-10135436D01*
X10311968Y-10135436D02*
X10302444Y-10144960D01*
X10302444Y-10144960D02*
X10283396Y-10154484D01*
X10283396Y-10154484D02*
X10264348Y-10154484D01*
X10264348Y-10154484D02*
X10245301Y-10144960D01*
X10245301Y-10144960D02*
X10235777Y-10135436D01*
X10235777Y-10135436D02*
X10226253Y-10116389D01*
X10226253Y-10116389D02*
X10216729Y-10078293D01*
X10216729Y-10078293D02*
X10216729Y-10030674D01*
X10216729Y-10030674D02*
X10226253Y-9992579D01*
X10226253Y-9992579D02*
X10235777Y-9973531D01*
X10235777Y-9973531D02*
X10245301Y-9964008D01*
X10245301Y-9964008D02*
X10264348Y-9954484D01*
X10397682Y-9954484D02*
X10521491Y-9954484D01*
X10521491Y-9954484D02*
X10454825Y-10030674D01*
X10454825Y-10030674D02*
X10483396Y-10030674D01*
X10483396Y-10030674D02*
X10502444Y-10040198D01*
X10502444Y-10040198D02*
X10511968Y-10049722D01*
X10511968Y-10049722D02*
X10521491Y-10068770D01*
X10521491Y-10068770D02*
X10521491Y-10116389D01*
X10521491Y-10116389D02*
X10511968Y-10135436D01*
X10511968Y-10135436D02*
X10502444Y-10144960D01*
X10502444Y-10144960D02*
X10483396Y-10154484D01*
X10483396Y-10154484D02*
X10426253Y-10154484D01*
X10426253Y-10154484D02*
X10407206Y-10144960D01*
X10407206Y-10144960D02*
X10397682Y-10135436D01*
X10711968Y-10154484D02*
X10597682Y-10154484D01*
X10654825Y-10154484D02*
X10654825Y-9954484D01*
X10654825Y-9954484D02*
X10635777Y-9983055D01*
X10635777Y-9983055D02*
X10616729Y-10002103D01*
X10616729Y-10002103D02*
X10597682Y-10011627D01*
X10892920Y-9954484D02*
X10797682Y-9954484D01*
X10797682Y-9954484D02*
X10788158Y-10049722D01*
X10788158Y-10049722D02*
X10797682Y-10040198D01*
X10797682Y-10040198D02*
X10816729Y-10030674D01*
X10816729Y-10030674D02*
X10864349Y-10030674D01*
X10864349Y-10030674D02*
X10883396Y-10040198D01*
X10883396Y-10040198D02*
X10892920Y-10049722D01*
X10892920Y-10049722D02*
X10902444Y-10068770D01*
X10902444Y-10068770D02*
X10902444Y-10116389D01*
X10902444Y-10116389D02*
X10892920Y-10135436D01*
X10892920Y-10135436D02*
X10883396Y-10144960D01*
X10883396Y-10144960D02*
X10864349Y-10154484D01*
X10864349Y-10154484D02*
X10816729Y-10154484D01*
X10816729Y-10154484D02*
X10797682Y-10144960D01*
X10797682Y-10144960D02*
X10788158Y-10135436D01*
X10978634Y-9954484D02*
X10978634Y-9992579D01*
X11054825Y-9954484D02*
X11054825Y-9992579D01*
X11350063Y-10230674D02*
X11340539Y-10221150D01*
X11340539Y-10221150D02*
X11321491Y-10192579D01*
X11321491Y-10192579D02*
X11311968Y-10173531D01*
X11311968Y-10173531D02*
X11302444Y-10144960D01*
X11302444Y-10144960D02*
X11292920Y-10097341D01*
X11292920Y-10097341D02*
X11292920Y-10059246D01*
X11292920Y-10059246D02*
X11302444Y-10011627D01*
X11302444Y-10011627D02*
X11311968Y-9983055D01*
X11311968Y-9983055D02*
X11321491Y-9964008D01*
X11321491Y-9964008D02*
X11340539Y-9935436D01*
X11340539Y-9935436D02*
X11350063Y-9925912D01*
X11407206Y-9954484D02*
X11531015Y-9954484D01*
X11531015Y-9954484D02*
X11464348Y-10030674D01*
X11464348Y-10030674D02*
X11492920Y-10030674D01*
X11492920Y-10030674D02*
X11511968Y-10040198D01*
X11511968Y-10040198D02*
X11521491Y-10049722D01*
X11521491Y-10049722D02*
X11531015Y-10068770D01*
X11531015Y-10068770D02*
X11531015Y-10116389D01*
X11531015Y-10116389D02*
X11521491Y-10135436D01*
X11521491Y-10135436D02*
X11511968Y-10144960D01*
X11511968Y-10144960D02*
X11492920Y-10154484D01*
X11492920Y-10154484D02*
X11435777Y-10154484D01*
X11435777Y-10154484D02*
X11416729Y-10144960D01*
X11416729Y-10144960D02*
X11407206Y-10135436D01*
X11645301Y-10040198D02*
X11626253Y-10030674D01*
X11626253Y-10030674D02*
X11616729Y-10021150D01*
X11616729Y-10021150D02*
X11607206Y-10002103D01*
X11607206Y-10002103D02*
X11607206Y-9992579D01*
X11607206Y-9992579D02*
X11616729Y-9973531D01*
X11616729Y-9973531D02*
X11626253Y-9964008D01*
X11626253Y-9964008D02*
X11645301Y-9954484D01*
X11645301Y-9954484D02*
X11683396Y-9954484D01*
X11683396Y-9954484D02*
X11702444Y-9964008D01*
X11702444Y-9964008D02*
X11711968Y-9973531D01*
X11711968Y-9973531D02*
X11721491Y-9992579D01*
X11721491Y-9992579D02*
X11721491Y-10002103D01*
X11721491Y-10002103D02*
X11711968Y-10021150D01*
X11711968Y-10021150D02*
X11702444Y-10030674D01*
X11702444Y-10030674D02*
X11683396Y-10040198D01*
X11683396Y-10040198D02*
X11645301Y-10040198D01*
X11645301Y-10040198D02*
X11626253Y-10049722D01*
X11626253Y-10049722D02*
X11616729Y-10059246D01*
X11616729Y-10059246D02*
X11607206Y-10078293D01*
X11607206Y-10078293D02*
X11607206Y-10116389D01*
X11607206Y-10116389D02*
X11616729Y-10135436D01*
X11616729Y-10135436D02*
X11626253Y-10144960D01*
X11626253Y-10144960D02*
X11645301Y-10154484D01*
X11645301Y-10154484D02*
X11683396Y-10154484D01*
X11683396Y-10154484D02*
X11702444Y-10144960D01*
X11702444Y-10144960D02*
X11711968Y-10135436D01*
X11711968Y-10135436D02*
X11721491Y-10116389D01*
X11721491Y-10116389D02*
X11721491Y-10078293D01*
X11721491Y-10078293D02*
X11711968Y-10059246D01*
X11711968Y-10059246D02*
X11702444Y-10049722D01*
X11702444Y-10049722D02*
X11683396Y-10040198D01*
X11959587Y-10154484D02*
X11959587Y-9954484D01*
X12045301Y-10154484D02*
X12045301Y-10049722D01*
X12045301Y-10049722D02*
X12035777Y-10030674D01*
X12035777Y-10030674D02*
X12016730Y-10021150D01*
X12016730Y-10021150D02*
X11988158Y-10021150D01*
X11988158Y-10021150D02*
X11969110Y-10030674D01*
X11969110Y-10030674D02*
X11959587Y-10040198D01*
X12169110Y-10154484D02*
X12150063Y-10144960D01*
X12150063Y-10144960D02*
X12140539Y-10135436D01*
X12140539Y-10135436D02*
X12131015Y-10116389D01*
X12131015Y-10116389D02*
X12131015Y-10059246D01*
X12131015Y-10059246D02*
X12140539Y-10040198D01*
X12140539Y-10040198D02*
X12150063Y-10030674D01*
X12150063Y-10030674D02*
X12169110Y-10021150D01*
X12169110Y-10021150D02*
X12197682Y-10021150D01*
X12197682Y-10021150D02*
X12216730Y-10030674D01*
X12216730Y-10030674D02*
X12226253Y-10040198D01*
X12226253Y-10040198D02*
X12235777Y-10059246D01*
X12235777Y-10059246D02*
X12235777Y-10116389D01*
X12235777Y-10116389D02*
X12226253Y-10135436D01*
X12226253Y-10135436D02*
X12216730Y-10144960D01*
X12216730Y-10144960D02*
X12197682Y-10154484D01*
X12197682Y-10154484D02*
X12169110Y-10154484D01*
X12350063Y-10154484D02*
X12331015Y-10144960D01*
X12331015Y-10144960D02*
X12321491Y-10125912D01*
X12321491Y-10125912D02*
X12321491Y-9954484D01*
X12502444Y-10144960D02*
X12483396Y-10154484D01*
X12483396Y-10154484D02*
X12445301Y-10154484D01*
X12445301Y-10154484D02*
X12426253Y-10144960D01*
X12426253Y-10144960D02*
X12416730Y-10125912D01*
X12416730Y-10125912D02*
X12416730Y-10049722D01*
X12416730Y-10049722D02*
X12426253Y-10030674D01*
X12426253Y-10030674D02*
X12445301Y-10021150D01*
X12445301Y-10021150D02*
X12483396Y-10021150D01*
X12483396Y-10021150D02*
X12502444Y-10030674D01*
X12502444Y-10030674D02*
X12511968Y-10049722D01*
X12511968Y-10049722D02*
X12511968Y-10068770D01*
X12511968Y-10068770D02*
X12416730Y-10087817D01*
X12588158Y-10144960D02*
X12607206Y-10154484D01*
X12607206Y-10154484D02*
X12645301Y-10154484D01*
X12645301Y-10154484D02*
X12664349Y-10144960D01*
X12664349Y-10144960D02*
X12673872Y-10125912D01*
X12673872Y-10125912D02*
X12673872Y-10116389D01*
X12673872Y-10116389D02*
X12664349Y-10097341D01*
X12664349Y-10097341D02*
X12645301Y-10087817D01*
X12645301Y-10087817D02*
X12616730Y-10087817D01*
X12616730Y-10087817D02*
X12597682Y-10078293D01*
X12597682Y-10078293D02*
X12588158Y-10059246D01*
X12588158Y-10059246D02*
X12588158Y-10049722D01*
X12588158Y-10049722D02*
X12597682Y-10030674D01*
X12597682Y-10030674D02*
X12616730Y-10021150D01*
X12616730Y-10021150D02*
X12645301Y-10021150D01*
X12645301Y-10021150D02*
X12664349Y-10030674D01*
X12740539Y-10230674D02*
X12750063Y-10221150D01*
X12750063Y-10221150D02*
X12769111Y-10192579D01*
X12769111Y-10192579D02*
X12778634Y-10173531D01*
X12778634Y-10173531D02*
X12788158Y-10144960D01*
X12788158Y-10144960D02*
X12797682Y-10097341D01*
X12797682Y-10097341D02*
X12797682Y-10059246D01*
X12797682Y-10059246D02*
X12788158Y-10011627D01*
X12788158Y-10011627D02*
X12778634Y-9983055D01*
X12778634Y-9983055D02*
X12769111Y-9964008D01*
X12769111Y-9964008D02*
X12750063Y-9935436D01*
X12750063Y-9935436D02*
X12740539Y-9925912D01*
D10*
X7760356Y-10362356D02*
X7760356Y-10291644D01*
X7689644Y-10291644D01*
X7689644Y-10362356D01*
X7760356Y-10362356D01*
D11*
X8140539Y-10418484D02*
X8026253Y-10418484D01*
X8083396Y-10418484D02*
X8083396Y-10218484D01*
X8083396Y-10218484D02*
X8064348Y-10247055D01*
X8064348Y-10247055D02*
X8045301Y-10266103D01*
X8045301Y-10266103D02*
X8026253Y-10275627D01*
X8226253Y-10399436D02*
X8235777Y-10408960D01*
X8235777Y-10408960D02*
X8226253Y-10418484D01*
X8226253Y-10418484D02*
X8216729Y-10408960D01*
X8216729Y-10408960D02*
X8226253Y-10399436D01*
X8226253Y-10399436D02*
X8226253Y-10418484D01*
X8359586Y-10218484D02*
X8378634Y-10218484D01*
X8378634Y-10218484D02*
X8397682Y-10228008D01*
X8397682Y-10228008D02*
X8407205Y-10237531D01*
X8407205Y-10237531D02*
X8416729Y-10256579D01*
X8416729Y-10256579D02*
X8426253Y-10294674D01*
X8426253Y-10294674D02*
X8426253Y-10342293D01*
X8426253Y-10342293D02*
X8416729Y-10380389D01*
X8416729Y-10380389D02*
X8407205Y-10399436D01*
X8407205Y-10399436D02*
X8397682Y-10408960D01*
X8397682Y-10408960D02*
X8378634Y-10418484D01*
X8378634Y-10418484D02*
X8359586Y-10418484D01*
X8359586Y-10418484D02*
X8340539Y-10408960D01*
X8340539Y-10408960D02*
X8331015Y-10399436D01*
X8331015Y-10399436D02*
X8321491Y-10380389D01*
X8321491Y-10380389D02*
X8311967Y-10342293D01*
X8311967Y-10342293D02*
X8311967Y-10294674D01*
X8311967Y-10294674D02*
X8321491Y-10256579D01*
X8321491Y-10256579D02*
X8331015Y-10237531D01*
X8331015Y-10237531D02*
X8340539Y-10228008D01*
X8340539Y-10228008D02*
X8359586Y-10218484D01*
X8550063Y-10218484D02*
X8569110Y-10218484D01*
X8569110Y-10218484D02*
X8588158Y-10228008D01*
X8588158Y-10228008D02*
X8597682Y-10237531D01*
X8597682Y-10237531D02*
X8607205Y-10256579D01*
X8607205Y-10256579D02*
X8616729Y-10294674D01*
X8616729Y-10294674D02*
X8616729Y-10342293D01*
X8616729Y-10342293D02*
X8607205Y-10380389D01*
X8607205Y-10380389D02*
X8597682Y-10399436D01*
X8597682Y-10399436D02*
X8588158Y-10408960D01*
X8588158Y-10408960D02*
X8569110Y-10418484D01*
X8569110Y-10418484D02*
X8550063Y-10418484D01*
X8550063Y-10418484D02*
X8531015Y-10408960D01*
X8531015Y-10408960D02*
X8521491Y-10399436D01*
X8521491Y-10399436D02*
X8511967Y-10380389D01*
X8511967Y-10380389D02*
X8502444Y-10342293D01*
X8502444Y-10342293D02*
X8502444Y-10294674D01*
X8502444Y-10294674D02*
X8511967Y-10256579D01*
X8511967Y-10256579D02*
X8521491Y-10237531D01*
X8521491Y-10237531D02*
X8531015Y-10228008D01*
X8531015Y-10228008D02*
X8550063Y-10218484D01*
X8740539Y-10218484D02*
X8759586Y-10218484D01*
X8759586Y-10218484D02*
X8778634Y-10228008D01*
X8778634Y-10228008D02*
X8788158Y-10237531D01*
X8788158Y-10237531D02*
X8797682Y-10256579D01*
X8797682Y-10256579D02*
X8807205Y-10294674D01*
X8807205Y-10294674D02*
X8807205Y-10342293D01*
X8807205Y-10342293D02*
X8797682Y-10380389D01*
X8797682Y-10380389D02*
X8788158Y-10399436D01*
X8788158Y-10399436D02*
X8778634Y-10408960D01*
X8778634Y-10408960D02*
X8759586Y-10418484D01*
X8759586Y-10418484D02*
X8740539Y-10418484D01*
X8740539Y-10418484D02*
X8721491Y-10408960D01*
X8721491Y-10408960D02*
X8711967Y-10399436D01*
X8711967Y-10399436D02*
X8702444Y-10380389D01*
X8702444Y-10380389D02*
X8692920Y-10342293D01*
X8692920Y-10342293D02*
X8692920Y-10294674D01*
X8692920Y-10294674D02*
X8702444Y-10256579D01*
X8702444Y-10256579D02*
X8711967Y-10237531D01*
X8711967Y-10237531D02*
X8721491Y-10228008D01*
X8721491Y-10228008D02*
X8740539Y-10218484D01*
X8892920Y-10418484D02*
X8892920Y-10285150D01*
X8892920Y-10304198D02*
X8902444Y-10294674D01*
X8902444Y-10294674D02*
X8921491Y-10285150D01*
X8921491Y-10285150D02*
X8950063Y-10285150D01*
X8950063Y-10285150D02*
X8969110Y-10294674D01*
X8969110Y-10294674D02*
X8978634Y-10313722D01*
X8978634Y-10313722D02*
X8978634Y-10418484D01*
X8978634Y-10313722D02*
X8988158Y-10294674D01*
X8988158Y-10294674D02*
X9007205Y-10285150D01*
X9007205Y-10285150D02*
X9035777Y-10285150D01*
X9035777Y-10285150D02*
X9054825Y-10294674D01*
X9054825Y-10294674D02*
X9064348Y-10313722D01*
X9064348Y-10313722D02*
X9064348Y-10418484D01*
X9159586Y-10418484D02*
X9159586Y-10285150D01*
X9159586Y-10304198D02*
X9169110Y-10294674D01*
X9169110Y-10294674D02*
X9188158Y-10285150D01*
X9188158Y-10285150D02*
X9216729Y-10285150D01*
X9216729Y-10285150D02*
X9235777Y-10294674D01*
X9235777Y-10294674D02*
X9245301Y-10313722D01*
X9245301Y-10313722D02*
X9245301Y-10418484D01*
X9245301Y-10313722D02*
X9254825Y-10294674D01*
X9254825Y-10294674D02*
X9273872Y-10285150D01*
X9273872Y-10285150D02*
X9302444Y-10285150D01*
X9302444Y-10285150D02*
X9321491Y-10294674D01*
X9321491Y-10294674D02*
X9331015Y-10313722D01*
X9331015Y-10313722D02*
X9331015Y-10418484D01*
X9721491Y-10208960D02*
X9550063Y-10466103D01*
X9978634Y-10218484D02*
X9997682Y-10218484D01*
X9997682Y-10218484D02*
X10016729Y-10228008D01*
X10016729Y-10228008D02*
X10026253Y-10237531D01*
X10026253Y-10237531D02*
X10035777Y-10256579D01*
X10035777Y-10256579D02*
X10045301Y-10294674D01*
X10045301Y-10294674D02*
X10045301Y-10342293D01*
X10045301Y-10342293D02*
X10035777Y-10380389D01*
X10035777Y-10380389D02*
X10026253Y-10399436D01*
X10026253Y-10399436D02*
X10016729Y-10408960D01*
X10016729Y-10408960D02*
X9997682Y-10418484D01*
X9997682Y-10418484D02*
X9978634Y-10418484D01*
X9978634Y-10418484D02*
X9959587Y-10408960D01*
X9959587Y-10408960D02*
X9950063Y-10399436D01*
X9950063Y-10399436D02*
X9940539Y-10380389D01*
X9940539Y-10380389D02*
X9931015Y-10342293D01*
X9931015Y-10342293D02*
X9931015Y-10294674D01*
X9931015Y-10294674D02*
X9940539Y-10256579D01*
X9940539Y-10256579D02*
X9950063Y-10237531D01*
X9950063Y-10237531D02*
X9959587Y-10228008D01*
X9959587Y-10228008D02*
X9978634Y-10218484D01*
X10131015Y-10399436D02*
X10140539Y-10408960D01*
X10140539Y-10408960D02*
X10131015Y-10418484D01*
X10131015Y-10418484D02*
X10121491Y-10408960D01*
X10121491Y-10408960D02*
X10131015Y-10399436D01*
X10131015Y-10399436D02*
X10131015Y-10418484D01*
X10264348Y-10218484D02*
X10283396Y-10218484D01*
X10283396Y-10218484D02*
X10302444Y-10228008D01*
X10302444Y-10228008D02*
X10311968Y-10237531D01*
X10311968Y-10237531D02*
X10321491Y-10256579D01*
X10321491Y-10256579D02*
X10331015Y-10294674D01*
X10331015Y-10294674D02*
X10331015Y-10342293D01*
X10331015Y-10342293D02*
X10321491Y-10380389D01*
X10321491Y-10380389D02*
X10311968Y-10399436D01*
X10311968Y-10399436D02*
X10302444Y-10408960D01*
X10302444Y-10408960D02*
X10283396Y-10418484D01*
X10283396Y-10418484D02*
X10264348Y-10418484D01*
X10264348Y-10418484D02*
X10245301Y-10408960D01*
X10245301Y-10408960D02*
X10235777Y-10399436D01*
X10235777Y-10399436D02*
X10226253Y-10380389D01*
X10226253Y-10380389D02*
X10216729Y-10342293D01*
X10216729Y-10342293D02*
X10216729Y-10294674D01*
X10216729Y-10294674D02*
X10226253Y-10256579D01*
X10226253Y-10256579D02*
X10235777Y-10237531D01*
X10235777Y-10237531D02*
X10245301Y-10228008D01*
X10245301Y-10228008D02*
X10264348Y-10218484D01*
X10397682Y-10218484D02*
X10521491Y-10218484D01*
X10521491Y-10218484D02*
X10454825Y-10294674D01*
X10454825Y-10294674D02*
X10483396Y-10294674D01*
X10483396Y-10294674D02*
X10502444Y-10304198D01*
X10502444Y-10304198D02*
X10511968Y-10313722D01*
X10511968Y-10313722D02*
X10521491Y-10332770D01*
X10521491Y-10332770D02*
X10521491Y-10380389D01*
X10521491Y-10380389D02*
X10511968Y-10399436D01*
X10511968Y-10399436D02*
X10502444Y-10408960D01*
X10502444Y-10408960D02*
X10483396Y-10418484D01*
X10483396Y-10418484D02*
X10426253Y-10418484D01*
X10426253Y-10418484D02*
X10407206Y-10408960D01*
X10407206Y-10408960D02*
X10397682Y-10399436D01*
X10616729Y-10418484D02*
X10654825Y-10418484D01*
X10654825Y-10418484D02*
X10673872Y-10408960D01*
X10673872Y-10408960D02*
X10683396Y-10399436D01*
X10683396Y-10399436D02*
X10702444Y-10370865D01*
X10702444Y-10370865D02*
X10711968Y-10332770D01*
X10711968Y-10332770D02*
X10711968Y-10256579D01*
X10711968Y-10256579D02*
X10702444Y-10237531D01*
X10702444Y-10237531D02*
X10692920Y-10228008D01*
X10692920Y-10228008D02*
X10673872Y-10218484D01*
X10673872Y-10218484D02*
X10635777Y-10218484D01*
X10635777Y-10218484D02*
X10616729Y-10228008D01*
X10616729Y-10228008D02*
X10607206Y-10237531D01*
X10607206Y-10237531D02*
X10597682Y-10256579D01*
X10597682Y-10256579D02*
X10597682Y-10304198D01*
X10597682Y-10304198D02*
X10607206Y-10323246D01*
X10607206Y-10323246D02*
X10616729Y-10332770D01*
X10616729Y-10332770D02*
X10635777Y-10342293D01*
X10635777Y-10342293D02*
X10673872Y-10342293D01*
X10673872Y-10342293D02*
X10692920Y-10332770D01*
X10692920Y-10332770D02*
X10702444Y-10323246D01*
X10702444Y-10323246D02*
X10711968Y-10304198D01*
X10883396Y-10285150D02*
X10883396Y-10418484D01*
X10835777Y-10208960D02*
X10788158Y-10351817D01*
X10788158Y-10351817D02*
X10911968Y-10351817D01*
X10978634Y-10218484D02*
X10978634Y-10256579D01*
X11054825Y-10218484D02*
X11054825Y-10256579D01*
X11350063Y-10494674D02*
X11340539Y-10485150D01*
X11340539Y-10485150D02*
X11321491Y-10456579D01*
X11321491Y-10456579D02*
X11311968Y-10437531D01*
X11311968Y-10437531D02*
X11302444Y-10408960D01*
X11302444Y-10408960D02*
X11292920Y-10361341D01*
X11292920Y-10361341D02*
X11292920Y-10323246D01*
X11292920Y-10323246D02*
X11302444Y-10275627D01*
X11302444Y-10275627D02*
X11311968Y-10247055D01*
X11311968Y-10247055D02*
X11321491Y-10228008D01*
X11321491Y-10228008D02*
X11340539Y-10199436D01*
X11340539Y-10199436D02*
X11350063Y-10189912D01*
X11511968Y-10285150D02*
X11511968Y-10418484D01*
X11464348Y-10208960D02*
X11416729Y-10351817D01*
X11416729Y-10351817D02*
X11540539Y-10351817D01*
X11654825Y-10218484D02*
X11673872Y-10218484D01*
X11673872Y-10218484D02*
X11692920Y-10228008D01*
X11692920Y-10228008D02*
X11702444Y-10237531D01*
X11702444Y-10237531D02*
X11711968Y-10256579D01*
X11711968Y-10256579D02*
X11721491Y-10294674D01*
X11721491Y-10294674D02*
X11721491Y-10342293D01*
X11721491Y-10342293D02*
X11711968Y-10380389D01*
X11711968Y-10380389D02*
X11702444Y-10399436D01*
X11702444Y-10399436D02*
X11692920Y-10408960D01*
X11692920Y-10408960D02*
X11673872Y-10418484D01*
X11673872Y-10418484D02*
X11654825Y-10418484D01*
X11654825Y-10418484D02*
X11635777Y-10408960D01*
X11635777Y-10408960D02*
X11626253Y-10399436D01*
X11626253Y-10399436D02*
X11616729Y-10380389D01*
X11616729Y-10380389D02*
X11607206Y-10342293D01*
X11607206Y-10342293D02*
X11607206Y-10294674D01*
X11607206Y-10294674D02*
X11616729Y-10256579D01*
X11616729Y-10256579D02*
X11626253Y-10237531D01*
X11626253Y-10237531D02*
X11635777Y-10228008D01*
X11635777Y-10228008D02*
X11654825Y-10218484D01*
X11959587Y-10418484D02*
X11959587Y-10218484D01*
X12045301Y-10418484D02*
X12045301Y-10313722D01*
X12045301Y-10313722D02*
X12035777Y-10294674D01*
X12035777Y-10294674D02*
X12016730Y-10285150D01*
X12016730Y-10285150D02*
X11988158Y-10285150D01*
X11988158Y-10285150D02*
X11969110Y-10294674D01*
X11969110Y-10294674D02*
X11959587Y-10304198D01*
X12169110Y-10418484D02*
X12150063Y-10408960D01*
X12150063Y-10408960D02*
X12140539Y-10399436D01*
X12140539Y-10399436D02*
X12131015Y-10380389D01*
X12131015Y-10380389D02*
X12131015Y-10323246D01*
X12131015Y-10323246D02*
X12140539Y-10304198D01*
X12140539Y-10304198D02*
X12150063Y-10294674D01*
X12150063Y-10294674D02*
X12169110Y-10285150D01*
X12169110Y-10285150D02*
X12197682Y-10285150D01*
X12197682Y-10285150D02*
X12216730Y-10294674D01*
X12216730Y-10294674D02*
X12226253Y-10304198D01*
X12226253Y-10304198D02*
X12235777Y-10323246D01*
X12235777Y-10323246D02*
X12235777Y-10380389D01*
X12235777Y-10380389D02*
X12226253Y-10399436D01*
X12226253Y-10399436D02*
X12216730Y-10408960D01*
X12216730Y-10408960D02*
X12197682Y-10418484D01*
X12197682Y-10418484D02*
X12169110Y-10418484D01*
X12350063Y-10418484D02*
X12331015Y-10408960D01*
X12331015Y-10408960D02*
X12321491Y-10389912D01*
X12321491Y-10389912D02*
X12321491Y-10218484D01*
X12502444Y-10408960D02*
X12483396Y-10418484D01*
X12483396Y-10418484D02*
X12445301Y-10418484D01*
X12445301Y-10418484D02*
X12426253Y-10408960D01*
X12426253Y-10408960D02*
X12416730Y-10389912D01*
X12416730Y-10389912D02*
X12416730Y-10313722D01*
X12416730Y-10313722D02*
X12426253Y-10294674D01*
X12426253Y-10294674D02*
X12445301Y-10285150D01*
X12445301Y-10285150D02*
X12483396Y-10285150D01*
X12483396Y-10285150D02*
X12502444Y-10294674D01*
X12502444Y-10294674D02*
X12511968Y-10313722D01*
X12511968Y-10313722D02*
X12511968Y-10332770D01*
X12511968Y-10332770D02*
X12416730Y-10351817D01*
X12588158Y-10408960D02*
X12607206Y-10418484D01*
X12607206Y-10418484D02*
X12645301Y-10418484D01*
X12645301Y-10418484D02*
X12664349Y-10408960D01*
X12664349Y-10408960D02*
X12673872Y-10389912D01*
X12673872Y-10389912D02*
X12673872Y-10380389D01*
X12673872Y-10380389D02*
X12664349Y-10361341D01*
X12664349Y-10361341D02*
X12645301Y-10351817D01*
X12645301Y-10351817D02*
X12616730Y-10351817D01*
X12616730Y-10351817D02*
X12597682Y-10342293D01*
X12597682Y-10342293D02*
X12588158Y-10323246D01*
X12588158Y-10323246D02*
X12588158Y-10313722D01*
X12588158Y-10313722D02*
X12597682Y-10294674D01*
X12597682Y-10294674D02*
X12616730Y-10285150D01*
X12616730Y-10285150D02*
X12645301Y-10285150D01*
X12645301Y-10285150D02*
X12664349Y-10294674D01*
X12740539Y-10494674D02*
X12750063Y-10485150D01*
X12750063Y-10485150D02*
X12769111Y-10456579D01*
X12769111Y-10456579D02*
X12778634Y-10437531D01*
X12778634Y-10437531D02*
X12788158Y-10408960D01*
X12788158Y-10408960D02*
X12797682Y-10361341D01*
X12797682Y-10361341D02*
X12797682Y-10323246D01*
X12797682Y-10323246D02*
X12788158Y-10275627D01*
X12788158Y-10275627D02*
X12778634Y-10247055D01*
X12778634Y-10247055D02*
X12769111Y-10228008D01*
X12769111Y-10228008D02*
X12750063Y-10199436D01*
X12750063Y-10199436D02*
X12740539Y-10189912D01*
X7675000Y-10691000D02*
X7775000Y-10591000D01*
X7675000Y-10491000D01*
X7575000Y-10591000D01*
X7675000Y-10691000D01*
X8016729Y-10482484D02*
X8140539Y-10482484D01*
X8140539Y-10482484D02*
X8073872Y-10558674D01*
X8073872Y-10558674D02*
X8102443Y-10558674D01*
X8102443Y-10558674D02*
X8121491Y-10568198D01*
X8121491Y-10568198D02*
X8131015Y-10577722D01*
X8131015Y-10577722D02*
X8140539Y-10596770D01*
X8140539Y-10596770D02*
X8140539Y-10644389D01*
X8140539Y-10644389D02*
X8131015Y-10663436D01*
X8131015Y-10663436D02*
X8121491Y-10672960D01*
X8121491Y-10672960D02*
X8102443Y-10682484D01*
X8102443Y-10682484D02*
X8045301Y-10682484D01*
X8045301Y-10682484D02*
X8026253Y-10672960D01*
X8026253Y-10672960D02*
X8016729Y-10663436D01*
X8226253Y-10663436D02*
X8235777Y-10672960D01*
X8235777Y-10672960D02*
X8226253Y-10682484D01*
X8226253Y-10682484D02*
X8216729Y-10672960D01*
X8216729Y-10672960D02*
X8226253Y-10663436D01*
X8226253Y-10663436D02*
X8226253Y-10682484D01*
X8311967Y-10501531D02*
X8321491Y-10492008D01*
X8321491Y-10492008D02*
X8340539Y-10482484D01*
X8340539Y-10482484D02*
X8388158Y-10482484D01*
X8388158Y-10482484D02*
X8407205Y-10492008D01*
X8407205Y-10492008D02*
X8416729Y-10501531D01*
X8416729Y-10501531D02*
X8426253Y-10520579D01*
X8426253Y-10520579D02*
X8426253Y-10539627D01*
X8426253Y-10539627D02*
X8416729Y-10568198D01*
X8416729Y-10568198D02*
X8302443Y-10682484D01*
X8302443Y-10682484D02*
X8426253Y-10682484D01*
X8550063Y-10482484D02*
X8569110Y-10482484D01*
X8569110Y-10482484D02*
X8588158Y-10492008D01*
X8588158Y-10492008D02*
X8597682Y-10501531D01*
X8597682Y-10501531D02*
X8607205Y-10520579D01*
X8607205Y-10520579D02*
X8616729Y-10558674D01*
X8616729Y-10558674D02*
X8616729Y-10606293D01*
X8616729Y-10606293D02*
X8607205Y-10644389D01*
X8607205Y-10644389D02*
X8597682Y-10663436D01*
X8597682Y-10663436D02*
X8588158Y-10672960D01*
X8588158Y-10672960D02*
X8569110Y-10682484D01*
X8569110Y-10682484D02*
X8550063Y-10682484D01*
X8550063Y-10682484D02*
X8531015Y-10672960D01*
X8531015Y-10672960D02*
X8521491Y-10663436D01*
X8521491Y-10663436D02*
X8511967Y-10644389D01*
X8511967Y-10644389D02*
X8502444Y-10606293D01*
X8502444Y-10606293D02*
X8502444Y-10558674D01*
X8502444Y-10558674D02*
X8511967Y-10520579D01*
X8511967Y-10520579D02*
X8521491Y-10501531D01*
X8521491Y-10501531D02*
X8531015Y-10492008D01*
X8531015Y-10492008D02*
X8550063Y-10482484D01*
X8740539Y-10482484D02*
X8759586Y-10482484D01*
X8759586Y-10482484D02*
X8778634Y-10492008D01*
X8778634Y-10492008D02*
X8788158Y-10501531D01*
X8788158Y-10501531D02*
X8797682Y-10520579D01*
X8797682Y-10520579D02*
X8807205Y-10558674D01*
X8807205Y-10558674D02*
X8807205Y-10606293D01*
X8807205Y-10606293D02*
X8797682Y-10644389D01*
X8797682Y-10644389D02*
X8788158Y-10663436D01*
X8788158Y-10663436D02*
X8778634Y-10672960D01*
X8778634Y-10672960D02*
X8759586Y-10682484D01*
X8759586Y-10682484D02*
X8740539Y-10682484D01*
X8740539Y-10682484D02*
X8721491Y-10672960D01*
X8721491Y-10672960D02*
X8711967Y-10663436D01*
X8711967Y-10663436D02*
X8702444Y-10644389D01*
X8702444Y-10644389D02*
X8692920Y-10606293D01*
X8692920Y-10606293D02*
X8692920Y-10558674D01*
X8692920Y-10558674D02*
X8702444Y-10520579D01*
X8702444Y-10520579D02*
X8711967Y-10501531D01*
X8711967Y-10501531D02*
X8721491Y-10492008D01*
X8721491Y-10492008D02*
X8740539Y-10482484D01*
X8892920Y-10682484D02*
X8892920Y-10549150D01*
X8892920Y-10568198D02*
X8902444Y-10558674D01*
X8902444Y-10558674D02*
X8921491Y-10549150D01*
X8921491Y-10549150D02*
X8950063Y-10549150D01*
X8950063Y-10549150D02*
X8969110Y-10558674D01*
X8969110Y-10558674D02*
X8978634Y-10577722D01*
X8978634Y-10577722D02*
X8978634Y-10682484D01*
X8978634Y-10577722D02*
X8988158Y-10558674D01*
X8988158Y-10558674D02*
X9007205Y-10549150D01*
X9007205Y-10549150D02*
X9035777Y-10549150D01*
X9035777Y-10549150D02*
X9054825Y-10558674D01*
X9054825Y-10558674D02*
X9064348Y-10577722D01*
X9064348Y-10577722D02*
X9064348Y-10682484D01*
X9159586Y-10682484D02*
X9159586Y-10549150D01*
X9159586Y-10568198D02*
X9169110Y-10558674D01*
X9169110Y-10558674D02*
X9188158Y-10549150D01*
X9188158Y-10549150D02*
X9216729Y-10549150D01*
X9216729Y-10549150D02*
X9235777Y-10558674D01*
X9235777Y-10558674D02*
X9245301Y-10577722D01*
X9245301Y-10577722D02*
X9245301Y-10682484D01*
X9245301Y-10577722D02*
X9254825Y-10558674D01*
X9254825Y-10558674D02*
X9273872Y-10549150D01*
X9273872Y-10549150D02*
X9302444Y-10549150D01*
X9302444Y-10549150D02*
X9321491Y-10558674D01*
X9321491Y-10558674D02*
X9331015Y-10577722D01*
X9331015Y-10577722D02*
X9331015Y-10682484D01*
X9721491Y-10472960D02*
X9550063Y-10730103D01*
X9978634Y-10482484D02*
X9997682Y-10482484D01*
X9997682Y-10482484D02*
X10016729Y-10492008D01*
X10016729Y-10492008D02*
X10026253Y-10501531D01*
X10026253Y-10501531D02*
X10035777Y-10520579D01*
X10035777Y-10520579D02*
X10045301Y-10558674D01*
X10045301Y-10558674D02*
X10045301Y-10606293D01*
X10045301Y-10606293D02*
X10035777Y-10644389D01*
X10035777Y-10644389D02*
X10026253Y-10663436D01*
X10026253Y-10663436D02*
X10016729Y-10672960D01*
X10016729Y-10672960D02*
X9997682Y-10682484D01*
X9997682Y-10682484D02*
X9978634Y-10682484D01*
X9978634Y-10682484D02*
X9959587Y-10672960D01*
X9959587Y-10672960D02*
X9950063Y-10663436D01*
X9950063Y-10663436D02*
X9940539Y-10644389D01*
X9940539Y-10644389D02*
X9931015Y-10606293D01*
X9931015Y-10606293D02*
X9931015Y-10558674D01*
X9931015Y-10558674D02*
X9940539Y-10520579D01*
X9940539Y-10520579D02*
X9950063Y-10501531D01*
X9950063Y-10501531D02*
X9959587Y-10492008D01*
X9959587Y-10492008D02*
X9978634Y-10482484D01*
X10131015Y-10663436D02*
X10140539Y-10672960D01*
X10140539Y-10672960D02*
X10131015Y-10682484D01*
X10131015Y-10682484D02*
X10121491Y-10672960D01*
X10121491Y-10672960D02*
X10131015Y-10663436D01*
X10131015Y-10663436D02*
X10131015Y-10682484D01*
X10331015Y-10682484D02*
X10216729Y-10682484D01*
X10273872Y-10682484D02*
X10273872Y-10482484D01*
X10273872Y-10482484D02*
X10254825Y-10511055D01*
X10254825Y-10511055D02*
X10235777Y-10530103D01*
X10235777Y-10530103D02*
X10216729Y-10539627D01*
X10407206Y-10501531D02*
X10416729Y-10492008D01*
X10416729Y-10492008D02*
X10435777Y-10482484D01*
X10435777Y-10482484D02*
X10483396Y-10482484D01*
X10483396Y-10482484D02*
X10502444Y-10492008D01*
X10502444Y-10492008D02*
X10511968Y-10501531D01*
X10511968Y-10501531D02*
X10521491Y-10520579D01*
X10521491Y-10520579D02*
X10521491Y-10539627D01*
X10521491Y-10539627D02*
X10511968Y-10568198D01*
X10511968Y-10568198D02*
X10397682Y-10682484D01*
X10397682Y-10682484D02*
X10521491Y-10682484D01*
X10692920Y-10482484D02*
X10654825Y-10482484D01*
X10654825Y-10482484D02*
X10635777Y-10492008D01*
X10635777Y-10492008D02*
X10626253Y-10501531D01*
X10626253Y-10501531D02*
X10607206Y-10530103D01*
X10607206Y-10530103D02*
X10597682Y-10568198D01*
X10597682Y-10568198D02*
X10597682Y-10644389D01*
X10597682Y-10644389D02*
X10607206Y-10663436D01*
X10607206Y-10663436D02*
X10616729Y-10672960D01*
X10616729Y-10672960D02*
X10635777Y-10682484D01*
X10635777Y-10682484D02*
X10673872Y-10682484D01*
X10673872Y-10682484D02*
X10692920Y-10672960D01*
X10692920Y-10672960D02*
X10702444Y-10663436D01*
X10702444Y-10663436D02*
X10711968Y-10644389D01*
X10711968Y-10644389D02*
X10711968Y-10596770D01*
X10711968Y-10596770D02*
X10702444Y-10577722D01*
X10702444Y-10577722D02*
X10692920Y-10568198D01*
X10692920Y-10568198D02*
X10673872Y-10558674D01*
X10673872Y-10558674D02*
X10635777Y-10558674D01*
X10635777Y-10558674D02*
X10616729Y-10568198D01*
X10616729Y-10568198D02*
X10607206Y-10577722D01*
X10607206Y-10577722D02*
X10597682Y-10596770D01*
X10835777Y-10482484D02*
X10854825Y-10482484D01*
X10854825Y-10482484D02*
X10873872Y-10492008D01*
X10873872Y-10492008D02*
X10883396Y-10501531D01*
X10883396Y-10501531D02*
X10892920Y-10520579D01*
X10892920Y-10520579D02*
X10902444Y-10558674D01*
X10902444Y-10558674D02*
X10902444Y-10606293D01*
X10902444Y-10606293D02*
X10892920Y-10644389D01*
X10892920Y-10644389D02*
X10883396Y-10663436D01*
X10883396Y-10663436D02*
X10873872Y-10672960D01*
X10873872Y-10672960D02*
X10854825Y-10682484D01*
X10854825Y-10682484D02*
X10835777Y-10682484D01*
X10835777Y-10682484D02*
X10816729Y-10672960D01*
X10816729Y-10672960D02*
X10807206Y-10663436D01*
X10807206Y-10663436D02*
X10797682Y-10644389D01*
X10797682Y-10644389D02*
X10788158Y-10606293D01*
X10788158Y-10606293D02*
X10788158Y-10558674D01*
X10788158Y-10558674D02*
X10797682Y-10520579D01*
X10797682Y-10520579D02*
X10807206Y-10501531D01*
X10807206Y-10501531D02*
X10816729Y-10492008D01*
X10816729Y-10492008D02*
X10835777Y-10482484D01*
X10978634Y-10482484D02*
X10978634Y-10520579D01*
X11054825Y-10482484D02*
X11054825Y-10520579D01*
X11350063Y-10758674D02*
X11340539Y-10749150D01*
X11340539Y-10749150D02*
X11321491Y-10720579D01*
X11321491Y-10720579D02*
X11311968Y-10701531D01*
X11311968Y-10701531D02*
X11302444Y-10672960D01*
X11302444Y-10672960D02*
X11292920Y-10625341D01*
X11292920Y-10625341D02*
X11292920Y-10587246D01*
X11292920Y-10587246D02*
X11302444Y-10539627D01*
X11302444Y-10539627D02*
X11311968Y-10511055D01*
X11311968Y-10511055D02*
X11321491Y-10492008D01*
X11321491Y-10492008D02*
X11340539Y-10463436D01*
X11340539Y-10463436D02*
X11350063Y-10453912D01*
X11416729Y-10501531D02*
X11426253Y-10492008D01*
X11426253Y-10492008D02*
X11445301Y-10482484D01*
X11445301Y-10482484D02*
X11492920Y-10482484D01*
X11492920Y-10482484D02*
X11511968Y-10492008D01*
X11511968Y-10492008D02*
X11521491Y-10501531D01*
X11521491Y-10501531D02*
X11531015Y-10520579D01*
X11531015Y-10520579D02*
X11531015Y-10539627D01*
X11531015Y-10539627D02*
X11521491Y-10568198D01*
X11521491Y-10568198D02*
X11407206Y-10682484D01*
X11407206Y-10682484D02*
X11531015Y-10682484D01*
X11769110Y-10682484D02*
X11769110Y-10482484D01*
X11854825Y-10682484D02*
X11854825Y-10577722D01*
X11854825Y-10577722D02*
X11845301Y-10558674D01*
X11845301Y-10558674D02*
X11826253Y-10549150D01*
X11826253Y-10549150D02*
X11797682Y-10549150D01*
X11797682Y-10549150D02*
X11778634Y-10558674D01*
X11778634Y-10558674D02*
X11769110Y-10568198D01*
X11978634Y-10682484D02*
X11959587Y-10672960D01*
X11959587Y-10672960D02*
X11950063Y-10663436D01*
X11950063Y-10663436D02*
X11940539Y-10644389D01*
X11940539Y-10644389D02*
X11940539Y-10587246D01*
X11940539Y-10587246D02*
X11950063Y-10568198D01*
X11950063Y-10568198D02*
X11959587Y-10558674D01*
X11959587Y-10558674D02*
X11978634Y-10549150D01*
X11978634Y-10549150D02*
X12007206Y-10549150D01*
X12007206Y-10549150D02*
X12026253Y-10558674D01*
X12026253Y-10558674D02*
X12035777Y-10568198D01*
X12035777Y-10568198D02*
X12045301Y-10587246D01*
X12045301Y-10587246D02*
X12045301Y-10644389D01*
X12045301Y-10644389D02*
X12035777Y-10663436D01*
X12035777Y-10663436D02*
X12026253Y-10672960D01*
X12026253Y-10672960D02*
X12007206Y-10682484D01*
X12007206Y-10682484D02*
X11978634Y-10682484D01*
X12159587Y-10682484D02*
X12140539Y-10672960D01*
X12140539Y-10672960D02*
X12131015Y-10653912D01*
X12131015Y-10653912D02*
X12131015Y-10482484D01*
X12311968Y-10672960D02*
X12292920Y-10682484D01*
X12292920Y-10682484D02*
X12254825Y-10682484D01*
X12254825Y-10682484D02*
X12235777Y-10672960D01*
X12235777Y-10672960D02*
X12226253Y-10653912D01*
X12226253Y-10653912D02*
X12226253Y-10577722D01*
X12226253Y-10577722D02*
X12235777Y-10558674D01*
X12235777Y-10558674D02*
X12254825Y-10549150D01*
X12254825Y-10549150D02*
X12292920Y-10549150D01*
X12292920Y-10549150D02*
X12311968Y-10558674D01*
X12311968Y-10558674D02*
X12321491Y-10577722D01*
X12321491Y-10577722D02*
X12321491Y-10596770D01*
X12321491Y-10596770D02*
X12226253Y-10615817D01*
X12397682Y-10672960D02*
X12416730Y-10682484D01*
X12416730Y-10682484D02*
X12454825Y-10682484D01*
X12454825Y-10682484D02*
X12473872Y-10672960D01*
X12473872Y-10672960D02*
X12483396Y-10653912D01*
X12483396Y-10653912D02*
X12483396Y-10644389D01*
X12483396Y-10644389D02*
X12473872Y-10625341D01*
X12473872Y-10625341D02*
X12454825Y-10615817D01*
X12454825Y-10615817D02*
X12426253Y-10615817D01*
X12426253Y-10615817D02*
X12407206Y-10606293D01*
X12407206Y-10606293D02*
X12397682Y-10587246D01*
X12397682Y-10587246D02*
X12397682Y-10577722D01*
X12397682Y-10577722D02*
X12407206Y-10558674D01*
X12407206Y-10558674D02*
X12426253Y-10549150D01*
X12426253Y-10549150D02*
X12454825Y-10549150D01*
X12454825Y-10549150D02*
X12473872Y-10558674D01*
X12550063Y-10758674D02*
X12559587Y-10749150D01*
X12559587Y-10749150D02*
X12578634Y-10720579D01*
X12578634Y-10720579D02*
X12588158Y-10701531D01*
X12588158Y-10701531D02*
X12597682Y-10672960D01*
X12597682Y-10672960D02*
X12607206Y-10625341D01*
X12607206Y-10625341D02*
X12607206Y-10587246D01*
X12607206Y-10587246D02*
X12597682Y-10539627D01*
X12597682Y-10539627D02*
X12588158Y-10511055D01*
X12588158Y-10511055D02*
X12578634Y-10492008D01*
X12578634Y-10492008D02*
X12559587Y-10463436D01*
X12559587Y-10463436D02*
X12550063Y-10453912D01*
M02*
