M48
; DRILL file {KiCad 8.0.4} date 2024-08-16T16:00:30+0200
; FORMAT={-:-/ absolute / metric / decimal}
; #@! TF.CreationDate,2024-08-16T16:00:30+02:00
; #@! TF.GenerationSoftware,Kicad,Pcbnew,8.0.4
; #@! TF.FileFunction,Plated,1,2,PTH
FMAT,2
METRIC
; #@! TA.AperFunction,Plated,PTH,ViaDrill
T1C0.400
; #@! TA.AperFunction,Plated,PTH,ComponentDrill
T2C0.500
; #@! TA.AperFunction,Plated,PTH,ComponentDrill
T3C0.800
; #@! TA.AperFunction,Plated,PTH,ComponentDrill
T4C1.000
; #@! TA.AperFunction,Plated,PTH,ComponentDrill
T5C3.200
%
G90
G05
T1
X87.439Y-56.325
X87.884Y-74.168
X89.916Y-40.64
X89.916Y-43.18
X89.916Y-58.42
X91.265Y-45.12
X91.265Y-61.63
X91.44Y-48.895
X91.9Y-53.375
X95.075Y-45.12
X95.075Y-48.93
X95.075Y-61.63
X99.52Y-51.627
X99.52Y-58.455
X100.155Y-67.98
X104.775Y-50.8
X104.775Y-62.23
X109.68Y-60.995
X109.772Y-57.809
X109.855Y-48.26
X109.885Y-45.55
X110.95Y-67.98
X111.125Y-64.77
X111.379Y-79.375
X111.76Y-76.835
X113.03Y-71.12
X113.285Y-45.55
X113.49Y-57.82
X113.49Y-60.995
X114.012Y-42.058
X114.125Y-39.405
X117.094Y-63.535
X118.11Y-51.089
X118.11Y-58.42
X120.65Y-50.165
X120.65Y-58.42
X124.968Y-79.756
X130.0Y-33.055
X132.54Y-50.835
X132.54Y-56.55
X139.192Y-77.47
X142.065Y-45.12
X142.065Y-48.93
X142.157Y-57.82
X142.24Y-61.468
X145.796Y-61.468
X145.832Y-57.78
X145.875Y-45.12
X148.415Y-65.44
X150.32Y-47.66
X152.86Y-63.535
X153.495Y-54.927
X153.495Y-65.44
X154.305Y-45.72
X155.4Y-50.835
X155.4Y-55.28
X157.305Y-50.835
X157.305Y-55.28
X163.02Y-34.96
T2
X83.185Y-67.945
X86.868Y-63.5
X88.392Y-76.962
X89.662Y-74.93
X93.424Y-65.44
X98.758Y-38.77
X100.33Y-63.5
X100.33Y-71.755
X101.346Y-45.212
X103.886Y-32.004
X105.87Y-66.71
X109.426Y-59.598
X111.204Y-70.266
X116.332Y-34.544
X118.11Y-79.375
X120.015Y-69.215
X123.904Y-49.946
X124.158Y-36.83
X124.158Y-44.358
X126.19Y-58.836
X128.016Y-61.722
X131.27Y-41.31
X131.524Y-44.866
X134.318Y-60.614
X135.255Y-73.66
X135.588Y-42.58
X146.51Y-74.584
X146.764Y-65.186
X156.845Y-83.82
X157.48Y-71.628
X162.512Y-39.53
T3
X83.645Y-48.335
X83.645Y-53.335
X83.645Y-58.246
X83.645Y-63.246
X83.645Y-75.692
X83.645Y-78.192
X95.964Y-68.58
X95.964Y-71.08
X97.615Y-42.58
X97.615Y-47.58
X102.06Y-55.915
X102.06Y-60.915
X108.41Y-64.805
X108.41Y-69.805
X113.03Y-29.21
X113.03Y-31.71
X121.11Y-73.065
X121.11Y-75.565
X123.65Y-55.995
X123.65Y-60.995
X126.825Y-39.405
X126.825Y-41.905
X128.095Y-46.39
X128.095Y-48.89
X132.715Y-66.798
X132.715Y-69.298
X134.3Y-36.4
X134.3Y-38.9
X145.24Y-68.615
X145.24Y-71.115
X154.432Y-75.565
X154.432Y-78.065
X156.67Y-38.77
X156.67Y-41.27
X161.29Y-47.66
X161.29Y-50.16
X161.925Y-55.28
X161.925Y-57.78
T4
X89.576Y-82.55
X89.576Y-85.09
X91.44Y-27.305
X92.076Y-82.59
X92.076Y-85.09
X93.98Y-27.305
X94.576Y-85.09
X94.656Y-82.55
X96.52Y-27.305
X103.505Y-27.305
X106.045Y-27.305
X108.585Y-85.09
X111.125Y-85.09
X113.665Y-85.09
X119.38Y-27.305
X121.92Y-27.305
X127.673Y-82.55
X127.673Y-85.09
X130.173Y-82.59
X130.173Y-85.09
X132.673Y-85.09
X132.753Y-82.55
X142.7Y-27.305
X145.24Y-27.305
X146.685Y-85.09
X149.225Y-85.09
X151.765Y-85.09
X165.75Y-85.09
X168.29Y-85.09
X170.005Y-47.66
X170.005Y-50.2
X170.005Y-52.74
X170.005Y-55.28
X170.005Y-57.82
X170.83Y-85.09
X172.545Y-47.66
X172.545Y-50.2
X172.545Y-52.74
X172.545Y-55.28
X172.545Y-57.82
T5
X83.82Y-29.21
X172.085Y-29.21
M30
