G04 #@! TF.GenerationSoftware,KiCad,Pcbnew,8.0.4*
G04 #@! TF.CreationDate,2024-08-16T16:00:28+02:00*
G04 #@! TF.ProjectId,Purrtico_M,50757272-7469-4636-9f5f-4d2e6b696361,01*
G04 #@! TF.SameCoordinates,Original*
G04 #@! TF.FileFunction,Legend,Bot*
G04 #@! TF.FilePolarity,Positive*
%FSLAX46Y46*%
G04 Gerber Fmt 4.6, Leading zero omitted, Abs format (unit mm)*
G04 Created by KiCad (PCBNEW 8.0.4) date 2024-08-16 16:00:28*
%MOMM*%
%LPD*%
G01*
G04 APERTURE LIST*
G04 Aperture macros list*
%AMRoundRect*
0 Rectangle with rounded corners*
0 $1 Rounding radius*
0 $2 $3 $4 $5 $6 $7 $8 $9 X,Y pos of 4 corners*
0 Add a 4 corners polygon primitive as box body*
4,1,4,$2,$3,$4,$5,$6,$7,$8,$9,$2,$3,0*
0 Add four circle primitives for the rounded corners*
1,1,$1+$1,$2,$3*
1,1,$1+$1,$4,$5*
1,1,$1+$1,$6,$7*
1,1,$1+$1,$8,$9*
0 Add four rect primitives between the rounded corners*
20,1,$1+$1,$2,$3,$4,$5,0*
20,1,$1+$1,$4,$5,$6,$7,0*
20,1,$1+$1,$6,$7,$8,$9,0*
20,1,$1+$1,$8,$9,$2,$3,0*%
G04 Aperture macros list end*
%ADD10C,0.203200*%
%ADD11C,0.120000*%
%ADD12C,1.000000*%
%ADD13R,1.700000X1.700000*%
%ADD14O,1.700000X1.700000*%
%ADD15C,5.600000*%
%ADD16R,1.600000X1.600000*%
%ADD17C,1.600000*%
%ADD18RoundRect,0.250000X-0.312500X-0.625000X0.312500X-0.625000X0.312500X0.625000X-0.312500X0.625000X0*%
%ADD19RoundRect,0.250000X0.312500X0.625000X-0.312500X0.625000X-0.312500X-0.625000X0.312500X-0.625000X0*%
G04 APERTURE END LIST*
D10*
X167385363Y-46824009D02*
X166962030Y-48094009D01*
X166962030Y-48094009D02*
X166538696Y-46824009D01*
X166115364Y-47610199D02*
X165147745Y-47610199D01*
X165631554Y-48094009D02*
X165631554Y-47126390D01*
X167173696Y-52599485D02*
X167294649Y-52539009D01*
X167294649Y-52539009D02*
X167476077Y-52539009D01*
X167476077Y-52539009D02*
X167657506Y-52599485D01*
X167657506Y-52599485D02*
X167778458Y-52720437D01*
X167778458Y-52720437D02*
X167838935Y-52841390D01*
X167838935Y-52841390D02*
X167899411Y-53083294D01*
X167899411Y-53083294D02*
X167899411Y-53264723D01*
X167899411Y-53264723D02*
X167838935Y-53506628D01*
X167838935Y-53506628D02*
X167778458Y-53627580D01*
X167778458Y-53627580D02*
X167657506Y-53748533D01*
X167657506Y-53748533D02*
X167476077Y-53809009D01*
X167476077Y-53809009D02*
X167355125Y-53809009D01*
X167355125Y-53809009D02*
X167173696Y-53748533D01*
X167173696Y-53748533D02*
X167113220Y-53688056D01*
X167113220Y-53688056D02*
X167113220Y-53264723D01*
X167113220Y-53264723D02*
X167355125Y-53264723D01*
X166568935Y-53809009D02*
X166568935Y-52539009D01*
X166568935Y-52539009D02*
X165843220Y-53809009D01*
X165843220Y-53809009D02*
X165843220Y-52539009D01*
X165238459Y-53809009D02*
X165238459Y-52539009D01*
X165238459Y-52539009D02*
X164936078Y-52539009D01*
X164936078Y-52539009D02*
X164754649Y-52599485D01*
X164754649Y-52599485D02*
X164633697Y-52720437D01*
X164633697Y-52720437D02*
X164573220Y-52841390D01*
X164573220Y-52841390D02*
X164512744Y-53083294D01*
X164512744Y-53083294D02*
X164512744Y-53264723D01*
X164512744Y-53264723D02*
X164573220Y-53506628D01*
X164573220Y-53506628D02*
X164633697Y-53627580D01*
X164633697Y-53627580D02*
X164754649Y-53748533D01*
X164754649Y-53748533D02*
X164936078Y-53809009D01*
X164936078Y-53809009D02*
X165238459Y-53809009D01*
X167385363Y-56984009D02*
X166962030Y-58254009D01*
X166962030Y-58254009D02*
X166538696Y-56984009D01*
X166115364Y-57770199D02*
X165147745Y-57770199D01*
X111427380Y-71858959D02*
X110701666Y-71858959D01*
X111064523Y-73128959D02*
X111064523Y-71858959D01*
X110278333Y-73128959D02*
X110278333Y-71858959D01*
X110278333Y-71858959D02*
X109794523Y-71858959D01*
X109794523Y-71858959D02*
X109673571Y-71919435D01*
X109673571Y-71919435D02*
X109613094Y-71979911D01*
X109613094Y-71979911D02*
X109552618Y-72100863D01*
X109552618Y-72100863D02*
X109552618Y-72282292D01*
X109552618Y-72282292D02*
X109613094Y-72403244D01*
X109613094Y-72403244D02*
X109673571Y-72463721D01*
X109673571Y-72463721D02*
X109794523Y-72524197D01*
X109794523Y-72524197D02*
X110278333Y-72524197D01*
X109068809Y-71979911D02*
X109008333Y-71919435D01*
X109008333Y-71919435D02*
X108887380Y-71858959D01*
X108887380Y-71858959D02*
X108584999Y-71858959D01*
X108584999Y-71858959D02*
X108464047Y-71919435D01*
X108464047Y-71919435D02*
X108403571Y-71979911D01*
X108403571Y-71979911D02*
X108343094Y-72100863D01*
X108343094Y-72100863D02*
X108343094Y-72221816D01*
X108343094Y-72221816D02*
X108403571Y-72403244D01*
X108403571Y-72403244D02*
X109129285Y-73128959D01*
X109129285Y-73128959D02*
X108343094Y-73128959D01*
X107919761Y-71858959D02*
X107073094Y-71858959D01*
X107073094Y-71858959D02*
X107617380Y-73128959D01*
X122966618Y-36136959D02*
X122240904Y-36136959D01*
X122603761Y-37406959D02*
X122603761Y-36136959D01*
X121817571Y-37406959D02*
X121817571Y-36136959D01*
X121817571Y-36136959D02*
X121333761Y-36136959D01*
X121333761Y-36136959D02*
X121212809Y-36197435D01*
X121212809Y-36197435D02*
X121152332Y-36257911D01*
X121152332Y-36257911D02*
X121091856Y-36378863D01*
X121091856Y-36378863D02*
X121091856Y-36560292D01*
X121091856Y-36560292D02*
X121152332Y-36681244D01*
X121152332Y-36681244D02*
X121212809Y-36741721D01*
X121212809Y-36741721D02*
X121333761Y-36802197D01*
X121333761Y-36802197D02*
X121817571Y-36802197D01*
X119882332Y-37406959D02*
X120608047Y-37406959D01*
X120245190Y-37406959D02*
X120245190Y-36136959D01*
X120245190Y-36136959D02*
X120366142Y-36318387D01*
X120366142Y-36318387D02*
X120487094Y-36439340D01*
X120487094Y-36439340D02*
X120608047Y-36499816D01*
X129921380Y-55856959D02*
X129195666Y-55856959D01*
X129558523Y-57126959D02*
X129558523Y-55856959D01*
X128772333Y-57126959D02*
X128772333Y-55856959D01*
X128772333Y-55856959D02*
X128288523Y-55856959D01*
X128288523Y-55856959D02*
X128167571Y-55917435D01*
X128167571Y-55917435D02*
X128107094Y-55977911D01*
X128107094Y-55977911D02*
X128046618Y-56098863D01*
X128046618Y-56098863D02*
X128046618Y-56280292D01*
X128046618Y-56280292D02*
X128107094Y-56401244D01*
X128107094Y-56401244D02*
X128167571Y-56461721D01*
X128167571Y-56461721D02*
X128288523Y-56522197D01*
X128288523Y-56522197D02*
X128772333Y-56522197D01*
X127562809Y-55977911D02*
X127502333Y-55917435D01*
X127502333Y-55917435D02*
X127381380Y-55856959D01*
X127381380Y-55856959D02*
X127078999Y-55856959D01*
X127078999Y-55856959D02*
X126958047Y-55917435D01*
X126958047Y-55917435D02*
X126897571Y-55977911D01*
X126897571Y-55977911D02*
X126837094Y-56098863D01*
X126837094Y-56098863D02*
X126837094Y-56219816D01*
X126837094Y-56219816D02*
X126897571Y-56401244D01*
X126897571Y-56401244D02*
X127623285Y-57126959D01*
X127623285Y-57126959D02*
X126837094Y-57126959D01*
X126232332Y-57126959D02*
X125990428Y-57126959D01*
X125990428Y-57126959D02*
X125869475Y-57066483D01*
X125869475Y-57066483D02*
X125808999Y-57006006D01*
X125808999Y-57006006D02*
X125688047Y-56824578D01*
X125688047Y-56824578D02*
X125627570Y-56582673D01*
X125627570Y-56582673D02*
X125627570Y-56098863D01*
X125627570Y-56098863D02*
X125688047Y-55977911D01*
X125688047Y-55977911D02*
X125748523Y-55917435D01*
X125748523Y-55917435D02*
X125869475Y-55856959D01*
X125869475Y-55856959D02*
X126111380Y-55856959D01*
X126111380Y-55856959D02*
X126232332Y-55917435D01*
X126232332Y-55917435D02*
X126292809Y-55977911D01*
X126292809Y-55977911D02*
X126353285Y-56098863D01*
X126353285Y-56098863D02*
X126353285Y-56401244D01*
X126353285Y-56401244D02*
X126292809Y-56522197D01*
X126292809Y-56522197D02*
X126232332Y-56582673D01*
X126232332Y-56582673D02*
X126111380Y-56643149D01*
X126111380Y-56643149D02*
X125869475Y-56643149D01*
X125869475Y-56643149D02*
X125748523Y-56582673D01*
X125748523Y-56582673D02*
X125688047Y-56522197D01*
X125688047Y-56522197D02*
X125627570Y-56401244D01*
X132618618Y-38584959D02*
X131892904Y-38584959D01*
X132255761Y-39854959D02*
X132255761Y-38584959D01*
X131469571Y-39854959D02*
X131469571Y-38584959D01*
X131469571Y-38584959D02*
X130985761Y-38584959D01*
X130985761Y-38584959D02*
X130864809Y-38645435D01*
X130864809Y-38645435D02*
X130804332Y-38705911D01*
X130804332Y-38705911D02*
X130743856Y-38826863D01*
X130743856Y-38826863D02*
X130743856Y-39008292D01*
X130743856Y-39008292D02*
X130804332Y-39129244D01*
X130804332Y-39129244D02*
X130864809Y-39189721D01*
X130864809Y-39189721D02*
X130985761Y-39250197D01*
X130985761Y-39250197D02*
X131469571Y-39250197D01*
X130320523Y-38584959D02*
X129473856Y-38584959D01*
X129473856Y-38584959D02*
X130018142Y-39854959D01*
X132255380Y-59250959D02*
X131529666Y-59250959D01*
X131892523Y-60520959D02*
X131892523Y-59250959D01*
X131106333Y-60520959D02*
X131106333Y-59250959D01*
X131106333Y-59250959D02*
X130622523Y-59250959D01*
X130622523Y-59250959D02*
X130501571Y-59311435D01*
X130501571Y-59311435D02*
X130441094Y-59371911D01*
X130441094Y-59371911D02*
X130380618Y-59492863D01*
X130380618Y-59492863D02*
X130380618Y-59674292D01*
X130380618Y-59674292D02*
X130441094Y-59795244D01*
X130441094Y-59795244D02*
X130501571Y-59855721D01*
X130501571Y-59855721D02*
X130622523Y-59916197D01*
X130622523Y-59916197D02*
X131106333Y-59916197D01*
X129896809Y-59371911D02*
X129836333Y-59311435D01*
X129836333Y-59311435D02*
X129715380Y-59250959D01*
X129715380Y-59250959D02*
X129412999Y-59250959D01*
X129412999Y-59250959D02*
X129292047Y-59311435D01*
X129292047Y-59311435D02*
X129231571Y-59371911D01*
X129231571Y-59371911D02*
X129171094Y-59492863D01*
X129171094Y-59492863D02*
X129171094Y-59613816D01*
X129171094Y-59613816D02*
X129231571Y-59795244D01*
X129231571Y-59795244D02*
X129957285Y-60520959D01*
X129957285Y-60520959D02*
X129171094Y-60520959D01*
X128445380Y-59795244D02*
X128566332Y-59734768D01*
X128566332Y-59734768D02*
X128626809Y-59674292D01*
X128626809Y-59674292D02*
X128687285Y-59553340D01*
X128687285Y-59553340D02*
X128687285Y-59492863D01*
X128687285Y-59492863D02*
X128626809Y-59371911D01*
X128626809Y-59371911D02*
X128566332Y-59311435D01*
X128566332Y-59311435D02*
X128445380Y-59250959D01*
X128445380Y-59250959D02*
X128203475Y-59250959D01*
X128203475Y-59250959D02*
X128082523Y-59311435D01*
X128082523Y-59311435D02*
X128022047Y-59371911D01*
X128022047Y-59371911D02*
X127961570Y-59492863D01*
X127961570Y-59492863D02*
X127961570Y-59553340D01*
X127961570Y-59553340D02*
X128022047Y-59674292D01*
X128022047Y-59674292D02*
X128082523Y-59734768D01*
X128082523Y-59734768D02*
X128203475Y-59795244D01*
X128203475Y-59795244D02*
X128445380Y-59795244D01*
X128445380Y-59795244D02*
X128566332Y-59855721D01*
X128566332Y-59855721D02*
X128626809Y-59916197D01*
X128626809Y-59916197D02*
X128687285Y-60037149D01*
X128687285Y-60037149D02*
X128687285Y-60279054D01*
X128687285Y-60279054D02*
X128626809Y-60400006D01*
X128626809Y-60400006D02*
X128566332Y-60460483D01*
X128566332Y-60460483D02*
X128445380Y-60520959D01*
X128445380Y-60520959D02*
X128203475Y-60520959D01*
X128203475Y-60520959D02*
X128082523Y-60460483D01*
X128082523Y-60460483D02*
X128022047Y-60400006D01*
X128022047Y-60400006D02*
X127961570Y-60279054D01*
X127961570Y-60279054D02*
X127961570Y-60037149D01*
X127961570Y-60037149D02*
X128022047Y-59916197D01*
X128022047Y-59916197D02*
X128082523Y-59855721D01*
X128082523Y-59855721D02*
X128203475Y-59795244D01*
X104315380Y-41978959D02*
X103589666Y-41978959D01*
X103952523Y-43248959D02*
X103952523Y-41978959D01*
X103166333Y-43248959D02*
X103166333Y-41978959D01*
X103166333Y-41978959D02*
X102682523Y-41978959D01*
X102682523Y-41978959D02*
X102561571Y-42039435D01*
X102561571Y-42039435D02*
X102501094Y-42099911D01*
X102501094Y-42099911D02*
X102440618Y-42220863D01*
X102440618Y-42220863D02*
X102440618Y-42402292D01*
X102440618Y-42402292D02*
X102501094Y-42523244D01*
X102501094Y-42523244D02*
X102561571Y-42583721D01*
X102561571Y-42583721D02*
X102682523Y-42644197D01*
X102682523Y-42644197D02*
X103166333Y-42644197D01*
X101956809Y-42099911D02*
X101896333Y-42039435D01*
X101896333Y-42039435D02*
X101775380Y-41978959D01*
X101775380Y-41978959D02*
X101472999Y-41978959D01*
X101472999Y-41978959D02*
X101352047Y-42039435D01*
X101352047Y-42039435D02*
X101291571Y-42099911D01*
X101291571Y-42099911D02*
X101231094Y-42220863D01*
X101231094Y-42220863D02*
X101231094Y-42341816D01*
X101231094Y-42341816D02*
X101291571Y-42523244D01*
X101291571Y-42523244D02*
X102017285Y-43248959D01*
X102017285Y-43248959D02*
X101231094Y-43248959D01*
X100747285Y-42099911D02*
X100686809Y-42039435D01*
X100686809Y-42039435D02*
X100565856Y-41978959D01*
X100565856Y-41978959D02*
X100263475Y-41978959D01*
X100263475Y-41978959D02*
X100142523Y-42039435D01*
X100142523Y-42039435D02*
X100082047Y-42099911D01*
X100082047Y-42099911D02*
X100021570Y-42220863D01*
X100021570Y-42220863D02*
X100021570Y-42341816D01*
X100021570Y-42341816D02*
X100082047Y-42523244D01*
X100082047Y-42523244D02*
X100807761Y-43248959D01*
X100807761Y-43248959D02*
X100021570Y-43248959D01*
X138206618Y-39854959D02*
X137480904Y-39854959D01*
X137843761Y-41124959D02*
X137843761Y-39854959D01*
X137057571Y-41124959D02*
X137057571Y-39854959D01*
X137057571Y-39854959D02*
X136573761Y-39854959D01*
X136573761Y-39854959D02*
X136452809Y-39915435D01*
X136452809Y-39915435D02*
X136392332Y-39975911D01*
X136392332Y-39975911D02*
X136331856Y-40096863D01*
X136331856Y-40096863D02*
X136331856Y-40278292D01*
X136331856Y-40278292D02*
X136392332Y-40399244D01*
X136392332Y-40399244D02*
X136452809Y-40459721D01*
X136452809Y-40459721D02*
X136573761Y-40520197D01*
X136573761Y-40520197D02*
X137057571Y-40520197D01*
X135606142Y-40399244D02*
X135727094Y-40338768D01*
X135727094Y-40338768D02*
X135787571Y-40278292D01*
X135787571Y-40278292D02*
X135848047Y-40157340D01*
X135848047Y-40157340D02*
X135848047Y-40096863D01*
X135848047Y-40096863D02*
X135787571Y-39975911D01*
X135787571Y-39975911D02*
X135727094Y-39915435D01*
X135727094Y-39915435D02*
X135606142Y-39854959D01*
X135606142Y-39854959D02*
X135364237Y-39854959D01*
X135364237Y-39854959D02*
X135243285Y-39915435D01*
X135243285Y-39915435D02*
X135182809Y-39975911D01*
X135182809Y-39975911D02*
X135122332Y-40096863D01*
X135122332Y-40096863D02*
X135122332Y-40157340D01*
X135122332Y-40157340D02*
X135182809Y-40278292D01*
X135182809Y-40278292D02*
X135243285Y-40338768D01*
X135243285Y-40338768D02*
X135364237Y-40399244D01*
X135364237Y-40399244D02*
X135606142Y-40399244D01*
X135606142Y-40399244D02*
X135727094Y-40459721D01*
X135727094Y-40459721D02*
X135787571Y-40520197D01*
X135787571Y-40520197D02*
X135848047Y-40641149D01*
X135848047Y-40641149D02*
X135848047Y-40883054D01*
X135848047Y-40883054D02*
X135787571Y-41004006D01*
X135787571Y-41004006D02*
X135727094Y-41064483D01*
X135727094Y-41064483D02*
X135606142Y-41124959D01*
X135606142Y-41124959D02*
X135364237Y-41124959D01*
X135364237Y-41124959D02*
X135243285Y-41064483D01*
X135243285Y-41064483D02*
X135182809Y-41004006D01*
X135182809Y-41004006D02*
X135122332Y-40883054D01*
X135122332Y-40883054D02*
X135122332Y-40641149D01*
X135122332Y-40641149D02*
X135182809Y-40520197D01*
X135182809Y-40520197D02*
X135243285Y-40459721D01*
X135243285Y-40459721D02*
X135364237Y-40399244D01*
X100251380Y-61028959D02*
X99525666Y-61028959D01*
X99888523Y-62298959D02*
X99888523Y-61028959D01*
X99102333Y-62298959D02*
X99102333Y-61028959D01*
X99102333Y-61028959D02*
X98618523Y-61028959D01*
X98618523Y-61028959D02*
X98497571Y-61089435D01*
X98497571Y-61089435D02*
X98437094Y-61149911D01*
X98437094Y-61149911D02*
X98376618Y-61270863D01*
X98376618Y-61270863D02*
X98376618Y-61452292D01*
X98376618Y-61452292D02*
X98437094Y-61573244D01*
X98437094Y-61573244D02*
X98497571Y-61633721D01*
X98497571Y-61633721D02*
X98618523Y-61694197D01*
X98618523Y-61694197D02*
X99102333Y-61694197D01*
X97892809Y-61149911D02*
X97832333Y-61089435D01*
X97832333Y-61089435D02*
X97711380Y-61028959D01*
X97711380Y-61028959D02*
X97408999Y-61028959D01*
X97408999Y-61028959D02*
X97288047Y-61089435D01*
X97288047Y-61089435D02*
X97227571Y-61149911D01*
X97227571Y-61149911D02*
X97167094Y-61270863D01*
X97167094Y-61270863D02*
X97167094Y-61391816D01*
X97167094Y-61391816D02*
X97227571Y-61573244D01*
X97227571Y-61573244D02*
X97953285Y-62298959D01*
X97953285Y-62298959D02*
X97167094Y-62298959D01*
X96743761Y-61028959D02*
X95957570Y-61028959D01*
X95957570Y-61028959D02*
X96380904Y-61512768D01*
X96380904Y-61512768D02*
X96199475Y-61512768D01*
X96199475Y-61512768D02*
X96078523Y-61573244D01*
X96078523Y-61573244D02*
X96018047Y-61633721D01*
X96018047Y-61633721D02*
X95957570Y-61754673D01*
X95957570Y-61754673D02*
X95957570Y-62057054D01*
X95957570Y-62057054D02*
X96018047Y-62178006D01*
X96018047Y-62178006D02*
X96078523Y-62238483D01*
X96078523Y-62238483D02*
X96199475Y-62298959D01*
X96199475Y-62298959D02*
X96562332Y-62298959D01*
X96562332Y-62298959D02*
X96683285Y-62238483D01*
X96683285Y-62238483D02*
X96743761Y-62178006D01*
X169037380Y-39092959D02*
X168311666Y-39092959D01*
X168674523Y-40362959D02*
X168674523Y-39092959D01*
X167888333Y-40362959D02*
X167888333Y-39092959D01*
X167888333Y-39092959D02*
X167404523Y-39092959D01*
X167404523Y-39092959D02*
X167283571Y-39153435D01*
X167283571Y-39153435D02*
X167223094Y-39213911D01*
X167223094Y-39213911D02*
X167162618Y-39334863D01*
X167162618Y-39334863D02*
X167162618Y-39516292D01*
X167162618Y-39516292D02*
X167223094Y-39637244D01*
X167223094Y-39637244D02*
X167283571Y-39697721D01*
X167283571Y-39697721D02*
X167404523Y-39758197D01*
X167404523Y-39758197D02*
X167888333Y-39758197D01*
X165953094Y-40362959D02*
X166678809Y-40362959D01*
X166315952Y-40362959D02*
X166315952Y-39092959D01*
X166315952Y-39092959D02*
X166436904Y-39274387D01*
X166436904Y-39274387D02*
X166557856Y-39395340D01*
X166557856Y-39395340D02*
X166678809Y-39455816D01*
X165529761Y-39092959D02*
X164743570Y-39092959D01*
X164743570Y-39092959D02*
X165166904Y-39576768D01*
X165166904Y-39576768D02*
X164985475Y-39576768D01*
X164985475Y-39576768D02*
X164864523Y-39637244D01*
X164864523Y-39637244D02*
X164804047Y-39697721D01*
X164804047Y-39697721D02*
X164743570Y-39818673D01*
X164743570Y-39818673D02*
X164743570Y-40121054D01*
X164743570Y-40121054D02*
X164804047Y-40242006D01*
X164804047Y-40242006D02*
X164864523Y-40302483D01*
X164864523Y-40302483D02*
X164985475Y-40362959D01*
X164985475Y-40362959D02*
X165348332Y-40362959D01*
X165348332Y-40362959D02*
X165469285Y-40302483D01*
X165469285Y-40302483D02*
X165529761Y-40242006D01*
X152019380Y-73890959D02*
X151293666Y-73890959D01*
X151656523Y-75160959D02*
X151656523Y-73890959D01*
X150870333Y-75160959D02*
X150870333Y-73890959D01*
X150870333Y-73890959D02*
X150386523Y-73890959D01*
X150386523Y-73890959D02*
X150265571Y-73951435D01*
X150265571Y-73951435D02*
X150205094Y-74011911D01*
X150205094Y-74011911D02*
X150144618Y-74132863D01*
X150144618Y-74132863D02*
X150144618Y-74314292D01*
X150144618Y-74314292D02*
X150205094Y-74435244D01*
X150205094Y-74435244D02*
X150265571Y-74495721D01*
X150265571Y-74495721D02*
X150386523Y-74556197D01*
X150386523Y-74556197D02*
X150870333Y-74556197D01*
X148935094Y-75160959D02*
X149660809Y-75160959D01*
X149297952Y-75160959D02*
X149297952Y-73890959D01*
X149297952Y-73890959D02*
X149418904Y-74072387D01*
X149418904Y-74072387D02*
X149539856Y-74193340D01*
X149539856Y-74193340D02*
X149660809Y-74253816D01*
X147725570Y-75160959D02*
X148451285Y-75160959D01*
X148088428Y-75160959D02*
X148088428Y-73890959D01*
X148088428Y-73890959D02*
X148209380Y-74072387D01*
X148209380Y-74072387D02*
X148330332Y-74193340D01*
X148330332Y-74193340D02*
X148451285Y-74253816D01*
X95885380Y-62714959D02*
X95159666Y-62714959D01*
X95522523Y-63984959D02*
X95522523Y-62714959D01*
X94736333Y-63984959D02*
X94736333Y-62714959D01*
X94736333Y-62714959D02*
X94252523Y-62714959D01*
X94252523Y-62714959D02*
X94131571Y-62775435D01*
X94131571Y-62775435D02*
X94071094Y-62835911D01*
X94071094Y-62835911D02*
X94010618Y-62956863D01*
X94010618Y-62956863D02*
X94010618Y-63138292D01*
X94010618Y-63138292D02*
X94071094Y-63259244D01*
X94071094Y-63259244D02*
X94131571Y-63319721D01*
X94131571Y-63319721D02*
X94252523Y-63380197D01*
X94252523Y-63380197D02*
X94736333Y-63380197D01*
X92801094Y-63984959D02*
X93526809Y-63984959D01*
X93163952Y-63984959D02*
X93163952Y-62714959D01*
X93163952Y-62714959D02*
X93284904Y-62896387D01*
X93284904Y-62896387D02*
X93405856Y-63017340D01*
X93405856Y-63017340D02*
X93526809Y-63077816D01*
X91712523Y-63138292D02*
X91712523Y-63984959D01*
X92014904Y-62654483D02*
X92317285Y-63561625D01*
X92317285Y-63561625D02*
X91531094Y-63561625D01*
X85392380Y-65219959D02*
X84666666Y-65219959D01*
X85029523Y-66489959D02*
X85029523Y-65219959D01*
X84243333Y-66489959D02*
X84243333Y-65219959D01*
X84243333Y-65219959D02*
X83759523Y-65219959D01*
X83759523Y-65219959D02*
X83638571Y-65280435D01*
X83638571Y-65280435D02*
X83578094Y-65340911D01*
X83578094Y-65340911D02*
X83517618Y-65461863D01*
X83517618Y-65461863D02*
X83517618Y-65643292D01*
X83517618Y-65643292D02*
X83578094Y-65764244D01*
X83578094Y-65764244D02*
X83638571Y-65824721D01*
X83638571Y-65824721D02*
X83759523Y-65885197D01*
X83759523Y-65885197D02*
X84243333Y-65885197D01*
X82308094Y-66489959D02*
X83033809Y-66489959D01*
X82670952Y-66489959D02*
X82670952Y-65219959D01*
X82670952Y-65219959D02*
X82791904Y-65401387D01*
X82791904Y-65401387D02*
X82912856Y-65522340D01*
X82912856Y-65522340D02*
X83033809Y-65582816D01*
X81219523Y-65219959D02*
X81461428Y-65219959D01*
X81461428Y-65219959D02*
X81582380Y-65280435D01*
X81582380Y-65280435D02*
X81642856Y-65340911D01*
X81642856Y-65340911D02*
X81763809Y-65522340D01*
X81763809Y-65522340D02*
X81824285Y-65764244D01*
X81824285Y-65764244D02*
X81824285Y-66248054D01*
X81824285Y-66248054D02*
X81763809Y-66369006D01*
X81763809Y-66369006D02*
X81703332Y-66429483D01*
X81703332Y-66429483D02*
X81582380Y-66489959D01*
X81582380Y-66489959D02*
X81340475Y-66489959D01*
X81340475Y-66489959D02*
X81219523Y-66429483D01*
X81219523Y-66429483D02*
X81159047Y-66369006D01*
X81159047Y-66369006D02*
X81098570Y-66248054D01*
X81098570Y-66248054D02*
X81098570Y-65945673D01*
X81098570Y-65945673D02*
X81159047Y-65824721D01*
X81159047Y-65824721D02*
X81219523Y-65764244D01*
X81219523Y-65764244D02*
X81340475Y-65703768D01*
X81340475Y-65703768D02*
X81582380Y-65703768D01*
X81582380Y-65703768D02*
X81703332Y-65764244D01*
X81703332Y-65764244D02*
X81763809Y-65824721D01*
X81763809Y-65824721D02*
X81824285Y-65945673D01*
X118539380Y-32402959D02*
X117813666Y-32402959D01*
X118176523Y-33672959D02*
X118176523Y-32402959D01*
X117390333Y-33672959D02*
X117390333Y-32402959D01*
X117390333Y-32402959D02*
X116906523Y-32402959D01*
X116906523Y-32402959D02*
X116785571Y-32463435D01*
X116785571Y-32463435D02*
X116725094Y-32523911D01*
X116725094Y-32523911D02*
X116664618Y-32644863D01*
X116664618Y-32644863D02*
X116664618Y-32826292D01*
X116664618Y-32826292D02*
X116725094Y-32947244D01*
X116725094Y-32947244D02*
X116785571Y-33007721D01*
X116785571Y-33007721D02*
X116906523Y-33068197D01*
X116906523Y-33068197D02*
X117390333Y-33068197D01*
X116241285Y-32402959D02*
X115455094Y-32402959D01*
X115455094Y-32402959D02*
X115878428Y-32886768D01*
X115878428Y-32886768D02*
X115696999Y-32886768D01*
X115696999Y-32886768D02*
X115576047Y-32947244D01*
X115576047Y-32947244D02*
X115515571Y-33007721D01*
X115515571Y-33007721D02*
X115455094Y-33128673D01*
X115455094Y-33128673D02*
X115455094Y-33431054D01*
X115455094Y-33431054D02*
X115515571Y-33552006D01*
X115515571Y-33552006D02*
X115576047Y-33612483D01*
X115576047Y-33612483D02*
X115696999Y-33672959D01*
X115696999Y-33672959D02*
X116059856Y-33672959D01*
X116059856Y-33672959D02*
X116180809Y-33612483D01*
X116180809Y-33612483D02*
X116241285Y-33552006D01*
X114668904Y-32402959D02*
X114547951Y-32402959D01*
X114547951Y-32402959D02*
X114426999Y-32463435D01*
X114426999Y-32463435D02*
X114366523Y-32523911D01*
X114366523Y-32523911D02*
X114306047Y-32644863D01*
X114306047Y-32644863D02*
X114245570Y-32886768D01*
X114245570Y-32886768D02*
X114245570Y-33189149D01*
X114245570Y-33189149D02*
X114306047Y-33431054D01*
X114306047Y-33431054D02*
X114366523Y-33552006D01*
X114366523Y-33552006D02*
X114426999Y-33612483D01*
X114426999Y-33612483D02*
X114547951Y-33672959D01*
X114547951Y-33672959D02*
X114668904Y-33672959D01*
X114668904Y-33672959D02*
X114789856Y-33612483D01*
X114789856Y-33612483D02*
X114850332Y-33552006D01*
X114850332Y-33552006D02*
X114910809Y-33431054D01*
X114910809Y-33431054D02*
X114971285Y-33189149D01*
X114971285Y-33189149D02*
X114971285Y-32886768D01*
X114971285Y-32886768D02*
X114910809Y-32644863D01*
X114910809Y-32644863D02*
X114850332Y-32523911D01*
X114850332Y-32523911D02*
X114789856Y-32463435D01*
X114789856Y-32463435D02*
X114668904Y-32402959D01*
X89837380Y-60266959D02*
X89111666Y-60266959D01*
X89474523Y-61536959D02*
X89474523Y-60266959D01*
X88688333Y-61536959D02*
X88688333Y-60266959D01*
X88688333Y-60266959D02*
X88204523Y-60266959D01*
X88204523Y-60266959D02*
X88083571Y-60327435D01*
X88083571Y-60327435D02*
X88023094Y-60387911D01*
X88023094Y-60387911D02*
X87962618Y-60508863D01*
X87962618Y-60508863D02*
X87962618Y-60690292D01*
X87962618Y-60690292D02*
X88023094Y-60811244D01*
X88023094Y-60811244D02*
X88083571Y-60871721D01*
X88083571Y-60871721D02*
X88204523Y-60932197D01*
X88204523Y-60932197D02*
X88688333Y-60932197D01*
X87478809Y-60387911D02*
X87418333Y-60327435D01*
X87418333Y-60327435D02*
X87297380Y-60266959D01*
X87297380Y-60266959D02*
X86994999Y-60266959D01*
X86994999Y-60266959D02*
X86874047Y-60327435D01*
X86874047Y-60327435D02*
X86813571Y-60387911D01*
X86813571Y-60387911D02*
X86753094Y-60508863D01*
X86753094Y-60508863D02*
X86753094Y-60629816D01*
X86753094Y-60629816D02*
X86813571Y-60811244D01*
X86813571Y-60811244D02*
X87539285Y-61536959D01*
X87539285Y-61536959D02*
X86753094Y-61536959D01*
X85604047Y-60266959D02*
X86208809Y-60266959D01*
X86208809Y-60266959D02*
X86269285Y-60871721D01*
X86269285Y-60871721D02*
X86208809Y-60811244D01*
X86208809Y-60811244D02*
X86087856Y-60750768D01*
X86087856Y-60750768D02*
X85785475Y-60750768D01*
X85785475Y-60750768D02*
X85664523Y-60811244D01*
X85664523Y-60811244D02*
X85604047Y-60871721D01*
X85604047Y-60871721D02*
X85543570Y-60992673D01*
X85543570Y-60992673D02*
X85543570Y-61295054D01*
X85543570Y-61295054D02*
X85604047Y-61416006D01*
X85604047Y-61416006D02*
X85664523Y-61476483D01*
X85664523Y-61476483D02*
X85785475Y-61536959D01*
X85785475Y-61536959D02*
X86087856Y-61536959D01*
X86087856Y-61536959D02*
X86208809Y-61476483D01*
X86208809Y-61476483D02*
X86269285Y-61416006D01*
X136174618Y-44172959D02*
X135448904Y-44172959D01*
X135811761Y-45442959D02*
X135811761Y-44172959D01*
X135025571Y-45442959D02*
X135025571Y-44172959D01*
X135025571Y-44172959D02*
X134541761Y-44172959D01*
X134541761Y-44172959D02*
X134420809Y-44233435D01*
X134420809Y-44233435D02*
X134360332Y-44293911D01*
X134360332Y-44293911D02*
X134299856Y-44414863D01*
X134299856Y-44414863D02*
X134299856Y-44596292D01*
X134299856Y-44596292D02*
X134360332Y-44717244D01*
X134360332Y-44717244D02*
X134420809Y-44777721D01*
X134420809Y-44777721D02*
X134541761Y-44838197D01*
X134541761Y-44838197D02*
X135025571Y-44838197D01*
X133876523Y-44172959D02*
X133090332Y-44172959D01*
X133090332Y-44172959D02*
X133513666Y-44656768D01*
X133513666Y-44656768D02*
X133332237Y-44656768D01*
X133332237Y-44656768D02*
X133211285Y-44717244D01*
X133211285Y-44717244D02*
X133150809Y-44777721D01*
X133150809Y-44777721D02*
X133090332Y-44898673D01*
X133090332Y-44898673D02*
X133090332Y-45201054D01*
X133090332Y-45201054D02*
X133150809Y-45322006D01*
X133150809Y-45322006D02*
X133211285Y-45382483D01*
X133211285Y-45382483D02*
X133332237Y-45442959D01*
X133332237Y-45442959D02*
X133695094Y-45442959D01*
X133695094Y-45442959D02*
X133816047Y-45382483D01*
X133816047Y-45382483D02*
X133876523Y-45322006D01*
X123014618Y-78935959D02*
X122288904Y-78935959D01*
X122651761Y-80205959D02*
X122651761Y-78935959D01*
X121865571Y-80205959D02*
X121865571Y-78935959D01*
X121865571Y-78935959D02*
X121381761Y-78935959D01*
X121381761Y-78935959D02*
X121260809Y-78996435D01*
X121260809Y-78996435D02*
X121200332Y-79056911D01*
X121200332Y-79056911D02*
X121139856Y-79177863D01*
X121139856Y-79177863D02*
X121139856Y-79359292D01*
X121139856Y-79359292D02*
X121200332Y-79480244D01*
X121200332Y-79480244D02*
X121260809Y-79540721D01*
X121260809Y-79540721D02*
X121381761Y-79601197D01*
X121381761Y-79601197D02*
X121865571Y-79601197D01*
X119990809Y-78935959D02*
X120595571Y-78935959D01*
X120595571Y-78935959D02*
X120656047Y-79540721D01*
X120656047Y-79540721D02*
X120595571Y-79480244D01*
X120595571Y-79480244D02*
X120474618Y-79419768D01*
X120474618Y-79419768D02*
X120172237Y-79419768D01*
X120172237Y-79419768D02*
X120051285Y-79480244D01*
X120051285Y-79480244D02*
X119990809Y-79540721D01*
X119990809Y-79540721D02*
X119930332Y-79661673D01*
X119930332Y-79661673D02*
X119930332Y-79964054D01*
X119930332Y-79964054D02*
X119990809Y-80085006D01*
X119990809Y-80085006D02*
X120051285Y-80145483D01*
X120051285Y-80145483D02*
X120172237Y-80205959D01*
X120172237Y-80205959D02*
X120474618Y-80205959D01*
X120474618Y-80205959D02*
X120595571Y-80145483D01*
X120595571Y-80145483D02*
X120656047Y-80085006D01*
X163751380Y-70934959D02*
X163025666Y-70934959D01*
X163388523Y-72204959D02*
X163388523Y-70934959D01*
X162602333Y-72204959D02*
X162602333Y-70934959D01*
X162602333Y-70934959D02*
X162118523Y-70934959D01*
X162118523Y-70934959D02*
X161997571Y-70995435D01*
X161997571Y-70995435D02*
X161937094Y-71055911D01*
X161937094Y-71055911D02*
X161876618Y-71176863D01*
X161876618Y-71176863D02*
X161876618Y-71358292D01*
X161876618Y-71358292D02*
X161937094Y-71479244D01*
X161937094Y-71479244D02*
X161997571Y-71539721D01*
X161997571Y-71539721D02*
X162118523Y-71600197D01*
X162118523Y-71600197D02*
X162602333Y-71600197D01*
X160667094Y-72204959D02*
X161392809Y-72204959D01*
X161029952Y-72204959D02*
X161029952Y-70934959D01*
X161029952Y-70934959D02*
X161150904Y-71116387D01*
X161150904Y-71116387D02*
X161271856Y-71237340D01*
X161271856Y-71237340D02*
X161392809Y-71297816D01*
X160062332Y-72204959D02*
X159820428Y-72204959D01*
X159820428Y-72204959D02*
X159699475Y-72144483D01*
X159699475Y-72144483D02*
X159638999Y-72084006D01*
X159638999Y-72084006D02*
X159518047Y-71902578D01*
X159518047Y-71902578D02*
X159457570Y-71660673D01*
X159457570Y-71660673D02*
X159457570Y-71176863D01*
X159457570Y-71176863D02*
X159518047Y-71055911D01*
X159518047Y-71055911D02*
X159578523Y-70995435D01*
X159578523Y-70995435D02*
X159699475Y-70934959D01*
X159699475Y-70934959D02*
X159941380Y-70934959D01*
X159941380Y-70934959D02*
X160062332Y-70995435D01*
X160062332Y-70995435D02*
X160122809Y-71055911D01*
X160122809Y-71055911D02*
X160183285Y-71176863D01*
X160183285Y-71176863D02*
X160183285Y-71479244D01*
X160183285Y-71479244D02*
X160122809Y-71600197D01*
X160122809Y-71600197D02*
X160062332Y-71660673D01*
X160062332Y-71660673D02*
X159941380Y-71721149D01*
X159941380Y-71721149D02*
X159699475Y-71721149D01*
X159699475Y-71721149D02*
X159578523Y-71660673D01*
X159578523Y-71660673D02*
X159518047Y-71600197D01*
X159518047Y-71600197D02*
X159457570Y-71479244D01*
X94155380Y-76522959D02*
X93429666Y-76522959D01*
X93792523Y-77792959D02*
X93792523Y-76522959D01*
X93006333Y-77792959D02*
X93006333Y-76522959D01*
X93006333Y-76522959D02*
X92522523Y-76522959D01*
X92522523Y-76522959D02*
X92401571Y-76583435D01*
X92401571Y-76583435D02*
X92341094Y-76643911D01*
X92341094Y-76643911D02*
X92280618Y-76764863D01*
X92280618Y-76764863D02*
X92280618Y-76946292D01*
X92280618Y-76946292D02*
X92341094Y-77067244D01*
X92341094Y-77067244D02*
X92401571Y-77127721D01*
X92401571Y-77127721D02*
X92522523Y-77188197D01*
X92522523Y-77188197D02*
X93006333Y-77188197D01*
X91071094Y-77792959D02*
X91796809Y-77792959D01*
X91433952Y-77792959D02*
X91433952Y-76522959D01*
X91433952Y-76522959D02*
X91554904Y-76704387D01*
X91554904Y-76704387D02*
X91675856Y-76825340D01*
X91675856Y-76825340D02*
X91796809Y-76885816D01*
X90647761Y-76522959D02*
X89801094Y-76522959D01*
X89801094Y-76522959D02*
X90345380Y-77792959D01*
X136428618Y-58142959D02*
X135702904Y-58142959D01*
X136065761Y-59412959D02*
X136065761Y-58142959D01*
X135279571Y-59412959D02*
X135279571Y-58142959D01*
X135279571Y-58142959D02*
X134795761Y-58142959D01*
X134795761Y-58142959D02*
X134674809Y-58203435D01*
X134674809Y-58203435D02*
X134614332Y-58263911D01*
X134614332Y-58263911D02*
X134553856Y-58384863D01*
X134553856Y-58384863D02*
X134553856Y-58566292D01*
X134553856Y-58566292D02*
X134614332Y-58687244D01*
X134614332Y-58687244D02*
X134674809Y-58747721D01*
X134674809Y-58747721D02*
X134795761Y-58808197D01*
X134795761Y-58808197D02*
X135279571Y-58808197D01*
X133949094Y-59412959D02*
X133707190Y-59412959D01*
X133707190Y-59412959D02*
X133586237Y-59352483D01*
X133586237Y-59352483D02*
X133525761Y-59292006D01*
X133525761Y-59292006D02*
X133404809Y-59110578D01*
X133404809Y-59110578D02*
X133344332Y-58868673D01*
X133344332Y-58868673D02*
X133344332Y-58384863D01*
X133344332Y-58384863D02*
X133404809Y-58263911D01*
X133404809Y-58263911D02*
X133465285Y-58203435D01*
X133465285Y-58203435D02*
X133586237Y-58142959D01*
X133586237Y-58142959D02*
X133828142Y-58142959D01*
X133828142Y-58142959D02*
X133949094Y-58203435D01*
X133949094Y-58203435D02*
X134009571Y-58263911D01*
X134009571Y-58263911D02*
X134070047Y-58384863D01*
X134070047Y-58384863D02*
X134070047Y-58687244D01*
X134070047Y-58687244D02*
X134009571Y-58808197D01*
X134009571Y-58808197D02*
X133949094Y-58868673D01*
X133949094Y-58868673D02*
X133828142Y-58929149D01*
X133828142Y-58929149D02*
X133586237Y-58929149D01*
X133586237Y-58929149D02*
X133465285Y-58868673D01*
X133465285Y-58868673D02*
X133404809Y-58808197D01*
X133404809Y-58808197D02*
X133344332Y-58687244D01*
X125506618Y-46966959D02*
X124780904Y-46966959D01*
X125143761Y-48236959D02*
X125143761Y-46966959D01*
X124357571Y-48236959D02*
X124357571Y-46966959D01*
X124357571Y-46966959D02*
X123873761Y-46966959D01*
X123873761Y-46966959D02*
X123752809Y-47027435D01*
X123752809Y-47027435D02*
X123692332Y-47087911D01*
X123692332Y-47087911D02*
X123631856Y-47208863D01*
X123631856Y-47208863D02*
X123631856Y-47390292D01*
X123631856Y-47390292D02*
X123692332Y-47511244D01*
X123692332Y-47511244D02*
X123752809Y-47571721D01*
X123752809Y-47571721D02*
X123873761Y-47632197D01*
X123873761Y-47632197D02*
X124357571Y-47632197D01*
X122543285Y-47390292D02*
X122543285Y-48236959D01*
X122845666Y-46906483D02*
X123148047Y-47813625D01*
X123148047Y-47813625D02*
X122361856Y-47813625D01*
X95425380Y-74236959D02*
X94699666Y-74236959D01*
X95062523Y-75506959D02*
X95062523Y-74236959D01*
X94276333Y-75506959D02*
X94276333Y-74236959D01*
X94276333Y-74236959D02*
X93792523Y-74236959D01*
X93792523Y-74236959D02*
X93671571Y-74297435D01*
X93671571Y-74297435D02*
X93611094Y-74357911D01*
X93611094Y-74357911D02*
X93550618Y-74478863D01*
X93550618Y-74478863D02*
X93550618Y-74660292D01*
X93550618Y-74660292D02*
X93611094Y-74781244D01*
X93611094Y-74781244D02*
X93671571Y-74841721D01*
X93671571Y-74841721D02*
X93792523Y-74902197D01*
X93792523Y-74902197D02*
X94276333Y-74902197D01*
X93066809Y-74357911D02*
X93006333Y-74297435D01*
X93006333Y-74297435D02*
X92885380Y-74236959D01*
X92885380Y-74236959D02*
X92582999Y-74236959D01*
X92582999Y-74236959D02*
X92462047Y-74297435D01*
X92462047Y-74297435D02*
X92401571Y-74357911D01*
X92401571Y-74357911D02*
X92341094Y-74478863D01*
X92341094Y-74478863D02*
X92341094Y-74599816D01*
X92341094Y-74599816D02*
X92401571Y-74781244D01*
X92401571Y-74781244D02*
X93127285Y-75506959D01*
X93127285Y-75506959D02*
X92341094Y-75506959D01*
X91554904Y-74236959D02*
X91433951Y-74236959D01*
X91433951Y-74236959D02*
X91312999Y-74297435D01*
X91312999Y-74297435D02*
X91252523Y-74357911D01*
X91252523Y-74357911D02*
X91192047Y-74478863D01*
X91192047Y-74478863D02*
X91131570Y-74720768D01*
X91131570Y-74720768D02*
X91131570Y-75023149D01*
X91131570Y-75023149D02*
X91192047Y-75265054D01*
X91192047Y-75265054D02*
X91252523Y-75386006D01*
X91252523Y-75386006D02*
X91312999Y-75446483D01*
X91312999Y-75446483D02*
X91433951Y-75506959D01*
X91433951Y-75506959D02*
X91554904Y-75506959D01*
X91554904Y-75506959D02*
X91675856Y-75446483D01*
X91675856Y-75446483D02*
X91736332Y-75386006D01*
X91736332Y-75386006D02*
X91796809Y-75265054D01*
X91796809Y-75265054D02*
X91857285Y-75023149D01*
X91857285Y-75023149D02*
X91857285Y-74720768D01*
X91857285Y-74720768D02*
X91796809Y-74478863D01*
X91796809Y-74478863D02*
X91736332Y-74357911D01*
X91736332Y-74357911D02*
X91675856Y-74297435D01*
X91675856Y-74297435D02*
X91554904Y-74236959D01*
X106299380Y-64492959D02*
X105573666Y-64492959D01*
X105936523Y-65762959D02*
X105936523Y-64492959D01*
X105150333Y-65762959D02*
X105150333Y-64492959D01*
X105150333Y-64492959D02*
X104666523Y-64492959D01*
X104666523Y-64492959D02*
X104545571Y-64553435D01*
X104545571Y-64553435D02*
X104485094Y-64613911D01*
X104485094Y-64613911D02*
X104424618Y-64734863D01*
X104424618Y-64734863D02*
X104424618Y-64916292D01*
X104424618Y-64916292D02*
X104485094Y-65037244D01*
X104485094Y-65037244D02*
X104545571Y-65097721D01*
X104545571Y-65097721D02*
X104666523Y-65158197D01*
X104666523Y-65158197D02*
X105150333Y-65158197D01*
X103215094Y-65762959D02*
X103940809Y-65762959D01*
X103577952Y-65762959D02*
X103577952Y-64492959D01*
X103577952Y-64492959D02*
X103698904Y-64674387D01*
X103698904Y-64674387D02*
X103819856Y-64795340D01*
X103819856Y-64795340D02*
X103940809Y-64855816D01*
X102066047Y-64492959D02*
X102670809Y-64492959D01*
X102670809Y-64492959D02*
X102731285Y-65097721D01*
X102731285Y-65097721D02*
X102670809Y-65037244D01*
X102670809Y-65037244D02*
X102549856Y-64976768D01*
X102549856Y-64976768D02*
X102247475Y-64976768D01*
X102247475Y-64976768D02*
X102126523Y-65037244D01*
X102126523Y-65037244D02*
X102066047Y-65097721D01*
X102066047Y-65097721D02*
X102005570Y-65218673D01*
X102005570Y-65218673D02*
X102005570Y-65521054D01*
X102005570Y-65521054D02*
X102066047Y-65642006D01*
X102066047Y-65642006D02*
X102126523Y-65702483D01*
X102126523Y-65702483D02*
X102247475Y-65762959D01*
X102247475Y-65762959D02*
X102549856Y-65762959D01*
X102549856Y-65762959D02*
X102670809Y-65702483D01*
X102670809Y-65702483D02*
X102731285Y-65642006D01*
X111633380Y-55602959D02*
X110907666Y-55602959D01*
X111270523Y-56872959D02*
X111270523Y-55602959D01*
X110484333Y-56872959D02*
X110484333Y-55602959D01*
X110484333Y-55602959D02*
X110000523Y-55602959D01*
X110000523Y-55602959D02*
X109879571Y-55663435D01*
X109879571Y-55663435D02*
X109819094Y-55723911D01*
X109819094Y-55723911D02*
X109758618Y-55844863D01*
X109758618Y-55844863D02*
X109758618Y-56026292D01*
X109758618Y-56026292D02*
X109819094Y-56147244D01*
X109819094Y-56147244D02*
X109879571Y-56207721D01*
X109879571Y-56207721D02*
X110000523Y-56268197D01*
X110000523Y-56268197D02*
X110484333Y-56268197D01*
X109274809Y-55723911D02*
X109214333Y-55663435D01*
X109214333Y-55663435D02*
X109093380Y-55602959D01*
X109093380Y-55602959D02*
X108790999Y-55602959D01*
X108790999Y-55602959D02*
X108670047Y-55663435D01*
X108670047Y-55663435D02*
X108609571Y-55723911D01*
X108609571Y-55723911D02*
X108549094Y-55844863D01*
X108549094Y-55844863D02*
X108549094Y-55965816D01*
X108549094Y-55965816D02*
X108609571Y-56147244D01*
X108609571Y-56147244D02*
X109335285Y-56872959D01*
X109335285Y-56872959D02*
X108549094Y-56872959D01*
X107460523Y-55602959D02*
X107702428Y-55602959D01*
X107702428Y-55602959D02*
X107823380Y-55663435D01*
X107823380Y-55663435D02*
X107883856Y-55723911D01*
X107883856Y-55723911D02*
X108004809Y-55905340D01*
X108004809Y-55905340D02*
X108065285Y-56147244D01*
X108065285Y-56147244D02*
X108065285Y-56631054D01*
X108065285Y-56631054D02*
X108004809Y-56752006D01*
X108004809Y-56752006D02*
X107944332Y-56812483D01*
X107944332Y-56812483D02*
X107823380Y-56872959D01*
X107823380Y-56872959D02*
X107581475Y-56872959D01*
X107581475Y-56872959D02*
X107460523Y-56812483D01*
X107460523Y-56812483D02*
X107400047Y-56752006D01*
X107400047Y-56752006D02*
X107339570Y-56631054D01*
X107339570Y-56631054D02*
X107339570Y-56328673D01*
X107339570Y-56328673D02*
X107400047Y-56207721D01*
X107400047Y-56207721D02*
X107460523Y-56147244D01*
X107460523Y-56147244D02*
X107581475Y-56086768D01*
X107581475Y-56086768D02*
X107823380Y-56086768D01*
X107823380Y-56086768D02*
X107944332Y-56147244D01*
X107944332Y-56147244D02*
X108004809Y-56207721D01*
X108004809Y-56207721D02*
X108065285Y-56328673D01*
X121617618Y-66489959D02*
X120891904Y-66489959D01*
X121254761Y-67759959D02*
X121254761Y-66489959D01*
X120468571Y-67759959D02*
X120468571Y-66489959D01*
X120468571Y-66489959D02*
X119984761Y-66489959D01*
X119984761Y-66489959D02*
X119863809Y-66550435D01*
X119863809Y-66550435D02*
X119803332Y-66610911D01*
X119803332Y-66610911D02*
X119742856Y-66731863D01*
X119742856Y-66731863D02*
X119742856Y-66913292D01*
X119742856Y-66913292D02*
X119803332Y-67034244D01*
X119803332Y-67034244D02*
X119863809Y-67094721D01*
X119863809Y-67094721D02*
X119984761Y-67155197D01*
X119984761Y-67155197D02*
X120468571Y-67155197D01*
X118654285Y-66489959D02*
X118896190Y-66489959D01*
X118896190Y-66489959D02*
X119017142Y-66550435D01*
X119017142Y-66550435D02*
X119077618Y-66610911D01*
X119077618Y-66610911D02*
X119198571Y-66792340D01*
X119198571Y-66792340D02*
X119259047Y-67034244D01*
X119259047Y-67034244D02*
X119259047Y-67518054D01*
X119259047Y-67518054D02*
X119198571Y-67639006D01*
X119198571Y-67639006D02*
X119138094Y-67699483D01*
X119138094Y-67699483D02*
X119017142Y-67759959D01*
X119017142Y-67759959D02*
X118775237Y-67759959D01*
X118775237Y-67759959D02*
X118654285Y-67699483D01*
X118654285Y-67699483D02*
X118593809Y-67639006D01*
X118593809Y-67639006D02*
X118533332Y-67518054D01*
X118533332Y-67518054D02*
X118533332Y-67215673D01*
X118533332Y-67215673D02*
X118593809Y-67094721D01*
X118593809Y-67094721D02*
X118654285Y-67034244D01*
X118654285Y-67034244D02*
X118775237Y-66973768D01*
X118775237Y-66973768D02*
X119017142Y-66973768D01*
X119017142Y-66973768D02*
X119138094Y-67034244D01*
X119138094Y-67034244D02*
X119198571Y-67094721D01*
X119198571Y-67094721D02*
X119259047Y-67215673D01*
X145415380Y-64746959D02*
X144689666Y-64746959D01*
X145052523Y-66016959D02*
X145052523Y-64746959D01*
X144266333Y-66016959D02*
X144266333Y-64746959D01*
X144266333Y-64746959D02*
X143782523Y-64746959D01*
X143782523Y-64746959D02*
X143661571Y-64807435D01*
X143661571Y-64807435D02*
X143601094Y-64867911D01*
X143601094Y-64867911D02*
X143540618Y-64988863D01*
X143540618Y-64988863D02*
X143540618Y-65170292D01*
X143540618Y-65170292D02*
X143601094Y-65291244D01*
X143601094Y-65291244D02*
X143661571Y-65351721D01*
X143661571Y-65351721D02*
X143782523Y-65412197D01*
X143782523Y-65412197D02*
X144266333Y-65412197D01*
X142331094Y-66016959D02*
X143056809Y-66016959D01*
X142693952Y-66016959D02*
X142693952Y-64746959D01*
X142693952Y-64746959D02*
X142814904Y-64928387D01*
X142814904Y-64928387D02*
X142935856Y-65049340D01*
X142935856Y-65049340D02*
X143056809Y-65109816D01*
X141847285Y-64867911D02*
X141786809Y-64807435D01*
X141786809Y-64807435D02*
X141665856Y-64746959D01*
X141665856Y-64746959D02*
X141363475Y-64746959D01*
X141363475Y-64746959D02*
X141242523Y-64807435D01*
X141242523Y-64807435D02*
X141182047Y-64867911D01*
X141182047Y-64867911D02*
X141121570Y-64988863D01*
X141121570Y-64988863D02*
X141121570Y-65109816D01*
X141121570Y-65109816D02*
X141182047Y-65291244D01*
X141182047Y-65291244D02*
X141907761Y-66016959D01*
X141907761Y-66016959D02*
X141121570Y-66016959D01*
X163116380Y-82872959D02*
X162390666Y-82872959D01*
X162753523Y-84142959D02*
X162753523Y-82872959D01*
X161967333Y-84142959D02*
X161967333Y-82872959D01*
X161967333Y-82872959D02*
X161483523Y-82872959D01*
X161483523Y-82872959D02*
X161362571Y-82933435D01*
X161362571Y-82933435D02*
X161302094Y-82993911D01*
X161302094Y-82993911D02*
X161241618Y-83114863D01*
X161241618Y-83114863D02*
X161241618Y-83296292D01*
X161241618Y-83296292D02*
X161302094Y-83417244D01*
X161302094Y-83417244D02*
X161362571Y-83477721D01*
X161362571Y-83477721D02*
X161483523Y-83538197D01*
X161483523Y-83538197D02*
X161967333Y-83538197D01*
X160032094Y-84142959D02*
X160757809Y-84142959D01*
X160394952Y-84142959D02*
X160394952Y-82872959D01*
X160394952Y-82872959D02*
X160515904Y-83054387D01*
X160515904Y-83054387D02*
X160636856Y-83175340D01*
X160636856Y-83175340D02*
X160757809Y-83235816D01*
X159306380Y-83417244D02*
X159427332Y-83356768D01*
X159427332Y-83356768D02*
X159487809Y-83296292D01*
X159487809Y-83296292D02*
X159548285Y-83175340D01*
X159548285Y-83175340D02*
X159548285Y-83114863D01*
X159548285Y-83114863D02*
X159487809Y-82993911D01*
X159487809Y-82993911D02*
X159427332Y-82933435D01*
X159427332Y-82933435D02*
X159306380Y-82872959D01*
X159306380Y-82872959D02*
X159064475Y-82872959D01*
X159064475Y-82872959D02*
X158943523Y-82933435D01*
X158943523Y-82933435D02*
X158883047Y-82993911D01*
X158883047Y-82993911D02*
X158822570Y-83114863D01*
X158822570Y-83114863D02*
X158822570Y-83175340D01*
X158822570Y-83175340D02*
X158883047Y-83296292D01*
X158883047Y-83296292D02*
X158943523Y-83356768D01*
X158943523Y-83356768D02*
X159064475Y-83417244D01*
X159064475Y-83417244D02*
X159306380Y-83417244D01*
X159306380Y-83417244D02*
X159427332Y-83477721D01*
X159427332Y-83477721D02*
X159487809Y-83538197D01*
X159487809Y-83538197D02*
X159548285Y-83659149D01*
X159548285Y-83659149D02*
X159548285Y-83901054D01*
X159548285Y-83901054D02*
X159487809Y-84022006D01*
X159487809Y-84022006D02*
X159427332Y-84082483D01*
X159427332Y-84082483D02*
X159306380Y-84142959D01*
X159306380Y-84142959D02*
X159064475Y-84142959D01*
X159064475Y-84142959D02*
X158943523Y-84082483D01*
X158943523Y-84082483D02*
X158883047Y-84022006D01*
X158883047Y-84022006D02*
X158822570Y-83901054D01*
X158822570Y-83901054D02*
X158822570Y-83659149D01*
X158822570Y-83659149D02*
X158883047Y-83538197D01*
X158883047Y-83538197D02*
X158943523Y-83477721D01*
X158943523Y-83477721D02*
X159064475Y-83417244D01*
X106093380Y-29862959D02*
X105367666Y-29862959D01*
X105730523Y-31132959D02*
X105730523Y-29862959D01*
X104944333Y-31132959D02*
X104944333Y-29862959D01*
X104944333Y-29862959D02*
X104460523Y-29862959D01*
X104460523Y-29862959D02*
X104339571Y-29923435D01*
X104339571Y-29923435D02*
X104279094Y-29983911D01*
X104279094Y-29983911D02*
X104218618Y-30104863D01*
X104218618Y-30104863D02*
X104218618Y-30286292D01*
X104218618Y-30286292D02*
X104279094Y-30407244D01*
X104279094Y-30407244D02*
X104339571Y-30467721D01*
X104339571Y-30467721D02*
X104460523Y-30528197D01*
X104460523Y-30528197D02*
X104944333Y-30528197D01*
X103795285Y-29862959D02*
X103009094Y-29862959D01*
X103009094Y-29862959D02*
X103432428Y-30346768D01*
X103432428Y-30346768D02*
X103250999Y-30346768D01*
X103250999Y-30346768D02*
X103130047Y-30407244D01*
X103130047Y-30407244D02*
X103069571Y-30467721D01*
X103069571Y-30467721D02*
X103009094Y-30588673D01*
X103009094Y-30588673D02*
X103009094Y-30891054D01*
X103009094Y-30891054D02*
X103069571Y-31012006D01*
X103069571Y-31012006D02*
X103130047Y-31072483D01*
X103130047Y-31072483D02*
X103250999Y-31132959D01*
X103250999Y-31132959D02*
X103613856Y-31132959D01*
X103613856Y-31132959D02*
X103734809Y-31072483D01*
X103734809Y-31072483D02*
X103795285Y-31012006D01*
X101799570Y-31132959D02*
X102525285Y-31132959D01*
X102162428Y-31132959D02*
X102162428Y-29862959D01*
X102162428Y-29862959D02*
X102283380Y-30044387D01*
X102283380Y-30044387D02*
X102404332Y-30165340D01*
X102404332Y-30165340D02*
X102525285Y-30225816D01*
X101219380Y-35790959D02*
X100493666Y-35790959D01*
X100856523Y-37060959D02*
X100856523Y-35790959D01*
X100070333Y-37060959D02*
X100070333Y-35790959D01*
X100070333Y-35790959D02*
X99586523Y-35790959D01*
X99586523Y-35790959D02*
X99465571Y-35851435D01*
X99465571Y-35851435D02*
X99405094Y-35911911D01*
X99405094Y-35911911D02*
X99344618Y-36032863D01*
X99344618Y-36032863D02*
X99344618Y-36214292D01*
X99344618Y-36214292D02*
X99405094Y-36335244D01*
X99405094Y-36335244D02*
X99465571Y-36395721D01*
X99465571Y-36395721D02*
X99586523Y-36456197D01*
X99586523Y-36456197D02*
X100070333Y-36456197D01*
X98860809Y-35911911D02*
X98800333Y-35851435D01*
X98800333Y-35851435D02*
X98679380Y-35790959D01*
X98679380Y-35790959D02*
X98376999Y-35790959D01*
X98376999Y-35790959D02*
X98256047Y-35851435D01*
X98256047Y-35851435D02*
X98195571Y-35911911D01*
X98195571Y-35911911D02*
X98135094Y-36032863D01*
X98135094Y-36032863D02*
X98135094Y-36153816D01*
X98135094Y-36153816D02*
X98195571Y-36335244D01*
X98195571Y-36335244D02*
X98921285Y-37060959D01*
X98921285Y-37060959D02*
X98135094Y-37060959D01*
X96925570Y-37060959D02*
X97651285Y-37060959D01*
X97288428Y-37060959D02*
X97288428Y-35790959D01*
X97288428Y-35790959D02*
X97409380Y-35972387D01*
X97409380Y-35972387D02*
X97530332Y-36093340D01*
X97530332Y-36093340D02*
X97651285Y-36153816D01*
X141272380Y-72966959D02*
X140546666Y-72966959D01*
X140909523Y-74236959D02*
X140909523Y-72966959D01*
X140123333Y-74236959D02*
X140123333Y-72966959D01*
X140123333Y-72966959D02*
X139639523Y-72966959D01*
X139639523Y-72966959D02*
X139518571Y-73027435D01*
X139518571Y-73027435D02*
X139458094Y-73087911D01*
X139458094Y-73087911D02*
X139397618Y-73208863D01*
X139397618Y-73208863D02*
X139397618Y-73390292D01*
X139397618Y-73390292D02*
X139458094Y-73511244D01*
X139458094Y-73511244D02*
X139518571Y-73571721D01*
X139518571Y-73571721D02*
X139639523Y-73632197D01*
X139639523Y-73632197D02*
X140123333Y-73632197D01*
X138188094Y-74236959D02*
X138913809Y-74236959D01*
X138550952Y-74236959D02*
X138550952Y-72966959D01*
X138550952Y-72966959D02*
X138671904Y-73148387D01*
X138671904Y-73148387D02*
X138792856Y-73269340D01*
X138792856Y-73269340D02*
X138913809Y-73329816D01*
X137401904Y-72966959D02*
X137280951Y-72966959D01*
X137280951Y-72966959D02*
X137159999Y-73027435D01*
X137159999Y-73027435D02*
X137099523Y-73087911D01*
X137099523Y-73087911D02*
X137039047Y-73208863D01*
X137039047Y-73208863D02*
X136978570Y-73450768D01*
X136978570Y-73450768D02*
X136978570Y-73753149D01*
X136978570Y-73753149D02*
X137039047Y-73995054D01*
X137039047Y-73995054D02*
X137099523Y-74116006D01*
X137099523Y-74116006D02*
X137159999Y-74176483D01*
X137159999Y-74176483D02*
X137280951Y-74236959D01*
X137280951Y-74236959D02*
X137401904Y-74236959D01*
X137401904Y-74236959D02*
X137522856Y-74176483D01*
X137522856Y-74176483D02*
X137583332Y-74116006D01*
X137583332Y-74116006D02*
X137643809Y-73995054D01*
X137643809Y-73995054D02*
X137704285Y-73753149D01*
X137704285Y-73753149D02*
X137704285Y-73450768D01*
X137704285Y-73450768D02*
X137643809Y-73208863D01*
X137643809Y-73208863D02*
X137583332Y-73087911D01*
X137583332Y-73087911D02*
X137522856Y-73027435D01*
X137522856Y-73027435D02*
X137401904Y-72966959D01*
X125506618Y-41378959D02*
X124780904Y-41378959D01*
X125143761Y-42648959D02*
X125143761Y-41378959D01*
X124357571Y-42648959D02*
X124357571Y-41378959D01*
X124357571Y-41378959D02*
X123873761Y-41378959D01*
X123873761Y-41378959D02*
X123752809Y-41439435D01*
X123752809Y-41439435D02*
X123692332Y-41499911D01*
X123692332Y-41499911D02*
X123631856Y-41620863D01*
X123631856Y-41620863D02*
X123631856Y-41802292D01*
X123631856Y-41802292D02*
X123692332Y-41923244D01*
X123692332Y-41923244D02*
X123752809Y-41983721D01*
X123752809Y-41983721D02*
X123873761Y-42044197D01*
X123873761Y-42044197D02*
X124357571Y-42044197D01*
X123148047Y-41499911D02*
X123087571Y-41439435D01*
X123087571Y-41439435D02*
X122966618Y-41378959D01*
X122966618Y-41378959D02*
X122664237Y-41378959D01*
X122664237Y-41378959D02*
X122543285Y-41439435D01*
X122543285Y-41439435D02*
X122482809Y-41499911D01*
X122482809Y-41499911D02*
X122422332Y-41620863D01*
X122422332Y-41620863D02*
X122422332Y-41741816D01*
X122422332Y-41741816D02*
X122482809Y-41923244D01*
X122482809Y-41923244D02*
X123208523Y-42648959D01*
X123208523Y-42648959D02*
X122422332Y-42648959D01*
X106347380Y-71315959D02*
X105621666Y-71315959D01*
X105984523Y-72585959D02*
X105984523Y-71315959D01*
X105198333Y-72585959D02*
X105198333Y-71315959D01*
X105198333Y-71315959D02*
X104714523Y-71315959D01*
X104714523Y-71315959D02*
X104593571Y-71376435D01*
X104593571Y-71376435D02*
X104533094Y-71436911D01*
X104533094Y-71436911D02*
X104472618Y-71557863D01*
X104472618Y-71557863D02*
X104472618Y-71739292D01*
X104472618Y-71739292D02*
X104533094Y-71860244D01*
X104533094Y-71860244D02*
X104593571Y-71920721D01*
X104593571Y-71920721D02*
X104714523Y-71981197D01*
X104714523Y-71981197D02*
X105198333Y-71981197D01*
X103988809Y-71436911D02*
X103928333Y-71376435D01*
X103928333Y-71376435D02*
X103807380Y-71315959D01*
X103807380Y-71315959D02*
X103504999Y-71315959D01*
X103504999Y-71315959D02*
X103384047Y-71376435D01*
X103384047Y-71376435D02*
X103323571Y-71436911D01*
X103323571Y-71436911D02*
X103263094Y-71557863D01*
X103263094Y-71557863D02*
X103263094Y-71678816D01*
X103263094Y-71678816D02*
X103323571Y-71860244D01*
X103323571Y-71860244D02*
X104049285Y-72585959D01*
X104049285Y-72585959D02*
X103263094Y-72585959D01*
X102174523Y-71739292D02*
X102174523Y-72585959D01*
X102476904Y-71255483D02*
X102779285Y-72162625D01*
X102779285Y-72162625D02*
X101993094Y-72162625D01*
X166678428Y-31606959D02*
X167101762Y-31002197D01*
X167404143Y-31606959D02*
X167404143Y-30336959D01*
X167404143Y-30336959D02*
X166920333Y-30336959D01*
X166920333Y-30336959D02*
X166799381Y-30397435D01*
X166799381Y-30397435D02*
X166738904Y-30457911D01*
X166738904Y-30457911D02*
X166678428Y-30578863D01*
X166678428Y-30578863D02*
X166678428Y-30760292D01*
X166678428Y-30760292D02*
X166738904Y-30881244D01*
X166738904Y-30881244D02*
X166799381Y-30941721D01*
X166799381Y-30941721D02*
X166920333Y-31002197D01*
X166920333Y-31002197D02*
X167404143Y-31002197D01*
X166255095Y-30336959D02*
X165468904Y-30336959D01*
X165468904Y-30336959D02*
X165892238Y-30820768D01*
X165892238Y-30820768D02*
X165710809Y-30820768D01*
X165710809Y-30820768D02*
X165589857Y-30881244D01*
X165589857Y-30881244D02*
X165529381Y-30941721D01*
X165529381Y-30941721D02*
X165468904Y-31062673D01*
X165468904Y-31062673D02*
X165468904Y-31365054D01*
X165468904Y-31365054D02*
X165529381Y-31486006D01*
X165529381Y-31486006D02*
X165589857Y-31546483D01*
X165589857Y-31546483D02*
X165710809Y-31606959D01*
X165710809Y-31606959D02*
X166073666Y-31606959D01*
X166073666Y-31606959D02*
X166194619Y-31546483D01*
X166194619Y-31546483D02*
X166255095Y-31486006D01*
X165045571Y-30336959D02*
X164198904Y-30336959D01*
X164198904Y-30336959D02*
X164743190Y-31606959D01*
X91494428Y-33088959D02*
X91917762Y-32484197D01*
X92220143Y-33088959D02*
X92220143Y-31818959D01*
X92220143Y-31818959D02*
X91736333Y-31818959D01*
X91736333Y-31818959D02*
X91615381Y-31879435D01*
X91615381Y-31879435D02*
X91554904Y-31939911D01*
X91554904Y-31939911D02*
X91494428Y-32060863D01*
X91494428Y-32060863D02*
X91494428Y-32242292D01*
X91494428Y-32242292D02*
X91554904Y-32363244D01*
X91554904Y-32363244D02*
X91615381Y-32423721D01*
X91615381Y-32423721D02*
X91736333Y-32484197D01*
X91736333Y-32484197D02*
X92220143Y-32484197D01*
X91071095Y-31818959D02*
X90284904Y-31818959D01*
X90284904Y-31818959D02*
X90708238Y-32302768D01*
X90708238Y-32302768D02*
X90526809Y-32302768D01*
X90526809Y-32302768D02*
X90405857Y-32363244D01*
X90405857Y-32363244D02*
X90345381Y-32423721D01*
X90345381Y-32423721D02*
X90284904Y-32544673D01*
X90284904Y-32544673D02*
X90284904Y-32847054D01*
X90284904Y-32847054D02*
X90345381Y-32968006D01*
X90345381Y-32968006D02*
X90405857Y-33028483D01*
X90405857Y-33028483D02*
X90526809Y-33088959D01*
X90526809Y-33088959D02*
X90889666Y-33088959D01*
X90889666Y-33088959D02*
X91010619Y-33028483D01*
X91010619Y-33028483D02*
X91071095Y-32968006D01*
X89135857Y-31818959D02*
X89740619Y-31818959D01*
X89740619Y-31818959D02*
X89801095Y-32423721D01*
X89801095Y-32423721D02*
X89740619Y-32363244D01*
X89740619Y-32363244D02*
X89619666Y-32302768D01*
X89619666Y-32302768D02*
X89317285Y-32302768D01*
X89317285Y-32302768D02*
X89196333Y-32363244D01*
X89196333Y-32363244D02*
X89135857Y-32423721D01*
X89135857Y-32423721D02*
X89075380Y-32544673D01*
X89075380Y-32544673D02*
X89075380Y-32847054D01*
X89075380Y-32847054D02*
X89135857Y-32968006D01*
X89135857Y-32968006D02*
X89196333Y-33028483D01*
X89196333Y-33028483D02*
X89317285Y-33088959D01*
X89317285Y-33088959D02*
X89619666Y-33088959D01*
X89619666Y-33088959D02*
X89740619Y-33028483D01*
X89740619Y-33028483D02*
X89801095Y-32968006D01*
D11*
X166589064Y-28300000D02*
X165134936Y-28300000D01*
X166589064Y-30120000D02*
X165134936Y-30120000D01*
X89950936Y-29316000D02*
X91405064Y-29316000D01*
X89950936Y-31136000D02*
X91405064Y-31136000D01*
%LPC*%
D12*
X111204000Y-70266000D03*
X124158000Y-36830000D03*
X126190000Y-58836000D03*
D13*
X172545000Y-57820000D03*
D14*
X170005000Y-57820000D03*
X172545000Y-55280000D03*
X170005000Y-55280000D03*
X172545000Y-52740000D03*
X170005000Y-52740000D03*
X172545000Y-50200000D03*
X170005000Y-50200000D03*
X172545000Y-47660000D03*
X170005000Y-47660000D03*
D15*
X172085000Y-29210000D03*
D12*
X131270000Y-41310000D03*
D16*
X156670000Y-38770000D03*
D17*
X156670000Y-41270000D03*
D12*
X128016000Y-61722000D03*
D13*
X91440000Y-27305000D03*
D14*
X93980000Y-27305000D03*
X96520000Y-27305000D03*
D16*
X132715000Y-66797621D03*
D17*
X132715000Y-69297621D03*
D16*
X83645000Y-75692000D03*
D17*
X83645000Y-78192000D03*
X97615000Y-42580000D03*
X97615000Y-47580000D03*
D16*
X95964000Y-68580000D03*
D17*
X95964000Y-71080000D03*
D12*
X101346000Y-45212000D03*
X135588000Y-42580000D03*
X100330000Y-63500000D03*
X162512000Y-39530000D03*
X146510000Y-74584000D03*
D13*
X89575640Y-85090000D03*
D14*
X92075640Y-85090000D03*
X94575640Y-85090000D03*
X89575640Y-82550000D03*
X92075640Y-82590000D03*
X94655640Y-82550000D03*
D12*
X93424000Y-65440000D03*
D16*
X161290000Y-47660000D03*
D17*
X161290000Y-50160000D03*
D12*
X83185000Y-67945000D03*
X116332000Y-34544000D03*
D13*
X103505000Y-27305000D03*
D14*
X106045000Y-27305000D03*
D17*
X108410000Y-64805000D03*
X108410000Y-69805000D03*
D13*
X127673100Y-85090000D03*
D14*
X130173100Y-85090000D03*
X132673100Y-85090000D03*
X127673100Y-82550000D03*
X130173100Y-82590000D03*
X132753100Y-82550000D03*
D17*
X123650000Y-60995000D03*
X123650000Y-55995000D03*
D12*
X86868000Y-63500000D03*
D16*
X121110000Y-73065000D03*
D17*
X121110000Y-75565000D03*
D16*
X126825000Y-39405000D03*
D17*
X126825000Y-41905000D03*
D13*
X142700000Y-27305000D03*
D14*
X145240000Y-27305000D03*
D12*
X131524000Y-44866000D03*
D17*
X83645000Y-63246000D03*
X83645000Y-58246000D03*
D16*
X134300000Y-36400000D03*
D17*
X134300000Y-38900000D03*
D12*
X118110000Y-79375000D03*
X157480000Y-71628000D03*
D16*
X113030000Y-29210000D03*
D17*
X113030000Y-31710000D03*
D12*
X88392000Y-76962000D03*
X134318000Y-60614000D03*
X123904000Y-49946000D03*
X89662000Y-74930000D03*
D13*
X146685000Y-85090000D03*
D14*
X149225000Y-85090000D03*
X151765000Y-85090000D03*
D12*
X105870000Y-66710000D03*
X109426000Y-59598000D03*
D13*
X165750240Y-85090000D03*
D14*
X168290240Y-85090000D03*
X170830240Y-85090000D03*
D12*
X120015000Y-69215000D03*
X146764000Y-65186000D03*
D17*
X83645000Y-48335000D03*
X83645000Y-53335000D03*
X102060000Y-55915000D03*
X102060000Y-60915000D03*
D15*
X83820000Y-29210000D03*
D16*
X128095000Y-46390000D03*
D17*
X128095000Y-48890000D03*
D12*
X156845000Y-83820000D03*
D13*
X108585000Y-85090000D03*
D14*
X111125000Y-85090000D03*
X113665000Y-85090000D03*
D16*
X145240000Y-68615000D03*
D17*
X145240000Y-71115000D03*
D16*
X154432000Y-75565000D03*
D17*
X154432000Y-78065000D03*
D16*
X161925000Y-55280000D03*
D17*
X161925000Y-57780000D03*
D12*
X103886000Y-32004000D03*
D13*
X119380000Y-27305000D03*
D14*
X121920000Y-27305000D03*
D12*
X98758000Y-38770000D03*
X135255000Y-73660000D03*
X124158000Y-44358000D03*
X100330000Y-71755000D03*
D18*
X164399500Y-29210000D03*
X167324500Y-29210000D03*
D19*
X92140500Y-30226000D03*
X89215500Y-30226000D03*
%LPD*%
M02*
