G04 #@! TF.GenerationSoftware,KiCad,Pcbnew,8.0.4*
G04 #@! TF.CreationDate,2024-08-16T16:00:28+02:00*
G04 #@! TF.ProjectId,Purrtico_M,50757272-7469-4636-9f5f-4d2e6b696361,01*
G04 #@! TF.SameCoordinates,Original*
G04 #@! TF.FileFunction,Soldermask,Bot*
G04 #@! TF.FilePolarity,Negative*
%FSLAX46Y46*%
G04 Gerber Fmt 4.6, Leading zero omitted, Abs format (unit mm)*
G04 Created by KiCad (PCBNEW 8.0.4) date 2024-08-16 16:00:28*
%MOMM*%
%LPD*%
G01*
G04 APERTURE LIST*
G04 Aperture macros list*
%AMRoundRect*
0 Rectangle with rounded corners*
0 $1 Rounding radius*
0 $2 $3 $4 $5 $6 $7 $8 $9 X,Y pos of 4 corners*
0 Add a 4 corners polygon primitive as box body*
4,1,4,$2,$3,$4,$5,$6,$7,$8,$9,$2,$3,0*
0 Add four circle primitives for the rounded corners*
1,1,$1+$1,$2,$3*
1,1,$1+$1,$4,$5*
1,1,$1+$1,$6,$7*
1,1,$1+$1,$8,$9*
0 Add four rect primitives between the rounded corners*
20,1,$1+$1,$2,$3,$4,$5,0*
20,1,$1+$1,$4,$5,$6,$7,0*
20,1,$1+$1,$6,$7,$8,$9,0*
20,1,$1+$1,$8,$9,$2,$3,0*%
G04 Aperture macros list end*
%ADD10C,1.000000*%
%ADD11R,1.700000X1.700000*%
%ADD12O,1.700000X1.700000*%
%ADD13C,5.600000*%
%ADD14R,1.600000X1.600000*%
%ADD15C,1.600000*%
%ADD16RoundRect,0.250000X-0.312500X-0.625000X0.312500X-0.625000X0.312500X0.625000X-0.312500X0.625000X0*%
%ADD17RoundRect,0.250000X0.312500X0.625000X-0.312500X0.625000X-0.312500X-0.625000X0.312500X-0.625000X0*%
G04 APERTURE END LIST*
D10*
X111204000Y-70266000D03*
X124158000Y-36830000D03*
X126190000Y-58836000D03*
D11*
X172545000Y-57820000D03*
D12*
X170005000Y-57820000D03*
X172545000Y-55280000D03*
X170005000Y-55280000D03*
X172545000Y-52740000D03*
X170005000Y-52740000D03*
X172545000Y-50200000D03*
X170005000Y-50200000D03*
X172545000Y-47660000D03*
X170005000Y-47660000D03*
D13*
X172085000Y-29210000D03*
D10*
X131270000Y-41310000D03*
D14*
X156670000Y-38770000D03*
D15*
X156670000Y-41270000D03*
D10*
X128016000Y-61722000D03*
D11*
X91440000Y-27305000D03*
D12*
X93980000Y-27305000D03*
X96520000Y-27305000D03*
D14*
X132715000Y-66797621D03*
D15*
X132715000Y-69297621D03*
D14*
X83645000Y-75692000D03*
D15*
X83645000Y-78192000D03*
X97615000Y-42580000D03*
X97615000Y-47580000D03*
D14*
X95964000Y-68580000D03*
D15*
X95964000Y-71080000D03*
D10*
X101346000Y-45212000D03*
X135588000Y-42580000D03*
X100330000Y-63500000D03*
X162512000Y-39530000D03*
X146510000Y-74584000D03*
D11*
X89575640Y-85090000D03*
D12*
X92075640Y-85090000D03*
X94575640Y-85090000D03*
X89575640Y-82550000D03*
X92075640Y-82590000D03*
X94655640Y-82550000D03*
D10*
X93424000Y-65440000D03*
D14*
X161290000Y-47660000D03*
D15*
X161290000Y-50160000D03*
D10*
X83185000Y-67945000D03*
X116332000Y-34544000D03*
D11*
X103505000Y-27305000D03*
D12*
X106045000Y-27305000D03*
D15*
X108410000Y-64805000D03*
X108410000Y-69805000D03*
D11*
X127673100Y-85090000D03*
D12*
X130173100Y-85090000D03*
X132673100Y-85090000D03*
X127673100Y-82550000D03*
X130173100Y-82590000D03*
X132753100Y-82550000D03*
D15*
X123650000Y-60995000D03*
X123650000Y-55995000D03*
D10*
X86868000Y-63500000D03*
D14*
X121110000Y-73065000D03*
D15*
X121110000Y-75565000D03*
D14*
X126825000Y-39405000D03*
D15*
X126825000Y-41905000D03*
D11*
X142700000Y-27305000D03*
D12*
X145240000Y-27305000D03*
D10*
X131524000Y-44866000D03*
D15*
X83645000Y-63246000D03*
X83645000Y-58246000D03*
D14*
X134300000Y-36400000D03*
D15*
X134300000Y-38900000D03*
D10*
X118110000Y-79375000D03*
X157480000Y-71628000D03*
D14*
X113030000Y-29210000D03*
D15*
X113030000Y-31710000D03*
D10*
X88392000Y-76962000D03*
X134318000Y-60614000D03*
X123904000Y-49946000D03*
X89662000Y-74930000D03*
D11*
X146685000Y-85090000D03*
D12*
X149225000Y-85090000D03*
X151765000Y-85090000D03*
D10*
X105870000Y-66710000D03*
X109426000Y-59598000D03*
D11*
X165750240Y-85090000D03*
D12*
X168290240Y-85090000D03*
X170830240Y-85090000D03*
D10*
X120015000Y-69215000D03*
X146764000Y-65186000D03*
D15*
X83645000Y-48335000D03*
X83645000Y-53335000D03*
X102060000Y-55915000D03*
X102060000Y-60915000D03*
D13*
X83820000Y-29210000D03*
D14*
X128095000Y-46390000D03*
D15*
X128095000Y-48890000D03*
D10*
X156845000Y-83820000D03*
D11*
X108585000Y-85090000D03*
D12*
X111125000Y-85090000D03*
X113665000Y-85090000D03*
D14*
X145240000Y-68615000D03*
D15*
X145240000Y-71115000D03*
D14*
X154432000Y-75565000D03*
D15*
X154432000Y-78065000D03*
D14*
X161925000Y-55280000D03*
D15*
X161925000Y-57780000D03*
D10*
X103886000Y-32004000D03*
D11*
X119380000Y-27305000D03*
D12*
X121920000Y-27305000D03*
D10*
X98758000Y-38770000D03*
X135255000Y-73660000D03*
X124158000Y-44358000D03*
X100330000Y-71755000D03*
D16*
X164399500Y-29210000D03*
X167324500Y-29210000D03*
D17*
X92140500Y-30226000D03*
X89215500Y-30226000D03*
M02*
