G04 #@! TF.GenerationSoftware,KiCad,Pcbnew,8.0.4*
G04 #@! TF.CreationDate,2024-08-16T16:00:28+02:00*
G04 #@! TF.ProjectId,Purrtico_M,50757272-7469-4636-9f5f-4d2e6b696361,01*
G04 #@! TF.SameCoordinates,Original*
G04 #@! TF.FileFunction,Copper,L1,Top*
G04 #@! TF.FilePolarity,Positive*
%FSLAX46Y46*%
G04 Gerber Fmt 4.6, Leading zero omitted, Abs format (unit mm)*
G04 Created by KiCad (PCBNEW 8.0.4) date 2024-08-16 16:00:28*
%MOMM*%
%LPD*%
G01*
G04 APERTURE LIST*
G04 Aperture macros list*
%AMRoundRect*
0 Rectangle with rounded corners*
0 $1 Rounding radius*
0 $2 $3 $4 $5 $6 $7 $8 $9 X,Y pos of 4 corners*
0 Add a 4 corners polygon primitive as box body*
4,1,4,$2,$3,$4,$5,$6,$7,$8,$9,$2,$3,0*
0 Add four circle primitives for the rounded corners*
1,1,$1+$1,$2,$3*
1,1,$1+$1,$4,$5*
1,1,$1+$1,$6,$7*
1,1,$1+$1,$8,$9*
0 Add four rect primitives between the rounded corners*
20,1,$1+$1,$2,$3,$4,$5,0*
20,1,$1+$1,$4,$5,$6,$7,0*
20,1,$1+$1,$6,$7,$8,$9,0*
20,1,$1+$1,$8,$9,$2,$3,0*%
G04 Aperture macros list end*
G04 #@! TA.AperFunction,SMDPad,CuDef*
%ADD10RoundRect,0.250000X0.312500X0.625000X-0.312500X0.625000X-0.312500X-0.625000X0.312500X-0.625000X0*%
G04 #@! TD*
G04 #@! TA.AperFunction,SMDPad,CuDef*
%ADD11RoundRect,0.250000X-0.312500X-0.625000X0.312500X-0.625000X0.312500X0.625000X-0.312500X0.625000X0*%
G04 #@! TD*
G04 #@! TA.AperFunction,ComponentPad*
%ADD12C,1.000000*%
G04 #@! TD*
G04 #@! TA.AperFunction,ComponentPad*
%ADD13R,1.700000X1.700000*%
G04 #@! TD*
G04 #@! TA.AperFunction,ComponentPad*
%ADD14O,1.700000X1.700000*%
G04 #@! TD*
G04 #@! TA.AperFunction,ComponentPad*
%ADD15C,5.600000*%
G04 #@! TD*
G04 #@! TA.AperFunction,ComponentPad*
%ADD16R,1.600000X1.600000*%
G04 #@! TD*
G04 #@! TA.AperFunction,ComponentPad*
%ADD17C,1.600000*%
G04 #@! TD*
G04 #@! TA.AperFunction,SMDPad,CuDef*
%ADD18RoundRect,0.250000X0.650000X-0.325000X0.650000X0.325000X-0.650000X0.325000X-0.650000X-0.325000X0*%
G04 #@! TD*
G04 #@! TA.AperFunction,SMDPad,CuDef*
%ADD19RoundRect,0.250000X-0.650000X0.325000X-0.650000X-0.325000X0.650000X-0.325000X0.650000X0.325000X0*%
G04 #@! TD*
G04 #@! TA.AperFunction,SMDPad,CuDef*
%ADD20RoundRect,0.150000X-0.150000X0.825000X-0.150000X-0.825000X0.150000X-0.825000X0.150000X0.825000X0*%
G04 #@! TD*
G04 #@! TA.AperFunction,ViaPad*
%ADD21C,0.800000*%
G04 #@! TD*
G04 #@! TA.AperFunction,Conductor*
%ADD22C,0.250000*%
G04 #@! TD*
G04 #@! TA.AperFunction,Conductor*
%ADD23C,0.254000*%
G04 #@! TD*
G04 #@! TA.AperFunction,Conductor*
%ADD24C,0.635000*%
G04 #@! TD*
G04 APERTURE END LIST*
D10*
X94172500Y-30480000D03*
X91247500Y-30480000D03*
D11*
X137427500Y-45120000D03*
X140352500Y-45120000D03*
D12*
X111204000Y-70266000D03*
D10*
X118127500Y-47660000D03*
X115202500Y-47660000D03*
D12*
X124158000Y-36830000D03*
X126190000Y-58836000D03*
D13*
X172545000Y-57820000D03*
D14*
X170005000Y-57820000D03*
X172545000Y-55280000D03*
X170005000Y-55280000D03*
X172545000Y-52740000D03*
X170005000Y-52740000D03*
X172545000Y-50200000D03*
X170005000Y-50200000D03*
X172545000Y-47660000D03*
X170005000Y-47660000D03*
D10*
X93918500Y-77724000D03*
X90993500Y-77724000D03*
D15*
X172085000Y-29210000D03*
D10*
X105046500Y-70104000D03*
X102121500Y-70104000D03*
D11*
X149492500Y-56550000D03*
X152417500Y-56550000D03*
D12*
X131270000Y-41310000D03*
D11*
X84897500Y-42545000D03*
X87822500Y-42545000D03*
D16*
X156670000Y-38770000D03*
D17*
X156670000Y-41270000D03*
D18*
X94440000Y-41480000D03*
X94440000Y-38530000D03*
D12*
X128016000Y-61722000D03*
D19*
X148415000Y-58885000D03*
X148415000Y-61835000D03*
D20*
X147780000Y-50900000D03*
X146510000Y-50900000D03*
X145240000Y-50900000D03*
X143970000Y-50900000D03*
X142700000Y-50900000D03*
X141430000Y-50900000D03*
X140160000Y-50900000D03*
X140160000Y-55850000D03*
X141430000Y-55850000D03*
X142700000Y-55850000D03*
X143970000Y-55850000D03*
X145240000Y-55850000D03*
X146510000Y-55850000D03*
X147780000Y-55850000D03*
D18*
X140160000Y-42785000D03*
X140160000Y-39835000D03*
D13*
X91440000Y-27305000D03*
D14*
X93980000Y-27305000D03*
X96520000Y-27305000D03*
D16*
X132715000Y-66797621D03*
D17*
X132715000Y-69297621D03*
D16*
X83645000Y-75692000D03*
D17*
X83645000Y-78192000D03*
D10*
X108602500Y-48260000D03*
X105677500Y-48260000D03*
D17*
X97615000Y-42580000D03*
X97615000Y-47580000D03*
D16*
X95964000Y-68580000D03*
D17*
X95964000Y-71080000D03*
D10*
X140987500Y-59725000D03*
X138062500Y-59725000D03*
D11*
X88453500Y-71882000D03*
X91378500Y-71882000D03*
X149492500Y-67345000D03*
X152417500Y-67345000D03*
D12*
X101346000Y-45212000D03*
X135588000Y-42580000D03*
D18*
X105870000Y-44690000D03*
X105870000Y-41740000D03*
D12*
X100330000Y-63500000D03*
D19*
X111585000Y-58250000D03*
X111585000Y-61200000D03*
D12*
X162512000Y-39530000D03*
D10*
X153862500Y-71755000D03*
X150937500Y-71755000D03*
X153052500Y-45755000D03*
X150127500Y-45755000D03*
D12*
X146510000Y-74584000D03*
D13*
X89575640Y-85090000D03*
D14*
X92075640Y-85090000D03*
X94575640Y-85090000D03*
X89575640Y-82550000D03*
X92075640Y-82590000D03*
X94655640Y-82550000D03*
D12*
X93424000Y-65440000D03*
D10*
X137860500Y-77470000D03*
X134935500Y-77470000D03*
D11*
X118425500Y-63535000D03*
X121350500Y-63535000D03*
D16*
X161290000Y-47660000D03*
D17*
X161290000Y-50160000D03*
D11*
X102169500Y-74168000D03*
X105094500Y-74168000D03*
D19*
X143970000Y-45550000D03*
X143970000Y-48500000D03*
D12*
X83185000Y-67945000D03*
X116332000Y-34544000D03*
D13*
X103505000Y-27305000D03*
D14*
X106045000Y-27305000D03*
D17*
X108410000Y-64805000D03*
X108410000Y-69805000D03*
D13*
X127673100Y-85090000D03*
D14*
X130173100Y-85090000D03*
X132673100Y-85090000D03*
X127673100Y-82550000D03*
X130173100Y-82590000D03*
X132753100Y-82550000D03*
D20*
X96980000Y-50900000D03*
X95710000Y-50900000D03*
X94440000Y-50900000D03*
X93170000Y-50900000D03*
X91900000Y-50900000D03*
X90630000Y-50900000D03*
X89360000Y-50900000D03*
X89360000Y-55850000D03*
X90630000Y-55850000D03*
X91900000Y-55850000D03*
X93170000Y-55850000D03*
X94440000Y-55850000D03*
X95710000Y-55850000D03*
X96980000Y-55850000D03*
D18*
X138255000Y-65010000D03*
X138255000Y-62060000D03*
D17*
X123650000Y-60995000D03*
X123650000Y-55995000D03*
D10*
X99252500Y-30480000D03*
X96327500Y-30480000D03*
D12*
X86868000Y-63500000D03*
D10*
X116778500Y-74422000D03*
X113853500Y-74422000D03*
D18*
X147780000Y-48500000D03*
X147780000Y-45550000D03*
D16*
X121110000Y-73065000D03*
D17*
X121110000Y-75565000D03*
D11*
X97343500Y-75184000D03*
X100268500Y-75184000D03*
D16*
X126825000Y-39405000D03*
D17*
X126825000Y-41905000D03*
D19*
X144018000Y-58215000D03*
X144018000Y-61165000D03*
D11*
X119012500Y-43850000D03*
X121937500Y-43850000D03*
D13*
X142700000Y-27305000D03*
D14*
X145240000Y-27305000D03*
D12*
X131524000Y-44866000D03*
D11*
X154747500Y-67310000D03*
X157672500Y-67310000D03*
D17*
X83645000Y-63246000D03*
X83645000Y-58246000D03*
D11*
X150762500Y-61630000D03*
X153687500Y-61630000D03*
D16*
X134300000Y-36400000D03*
D17*
X134300000Y-38900000D03*
D12*
X118110000Y-79375000D03*
X157480000Y-71628000D03*
D11*
X100790000Y-48930000D03*
X103715000Y-48930000D03*
D19*
X105235000Y-57580000D03*
X105235000Y-60530000D03*
D11*
X99502500Y-66040000D03*
X102427500Y-66040000D03*
D16*
X113030000Y-29210000D03*
D17*
X113030000Y-31710000D03*
D19*
X89916000Y-36117000D03*
X89916000Y-39067000D03*
D11*
X137602500Y-69215000D03*
X140527500Y-69215000D03*
D10*
X140352500Y-47660000D03*
X137427500Y-47660000D03*
X130192500Y-56550000D03*
X127267500Y-56550000D03*
D12*
X88392000Y-76962000D03*
X134318000Y-60614000D03*
D10*
X111142500Y-42580000D03*
X108217500Y-42580000D03*
D11*
X113932500Y-67980000D03*
X116857500Y-67980000D03*
D12*
X123904000Y-49946000D03*
D10*
X109920500Y-76835000D03*
X106995500Y-76835000D03*
D12*
X89662000Y-74930000D03*
D13*
X146685000Y-85090000D03*
D14*
X149225000Y-85090000D03*
X151765000Y-85090000D03*
D12*
X105870000Y-66710000D03*
X109426000Y-59598000D03*
D13*
X165750240Y-85090000D03*
D14*
X168290240Y-85090000D03*
X170830240Y-85090000D03*
D12*
X120015000Y-69215000D03*
X146764000Y-65186000D03*
D17*
X83645000Y-48335000D03*
X83645000Y-53335000D03*
X102060000Y-55915000D03*
X102060000Y-60915000D03*
D10*
X113222500Y-35560000D03*
X110297500Y-35560000D03*
D11*
X86167500Y-48260000D03*
X89092500Y-48260000D03*
D15*
X83820000Y-29210000D03*
D10*
X128287500Y-33020000D03*
X125362500Y-33020000D03*
D16*
X128095000Y-46390000D03*
D17*
X128095000Y-48890000D03*
D20*
X115395000Y-50900000D03*
X114125000Y-50900000D03*
X112855000Y-50900000D03*
X111585000Y-50900000D03*
X110315000Y-50900000D03*
X109045000Y-50900000D03*
X107775000Y-50900000D03*
X107775000Y-55850000D03*
X109045000Y-55850000D03*
X110315000Y-55850000D03*
X111585000Y-55850000D03*
X112855000Y-55850000D03*
X114125000Y-55850000D03*
X115395000Y-55850000D03*
D11*
X96835500Y-77978000D03*
X99760500Y-77978000D03*
D12*
X156845000Y-83820000D03*
D10*
X109920500Y-79502000D03*
X106995500Y-79502000D03*
D13*
X108585000Y-85090000D03*
D14*
X111125000Y-85090000D03*
X113665000Y-85090000D03*
D11*
X146952500Y-41945000D03*
X149877500Y-41945000D03*
D10*
X129986500Y-73660000D03*
X127061500Y-73660000D03*
X153052500Y-49565000D03*
X150127500Y-49565000D03*
D16*
X145240000Y-68615000D03*
D17*
X145240000Y-71115000D03*
D16*
X154432000Y-75565000D03*
D17*
X154432000Y-78065000D03*
D16*
X161925000Y-55280000D03*
D17*
X161925000Y-57780000D03*
D12*
X103886000Y-32004000D03*
D19*
X111585000Y-45550000D03*
X111585000Y-48500000D03*
X93170000Y-58680000D03*
X93170000Y-61630000D03*
D10*
X99712500Y-60995000D03*
X96787500Y-60995000D03*
D11*
X134252500Y-56550000D03*
X137177500Y-56550000D03*
D13*
X119380000Y-27305000D03*
D14*
X121920000Y-27305000D03*
D10*
X161307500Y-34960000D03*
X158382500Y-34960000D03*
D11*
X149492500Y-39405000D03*
X152417500Y-39405000D03*
D18*
X116665000Y-45325000D03*
X116665000Y-42375000D03*
D10*
X89408000Y-60706000D03*
X86483000Y-60706000D03*
D12*
X98758000Y-38770000D03*
X135255000Y-73660000D03*
D10*
X103522500Y-41910000D03*
X100597500Y-41910000D03*
D11*
X125029500Y-77470000D03*
X127954500Y-77470000D03*
D10*
X91378500Y-66802000D03*
X88453500Y-66802000D03*
D12*
X124158000Y-44358000D03*
X100330000Y-71755000D03*
D19*
X93170000Y-45345000D03*
X93170000Y-48295000D03*
D10*
X91378500Y-69342000D03*
X88453500Y-69342000D03*
D21*
X132540000Y-56550000D03*
X132540000Y-50835000D03*
X153495000Y-65440000D03*
X157305000Y-50835000D03*
X148415000Y-65440000D03*
X157305000Y-55280000D03*
X155400000Y-50835000D03*
X152860000Y-63535000D03*
X117094000Y-63535000D03*
X155400000Y-55280000D03*
X111125000Y-64770000D03*
X113030000Y-71120000D03*
X142065000Y-48930000D03*
X113490000Y-57820000D03*
X91900000Y-53375000D03*
X113285000Y-45550000D03*
X109885000Y-45550000D03*
X142157000Y-57820000D03*
X95075000Y-45120000D03*
X142065000Y-45120000D03*
X91265000Y-61630000D03*
X87884000Y-74168000D03*
X145832433Y-57779946D03*
X95075000Y-61630000D03*
X124968000Y-79756000D03*
X109855000Y-48260000D03*
X95075000Y-48930000D03*
X139192000Y-77470000D03*
X109772000Y-57809128D03*
X113490000Y-60995000D03*
X142240000Y-61468000D03*
X111379000Y-79375000D03*
X111760000Y-76835000D03*
X91440000Y-48895000D03*
X163020000Y-34960000D03*
X91265000Y-45120000D03*
X145796000Y-61468000D03*
X145875000Y-45120000D03*
X109680000Y-60995000D03*
X130000000Y-33055000D03*
X154305000Y-45720000D03*
X89916000Y-58420000D03*
X87439500Y-56324500D03*
X153495000Y-54927500D03*
X150320000Y-47660000D03*
X89916000Y-43180000D03*
X89916000Y-40640000D03*
X120650000Y-58420000D03*
X120650000Y-50165000D03*
X118110000Y-51089000D03*
X118110000Y-58420000D03*
X110950000Y-67980000D03*
X99520000Y-58455000D03*
X99520000Y-51627000D03*
X100155000Y-67980000D03*
X104775000Y-50800000D03*
X104775000Y-62230000D03*
X114125000Y-39405000D03*
X114012000Y-42058000D03*
D22*
X149860000Y-86995000D02*
X144145000Y-86995000D01*
X135255000Y-73660000D02*
X136525000Y-72390000D01*
X151765000Y-85090000D02*
X149860000Y-86995000D01*
X133432621Y-69297621D02*
X132715000Y-69297621D01*
X142875000Y-78740000D02*
X133432621Y-69297621D01*
X142875000Y-85725000D02*
X142875000Y-78740000D01*
X144145000Y-86995000D02*
X142875000Y-85725000D01*
X134318000Y-60614000D02*
X133175000Y-60614000D01*
D23*
X138430000Y-46342000D02*
X138430000Y-41262000D01*
X134572000Y-50835000D02*
X132540000Y-50835000D01*
X140160000Y-50708000D02*
X137619500Y-48167500D01*
X140463000Y-39835000D02*
X142573000Y-41945000D01*
X137427500Y-47979500D02*
X134572000Y-50835000D01*
X142573000Y-41945000D02*
X146317500Y-41945000D01*
X132540000Y-58455000D02*
X132540000Y-56550000D01*
X137427500Y-47344500D02*
X138430000Y-46342000D01*
X133175000Y-66797621D02*
X133175000Y-60614000D01*
X133175000Y-60614000D02*
X133175000Y-59090000D01*
X138430000Y-41262000D02*
X139857000Y-39835000D01*
X133175000Y-59090000D02*
X132540000Y-58455000D01*
X149037072Y-38100000D02*
X148161000Y-38976072D01*
X151765000Y-48374000D02*
X151844000Y-48295000D01*
X151017000Y-49122000D02*
X151765000Y-48374000D01*
X151765000Y-41910000D02*
X152400000Y-41275000D01*
X151428000Y-38100000D02*
X149037072Y-38100000D01*
X157305000Y-61630000D02*
X157305000Y-55280000D01*
X151765000Y-48374000D02*
X151765000Y-41910000D01*
D22*
X147589500Y-66011500D02*
X147589500Y-66265500D01*
D23*
X153495000Y-65440000D02*
X157305000Y-61630000D01*
X151017000Y-50435928D02*
X151017000Y-49122000D01*
X151844000Y-48295000D02*
X154765000Y-48295000D01*
X148161000Y-38976072D02*
X148161000Y-45169000D01*
X152400000Y-41275000D02*
X152400000Y-39896500D01*
X154765000Y-48295000D02*
X157305000Y-50835000D01*
X145240000Y-68615000D02*
X147589500Y-66265500D01*
X150617928Y-50835000D02*
X151017000Y-50435928D01*
X147845000Y-50835000D02*
X150617928Y-50835000D01*
X147589500Y-66265500D02*
X148415000Y-65440000D01*
D22*
X146764000Y-65186000D02*
X147589500Y-66011500D01*
D23*
X152417500Y-39089500D02*
X151428000Y-38100000D01*
X152671500Y-39151000D02*
X156289000Y-39151000D01*
D22*
X146510000Y-74584000D02*
X147780000Y-74584000D01*
X146685000Y-85090000D02*
X146685000Y-76835000D01*
X147780000Y-73655000D02*
X145240000Y-71115000D01*
X147780000Y-75740000D02*
X147780000Y-74584000D01*
X147780000Y-74584000D02*
X147780000Y-73655000D01*
X146685000Y-76835000D02*
X147780000Y-75740000D01*
D23*
X149685000Y-43118750D02*
X151130000Y-44563750D01*
X149685000Y-40232500D02*
X149685000Y-43118750D01*
X146510000Y-50900000D02*
X146510000Y-49438000D01*
X151130000Y-44563750D02*
X151130000Y-48247000D01*
X149877500Y-40040000D02*
X149685000Y-40232500D01*
X149177000Y-49565000D02*
X148112000Y-48500000D01*
X146510000Y-49438000D02*
X147448000Y-48500000D01*
X151130000Y-48247000D02*
X150127500Y-49249500D01*
X150127500Y-49565000D02*
X149177000Y-49565000D01*
X140352500Y-42977500D02*
X140352500Y-45120000D01*
X141430000Y-50200000D02*
X140352500Y-49122500D01*
X140352500Y-47660000D02*
X140352500Y-45120000D01*
X140352500Y-49122500D02*
X140352500Y-47660000D01*
X134300000Y-38900000D02*
X137427500Y-42027500D01*
X137427500Y-42580000D02*
X137427500Y-45120000D01*
X137427500Y-42027500D02*
X137427500Y-42580000D01*
D22*
X135588000Y-42580000D02*
X137427500Y-42580000D01*
D23*
X115202500Y-49438764D02*
X115202500Y-47660000D01*
X117857000Y-45325000D02*
X119012500Y-44169500D01*
X114125000Y-50516264D02*
X115202500Y-49438764D01*
X115202500Y-47660000D02*
X115202500Y-46455500D01*
X115202500Y-46455500D02*
X116333000Y-45325000D01*
X116968000Y-45325000D02*
X117857000Y-45325000D01*
X139082000Y-55850000D02*
X140160000Y-55850000D01*
X138062500Y-57627500D02*
X137177500Y-56742500D01*
X138062500Y-61867500D02*
X138062500Y-59725000D01*
X138382000Y-56550000D02*
X139082000Y-55850000D01*
X137177500Y-56550000D02*
X138382000Y-56550000D01*
X138062500Y-59725000D02*
X138062500Y-57627500D01*
X106107500Y-43612500D02*
X106107500Y-44690000D01*
X106267500Y-45517500D02*
X108602500Y-47852500D01*
D22*
X108602500Y-49674500D02*
X108602500Y-48260000D01*
D23*
X108217500Y-42580000D02*
X107140000Y-42580000D01*
D22*
X109045000Y-50117000D02*
X108602500Y-49674500D01*
D23*
X107140000Y-42580000D02*
X106107500Y-43612500D01*
X106267500Y-44690000D02*
X106267500Y-45517500D01*
X107775000Y-59103000D02*
X107775000Y-56581000D01*
X153687500Y-61310500D02*
X155400000Y-59598000D01*
D22*
X111204000Y-70266000D02*
X111204000Y-69504000D01*
D23*
X109750000Y-67980000D02*
X114230000Y-63500000D01*
D22*
X111204000Y-69504000D02*
X109680000Y-67980000D01*
D23*
X155400000Y-59598000D02*
X155400000Y-55280000D01*
X153687500Y-62707500D02*
X152860000Y-63535000D01*
X154130000Y-49565000D02*
X155400000Y-50835000D01*
X116840000Y-63500000D02*
X116875000Y-63535000D01*
X108410000Y-69805000D02*
X107188000Y-68583000D01*
X118425500Y-63535000D02*
X117094000Y-63535000D01*
X153687500Y-61630000D02*
X153687500Y-62707500D01*
X116875000Y-63535000D02*
X118425500Y-63535000D01*
X153052500Y-49565000D02*
X154130000Y-49565000D01*
X109680000Y-67980000D02*
X109750000Y-67980000D01*
X107188000Y-59690000D02*
X107775000Y-59103000D01*
X107188000Y-68583000D02*
X107188000Y-59690000D01*
X114230000Y-63500000D02*
X116840000Y-63500000D01*
X108410000Y-69250000D02*
X109680000Y-67980000D01*
X108410000Y-59598000D02*
X108410000Y-57820000D01*
X109045000Y-57185000D02*
X109045000Y-55850000D01*
X111125000Y-64770000D02*
X110792500Y-64805000D01*
X113853500Y-71943500D02*
X113030000Y-71120000D01*
X113853500Y-74422000D02*
X113853500Y-71943500D01*
X110757500Y-64805000D02*
X110722500Y-64805000D01*
X110792500Y-64805000D02*
X108410000Y-64805000D01*
X108410000Y-57820000D02*
X109045000Y-57185000D01*
X108410000Y-64805000D02*
X108410000Y-59598000D01*
D22*
X109426000Y-59598000D02*
X108410000Y-59598000D01*
D23*
X110722500Y-64805000D02*
X111125000Y-64770000D01*
D22*
X126190000Y-57820000D02*
X127267500Y-56742500D01*
D23*
X124078000Y-56423000D02*
X127140500Y-56423000D01*
D22*
X126190000Y-58836000D02*
X126190000Y-57820000D01*
D23*
X123650000Y-55995000D02*
X115540000Y-55995000D01*
X155956000Y-74168000D02*
X155956000Y-69342000D01*
D22*
X155956000Y-71628000D02*
X157480000Y-71628000D01*
D23*
X155956000Y-69342000D02*
X157672500Y-67625500D01*
X155956000Y-74168000D02*
X154432000Y-75692000D01*
D22*
X167100000Y-86265000D02*
X160985000Y-86265000D01*
D23*
X154432000Y-79712000D02*
X154432000Y-78192000D01*
X157686000Y-82966000D02*
X154432000Y-79712000D01*
D22*
X156845000Y-83820000D02*
X157686000Y-82979000D01*
X160985000Y-86265000D02*
X157686000Y-82966000D01*
X168275000Y-85090000D02*
X167100000Y-86265000D01*
X157686000Y-82979000D02*
X157686000Y-82966000D01*
X129678000Y-67023000D02*
X126196500Y-63541500D01*
D23*
X114727000Y-57152000D02*
X120547000Y-57152000D01*
D22*
X129678000Y-73351500D02*
X129678000Y-67023000D01*
X126196500Y-63541500D02*
X123650000Y-60995000D01*
D23*
X123650000Y-60255000D02*
X123650000Y-60995000D01*
D22*
X128016000Y-61722000D02*
X126196500Y-63541500D01*
D23*
X120547000Y-57152000D02*
X123650000Y-60255000D01*
X114125000Y-56550000D02*
X114727000Y-57152000D01*
X152417500Y-65472750D02*
X151782500Y-64837750D01*
X150534621Y-58885000D02*
X148415000Y-58885000D01*
D22*
X152908000Y-76291000D02*
X153434000Y-76817000D01*
D23*
X152417500Y-67345000D02*
X154712500Y-67345000D01*
D22*
X153862500Y-71755000D02*
X153862500Y-73467500D01*
X161925000Y-85090000D02*
X165735000Y-85090000D01*
X156210000Y-79375000D02*
X161925000Y-85090000D01*
D23*
X149238500Y-56296000D02*
X148226000Y-56296000D01*
D22*
X153434000Y-76817000D02*
X155557000Y-76817000D01*
D23*
X152417500Y-67345000D02*
X152417500Y-65472750D01*
X154747500Y-67310000D02*
X154747500Y-70550500D01*
X151782500Y-60132879D02*
X150534621Y-58885000D01*
D22*
X156210000Y-77470000D02*
X156210000Y-79375000D01*
X155557000Y-76817000D02*
X156210000Y-77470000D01*
D23*
X151782500Y-64837750D02*
X151782500Y-60132879D01*
X154747500Y-70550500D02*
X153862500Y-71435500D01*
X148415000Y-57947000D02*
X149492500Y-56869500D01*
D22*
X153862500Y-73467500D02*
X152908000Y-74422000D01*
X152908000Y-74422000D02*
X152908000Y-76291000D01*
D23*
X152452500Y-67310000D02*
X154747500Y-67310000D01*
X148415000Y-58885000D02*
X148415000Y-57947000D01*
X148226000Y-56296000D02*
X147780000Y-55850000D01*
D24*
X143104999Y-52740000D02*
X112771856Y-52740000D01*
X111585000Y-50900000D02*
X111585000Y-48500000D01*
X93170000Y-51874999D02*
X93170000Y-50900000D01*
X172545000Y-47660000D02*
X168735000Y-47660000D01*
X170005000Y-47660000D02*
X168735000Y-47660000D01*
X112771856Y-52740000D02*
X111585000Y-51553144D01*
X161750000Y-47723500D02*
X156733500Y-52740000D01*
X111585000Y-51553144D02*
X110398144Y-52740000D01*
X143970000Y-51874999D02*
X143104999Y-52740000D01*
X170005000Y-47660000D02*
X172545000Y-47660000D01*
X94035001Y-52740000D02*
X93170000Y-51874999D01*
X144835001Y-52740000D02*
X143970000Y-51874999D01*
X110398144Y-52740000D02*
X94035001Y-52740000D01*
X156733500Y-52740000D02*
X144835001Y-52740000D01*
X168735000Y-47660000D02*
X161290000Y-47660000D01*
X93170000Y-50900000D02*
X93170000Y-48295000D01*
X143970000Y-50900000D02*
X143970000Y-51874999D01*
X143970000Y-50900000D02*
X143970000Y-48500000D01*
D23*
X109728000Y-49784000D02*
X110315000Y-50371000D01*
X145240000Y-55850000D02*
X145240000Y-57187513D01*
X91440000Y-48895000D02*
X91900000Y-49355000D01*
X113490000Y-57820000D02*
X112855000Y-57185000D01*
D24*
X142065000Y-45120000D02*
X142495000Y-45550000D01*
X95075000Y-45120000D02*
X93395000Y-45120000D01*
X109885000Y-61200000D02*
X109680000Y-60995000D01*
X93170000Y-61630000D02*
X95075000Y-61630000D01*
X144175000Y-60995000D02*
X145034000Y-60995000D01*
D23*
X91900000Y-53375000D02*
X91900000Y-55850000D01*
X142065000Y-48930000D02*
X142700000Y-49565000D01*
X111252000Y-79502000D02*
X109920500Y-79502000D01*
D24*
X111585000Y-45550000D02*
X109885000Y-45550000D01*
X91490000Y-45345000D02*
X91265000Y-45120000D01*
D23*
X154305000Y-45720000D02*
X153087500Y-45720000D01*
X111379000Y-79375000D02*
X111252000Y-79502000D01*
D24*
X143037000Y-60995000D02*
X144018000Y-61976000D01*
D23*
X139192000Y-77470000D02*
X137860500Y-77470000D01*
X109772000Y-57809128D02*
X110315000Y-57266128D01*
X94440000Y-50900000D02*
X94440000Y-49565000D01*
D24*
X145323000Y-60995000D02*
X145796000Y-61468000D01*
D23*
X111760000Y-76835000D02*
X109920500Y-76835000D01*
D24*
X93170000Y-45345000D02*
X91490000Y-45345000D01*
X145875000Y-45120000D02*
X145445000Y-45550000D01*
D23*
X142700000Y-49565000D02*
X142700000Y-50900000D01*
D24*
X145034000Y-60995000D02*
X145323000Y-60995000D01*
X111585000Y-61200000D02*
X109885000Y-61200000D01*
X142713000Y-60995000D02*
X143002000Y-60995000D01*
X144018000Y-61976000D02*
X144053000Y-61976000D01*
D23*
X142157000Y-57820000D02*
X142700000Y-57277000D01*
D22*
X130000000Y-33055000D02*
X128632500Y-33055000D01*
D24*
X144053000Y-61976000D02*
X145034000Y-60995000D01*
X142240000Y-61468000D02*
X142713000Y-60995000D01*
X143002000Y-60995000D02*
X143037000Y-60995000D01*
D23*
X91900000Y-49355000D02*
X91900000Y-50900000D01*
X145240000Y-57187513D02*
X145832433Y-57779946D01*
X87884000Y-74168000D02*
X88532500Y-73519500D01*
X94440000Y-49565000D02*
X95075000Y-48930000D01*
X88532500Y-73519500D02*
X88532500Y-71790000D01*
D24*
X143002000Y-60995000D02*
X143765000Y-60995000D01*
D23*
X112855000Y-57185000D02*
X112855000Y-55850000D01*
D24*
X113490000Y-60995000D02*
X111790000Y-60995000D01*
X142495000Y-45550000D02*
X143970000Y-45550000D01*
X145445000Y-45550000D02*
X143970000Y-45550000D01*
D23*
X110315000Y-57266128D02*
X110315000Y-55850000D01*
X163020000Y-34960000D02*
X161307500Y-34960000D01*
X124968000Y-79756000D02*
X124968000Y-77531500D01*
D24*
X93170000Y-61630000D02*
X91265000Y-61630000D01*
D23*
X109855000Y-48260000D02*
X109728000Y-48387000D01*
X142700000Y-57277000D02*
X142700000Y-55850000D01*
D24*
X113285000Y-45550000D02*
X111585000Y-45550000D01*
D23*
X109728000Y-48387000D02*
X109728000Y-49784000D01*
D24*
X93170000Y-54875001D02*
X94035001Y-54010000D01*
X111585000Y-55850000D02*
X111585000Y-55196856D01*
X111585000Y-55850000D02*
X111585000Y-58250000D01*
X161925000Y-57780000D02*
X161285000Y-57780000D01*
X143970000Y-54875001D02*
X143104999Y-54010000D01*
X93170000Y-55850000D02*
X93170000Y-54875001D01*
X170005000Y-57820000D02*
X161965000Y-57820000D01*
X143970000Y-55850000D02*
X143970000Y-58250000D01*
X93170000Y-58680000D02*
X93170000Y-55850000D01*
X143970000Y-55850000D02*
X143970000Y-54875001D01*
X144835001Y-54010000D02*
X143970000Y-54875001D01*
X161285000Y-57780000D02*
X157515000Y-54010000D01*
X110398144Y-54010000D02*
X111585000Y-55196856D01*
X94035001Y-54010000D02*
X110398144Y-54010000D01*
X112771856Y-54010000D02*
X111585000Y-55196856D01*
X172545000Y-57820000D02*
X170005000Y-57820000D01*
X143104999Y-54010000D02*
X112771856Y-54010000D01*
X157515000Y-54010000D02*
X144835001Y-54010000D01*
D22*
X148050000Y-86265000D02*
X149225000Y-85090000D01*
X143952500Y-75946000D02*
X143952500Y-84707500D01*
X145510000Y-86265000D02*
X148050000Y-86265000D01*
D23*
X143952500Y-75946000D02*
X143952500Y-75880500D01*
X143952500Y-75880500D02*
X137602500Y-69530500D01*
D22*
X143952500Y-84707500D02*
X145510000Y-86265000D01*
X131445000Y-76073000D02*
X131445000Y-68948000D01*
X134112000Y-78740000D02*
X131445000Y-76073000D01*
D23*
X135334000Y-57631500D02*
X135334000Y-67218000D01*
D22*
X134112000Y-83613000D02*
X134112000Y-78740000D01*
D23*
X132413000Y-67980000D02*
X132048000Y-68345000D01*
X134572000Y-67980000D02*
X132413000Y-67980000D01*
X134445000Y-56742500D02*
X135334000Y-57631500D01*
X135334000Y-67218000D02*
X134572000Y-67980000D01*
D22*
X132635000Y-85090000D02*
X134112000Y-83613000D01*
X131445000Y-68948000D02*
X132048000Y-68345000D01*
X116905500Y-74295000D02*
X121920000Y-74295000D01*
X123190000Y-75565000D02*
X123190000Y-82110851D01*
X121920000Y-74295000D02*
X123190000Y-75565000D01*
X124899149Y-83820000D02*
X128778000Y-83820000D01*
X123190000Y-82110851D02*
X124899149Y-83820000D01*
X128778000Y-83820000D02*
X130048000Y-85090000D01*
X132715000Y-78486000D02*
X132715000Y-82550000D01*
D23*
X128524000Y-71098000D02*
X121495000Y-64069000D01*
X128524000Y-71120000D02*
X128524000Y-71098000D01*
D22*
X128524000Y-71120000D02*
X128524000Y-74295000D01*
X128524000Y-74295000D02*
X132715000Y-78486000D01*
X135062500Y-84901500D02*
X135062500Y-85155500D01*
X129159000Y-86614000D02*
X127635000Y-85090000D01*
X133604000Y-86614000D02*
X129159000Y-86614000D01*
X135062500Y-85155500D02*
X133604000Y-86614000D01*
D23*
X135062500Y-84901500D02*
X135062500Y-77597000D01*
D22*
X130135000Y-82590000D02*
X130135000Y-77049000D01*
X130135000Y-77049000D02*
X127061500Y-73975500D01*
D23*
X127827500Y-77597000D02*
X127827500Y-82357500D01*
X148415000Y-61835000D02*
X150557500Y-61835000D01*
X148415000Y-60995000D02*
X148415000Y-61835000D01*
D22*
X150762500Y-79747500D02*
X150762500Y-79217500D01*
D23*
X150762500Y-71930000D02*
X150762500Y-79217500D01*
D22*
X158010000Y-86995000D02*
X150762500Y-79747500D01*
D23*
X146559433Y-55899433D02*
X146559433Y-59139433D01*
D22*
X170815000Y-85090000D02*
X168910000Y-86995000D01*
D23*
X150762500Y-61630000D02*
X150762500Y-71580000D01*
X146559433Y-59139433D02*
X148415000Y-60995000D01*
D22*
X168910000Y-86995000D02*
X158010000Y-86995000D01*
D23*
X136288000Y-56550000D02*
X136288000Y-63346000D01*
X136288000Y-63346000D02*
X137952000Y-65010000D01*
X140527500Y-69215000D02*
X141197500Y-69885000D01*
X135086000Y-55348000D02*
X136288000Y-56550000D01*
X140987500Y-63977500D02*
X140987500Y-59725000D01*
X147272000Y-69885000D02*
X149492500Y-67664500D01*
X140987500Y-59725000D02*
X141430000Y-59282500D01*
X130192500Y-56230500D02*
X131075000Y-55348000D01*
X139955000Y-65010000D02*
X140987500Y-63977500D01*
X140527500Y-69215000D02*
X140527500Y-65582500D01*
X140527500Y-65582500D02*
X139955000Y-65010000D01*
X138255000Y-65010000D02*
X139955000Y-65010000D01*
X131075000Y-55348000D02*
X135086000Y-55348000D01*
X141197500Y-69885000D02*
X147272000Y-69885000D01*
X141430000Y-59282500D02*
X141430000Y-55850000D01*
X122555000Y-27305000D02*
X125362500Y-30112500D01*
D22*
X126825000Y-36830000D02*
X124158000Y-36830000D01*
X126825000Y-39405000D02*
X126825000Y-38262000D01*
D23*
X126825000Y-34750000D02*
X125362500Y-33287500D01*
X126825000Y-36830000D02*
X126825000Y-34750000D01*
X125362500Y-30112500D02*
X125362500Y-33020000D01*
X126825000Y-38262000D02*
X126825000Y-36830000D01*
X158575000Y-40675000D02*
X158575000Y-39532000D01*
X145240000Y-31150000D02*
X145240000Y-27305000D01*
X157980000Y-41270000D02*
X158575000Y-40675000D01*
X149050000Y-34960000D02*
X145240000Y-31150000D01*
X156670000Y-41270000D02*
X157980000Y-41270000D01*
D22*
X158577000Y-39530000D02*
X158575000Y-39532000D01*
X162512000Y-39530000D02*
X158577000Y-39530000D01*
D23*
X158575000Y-39532000D02*
X158575000Y-34960000D01*
X158575000Y-34960000D02*
X149050000Y-34960000D01*
D22*
X83526000Y-78192000D02*
X81232000Y-75898000D01*
X87836000Y-78232000D02*
X83685000Y-78232000D01*
X90783500Y-78232000D02*
X87836000Y-78232000D01*
X81232000Y-53803000D02*
X81740000Y-53295000D01*
X81232000Y-75898000D02*
X81232000Y-53803000D01*
X89916000Y-58420000D02*
X89662000Y-58674000D01*
X89662000Y-58674000D02*
X89662000Y-60452000D01*
X88392000Y-78232000D02*
X87836000Y-78232000D01*
X86634500Y-56324500D02*
X83645000Y-53335000D01*
X88392000Y-76962000D02*
X88392000Y-78232000D01*
X81740000Y-53295000D02*
X83605000Y-53295000D01*
X87439500Y-56324500D02*
X86634500Y-56324500D01*
X89662000Y-60452000D02*
X96531250Y-60452000D01*
D23*
X96745500Y-41119500D02*
X96662500Y-41119500D01*
X97615000Y-42580000D02*
X95802000Y-44393000D01*
X93580000Y-41480000D02*
X90061250Y-41480000D01*
X95802000Y-44393000D02*
X95802000Y-50808000D01*
X88996250Y-42545000D02*
X87822500Y-42545000D01*
X96662500Y-41119500D02*
X98758000Y-39024000D01*
X96662500Y-41119500D02*
X94800500Y-41119500D01*
X90061250Y-41480000D02*
X88996250Y-42545000D01*
X97615000Y-41989000D02*
X96745500Y-41119500D01*
X94010000Y-41910000D02*
X93580000Y-41480000D01*
X148363000Y-46963000D02*
X145937000Y-46963000D01*
X150127500Y-45755000D02*
X150127500Y-47467500D01*
X145240000Y-47660000D02*
X145240000Y-50900000D01*
X150127500Y-46074500D02*
X149251500Y-46074500D01*
X152417500Y-56230500D02*
X153495000Y-55153000D01*
X150127500Y-47467500D02*
X150320000Y-47660000D01*
X149251500Y-46074500D02*
X148363000Y-46963000D01*
X145937000Y-46963000D02*
X145240000Y-47660000D01*
X153495000Y-55153000D02*
X153495000Y-54927500D01*
D22*
X100330000Y-71755000D02*
X102121500Y-69963500D01*
D23*
X102121500Y-70104000D02*
X102121500Y-66346000D01*
D22*
X102060000Y-65672500D02*
X102060000Y-60915000D01*
X105235000Y-60530000D02*
X102445000Y-60530000D01*
D23*
X89916000Y-39067000D02*
X89916000Y-38100000D01*
D22*
X93980000Y-27305000D02*
X93980000Y-30287500D01*
D23*
X94172500Y-33843500D02*
X94172500Y-30480000D01*
D22*
X89916000Y-43180000D02*
X89916000Y-46228000D01*
D23*
X89916000Y-40640000D02*
X89916000Y-39067000D01*
D22*
X90630000Y-46942000D02*
X90630000Y-50900000D01*
X89916000Y-46228000D02*
X90630000Y-46942000D01*
X96327500Y-30480000D02*
X94172500Y-30480000D01*
D23*
X89916000Y-38100000D02*
X94172500Y-33843500D01*
D22*
X89662000Y-74930000D02*
X91059000Y-73533000D01*
X89995000Y-63960000D02*
X89995000Y-72469000D01*
X87630000Y-61595000D02*
X89995000Y-63960000D01*
X83685000Y-48335000D02*
X83685000Y-50030000D01*
X83685000Y-50030000D02*
X88205000Y-54550000D01*
X90630000Y-56550000D02*
X87630000Y-59550000D01*
X96441500Y-77838000D02*
X96327500Y-77724000D01*
X91059000Y-73533000D02*
X92630250Y-75104250D01*
X89900000Y-54550000D02*
X90630000Y-55280000D01*
X88205000Y-54550000D02*
X89900000Y-54550000D01*
X87630000Y-59550000D02*
X87630000Y-61595000D01*
X89995000Y-72469000D02*
X92630250Y-75104250D01*
X96327500Y-77724000D02*
X93918500Y-77724000D01*
X92630250Y-75104250D02*
X93918500Y-76392500D01*
X93918500Y-76392500D02*
X93918500Y-77724000D01*
X94094000Y-66710000D02*
X93424000Y-66710000D01*
X93424000Y-65440000D02*
X93424000Y-66710000D01*
X91457500Y-71790000D02*
X91457500Y-69250000D01*
X93424000Y-66710000D02*
X91457500Y-66710000D01*
D23*
X91457500Y-66710000D02*
X91457500Y-69250000D01*
D22*
X95964000Y-68580000D02*
X94094000Y-66710000D01*
D23*
X81994000Y-62786000D02*
X81994000Y-69758000D01*
D22*
X83185000Y-67945000D02*
X81994000Y-67945000D01*
D23*
X88795000Y-56550000D02*
X86483000Y-58862000D01*
X89360000Y-56550000D02*
X88795000Y-56550000D01*
X86483000Y-60960000D02*
X83820000Y-60960000D01*
X83820000Y-60960000D02*
X81994000Y-62786000D01*
X81994000Y-74041000D02*
X83645000Y-75692000D01*
X81994000Y-69758000D02*
X81994000Y-74041000D01*
X86483000Y-58862000D02*
X86483000Y-60960000D01*
D22*
X81994000Y-67945000D02*
X81994000Y-69758000D01*
D23*
X119697500Y-81216500D02*
X119888000Y-81026000D01*
X119888000Y-81026000D02*
X119761000Y-81026000D01*
X121110000Y-79804000D02*
X121110000Y-75565000D01*
X119761000Y-81026000D02*
X118110000Y-79375000D01*
X112395000Y-86360000D02*
X114554000Y-86360000D01*
X119697500Y-81216500D02*
X121110000Y-79804000D01*
X111125000Y-85090000D02*
X112395000Y-86360000D01*
X114554000Y-86360000D02*
X119697500Y-81216500D01*
X120396000Y-58674000D02*
X120396000Y-64389000D01*
X116332000Y-66548000D02*
X115570000Y-67310000D01*
X118237000Y-66548000D02*
X116332000Y-66548000D01*
X113665000Y-81280000D02*
X113665000Y-85090000D01*
X115570000Y-79375000D02*
X113665000Y-81280000D01*
X122520000Y-48930000D02*
X121285000Y-50165000D01*
X120650000Y-58420000D02*
X120396000Y-58674000D01*
X120313000Y-50165000D02*
X118127500Y-47979500D01*
D22*
X123904000Y-49946000D02*
X123904000Y-48930000D01*
D23*
X115570000Y-67310000D02*
X115570000Y-79375000D01*
X121285000Y-50165000D02*
X120313000Y-50165000D01*
X120650000Y-50165000D02*
X120313000Y-50165000D01*
X123904000Y-48930000D02*
X122520000Y-48930000D01*
X120396000Y-64389000D02*
X118237000Y-66548000D01*
X128055000Y-48930000D02*
X123904000Y-48930000D01*
D22*
X128984000Y-43596000D02*
X128095000Y-43596000D01*
D23*
X106283000Y-41659000D02*
X107302000Y-40640000D01*
X104643000Y-46985000D02*
X105677500Y-48019500D01*
X107775000Y-50357500D02*
X105677500Y-48260000D01*
X127153820Y-40640000D02*
X128095000Y-41581180D01*
X104643000Y-42537000D02*
X104643000Y-46985000D01*
D22*
X130254000Y-44866000D02*
X128984000Y-43596000D01*
D23*
X128095000Y-41581180D02*
X128095000Y-43596000D01*
X128095000Y-43596000D02*
X128095000Y-46390000D01*
X107302000Y-40640000D02*
X127153820Y-40640000D01*
D22*
X131524000Y-44866000D02*
X130254000Y-44866000D01*
D23*
X105440000Y-41740000D02*
X104643000Y-42537000D01*
D22*
X118320000Y-70275000D02*
X118637500Y-70592500D01*
X118320000Y-70275000D02*
X117023879Y-68978879D01*
X117023879Y-68978879D02*
X117023879Y-67813621D01*
X118637500Y-70592500D02*
X120015000Y-69215000D01*
X121110000Y-73065000D02*
X118320000Y-70275000D01*
D23*
X120778000Y-42375000D02*
X121937500Y-43534500D01*
X118237000Y-51216000D02*
X129619000Y-51216000D01*
X116090000Y-65520000D02*
X118345428Y-65520000D01*
X132683000Y-41310000D02*
X132683000Y-38017000D01*
X120348000Y-45755000D02*
X118272072Y-45755000D01*
X108585000Y-85090000D02*
X114822000Y-78853000D01*
X121745000Y-44358000D02*
X120348000Y-45755000D01*
X119459500Y-64405928D02*
X119459500Y-59769500D01*
X129619000Y-51216000D02*
X132683000Y-48152000D01*
X132683000Y-38017000D02*
X134300000Y-36400000D01*
X119459500Y-59769500D02*
X118110000Y-58420000D01*
X116367072Y-47660000D02*
X116367072Y-49354928D01*
X132683000Y-48152000D02*
X132683000Y-41310000D01*
X118110000Y-51089000D02*
X115584000Y-51089000D01*
X118272072Y-45755000D02*
X116367072Y-47660000D01*
X115584000Y-51089000D02*
X115395000Y-50900000D01*
X118110000Y-51089000D02*
X118237000Y-51216000D01*
X114822000Y-78853000D02*
X114822000Y-66788000D01*
X118345428Y-65520000D02*
X119459500Y-64405928D01*
X116367072Y-49354928D02*
X115395000Y-50327000D01*
X116665000Y-42375000D02*
X120778000Y-42375000D01*
X114822000Y-66788000D02*
X116090000Y-65520000D01*
D22*
X131270000Y-41310000D02*
X132683000Y-41310000D01*
D23*
X112141000Y-41275000D02*
X111282500Y-42133500D01*
D22*
X124158000Y-44358000D02*
X124158000Y-41275000D01*
D23*
X124158000Y-41275000D02*
X126195000Y-41275000D01*
X124158000Y-41275000D02*
X112141000Y-41275000D01*
X126195000Y-41275000D02*
X126825000Y-41905000D01*
D22*
X86846500Y-65024000D02*
X85423000Y-65024000D01*
X88725000Y-66902500D02*
X88725000Y-69057500D01*
X87238250Y-65024000D02*
X86846500Y-65024000D01*
X88532500Y-66318250D02*
X87238250Y-65024000D01*
X85423000Y-65024000D02*
X83645000Y-63246000D01*
X86868000Y-63500000D02*
X86868000Y-65002500D01*
X86868000Y-65002500D02*
X86846500Y-65024000D01*
D23*
X104775000Y-73848500D02*
X104775000Y-69583000D01*
D22*
X104574000Y-54790000D02*
X106680000Y-56896000D01*
X104648000Y-65786000D02*
X104648000Y-69705500D01*
X106680000Y-56896000D02*
X106680000Y-63754000D01*
X106680000Y-63754000D02*
X104648000Y-65786000D01*
X98040000Y-54790000D02*
X104574000Y-54790000D01*
X96980000Y-55850000D02*
X98040000Y-54790000D01*
D23*
X98230000Y-68595000D02*
X98230000Y-68580000D01*
X98815000Y-67995000D02*
X100140000Y-67995000D01*
X96408500Y-58455000D02*
X99520000Y-58455000D01*
X98830000Y-67995000D02*
X98230000Y-68595000D01*
X98230000Y-68595000D02*
X96345000Y-70480000D01*
X99520000Y-51627000D02*
X100138000Y-51627000D01*
X102616000Y-43180000D02*
X103522500Y-42273500D01*
X110950000Y-67980000D02*
X113932500Y-67980000D01*
X98044000Y-67310000D02*
X98729000Y-67995000D01*
X102616000Y-49149000D02*
X102616000Y-43180000D01*
X100140000Y-67995000D02*
X100155000Y-67980000D01*
X100138000Y-51627000D02*
X102616000Y-49149000D01*
X98230000Y-68580000D02*
X98815000Y-67995000D01*
X98729000Y-67995000D02*
X98830000Y-67995000D01*
X99520000Y-58455000D02*
X98044000Y-59931000D01*
X94440000Y-56486500D02*
X96408500Y-58455000D01*
X98044000Y-59931000D02*
X98044000Y-67310000D01*
X94615000Y-82550000D02*
X95817081Y-82550000D01*
X98552000Y-79815081D02*
X98552000Y-77172072D01*
X101919500Y-74168000D02*
X101092000Y-74168000D01*
X95817081Y-82550000D02*
X98552000Y-79815081D01*
X98552000Y-77172072D02*
X100268500Y-75455572D01*
X101092000Y-74168000D02*
X100268500Y-74991500D01*
D22*
X83474000Y-80934000D02*
X90379000Y-80934000D01*
X80470000Y-77930000D02*
X83474000Y-80934000D01*
X84897500Y-42545000D02*
X83680000Y-42545000D01*
X97343500Y-76484750D02*
X97343500Y-75184000D01*
X93599000Y-81026000D02*
X96343550Y-81026000D01*
X90379000Y-80934000D02*
X92035000Y-82590000D01*
X97790000Y-76931250D02*
X97343500Y-76484750D01*
X83680000Y-42545000D02*
X80470000Y-45755000D01*
X92035000Y-82590000D02*
X93599000Y-81026000D01*
X97790000Y-79579550D02*
X97790000Y-76931250D01*
X96343550Y-81026000D02*
X97790000Y-79579550D01*
X80470000Y-45755000D02*
X80470000Y-77930000D01*
D23*
X95737081Y-85090000D02*
X94535000Y-85090000D01*
D22*
X103715000Y-49740000D02*
X103715000Y-48930000D01*
X104775000Y-62230000D02*
X104775000Y-64041496D01*
X104775000Y-50800000D02*
X103715000Y-49740000D01*
D23*
X103505000Y-77322081D02*
X95737081Y-85090000D01*
X103505000Y-65311496D02*
X103505000Y-77322081D01*
D22*
X104775000Y-64041496D02*
X103505000Y-65311496D01*
D23*
X91440000Y-86360000D02*
X95504000Y-86360000D01*
X105029000Y-76835000D02*
X106995500Y-76835000D01*
X89535000Y-82736000D02*
X90805000Y-84006000D01*
X90805000Y-85725000D02*
X91440000Y-86360000D01*
X95504000Y-86360000D02*
X105029000Y-76835000D01*
X90805000Y-84006000D02*
X90805000Y-85725000D01*
X93305000Y-83820000D02*
X95758000Y-83820000D01*
X95758000Y-83820000D02*
X99760500Y-79817500D01*
X92035000Y-85090000D02*
X93305000Y-83820000D01*
X99760500Y-79817500D02*
X99760500Y-77978000D01*
D22*
X100347500Y-57185000D02*
X101232500Y-56300000D01*
X100330000Y-63500000D02*
X99060000Y-63500000D01*
X99060000Y-65834000D02*
X99060000Y-63500000D01*
X100790000Y-58074000D02*
X100790000Y-57627500D01*
X99314000Y-62230000D02*
X99314000Y-61393500D01*
X104000000Y-56345000D02*
X102490000Y-56345000D01*
X105235000Y-57580000D02*
X104000000Y-56345000D01*
D23*
X96345000Y-57185000D02*
X95710000Y-56550000D01*
D22*
X99060000Y-62484000D02*
X99314000Y-62230000D01*
X100790000Y-57627500D02*
X100347500Y-57185000D01*
D23*
X100790000Y-59598000D02*
X99712500Y-60675500D01*
D22*
X101232500Y-56300000D02*
X102060000Y-56300000D01*
D23*
X100347500Y-57185000D02*
X96345000Y-57185000D01*
X100790000Y-58074000D02*
X100790000Y-59598000D01*
D22*
X99060000Y-63500000D02*
X99060000Y-62484000D01*
X99266000Y-66040000D02*
X99060000Y-65834000D01*
X113222500Y-33528000D02*
X113222500Y-35560000D01*
X113222500Y-31902500D02*
X113222500Y-33528000D01*
D23*
X115570000Y-33782000D02*
X113222500Y-33782000D01*
X113222500Y-33782000D02*
X113222500Y-33528000D01*
X116332000Y-34544000D02*
X115570000Y-33782000D01*
X90424000Y-86868000D02*
X96949500Y-86868000D01*
X89535000Y-85090000D02*
X89535000Y-85979000D01*
X89535000Y-85979000D02*
X90424000Y-86868000D01*
X104315500Y-79502000D02*
X106995500Y-79502000D01*
X96949500Y-86868000D02*
X104315500Y-79502000D01*
X114012000Y-47138000D02*
X112855000Y-48295000D01*
X112855000Y-48295000D02*
X112855000Y-50900000D01*
X113490000Y-38770000D02*
X114125000Y-39405000D01*
X100597500Y-41910000D02*
X100597500Y-40232500D01*
D22*
X100457000Y-45212000D02*
X99942500Y-44697500D01*
D23*
X100790000Y-48676000D02*
X99694000Y-47580000D01*
D22*
X100755000Y-37465000D02*
X102060000Y-38770000D01*
D23*
X96980000Y-50900000D02*
X99074000Y-50900000D01*
X100597500Y-40232500D02*
X102060000Y-38770000D01*
X97615000Y-47025000D02*
X99942500Y-44697500D01*
D22*
X95885000Y-37465000D02*
X100755000Y-37465000D01*
D23*
X99942500Y-44697500D02*
X100597500Y-44042500D01*
X99694000Y-47580000D02*
X97615000Y-47580000D01*
X114012000Y-42058000D02*
X114012000Y-47138000D01*
X99074000Y-50900000D02*
X100790000Y-49184000D01*
X102060000Y-38770000D02*
X113490000Y-38770000D01*
D22*
X94820000Y-38530000D02*
X95885000Y-37465000D01*
D23*
X100597500Y-44042500D02*
X100597500Y-41910000D01*
D22*
X101346000Y-45212000D02*
X100457000Y-45212000D01*
X107950000Y-29210000D02*
X113030000Y-29210000D01*
X106045000Y-27305000D02*
X107950000Y-29210000D01*
X102108000Y-25908000D02*
X103505000Y-27305000D01*
X93339649Y-25908000D02*
X102108000Y-25908000D01*
X89360000Y-50900000D02*
X89360000Y-48527500D01*
D23*
X103886000Y-32004000D02*
X103886000Y-27686000D01*
D22*
X89916000Y-35052000D02*
X92710000Y-32258000D01*
X92710000Y-26537649D02*
X93339649Y-25908000D01*
X89092500Y-47817500D02*
X86868000Y-45593000D01*
X89916000Y-36117000D02*
X89916000Y-35052000D01*
X86868000Y-40156500D02*
X89916000Y-37108500D01*
X86868000Y-45593000D02*
X86868000Y-40156500D01*
X89916000Y-37108500D02*
X89916000Y-36117000D01*
X92710000Y-32258000D02*
X92710000Y-26537649D01*
X104140000Y-35560000D02*
X99252500Y-30672500D01*
X110297500Y-35560000D02*
X104140000Y-35560000D01*
X99252500Y-30037500D02*
X96520000Y-27305000D01*
X87445000Y-34475000D02*
X91247500Y-30672500D01*
X85852000Y-36066604D02*
X87443604Y-34475000D01*
X87443604Y-34475000D02*
X87445000Y-34475000D01*
X85852000Y-47944500D02*
X85852000Y-36066604D01*
X91440000Y-27305000D02*
X91440000Y-30287500D01*
G04 #@! TA.AperFunction,Conductor*
G36*
X103513274Y-27312386D02*
G01*
X103514245Y-27313256D01*
X104349539Y-28149533D01*
X104352961Y-28157808D01*
X104352115Y-28162168D01*
X104015950Y-28997667D01*
X104009683Y-29004063D01*
X104005096Y-29005000D01*
X103763525Y-29005000D01*
X103755652Y-29001955D01*
X102832672Y-28162387D01*
X102828858Y-28154285D01*
X102831407Y-28146425D01*
X103496831Y-27314215D01*
X103504672Y-27309896D01*
X103513274Y-27312386D01*
G37*
G04 #@! TD.AperFunction*
G04 #@! TA.AperFunction,Conductor*
G36*
X124223948Y-55437343D02*
G01*
X125104137Y-56292554D01*
X125107683Y-56300776D01*
X125107684Y-56300944D01*
X125107684Y-56540102D01*
X125104257Y-56548375D01*
X125097923Y-56551640D01*
X123663621Y-56792710D01*
X123654895Y-56790702D01*
X123650144Y-56783111D01*
X123649982Y-56781195D01*
X123649006Y-55999859D01*
X123652422Y-55991583D01*
X124207531Y-55437454D01*
X124215806Y-55434035D01*
X124223948Y-55437343D01*
G37*
G04 #@! TD.AperFunction*
G04 #@! TA.AperFunction,Conductor*
G36*
X109097087Y-68397014D02*
G01*
X109266175Y-68566102D01*
X109269602Y-68574375D01*
X109269588Y-68574941D01*
X109210538Y-69793875D01*
X109206715Y-69801973D01*
X109198862Y-69805009D01*
X108414153Y-69805702D01*
X108405877Y-69802282D01*
X108405860Y-69802265D01*
X107854276Y-69249301D01*
X107850859Y-69241023D01*
X107854296Y-69232755D01*
X107855959Y-69231378D01*
X109082226Y-68395618D01*
X109090991Y-68393791D01*
X109097087Y-68397014D01*
G37*
G04 #@! TD.AperFunction*
G04 #@! TA.AperFunction,Conductor*
G36*
X83343341Y-52606705D02*
G01*
X83343461Y-52606985D01*
X83644134Y-53330510D01*
X83644144Y-53339463D01*
X83644135Y-53339485D01*
X83644134Y-53339490D01*
X83343701Y-54062437D01*
X83337362Y-54068762D01*
X83328407Y-54068751D01*
X83327592Y-54068375D01*
X82059351Y-53423252D01*
X82053531Y-53416447D01*
X82052956Y-53412824D01*
X82052956Y-53177590D01*
X82056383Y-53169317D01*
X82059886Y-53166906D01*
X83327889Y-52600790D01*
X83336839Y-52600548D01*
X83343341Y-52606705D01*
G37*
G04 #@! TD.AperFunction*
G04 #@! TA.AperFunction,Conductor*
G36*
X87284794Y-55959228D02*
G01*
X87290780Y-55965390D01*
X87438623Y-56319998D01*
X87438644Y-56328952D01*
X87438623Y-56329002D01*
X87290780Y-56683609D01*
X87284433Y-56689927D01*
X87275844Y-56690051D01*
X86647063Y-56452358D01*
X86640536Y-56446227D01*
X86639500Y-56441414D01*
X86639500Y-56207585D01*
X86642927Y-56199312D01*
X86647063Y-56196641D01*
X87275845Y-55958948D01*
X87284794Y-55959228D01*
G37*
G04 #@! TD.AperFunction*
G04 #@! TA.AperFunction,Conductor*
G36*
X111230373Y-79016415D02*
G01*
X111231115Y-79017892D01*
X111379093Y-79372824D01*
X111379994Y-79377355D01*
X111379035Y-79760924D01*
X111375587Y-79769189D01*
X111367306Y-79772595D01*
X111365168Y-79772393D01*
X110613795Y-79630796D01*
X110606300Y-79625896D01*
X110604262Y-79619298D01*
X110604262Y-79381656D01*
X110607689Y-79373383D01*
X110609983Y-79371599D01*
X111214338Y-79012336D01*
X111223200Y-79011055D01*
X111230373Y-79016415D01*
G37*
G04 #@! TD.AperFunction*
G04 #@! TA.AperFunction,Conductor*
G36*
X129845294Y-32689728D02*
G01*
X129851280Y-32695890D01*
X129999123Y-33050498D01*
X129999144Y-33059452D01*
X129999123Y-33059502D01*
X129851280Y-33414109D01*
X129844933Y-33420427D01*
X129836344Y-33420551D01*
X129207563Y-33182858D01*
X129201036Y-33176727D01*
X129200000Y-33171914D01*
X129200000Y-32938085D01*
X129203427Y-32929812D01*
X129207563Y-32927141D01*
X129836345Y-32689448D01*
X129845294Y-32689728D01*
G37*
G04 #@! TD.AperFunction*
G04 #@! TA.AperFunction,Conductor*
G36*
X112865433Y-55881384D02*
G01*
X112866122Y-55883046D01*
X113142243Y-56728305D01*
X113141940Y-56736391D01*
X112984983Y-57117753D01*
X112978666Y-57124099D01*
X112974164Y-57125000D01*
X112735836Y-57125000D01*
X112727563Y-57121573D01*
X112725017Y-57117753D01*
X112568059Y-56736391D01*
X112567756Y-56728306D01*
X112843878Y-55883045D01*
X112849705Y-55876246D01*
X112858633Y-55875557D01*
X112865433Y-55881384D01*
G37*
G04 #@! TD.AperFunction*
G04 #@! TA.AperFunction,Conductor*
G36*
X160502219Y-47436983D02*
G01*
X161286027Y-47657973D01*
X161293058Y-47663515D01*
X161293073Y-47663540D01*
X161731744Y-48451031D01*
X161732776Y-48459926D01*
X161728497Y-48466119D01*
X160680428Y-49244172D01*
X160671743Y-49246352D01*
X160665181Y-49243051D01*
X160227711Y-48805581D01*
X160224284Y-48797308D01*
X160224500Y-48795069D01*
X160487568Y-47446005D01*
X160492515Y-47438542D01*
X160501291Y-47436762D01*
X160502219Y-47436983D01*
G37*
G04 #@! TD.AperFunction*
G04 #@! TA.AperFunction,Conductor*
G36*
X98302087Y-46172014D02*
G01*
X98471175Y-46341102D01*
X98474602Y-46349375D01*
X98474588Y-46349941D01*
X98415538Y-47568875D01*
X98411715Y-47576973D01*
X98403862Y-47580009D01*
X97619153Y-47580702D01*
X97610877Y-47577282D01*
X97610860Y-47577265D01*
X97059276Y-47024301D01*
X97055859Y-47016023D01*
X97059296Y-47007755D01*
X97060959Y-47006378D01*
X98287226Y-46170618D01*
X98295991Y-46168791D01*
X98302087Y-46172014D01*
G37*
G04 #@! TD.AperFunction*
G04 #@! TA.AperFunction,Conductor*
G36*
X89069639Y-55746895D02*
G01*
X89349650Y-55845403D01*
X89356316Y-55851380D01*
X89356803Y-55860322D01*
X89356795Y-55860343D01*
X89066182Y-56681379D01*
X89060191Y-56688035D01*
X89053682Y-56689082D01*
X88864024Y-56665054D01*
X88857222Y-56661720D01*
X88686471Y-56490969D01*
X88683044Y-56482696D01*
X88684327Y-56477369D01*
X89055344Y-55752600D01*
X89062163Y-55746799D01*
X89069639Y-55746895D01*
G37*
G04 #@! TD.AperFunction*
G04 #@! TA.AperFunction,Conductor*
G36*
X123132254Y-59556062D02*
G01*
X123882202Y-60160525D01*
X124205557Y-60421152D01*
X124209848Y-60429011D01*
X124207324Y-60437603D01*
X124206498Y-60438524D01*
X123654139Y-60992265D01*
X123645871Y-60995702D01*
X123645846Y-60995702D01*
X122862595Y-60995011D01*
X122854325Y-60991577D01*
X122850905Y-60983301D01*
X122850937Y-60982440D01*
X122891526Y-60438524D01*
X122944145Y-59733400D01*
X122947538Y-59726002D01*
X123116642Y-59556898D01*
X123124914Y-59553472D01*
X123132254Y-59556062D01*
G37*
G04 #@! TD.AperFunction*
G04 #@! TA.AperFunction,Conductor*
G36*
X148451535Y-84769614D02*
G01*
X149221512Y-85088143D01*
X149227846Y-85094472D01*
X149227853Y-85094488D01*
X149545496Y-85863712D01*
X149545487Y-85872667D01*
X149539148Y-85878992D01*
X149538394Y-85879274D01*
X148027112Y-86384844D01*
X148018179Y-86384218D01*
X148012304Y-86377460D01*
X148011700Y-86373748D01*
X148011700Y-86141780D01*
X148012228Y-86138303D01*
X148435895Y-84776948D01*
X148441626Y-84770069D01*
X148450544Y-84769255D01*
X148451535Y-84769614D01*
G37*
G04 #@! TD.AperFunction*
G04 #@! TA.AperFunction,Conductor*
G36*
X95070713Y-61233886D02*
G01*
X95074970Y-61241764D01*
X95075032Y-61242935D01*
X95076000Y-61630000D01*
X95076000Y-61630058D01*
X95075032Y-62017064D01*
X95071584Y-62025329D01*
X95063303Y-62028735D01*
X95062132Y-62028673D01*
X94285500Y-61948582D01*
X94277622Y-61944325D01*
X94275000Y-61936944D01*
X94275000Y-61323055D01*
X94278427Y-61314782D01*
X94285499Y-61311417D01*
X95062134Y-61231326D01*
X95070713Y-61233886D01*
G37*
G04 #@! TD.AperFunction*
G04 #@! TA.AperFunction,Conductor*
G36*
X111605311Y-76469712D02*
G01*
X111611268Y-76475861D01*
X111759123Y-76830498D01*
X111759144Y-76839452D01*
X111759123Y-76839502D01*
X111611268Y-77194138D01*
X111604921Y-77200456D01*
X111596362Y-77200591D01*
X110967593Y-76964846D01*
X110961049Y-76958733D01*
X110960000Y-76953891D01*
X110960000Y-76716108D01*
X110963427Y-76707835D01*
X110967593Y-76705153D01*
X111596364Y-76469408D01*
X111605311Y-76469712D01*
G37*
G04 #@! TD.AperFunction*
G04 #@! TA.AperFunction,Conductor*
G36*
X157664138Y-55428731D02*
G01*
X157670456Y-55435078D01*
X157670591Y-55443637D01*
X157434847Y-56072407D01*
X157428734Y-56078951D01*
X157423892Y-56080000D01*
X157186108Y-56080000D01*
X157177835Y-56076573D01*
X157175153Y-56072407D01*
X156939408Y-55443635D01*
X156939712Y-55434688D01*
X156945859Y-55428732D01*
X157300500Y-55280875D01*
X157309449Y-55280855D01*
X157664138Y-55428731D01*
G37*
G04 #@! TD.AperFunction*
G04 #@! TA.AperFunction,Conductor*
G36*
X141440433Y-55881384D02*
G01*
X141441122Y-55883046D01*
X141717243Y-56728305D01*
X141716940Y-56736391D01*
X141559983Y-57117753D01*
X141553666Y-57124099D01*
X141549164Y-57125000D01*
X141310836Y-57125000D01*
X141302563Y-57121573D01*
X141300017Y-57117753D01*
X141143059Y-56736391D01*
X141142756Y-56728306D01*
X141418878Y-55883045D01*
X141424705Y-55876246D01*
X141433633Y-55875557D01*
X141440433Y-55881384D01*
G37*
G04 #@! TD.AperFunction*
G04 #@! TA.AperFunction,Conductor*
G36*
X92259138Y-53523731D02*
G01*
X92265456Y-53530078D01*
X92265591Y-53538637D01*
X92029847Y-54167407D01*
X92023734Y-54173951D01*
X92018892Y-54175000D01*
X91781108Y-54175000D01*
X91772835Y-54171573D01*
X91770153Y-54167407D01*
X91534408Y-53538635D01*
X91534712Y-53529688D01*
X91540859Y-53523732D01*
X91895500Y-53375875D01*
X91904449Y-53375855D01*
X92259138Y-53523731D01*
G37*
G04 #@! TD.AperFunction*
G04 #@! TA.AperFunction,Conductor*
G36*
X102047338Y-25788842D02*
G01*
X103833493Y-26450834D01*
X103840059Y-26456922D01*
X103840397Y-26465870D01*
X103840295Y-26466135D01*
X103507797Y-27300489D01*
X103501551Y-27306906D01*
X103501536Y-27306912D01*
X102666203Y-27664832D01*
X102657249Y-27664941D01*
X102650841Y-27658686D01*
X102650661Y-27658243D01*
X102032340Y-26035010D01*
X102031574Y-26030845D01*
X102031574Y-25799814D01*
X102035001Y-25791541D01*
X102043274Y-25788114D01*
X102047338Y-25788842D01*
G37*
G04 #@! TD.AperFunction*
G04 #@! TA.AperFunction,Conductor*
G36*
X89485473Y-49628427D02*
G01*
X89488000Y-49632200D01*
X89646912Y-50013589D01*
X89647234Y-50021722D01*
X89371122Y-50866953D01*
X89365295Y-50873753D01*
X89356367Y-50874442D01*
X89349567Y-50868615D01*
X89348878Y-50866953D01*
X89282995Y-50665274D01*
X89072765Y-50021720D01*
X89073086Y-50013591D01*
X89232000Y-49632199D01*
X89238345Y-49625881D01*
X89242800Y-49625000D01*
X89477200Y-49625000D01*
X89485473Y-49628427D01*
G37*
G04 #@! TD.AperFunction*
G04 #@! TA.AperFunction,Conductor*
G36*
X153341616Y-62885245D02*
G01*
X153509754Y-63053383D01*
X153513181Y-63061656D01*
X153512132Y-63066498D01*
X153234221Y-63677801D01*
X153227677Y-63683914D01*
X153219118Y-63683779D01*
X152863804Y-63537563D01*
X152857457Y-63531245D01*
X152857436Y-63531195D01*
X152711220Y-63175881D01*
X152711241Y-63166927D01*
X152717196Y-63160779D01*
X153328503Y-62882866D01*
X153337450Y-62882563D01*
X153341616Y-62885245D01*
G37*
G04 #@! TD.AperFunction*
G04 #@! TA.AperFunction,Conductor*
G36*
X95927491Y-49628427D02*
G01*
X95930733Y-49634627D01*
X96009441Y-50071897D01*
X96008923Y-50077964D01*
X95723171Y-50864735D01*
X95717126Y-50871341D01*
X95708180Y-50871738D01*
X95701574Y-50865693D01*
X95700811Y-50863528D01*
X95478711Y-49957831D01*
X95480049Y-49949012D01*
X95671590Y-49630668D01*
X95678791Y-49625346D01*
X95681615Y-49625000D01*
X95919218Y-49625000D01*
X95927491Y-49628427D01*
G37*
G04 #@! TD.AperFunction*
G04 #@! TA.AperFunction,Conductor*
G36*
X153976616Y-64790245D02*
G01*
X154144754Y-64958383D01*
X154148181Y-64966656D01*
X154147132Y-64971498D01*
X153869221Y-65582801D01*
X153862677Y-65588914D01*
X153854118Y-65588779D01*
X153498804Y-65442563D01*
X153492457Y-65436245D01*
X153492436Y-65436195D01*
X153346220Y-65080881D01*
X153346241Y-65071927D01*
X153352196Y-65065779D01*
X153963503Y-64787866D01*
X153972450Y-64787563D01*
X153976616Y-64790245D01*
G37*
G04 #@! TD.AperFunction*
G04 #@! TA.AperFunction,Conductor*
G36*
X109843775Y-60630179D02*
G01*
X109843971Y-60630263D01*
X110407884Y-60879419D01*
X110414067Y-60885897D01*
X110414856Y-60890121D01*
X110414856Y-61503687D01*
X110411429Y-61511960D01*
X110403156Y-61515387D01*
X110401232Y-61515228D01*
X109689751Y-61396625D01*
X109682154Y-61391884D01*
X109679975Y-61385113D01*
X109679005Y-60997350D01*
X109679904Y-60992829D01*
X109828476Y-60636473D01*
X109834821Y-60630158D01*
X109843775Y-60630179D01*
G37*
G04 #@! TD.AperFunction*
G04 #@! TA.AperFunction,Conductor*
G36*
X120072540Y-49740028D02*
G01*
X120638825Y-49764516D01*
X120646942Y-49768297D01*
X120650019Y-49776184D01*
X120650698Y-50160831D01*
X120647286Y-50169111D01*
X120647250Y-50169146D01*
X120375842Y-50439200D01*
X120367561Y-50442606D01*
X120359296Y-50439158D01*
X120358924Y-50438767D01*
X119895294Y-49927665D01*
X119892274Y-49919235D01*
X119895686Y-49911532D01*
X120063774Y-49743444D01*
X120072046Y-49740018D01*
X120072540Y-49740028D01*
G37*
G04 #@! TD.AperFunction*
G04 #@! TA.AperFunction,Conductor*
G36*
X90952510Y-81326152D02*
G01*
X92388975Y-81800755D01*
X92395756Y-81806604D01*
X92396414Y-81815534D01*
X92396119Y-81816330D01*
X92078202Y-82586214D01*
X92071877Y-82592553D01*
X92071854Y-82592562D01*
X91301580Y-82910640D01*
X91292625Y-82910631D01*
X91286300Y-82904292D01*
X91286150Y-82903908D01*
X90771481Y-81507692D01*
X90771835Y-81498746D01*
X90774183Y-81495377D01*
X90940572Y-81328988D01*
X90948844Y-81325562D01*
X90952510Y-81326152D01*
G37*
G04 #@! TD.AperFunction*
G04 #@! TA.AperFunction,Conductor*
G36*
X141074832Y-49664283D02*
G01*
X141276473Y-49842831D01*
X141365651Y-49921796D01*
X141369572Y-49929821D01*
X141430053Y-50890336D01*
X141427153Y-50898808D01*
X141420484Y-50902579D01*
X141141139Y-50953753D01*
X141132384Y-50951873D01*
X141127597Y-50944728D01*
X141118039Y-50900707D01*
X140888340Y-49842828D01*
X140889934Y-49834019D01*
X140891496Y-49832080D01*
X141058806Y-49664770D01*
X141067078Y-49661344D01*
X141074832Y-49664283D01*
G37*
G04 #@! TD.AperFunction*
G04 #@! TA.AperFunction,Conductor*
G36*
X96880089Y-69776912D02*
G01*
X97049235Y-69946058D01*
X97052662Y-69954331D01*
X97052328Y-69957108D01*
X96706339Y-71372908D01*
X96701046Y-71380132D01*
X96692196Y-71381497D01*
X96690508Y-71380946D01*
X95967787Y-71082562D01*
X95961448Y-71076237D01*
X95961437Y-71076212D01*
X95662114Y-70351216D01*
X95662125Y-70342263D01*
X95667964Y-70336159D01*
X96866854Y-69774589D01*
X96875799Y-69774184D01*
X96880089Y-69776912D01*
G37*
G04 #@! TD.AperFunction*
G04 #@! TA.AperFunction,Conductor*
G36*
X170056287Y-84769404D02*
G01*
X170826455Y-85087438D01*
X170832792Y-85093761D01*
X170832802Y-85093785D01*
X171150774Y-85863803D01*
X171150765Y-85872758D01*
X171144426Y-85879083D01*
X171143759Y-85879335D01*
X169717350Y-86368962D01*
X169708412Y-86368407D01*
X169705278Y-86366169D01*
X169538903Y-86199794D01*
X169535476Y-86191521D01*
X169536157Y-86187587D01*
X170040808Y-84776278D01*
X170046819Y-84769643D01*
X170055763Y-84769202D01*
X170056287Y-84769404D01*
G37*
G04 #@! TD.AperFunction*
G04 #@! TA.AperFunction,Conductor*
G36*
X169678284Y-57038810D02*
G01*
X169683922Y-57044818D01*
X170004134Y-57815511D01*
X170004143Y-57824466D01*
X170004134Y-57824489D01*
X169683922Y-58595181D01*
X169677583Y-58601506D01*
X169669348Y-58601768D01*
X168312931Y-58140198D01*
X168306203Y-58134289D01*
X168305000Y-58129122D01*
X168305000Y-57510877D01*
X168308427Y-57502604D01*
X168312930Y-57499801D01*
X169669348Y-57038231D01*
X169678284Y-57038810D01*
G37*
G04 #@! TD.AperFunction*
G04 #@! TA.AperFunction,Conductor*
G36*
X116939594Y-63169481D02*
G01*
X116945076Y-63175401D01*
X117093123Y-63530498D01*
X117093144Y-63539452D01*
X117093123Y-63539502D01*
X116945493Y-63893598D01*
X116939146Y-63899916D01*
X116930192Y-63899895D01*
X116930039Y-63899830D01*
X116308007Y-63630055D01*
X116301780Y-63623619D01*
X116300962Y-63619321D01*
X116300962Y-63381504D01*
X116304389Y-63373231D01*
X116309049Y-63370377D01*
X116930670Y-63168774D01*
X116939594Y-63169481D01*
G37*
G04 #@! TD.AperFunction*
G04 #@! TA.AperFunction,Conductor*
G36*
X150256954Y-46920219D02*
G01*
X150258011Y-46921432D01*
X150596704Y-47369044D01*
X150598963Y-47377709D01*
X150595662Y-47384363D01*
X150323441Y-47657546D01*
X150315174Y-47660987D01*
X150315124Y-47660987D01*
X149933003Y-47660032D01*
X149924738Y-47656584D01*
X149921332Y-47648303D01*
X149921400Y-47647072D01*
X149951515Y-47369044D01*
X149999369Y-46927231D01*
X150003667Y-46919376D01*
X150011001Y-46916792D01*
X150248681Y-46916792D01*
X150256954Y-46920219D01*
G37*
G04 #@! TD.AperFunction*
G04 #@! TA.AperFunction,Conductor*
G36*
X89583230Y-85097844D02*
G01*
X89584801Y-85099161D01*
X90420005Y-85934365D01*
X90423432Y-85942638D01*
X90422461Y-85947305D01*
X90199151Y-86460625D01*
X90196695Y-86464231D01*
X90025489Y-86635437D01*
X90017216Y-86638864D01*
X90010661Y-86636855D01*
X88990229Y-85946655D01*
X88985296Y-85939182D01*
X88987093Y-85930409D01*
X88987152Y-85930322D01*
X89566938Y-85100731D01*
X89574486Y-85095914D01*
X89583230Y-85097844D01*
G37*
G04 #@! TD.AperFunction*
G04 #@! TA.AperFunction,Conductor*
G36*
X146637437Y-49628427D02*
G01*
X146639983Y-49632247D01*
X146796940Y-50013608D01*
X146797243Y-50021694D01*
X146521122Y-50866953D01*
X146515295Y-50873753D01*
X146506367Y-50874442D01*
X146499567Y-50868615D01*
X146498878Y-50866953D01*
X146222756Y-50021694D01*
X146223058Y-50013610D01*
X146380017Y-49632246D01*
X146386334Y-49625901D01*
X146390836Y-49625000D01*
X146629164Y-49625000D01*
X146637437Y-49628427D01*
G37*
G04 #@! TD.AperFunction*
G04 #@! TA.AperFunction,Conductor*
G36*
X91428600Y-44755601D02*
G01*
X91429221Y-44755881D01*
X91979919Y-45024296D01*
X91985854Y-45031000D01*
X91986492Y-45034812D01*
X91986492Y-45648263D01*
X91983065Y-45656536D01*
X91974792Y-45659963D01*
X91972525Y-45659741D01*
X91274409Y-45521858D01*
X91266957Y-45516893D01*
X91264976Y-45510409D01*
X91264005Y-45122350D01*
X91264904Y-45117829D01*
X91413299Y-44761897D01*
X91419646Y-44755580D01*
X91428600Y-44755601D01*
G37*
G04 #@! TD.AperFunction*
G04 #@! TA.AperFunction,Conductor*
G36*
X99365311Y-58089712D02*
G01*
X99371268Y-58095861D01*
X99519123Y-58450498D01*
X99519144Y-58459452D01*
X99519123Y-58459502D01*
X99371268Y-58814138D01*
X99364921Y-58820456D01*
X99356362Y-58820591D01*
X98727593Y-58584846D01*
X98721049Y-58578733D01*
X98720000Y-58573891D01*
X98720000Y-58336108D01*
X98723427Y-58327835D01*
X98727593Y-58325153D01*
X99356364Y-58089408D01*
X99365311Y-58089712D01*
G37*
G04 #@! TD.AperFunction*
G04 #@! TA.AperFunction,Conductor*
G36*
X113485713Y-60598886D02*
G01*
X113489970Y-60606764D01*
X113490032Y-60607935D01*
X113491000Y-60995000D01*
X113491000Y-60995058D01*
X113490032Y-61382064D01*
X113486584Y-61390329D01*
X113478303Y-61393735D01*
X113477132Y-61393673D01*
X112700500Y-61313582D01*
X112692622Y-61309325D01*
X112690000Y-61301944D01*
X112690000Y-60688055D01*
X112693427Y-60679782D01*
X112700499Y-60676417D01*
X113477134Y-60596326D01*
X113485713Y-60598886D01*
G37*
G04 #@! TD.AperFunction*
G04 #@! TA.AperFunction,Conductor*
G36*
X89919405Y-58422418D02*
G01*
X89919441Y-58422453D01*
X90190672Y-58694643D01*
X90194084Y-58702923D01*
X90190731Y-58711101D01*
X89790439Y-59118614D01*
X89782197Y-59122115D01*
X89548356Y-59122115D01*
X89540083Y-59118688D01*
X89536661Y-59110765D01*
X89516359Y-58432019D01*
X89519537Y-58423647D01*
X89527704Y-58419974D01*
X89527953Y-58419970D01*
X89911124Y-58419012D01*
X89919405Y-58422418D01*
G37*
G04 #@! TD.AperFunction*
G04 #@! TA.AperFunction,Conductor*
G36*
X145363928Y-57127812D02*
G01*
X145767852Y-57311444D01*
X145975234Y-57405724D01*
X145981347Y-57412268D01*
X145981212Y-57420827D01*
X145834996Y-57776141D01*
X145828678Y-57782488D01*
X145828628Y-57782509D01*
X145473314Y-57928725D01*
X145464360Y-57928704D01*
X145458211Y-57922747D01*
X145394456Y-57782509D01*
X145180299Y-57311442D01*
X145179996Y-57302495D01*
X145182676Y-57298331D01*
X145350817Y-57130190D01*
X145359089Y-57126764D01*
X145363928Y-57127812D01*
G37*
G04 #@! TD.AperFunction*
G04 #@! TA.AperFunction,Conductor*
G36*
X109055433Y-55881384D02*
G01*
X109056122Y-55883046D01*
X109332243Y-56728305D01*
X109331940Y-56736391D01*
X109174983Y-57117753D01*
X109168666Y-57124099D01*
X109164164Y-57125000D01*
X108925836Y-57125000D01*
X108917563Y-57121573D01*
X108915017Y-57117753D01*
X108758059Y-56736391D01*
X108757756Y-56728306D01*
X109033878Y-55883045D01*
X109039705Y-55876246D01*
X109048633Y-55875557D01*
X109055433Y-55881384D01*
G37*
G04 #@! TD.AperFunction*
G04 #@! TA.AperFunction,Conductor*
G36*
X110325433Y-55881384D02*
G01*
X110326122Y-55883046D01*
X110602243Y-56728305D01*
X110601940Y-56736391D01*
X110444983Y-57117753D01*
X110438666Y-57124099D01*
X110434164Y-57125000D01*
X110195836Y-57125000D01*
X110187563Y-57121573D01*
X110185017Y-57117753D01*
X110028059Y-56736391D01*
X110027756Y-56728306D01*
X110303878Y-55883045D01*
X110309705Y-55876246D01*
X110318633Y-55875557D01*
X110325433Y-55881384D01*
G37*
G04 #@! TD.AperFunction*
G04 #@! TA.AperFunction,Conductor*
G36*
X96007615Y-55798123D02*
G01*
X96012402Y-55805269D01*
X96251659Y-56907168D01*
X96250065Y-56915980D01*
X96248498Y-56917924D01*
X96081194Y-57085228D01*
X96072921Y-57088655D01*
X96065165Y-57085714D01*
X95774349Y-56828202D01*
X95770428Y-56820178D01*
X95709946Y-55859663D01*
X95712846Y-55851191D01*
X95719514Y-55847420D01*
X95998862Y-55796244D01*
X96007615Y-55798123D01*
G37*
G04 #@! TD.AperFunction*
G04 #@! TA.AperFunction,Conductor*
G36*
X84381698Y-62944554D02*
G01*
X84388023Y-62950893D01*
X84388227Y-62951426D01*
X84756495Y-63985104D01*
X84862275Y-64282012D01*
X84861824Y-64290956D01*
X84859527Y-64294212D01*
X84693212Y-64460527D01*
X84684939Y-64463954D01*
X84681013Y-64463275D01*
X83350430Y-63989228D01*
X83343788Y-63983225D01*
X83343337Y-63974281D01*
X83343536Y-63973760D01*
X83642438Y-63249785D01*
X83648762Y-63243448D01*
X83648764Y-63243446D01*
X84372744Y-62944543D01*
X84381698Y-62944554D01*
G37*
G04 #@! TD.AperFunction*
G04 #@! TA.AperFunction,Conductor*
G36*
X114422615Y-55798123D02*
G01*
X114427402Y-55805269D01*
X114666659Y-56907168D01*
X114665065Y-56915980D01*
X114663498Y-56917924D01*
X114496194Y-57085228D01*
X114487921Y-57088655D01*
X114480165Y-57085714D01*
X114189349Y-56828202D01*
X114185428Y-56820178D01*
X114124946Y-55859663D01*
X114127846Y-55851191D01*
X114134514Y-55847420D01*
X114413862Y-55796244D01*
X114422615Y-55798123D01*
G37*
G04 #@! TD.AperFunction*
G04 #@! TA.AperFunction,Conductor*
G36*
X155709954Y-74239434D02*
G01*
X155712996Y-74241627D01*
X155881847Y-74410478D01*
X155885274Y-74418751D01*
X155884299Y-74423427D01*
X155236699Y-75908718D01*
X155230251Y-75914932D01*
X155221298Y-75914767D01*
X155221245Y-75914744D01*
X154435738Y-75567671D01*
X154429557Y-75561194D01*
X154127694Y-74776423D01*
X154127922Y-74767474D01*
X154134414Y-74761305D01*
X154134866Y-74761142D01*
X155701021Y-74238801D01*
X155709954Y-74239434D01*
G37*
G04 #@! TD.AperFunction*
G04 #@! TA.AperFunction,Conductor*
G36*
X142710433Y-55881384D02*
G01*
X142711122Y-55883046D01*
X142987243Y-56728305D01*
X142986940Y-56736391D01*
X142829983Y-57117753D01*
X142823666Y-57124099D01*
X142819164Y-57125000D01*
X142580836Y-57125000D01*
X142572563Y-57121573D01*
X142570017Y-57117753D01*
X142413059Y-56736391D01*
X142412756Y-56728306D01*
X142688878Y-55883045D01*
X142694705Y-55876246D01*
X142703633Y-55875557D01*
X142710433Y-55881384D01*
G37*
G04 #@! TD.AperFunction*
G04 #@! TA.AperFunction,Conductor*
G36*
X90755473Y-49628427D02*
G01*
X90758000Y-49632200D01*
X90916912Y-50013589D01*
X90917234Y-50021722D01*
X90641122Y-50866953D01*
X90635295Y-50873753D01*
X90626367Y-50874442D01*
X90619567Y-50868615D01*
X90618878Y-50866953D01*
X90552995Y-50665274D01*
X90342765Y-50021720D01*
X90343086Y-50013591D01*
X90502000Y-49632199D01*
X90508345Y-49625881D01*
X90512800Y-49625000D01*
X90747200Y-49625000D01*
X90755473Y-49628427D01*
G37*
G04 #@! TD.AperFunction*
G04 #@! TA.AperFunction,Conductor*
G36*
X113280713Y-45153886D02*
G01*
X113284970Y-45161764D01*
X113285032Y-45162935D01*
X113286000Y-45550000D01*
X113286000Y-45550058D01*
X113285032Y-45937064D01*
X113281584Y-45945329D01*
X113273303Y-45948735D01*
X113272132Y-45948673D01*
X112495500Y-45868582D01*
X112487622Y-45864325D01*
X112485000Y-45856944D01*
X112485000Y-45243055D01*
X112488427Y-45234782D01*
X112495499Y-45231417D01*
X113272134Y-45151326D01*
X113280713Y-45153886D01*
G37*
G04 #@! TD.AperFunction*
G04 #@! TA.AperFunction,Conductor*
G36*
X88365616Y-73518245D02*
G01*
X88533754Y-73686383D01*
X88537181Y-73694656D01*
X88536132Y-73699498D01*
X88258221Y-74310801D01*
X88251677Y-74316914D01*
X88243118Y-74316779D01*
X87887804Y-74170563D01*
X87881457Y-74164245D01*
X87881436Y-74164195D01*
X87735220Y-73808881D01*
X87735241Y-73799927D01*
X87741196Y-73793779D01*
X88352503Y-73515866D01*
X88361450Y-73515563D01*
X88365616Y-73518245D01*
G37*
G04 #@! TD.AperFunction*
G04 #@! TA.AperFunction,Conductor*
G36*
X112982437Y-49628427D02*
G01*
X112984983Y-49632247D01*
X113141940Y-50013608D01*
X113142243Y-50021694D01*
X112866122Y-50866953D01*
X112860295Y-50873753D01*
X112851367Y-50874442D01*
X112844567Y-50868615D01*
X112843878Y-50866953D01*
X112567756Y-50021694D01*
X112568058Y-50013610D01*
X112725017Y-49632246D01*
X112731334Y-49625901D01*
X112735836Y-49625000D01*
X112974164Y-49625000D01*
X112982437Y-49628427D01*
G37*
G04 #@! TD.AperFunction*
G04 #@! TA.AperFunction,Conductor*
G36*
X115702071Y-50686815D02*
G01*
X115991311Y-50958534D01*
X115994994Y-50966696D01*
X115995000Y-50967061D01*
X115995000Y-51207381D01*
X115991573Y-51215654D01*
X115986769Y-51218555D01*
X115702955Y-51306671D01*
X115694038Y-51305851D01*
X115690062Y-51302430D01*
X115400957Y-50909456D01*
X115398814Y-50900762D01*
X115403447Y-50893100D01*
X115687164Y-50685894D01*
X115695864Y-50683783D01*
X115702071Y-50686815D01*
G37*
G04 #@! TD.AperFunction*
G04 #@! TA.AperFunction,Conductor*
G36*
X105134109Y-62378719D02*
G01*
X105140427Y-62385066D01*
X105140551Y-62393655D01*
X104902859Y-63022437D01*
X104896728Y-63028964D01*
X104891915Y-63030000D01*
X104658085Y-63030000D01*
X104649812Y-63026573D01*
X104647141Y-63022437D01*
X104409448Y-62393655D01*
X104409728Y-62384705D01*
X104415889Y-62378719D01*
X104770500Y-62230875D01*
X104779449Y-62230855D01*
X105134109Y-62378719D01*
G37*
G04 #@! TD.AperFunction*
G04 #@! TA.AperFunction,Conductor*
G36*
X155159768Y-78366436D02*
G01*
X155166093Y-78372775D01*
X155166082Y-78381730D01*
X155165854Y-78382243D01*
X154562168Y-79658303D01*
X154555533Y-79664316D01*
X154551592Y-79665000D01*
X154312408Y-79665000D01*
X154304135Y-79661573D01*
X154301832Y-79658303D01*
X153698145Y-78382243D01*
X153697705Y-78373299D01*
X153703718Y-78366664D01*
X153704211Y-78366444D01*
X154427512Y-78065864D01*
X154436461Y-78065854D01*
X155159768Y-78366436D01*
G37*
G04 #@! TD.AperFunction*
G04 #@! TA.AperFunction,Conductor*
G36*
X109897848Y-45151325D02*
G01*
X110674500Y-45231417D01*
X110682378Y-45235674D01*
X110685000Y-45243055D01*
X110685000Y-45856944D01*
X110681573Y-45865217D01*
X110674500Y-45868582D01*
X109897867Y-45948673D01*
X109889286Y-45946113D01*
X109885029Y-45938235D01*
X109884967Y-45937077D01*
X109884000Y-45550000D01*
X109884967Y-45162933D01*
X109888415Y-45154670D01*
X109896696Y-45151264D01*
X109897848Y-45151325D01*
G37*
G04 #@! TD.AperFunction*
G04 #@! TA.AperFunction,Conductor*
G36*
X163509297Y-57499719D02*
G01*
X163515926Y-57505740D01*
X163517044Y-57510731D01*
X163517044Y-58128767D01*
X163513617Y-58137040D01*
X163508673Y-58139984D01*
X162241239Y-58516108D01*
X162232332Y-58515176D01*
X162227106Y-58509381D01*
X162073597Y-58139984D01*
X161925864Y-57784487D01*
X161925854Y-57775538D01*
X162226873Y-57051179D01*
X162233211Y-57044856D01*
X162241629Y-57044659D01*
X163509297Y-57499719D01*
G37*
G04 #@! TD.AperFunction*
G04 #@! TA.AperFunction,Conductor*
G36*
X126821318Y-41108547D02*
G01*
X126825009Y-41116705D01*
X126825015Y-41117066D01*
X126825993Y-41900139D01*
X126822576Y-41908417D01*
X126822559Y-41908434D01*
X126269019Y-42460997D01*
X126260743Y-42464417D01*
X126252473Y-42460983D01*
X126251281Y-42459583D01*
X125488177Y-41405070D01*
X125485955Y-41398211D01*
X125485955Y-41159330D01*
X125489382Y-41151057D01*
X125497278Y-41147636D01*
X126812939Y-41105387D01*
X126821318Y-41108547D01*
G37*
G04 #@! TD.AperFunction*
G04 #@! TA.AperFunction,Conductor*
G36*
X109857171Y-48259905D02*
G01*
X110212107Y-48407884D01*
X110218425Y-48414231D01*
X110218404Y-48423185D01*
X110217662Y-48424662D01*
X109858401Y-49029017D01*
X109851228Y-49034377D01*
X109848344Y-49034738D01*
X109610701Y-49034738D01*
X109602428Y-49031311D01*
X109599203Y-49025205D01*
X109486030Y-48424662D01*
X109457606Y-48273829D01*
X109459442Y-48265066D01*
X109466937Y-48260166D01*
X109469066Y-48259964D01*
X109852648Y-48259005D01*
X109857171Y-48259905D01*
G37*
G04 #@! TD.AperFunction*
G04 #@! TA.AperFunction,Conductor*
G36*
X84381698Y-53033554D02*
G01*
X84388023Y-53039893D01*
X84388227Y-53040426D01*
X84756495Y-54074104D01*
X84862275Y-54371012D01*
X84861824Y-54379956D01*
X84859527Y-54383212D01*
X84693212Y-54549527D01*
X84684939Y-54552954D01*
X84681013Y-54552275D01*
X83350430Y-54078228D01*
X83343788Y-54072225D01*
X83343337Y-54063281D01*
X83343536Y-54062760D01*
X83642438Y-53338785D01*
X83648762Y-53332448D01*
X83648764Y-53332446D01*
X84372744Y-53033543D01*
X84381698Y-53033554D01*
G37*
G04 #@! TD.AperFunction*
G04 #@! TA.AperFunction,Conductor*
G36*
X122527726Y-26713816D02*
G01*
X122529028Y-26715369D01*
X123419542Y-27987525D01*
X123421479Y-27996268D01*
X123418230Y-28002508D01*
X123249068Y-28171670D01*
X123240795Y-28175097D01*
X123240617Y-28175096D01*
X121931512Y-28155175D01*
X121923292Y-28151622D01*
X121919990Y-28143486D01*
X121919860Y-27987525D01*
X121919297Y-27309152D01*
X121922717Y-27300877D01*
X121922734Y-27300860D01*
X122511181Y-26713795D01*
X122519457Y-26710379D01*
X122527726Y-26713816D01*
G37*
G04 #@! TD.AperFunction*
G04 #@! TA.AperFunction,Conductor*
G36*
X96887230Y-42278532D02*
G01*
X97611212Y-42577437D01*
X97617551Y-42583762D01*
X97617562Y-42583787D01*
X97916462Y-43307757D01*
X97916451Y-43316712D01*
X97910112Y-43323037D01*
X97909588Y-43323238D01*
X96580408Y-43798676D01*
X96571464Y-43798236D01*
X96568194Y-43795933D01*
X96399066Y-43626805D01*
X96395639Y-43618532D01*
X96396323Y-43614591D01*
X96502017Y-43319104D01*
X96871762Y-42285409D01*
X96877774Y-42278776D01*
X96886718Y-42278336D01*
X96887230Y-42278532D01*
G37*
G04 #@! TD.AperFunction*
G04 #@! TA.AperFunction,Conductor*
G36*
X118478072Y-58271241D02*
G01*
X118484221Y-58277198D01*
X118762132Y-58888501D01*
X118762436Y-58897450D01*
X118759754Y-58901616D01*
X118591616Y-59069754D01*
X118583343Y-59073181D01*
X118578501Y-59072132D01*
X117967198Y-58794221D01*
X117961085Y-58787677D01*
X117961219Y-58779119D01*
X118107437Y-58423802D01*
X118113753Y-58417457D01*
X118469119Y-58271220D01*
X118478072Y-58271241D01*
G37*
G04 #@! TD.AperFunction*
G04 #@! TA.AperFunction,Conductor*
G36*
X162865311Y-34594712D02*
G01*
X162871268Y-34600861D01*
X163019123Y-34955498D01*
X163019144Y-34964452D01*
X163019123Y-34964502D01*
X162871268Y-35319138D01*
X162864921Y-35325456D01*
X162856362Y-35325591D01*
X162227593Y-35089846D01*
X162221049Y-35083733D01*
X162220000Y-35078891D01*
X162220000Y-34841108D01*
X162223427Y-34832835D01*
X162227593Y-34830153D01*
X162856364Y-34594408D01*
X162865311Y-34594712D01*
G37*
G04 #@! TD.AperFunction*
G04 #@! TA.AperFunction,Conductor*
G36*
X128520983Y-84749092D02*
G01*
X128527266Y-84755473D01*
X128527355Y-84755698D01*
X129171728Y-86445569D01*
X129171474Y-86454521D01*
X129169069Y-86458011D01*
X129003156Y-86623924D01*
X128994883Y-86627351D01*
X128990449Y-86626478D01*
X127325293Y-85944477D01*
X127318935Y-85938170D01*
X127318900Y-85929216D01*
X127318914Y-85929180D01*
X127670508Y-85093770D01*
X127676873Y-85087477D01*
X128512030Y-84749024D01*
X128520983Y-84749092D01*
G37*
G04 #@! TD.AperFunction*
G04 #@! TA.AperFunction,Conductor*
G36*
X110432789Y-57237472D02*
G01*
X110436216Y-57245745D01*
X110435331Y-57250208D01*
X110146010Y-57951396D01*
X110139687Y-57957736D01*
X110130743Y-57957753D01*
X109776503Y-57811981D01*
X109770156Y-57805663D01*
X109770141Y-57805628D01*
X109623600Y-57450888D01*
X109623609Y-57441933D01*
X109629947Y-57435607D01*
X109630404Y-57435430D01*
X110186073Y-57234741D01*
X110190047Y-57234045D01*
X110424516Y-57234045D01*
X110432789Y-57237472D01*
G37*
G04 #@! TD.AperFunction*
G04 #@! TA.AperFunction,Conductor*
G36*
X113792903Y-83393427D02*
G01*
X113795183Y-83396647D01*
X114444970Y-84753593D01*
X114445452Y-84762535D01*
X114439470Y-84769199D01*
X114438906Y-84769451D01*
X113669489Y-85089134D01*
X113660534Y-85089143D01*
X113660511Y-85089134D01*
X112891093Y-84769451D01*
X112884768Y-84763112D01*
X112884777Y-84754157D01*
X112885017Y-84753617D01*
X113534817Y-83396646D01*
X113541481Y-83390665D01*
X113545370Y-83390000D01*
X113784630Y-83390000D01*
X113792903Y-83393427D01*
G37*
G04 #@! TD.AperFunction*
G04 #@! TA.AperFunction,Conductor*
G36*
X145367437Y-49628427D02*
G01*
X145369983Y-49632247D01*
X145526940Y-50013608D01*
X145527243Y-50021694D01*
X145251122Y-50866953D01*
X145245295Y-50873753D01*
X145236367Y-50874442D01*
X145229567Y-50868615D01*
X145228878Y-50866953D01*
X144952756Y-50021694D01*
X144953058Y-50013610D01*
X145110017Y-49632246D01*
X145116334Y-49625901D01*
X145120836Y-49625000D01*
X145359164Y-49625000D01*
X145367437Y-49628427D01*
G37*
G04 #@! TD.AperFunction*
G04 #@! TA.AperFunction,Conductor*
G36*
X90221665Y-54692097D02*
G01*
X90486263Y-54863723D01*
X90499112Y-54872057D01*
X90504188Y-54879434D01*
X90504347Y-54880362D01*
X90629319Y-55840050D01*
X90626989Y-55848697D01*
X90620206Y-55852993D01*
X90340796Y-55913831D01*
X90331983Y-55912243D01*
X90327036Y-55905537D01*
X90040086Y-54875000D01*
X90038778Y-54870302D01*
X90039860Y-54861414D01*
X90041772Y-54858896D01*
X90207028Y-54693640D01*
X90215300Y-54690214D01*
X90221665Y-54692097D01*
G37*
G04 #@! TD.AperFunction*
G04 #@! TA.AperFunction,Conductor*
G36*
X120653405Y-58422418D02*
G01*
X120653441Y-58422453D01*
X120924691Y-58694662D01*
X120928103Y-58702942D01*
X120924770Y-58711100D01*
X120526442Y-59118594D01*
X120518208Y-59122114D01*
X120518075Y-59122115D01*
X120280388Y-59122115D01*
X120272115Y-59118688D01*
X120268692Y-59110732D01*
X120257654Y-58702843D01*
X120250324Y-58431986D01*
X120253526Y-58423624D01*
X120261703Y-58419974D01*
X120261989Y-58419970D01*
X120645124Y-58419012D01*
X120653405Y-58422418D01*
G37*
G04 #@! TD.AperFunction*
G04 #@! TA.AperFunction,Conductor*
G36*
X102073920Y-60117715D02*
G01*
X103536956Y-60403154D01*
X103544420Y-60408101D01*
X103546416Y-60414637D01*
X103546416Y-60649776D01*
X103542989Y-60658049D01*
X103542527Y-60658487D01*
X102633926Y-61473294D01*
X102625479Y-61476266D01*
X102617849Y-61472863D01*
X102062440Y-60918434D01*
X102059006Y-60910164D01*
X102059006Y-60910139D01*
X102059325Y-60655000D01*
X102059982Y-60129183D01*
X102063419Y-60120916D01*
X102071697Y-60117499D01*
X102073920Y-60117715D01*
G37*
G04 #@! TD.AperFunction*
G04 #@! TA.AperFunction,Conductor*
G36*
X133287911Y-68741251D02*
G01*
X133288823Y-68742279D01*
X134148983Y-69835467D01*
X134151406Y-69844087D01*
X134148061Y-69850974D01*
X133981764Y-70017271D01*
X133974205Y-70020676D01*
X132727403Y-70096863D01*
X132718936Y-70093947D01*
X132715011Y-70085899D01*
X132714989Y-70085195D01*
X132714776Y-69843630D01*
X132714297Y-69301773D01*
X132717716Y-69293498D01*
X133271367Y-68741229D01*
X133279643Y-68737814D01*
X133287911Y-68741251D01*
G37*
G04 #@! TD.AperFunction*
G04 #@! TA.AperFunction,Conductor*
G36*
X127793326Y-48161746D02*
G01*
X127793695Y-48162548D01*
X128094134Y-48885510D01*
X128094144Y-48894463D01*
X128094135Y-48894485D01*
X128094134Y-48894490D01*
X127793455Y-49618028D01*
X127787116Y-49624353D01*
X127778161Y-49624342D01*
X127777895Y-49624228D01*
X126509900Y-49060089D01*
X126503734Y-49053595D01*
X126502956Y-49049399D01*
X126502956Y-48810185D01*
X126506383Y-48801912D01*
X126509362Y-48799751D01*
X127777599Y-48156602D01*
X127786528Y-48155918D01*
X127793326Y-48161746D01*
G37*
G04 #@! TD.AperFunction*
G04 #@! TA.AperFunction,Conductor*
G36*
X96105141Y-82078553D02*
G01*
X96110267Y-82081549D01*
X96278809Y-82250091D01*
X96282236Y-82258364D01*
X96278809Y-82266637D01*
X96278191Y-82267212D01*
X95264902Y-83143927D01*
X95256404Y-83146749D01*
X95248984Y-83143362D01*
X94660477Y-82556238D01*
X94657040Y-82547969D01*
X94657933Y-82543473D01*
X94976951Y-81774273D01*
X94983284Y-81767946D01*
X94990900Y-81767488D01*
X96105141Y-82078553D01*
G37*
G04 #@! TD.AperFunction*
G04 #@! TA.AperFunction,Conductor*
G36*
X93166893Y-81286195D02*
G01*
X93170265Y-81288546D01*
X93336650Y-81454931D01*
X93340077Y-81463204D01*
X93339486Y-81466874D01*
X92864884Y-82903335D01*
X92859035Y-82910116D01*
X92850105Y-82910774D01*
X92849309Y-82910479D01*
X92079425Y-82592562D01*
X92073087Y-82586238D01*
X91754999Y-81815938D01*
X91755008Y-81806985D01*
X91761347Y-81800660D01*
X91761713Y-81800516D01*
X93157947Y-81285841D01*
X93166893Y-81286195D01*
G37*
G04 #@! TD.AperFunction*
G04 #@! TA.AperFunction,Conductor*
G36*
X150991106Y-84769428D02*
G01*
X151761215Y-85087438D01*
X151767552Y-85093761D01*
X151767562Y-85093785D01*
X152085567Y-85863883D01*
X152085558Y-85872838D01*
X152079219Y-85879163D01*
X152078629Y-85879388D01*
X150658251Y-86378031D01*
X150649309Y-86377539D01*
X150646102Y-86375265D01*
X150479734Y-86208897D01*
X150476307Y-86200624D01*
X150476968Y-86196748D01*
X150588461Y-85879163D01*
X150975612Y-84776368D01*
X150981584Y-84769699D01*
X150990526Y-84769207D01*
X150991106Y-84769428D01*
G37*
G04 #@! TD.AperFunction*
G04 #@! TA.AperFunction,Conductor*
G36*
X107785433Y-55881384D02*
G01*
X107786122Y-55883046D01*
X108062243Y-56728305D01*
X108061940Y-56736391D01*
X107904983Y-57117753D01*
X107898666Y-57124099D01*
X107894164Y-57125000D01*
X107655836Y-57125000D01*
X107647563Y-57121573D01*
X107645017Y-57117753D01*
X107488059Y-56736391D01*
X107487756Y-56728306D01*
X107763878Y-55883045D01*
X107769705Y-55876246D01*
X107778633Y-55875557D01*
X107785433Y-55881384D01*
G37*
G04 #@! TD.AperFunction*
G04 #@! TA.AperFunction,Conductor*
G36*
X162097835Y-46864726D02*
G01*
X162884343Y-47339088D01*
X162889657Y-47346295D01*
X162890000Y-47349107D01*
X162890000Y-47970892D01*
X162886573Y-47979165D01*
X162884343Y-47980911D01*
X162097835Y-48455273D01*
X162088980Y-48456611D01*
X162083524Y-48453532D01*
X161606897Y-47977500D01*
X161297287Y-47668277D01*
X161293856Y-47660007D01*
X161297278Y-47651732D01*
X161297288Y-47651722D01*
X162083525Y-46866466D01*
X162091799Y-46863045D01*
X162097835Y-46864726D01*
G37*
G04 #@! TD.AperFunction*
G04 #@! TA.AperFunction,Conductor*
G36*
X97302838Y-26984441D02*
G01*
X97309163Y-26990780D01*
X97309388Y-26991370D01*
X97808031Y-28411748D01*
X97807539Y-28420690D01*
X97805265Y-28423897D01*
X97638897Y-28590265D01*
X97630624Y-28593692D01*
X97626748Y-28593031D01*
X96206370Y-28094388D01*
X96199699Y-28088415D01*
X96199207Y-28079473D01*
X96199423Y-28078905D01*
X96517438Y-27308783D01*
X96523759Y-27302448D01*
X97293884Y-26984432D01*
X97302838Y-26984441D01*
G37*
G04 #@! TD.AperFunction*
G04 #@! TA.AperFunction,Conductor*
G36*
X155759138Y-55428731D02*
G01*
X155765456Y-55435078D01*
X155765591Y-55443637D01*
X155529847Y-56072407D01*
X155523734Y-56078951D01*
X155518892Y-56080000D01*
X155281108Y-56080000D01*
X155272835Y-56076573D01*
X155270153Y-56072407D01*
X155034408Y-55443635D01*
X155034712Y-55434688D01*
X155040859Y-55428732D01*
X155395500Y-55280875D01*
X155404449Y-55280855D01*
X155759138Y-55428731D01*
G37*
G04 #@! TD.AperFunction*
G04 #@! TA.AperFunction,Conductor*
G36*
X156836495Y-50182866D02*
G01*
X157240419Y-50366498D01*
X157447801Y-50460778D01*
X157453914Y-50467322D01*
X157453779Y-50475881D01*
X157307563Y-50831195D01*
X157301245Y-50837542D01*
X157301195Y-50837563D01*
X156945881Y-50983779D01*
X156936927Y-50983758D01*
X156930778Y-50977801D01*
X156867023Y-50837563D01*
X156652866Y-50366496D01*
X156652563Y-50357549D01*
X156655243Y-50353385D01*
X156823384Y-50185244D01*
X156831656Y-50181818D01*
X156836495Y-50182866D01*
G37*
G04 #@! TD.AperFunction*
G04 #@! TA.AperFunction,Conductor*
G36*
X113656495Y-38752866D02*
G01*
X114060419Y-38936498D01*
X114267801Y-39030778D01*
X114273914Y-39037322D01*
X114273779Y-39045881D01*
X114127563Y-39401195D01*
X114121245Y-39407542D01*
X114121195Y-39407563D01*
X113765881Y-39553779D01*
X113756927Y-39553758D01*
X113750778Y-39547801D01*
X113687023Y-39407563D01*
X113472866Y-38936496D01*
X113472563Y-38927549D01*
X113475243Y-38923385D01*
X113643384Y-38755244D01*
X113651656Y-38751818D01*
X113656495Y-38752866D01*
G37*
G04 #@! TD.AperFunction*
G04 #@! TA.AperFunction,Conductor*
G36*
X172218284Y-46878810D02*
G01*
X172223922Y-46884818D01*
X172544134Y-47655511D01*
X172544143Y-47664466D01*
X172544134Y-47664489D01*
X172223922Y-48435181D01*
X172217583Y-48441506D01*
X172209348Y-48441768D01*
X170852931Y-47980198D01*
X170846203Y-47974289D01*
X170845000Y-47969122D01*
X170845000Y-47350877D01*
X170848427Y-47342604D01*
X170852930Y-47339801D01*
X172209348Y-46878231D01*
X172218284Y-46878810D01*
G37*
G04 #@! TD.AperFunction*
G04 #@! TA.AperFunction,Conductor*
G36*
X145209305Y-60687164D02*
G01*
X145939978Y-61093391D01*
X145945544Y-61100406D01*
X145945113Y-61108069D01*
X145797895Y-61465823D01*
X145795334Y-61469659D01*
X145522803Y-61741230D01*
X145514523Y-61744642D01*
X145506256Y-61741201D01*
X145505107Y-61739858D01*
X145194185Y-61315587D01*
X145191922Y-61308671D01*
X145191922Y-60697391D01*
X145195349Y-60689118D01*
X145203622Y-60685691D01*
X145209305Y-60687164D01*
G37*
G04 #@! TD.AperFunction*
G04 #@! TA.AperFunction,Conductor*
G36*
X91806394Y-48746931D02*
G01*
X91812712Y-48753278D01*
X91813143Y-48754521D01*
X92022748Y-49489554D01*
X92021722Y-49498450D01*
X92014706Y-49504014D01*
X92011497Y-49504463D01*
X91775731Y-49504463D01*
X91770553Y-49503255D01*
X91296741Y-49269396D01*
X91290839Y-49262661D01*
X91291105Y-49254437D01*
X91438141Y-48898499D01*
X91444465Y-48892162D01*
X91797442Y-48746910D01*
X91806394Y-48746931D01*
G37*
G04 #@! TD.AperFunction*
G04 #@! TA.AperFunction,Conductor*
G36*
X96025141Y-84618553D02*
G01*
X96030267Y-84621549D01*
X96198809Y-84790091D01*
X96202236Y-84798364D01*
X96198809Y-84806637D01*
X96198191Y-84807212D01*
X95184902Y-85683927D01*
X95176404Y-85686749D01*
X95168984Y-85683362D01*
X94580477Y-85096238D01*
X94577040Y-85087969D01*
X94577933Y-85083473D01*
X94896951Y-84314273D01*
X94903284Y-84307946D01*
X94910900Y-84307488D01*
X96025141Y-84618553D01*
G37*
G04 #@! TD.AperFunction*
G04 #@! TA.AperFunction,Conductor*
G36*
X93165473Y-83784782D02*
G01*
X93168858Y-83787139D01*
X93338057Y-83956338D01*
X93341484Y-83964611D01*
X93340889Y-83968294D01*
X92864894Y-85403353D01*
X92859037Y-85410127D01*
X92850106Y-85410775D01*
X92849323Y-85410484D01*
X92079425Y-85092562D01*
X92073087Y-85086238D01*
X91754994Y-84315926D01*
X91755003Y-84306972D01*
X91761342Y-84300647D01*
X91761737Y-84300492D01*
X93156526Y-83784439D01*
X93165473Y-83784782D01*
G37*
G04 #@! TD.AperFunction*
G04 #@! TA.AperFunction,Conductor*
G36*
X100174064Y-51407657D02*
G01*
X100178976Y-51410591D01*
X100345880Y-51577495D01*
X100349307Y-51585768D01*
X100345880Y-51594041D01*
X100343609Y-51595811D01*
X99684673Y-51989619D01*
X99675814Y-51990922D01*
X99668628Y-51985578D01*
X99667872Y-51984078D01*
X99521166Y-51632200D01*
X99521145Y-51623247D01*
X99669023Y-51267197D01*
X99675360Y-51260873D01*
X99683185Y-51260480D01*
X100174064Y-51407657D01*
G37*
G04 #@! TD.AperFunction*
G04 #@! TA.AperFunction,Conductor*
G36*
X97287754Y-50604471D02*
G01*
X97574147Y-50769624D01*
X97579600Y-50776724D01*
X97580000Y-50779758D01*
X97580000Y-51020241D01*
X97576573Y-51028514D01*
X97574148Y-51030374D01*
X97287758Y-51195526D01*
X97278880Y-51196690D01*
X97273657Y-51193678D01*
X96987313Y-50908285D01*
X96983873Y-50900019D01*
X96987285Y-50891741D01*
X97273658Y-50606320D01*
X97281933Y-50602909D01*
X97287754Y-50604471D01*
G37*
G04 #@! TD.AperFunction*
G04 #@! TA.AperFunction,Conductor*
G36*
X133332407Y-50705153D02*
G01*
X133338951Y-50711266D01*
X133340000Y-50716108D01*
X133340000Y-50953891D01*
X133336573Y-50962164D01*
X133332407Y-50964846D01*
X132703637Y-51200591D01*
X132694688Y-51200287D01*
X132688731Y-51194138D01*
X132540875Y-50839499D01*
X132540855Y-50830550D01*
X132688732Y-50475859D01*
X132695078Y-50469543D01*
X132703635Y-50469408D01*
X133332407Y-50705153D01*
G37*
G04 #@! TD.AperFunction*
G04 #@! TA.AperFunction,Conductor*
G36*
X128224826Y-44793427D02*
G01*
X128225506Y-44794168D01*
X128888093Y-45581790D01*
X128890797Y-45590327D01*
X128887418Y-45597590D01*
X128103278Y-46382711D01*
X128095007Y-46386143D01*
X128086732Y-46382721D01*
X128086722Y-46382711D01*
X127302581Y-45597590D01*
X127299159Y-45589315D01*
X127301905Y-45581791D01*
X127964494Y-44794168D01*
X127972442Y-44790043D01*
X127973447Y-44790000D01*
X128216553Y-44790000D01*
X128224826Y-44793427D01*
G37*
G04 #@! TD.AperFunction*
G04 #@! TA.AperFunction,Conductor*
G36*
X154931495Y-50182866D02*
G01*
X155335419Y-50366498D01*
X155542801Y-50460778D01*
X155548914Y-50467322D01*
X155548779Y-50475881D01*
X155402563Y-50831195D01*
X155396245Y-50837542D01*
X155396195Y-50837563D01*
X155040881Y-50983779D01*
X155031927Y-50983758D01*
X155025778Y-50977801D01*
X154962023Y-50837563D01*
X154747866Y-50366496D01*
X154747563Y-50357549D01*
X154750243Y-50353385D01*
X154918384Y-50185244D01*
X154926656Y-50181818D01*
X154931495Y-50182866D01*
G37*
G04 #@! TD.AperFunction*
G04 #@! TA.AperFunction,Conductor*
G36*
X139037311Y-77104712D02*
G01*
X139043268Y-77110861D01*
X139191123Y-77465498D01*
X139191144Y-77474452D01*
X139191123Y-77474502D01*
X139043268Y-77829138D01*
X139036921Y-77835456D01*
X139028362Y-77835591D01*
X138399593Y-77599846D01*
X138393049Y-77593733D01*
X138392000Y-77588891D01*
X138392000Y-77351108D01*
X138395427Y-77342835D01*
X138399593Y-77340153D01*
X139028364Y-77104408D01*
X139037311Y-77104712D01*
G37*
G04 #@! TD.AperFunction*
G04 #@! TA.AperFunction,Conductor*
G36*
X142827437Y-49628427D02*
G01*
X142829983Y-49632247D01*
X142986940Y-50013608D01*
X142987243Y-50021694D01*
X142711122Y-50866953D01*
X142705295Y-50873753D01*
X142696367Y-50874442D01*
X142689567Y-50868615D01*
X142688878Y-50866953D01*
X142412756Y-50021694D01*
X142413058Y-50013610D01*
X142570017Y-49632246D01*
X142576334Y-49625901D01*
X142580836Y-49625000D01*
X142819164Y-49625000D01*
X142827437Y-49628427D01*
G37*
G04 #@! TD.AperFunction*
G04 #@! TA.AperFunction,Conductor*
G36*
X142817789Y-57248344D02*
G01*
X142821216Y-57256617D01*
X142820331Y-57261080D01*
X142531010Y-57962268D01*
X142524687Y-57968608D01*
X142515743Y-57968625D01*
X142161503Y-57822853D01*
X142155156Y-57816535D01*
X142155141Y-57816500D01*
X142008600Y-57461760D01*
X142008609Y-57452805D01*
X142014947Y-57446479D01*
X142015404Y-57446302D01*
X142571073Y-57245613D01*
X142575047Y-57244917D01*
X142809516Y-57244917D01*
X142817789Y-57248344D01*
G37*
G04 #@! TD.AperFunction*
G04 #@! TA.AperFunction,Conductor*
G36*
X171086182Y-47131924D02*
G01*
X171697069Y-47339801D01*
X171703797Y-47345710D01*
X171705000Y-47350877D01*
X171705000Y-47969122D01*
X171701573Y-47977395D01*
X171697069Y-47980198D01*
X170340651Y-48441768D01*
X170331715Y-48441189D01*
X170326077Y-48435181D01*
X170005864Y-47664488D01*
X170005856Y-47655534D01*
X170005865Y-47655511D01*
X170326078Y-46884816D01*
X170332416Y-46878493D01*
X170340651Y-46878231D01*
X171086182Y-47131924D01*
G37*
G04 #@! TD.AperFunction*
G04 #@! TA.AperFunction,Conductor*
G36*
X113759030Y-32011960D02*
G01*
X113765355Y-32018299D01*
X113765631Y-32026488D01*
X113350178Y-33263734D01*
X113344296Y-33270486D01*
X113339087Y-33271710D01*
X113103890Y-33271710D01*
X113095617Y-33268283D01*
X113094046Y-33266334D01*
X112298452Y-32027909D01*
X112296864Y-32019096D01*
X112301972Y-32011741D01*
X112303796Y-32010786D01*
X113025512Y-31710864D01*
X113034461Y-31710854D01*
X113759030Y-32011960D01*
G37*
G04 #@! TD.AperFunction*
G04 #@! TA.AperFunction,Conductor*
G36*
X148055880Y-65291219D02*
G01*
X148411195Y-65437436D01*
X148417542Y-65443754D01*
X148417563Y-65443804D01*
X148563779Y-65799118D01*
X148563758Y-65808072D01*
X148557801Y-65814221D01*
X147946498Y-66092132D01*
X147937549Y-66092436D01*
X147933383Y-66089754D01*
X147765245Y-65921616D01*
X147761818Y-65913343D01*
X147762866Y-65908505D01*
X148040779Y-65297197D01*
X148047322Y-65291085D01*
X148055880Y-65291219D01*
G37*
G04 #@! TD.AperFunction*
G04 #@! TA.AperFunction,Conductor*
G36*
X171086182Y-57291924D02*
G01*
X171697069Y-57499801D01*
X171703797Y-57505710D01*
X171705000Y-57510877D01*
X171705000Y-58129122D01*
X171701573Y-58137395D01*
X171697069Y-58140198D01*
X170340651Y-58601768D01*
X170331715Y-58601189D01*
X170326077Y-58595181D01*
X170005864Y-57824488D01*
X170005856Y-57815534D01*
X170005865Y-57815511D01*
X170326078Y-57044816D01*
X170332416Y-57038493D01*
X170340651Y-57038231D01*
X171086182Y-57291924D01*
G37*
G04 #@! TD.AperFunction*
G04 #@! TA.AperFunction,Conductor*
G36*
X112237601Y-28417592D02*
G01*
X113022711Y-29201722D01*
X113026143Y-29209993D01*
X113022721Y-29218268D01*
X113022711Y-29218278D01*
X112237601Y-30002407D01*
X112229326Y-30005829D01*
X112221788Y-30003071D01*
X111434155Y-29338505D01*
X111430042Y-29330551D01*
X111430000Y-29329563D01*
X111430000Y-29090436D01*
X111433427Y-29082163D01*
X111434155Y-29081494D01*
X112221789Y-28416927D01*
X112230321Y-28414212D01*
X112237601Y-28417592D01*
G37*
G04 #@! TD.AperFunction*
G04 #@! TA.AperFunction,Conductor*
G36*
X129015934Y-83876439D02*
G01*
X130485826Y-84301075D01*
X130492823Y-84306663D01*
X130493819Y-84315562D01*
X130493393Y-84316781D01*
X130175662Y-85086214D01*
X130169337Y-85092553D01*
X130169314Y-85092562D01*
X129398670Y-85410792D01*
X129389715Y-85410783D01*
X129383390Y-85404444D01*
X129383368Y-85404390D01*
X129256422Y-85092562D01*
X128835450Y-84058491D01*
X128835504Y-84049537D01*
X128838010Y-84045810D01*
X129004415Y-83879405D01*
X129012687Y-83875979D01*
X129015934Y-83876439D01*
G37*
G04 #@! TD.AperFunction*
G04 #@! TA.AperFunction,Conductor*
G36*
X92027437Y-49628427D02*
G01*
X92029983Y-49632247D01*
X92186940Y-50013608D01*
X92187243Y-50021694D01*
X91911122Y-50866953D01*
X91905295Y-50873753D01*
X91896367Y-50874442D01*
X91889567Y-50868615D01*
X91888878Y-50866953D01*
X91612756Y-50021694D01*
X91613058Y-50013610D01*
X91770017Y-49632246D01*
X91776334Y-49625901D01*
X91780836Y-49625000D01*
X92019164Y-49625000D01*
X92027437Y-49628427D01*
G37*
G04 #@! TD.AperFunction*
G04 #@! TA.AperFunction,Conductor*
G36*
X82561004Y-77045526D02*
G01*
X83938654Y-77449235D01*
X83945630Y-77454850D01*
X83946592Y-77463753D01*
X83946179Y-77464928D01*
X83647562Y-78188212D01*
X83641237Y-78194551D01*
X83641212Y-78194562D01*
X82916704Y-78493684D01*
X82907749Y-78493673D01*
X82901427Y-78487339D01*
X82780375Y-78194562D01*
X82380561Y-77227570D01*
X82380566Y-77218618D01*
X82383097Y-77214832D01*
X82549448Y-77048481D01*
X82557720Y-77045055D01*
X82561004Y-77045526D01*
G37*
G04 #@! TD.AperFunction*
G04 #@! TA.AperFunction,Conductor*
G36*
X132899138Y-56698731D02*
G01*
X132905456Y-56705078D01*
X132905591Y-56713637D01*
X132669847Y-57342407D01*
X132663734Y-57348951D01*
X132658892Y-57350000D01*
X132421108Y-57350000D01*
X132412835Y-57346573D01*
X132410153Y-57342407D01*
X132174408Y-56713635D01*
X132174712Y-56704688D01*
X132180859Y-56698732D01*
X132535500Y-56550875D01*
X132544449Y-56550855D01*
X132899138Y-56698731D01*
G37*
G04 #@! TD.AperFunction*
G04 #@! TA.AperFunction,Conductor*
G36*
X169678284Y-46878810D02*
G01*
X169683922Y-46884818D01*
X170004134Y-47655511D01*
X170004143Y-47664466D01*
X170004134Y-47664489D01*
X169683922Y-48435181D01*
X169677583Y-48441506D01*
X169669348Y-48441768D01*
X168312931Y-47980198D01*
X168306203Y-47974289D01*
X168305000Y-47969122D01*
X168305000Y-47350877D01*
X168308427Y-47342604D01*
X168312930Y-47339801D01*
X169669348Y-46878231D01*
X169678284Y-46878810D01*
G37*
G04 #@! TD.AperFunction*
G04 #@! TA.AperFunction,Conductor*
G36*
X92027437Y-54578427D02*
G01*
X92029983Y-54582247D01*
X92186940Y-54963608D01*
X92187243Y-54971694D01*
X91911122Y-55816953D01*
X91905295Y-55823753D01*
X91896367Y-55824442D01*
X91889567Y-55818615D01*
X91888878Y-55816953D01*
X91612756Y-54971694D01*
X91613058Y-54963610D01*
X91770017Y-54582246D01*
X91776334Y-54575901D01*
X91780836Y-54575000D01*
X92019164Y-54575000D01*
X92027437Y-54578427D01*
G37*
G04 #@! TD.AperFunction*
G04 #@! TA.AperFunction,Conductor*
G36*
X96972838Y-41164846D02*
G01*
X96974684Y-41166144D01*
X98169318Y-42006321D01*
X98174113Y-42013883D01*
X98172157Y-42022622D01*
X98170870Y-42024154D01*
X97619139Y-42577265D01*
X97610871Y-42580702D01*
X97610846Y-42580702D01*
X96826412Y-42580010D01*
X96818142Y-42576576D01*
X96814726Y-42568593D01*
X96785308Y-41343801D01*
X96788536Y-41335449D01*
X96788692Y-41335288D01*
X96957837Y-41166143D01*
X96966109Y-41162717D01*
X96972838Y-41164846D01*
G37*
G04 #@! TD.AperFunction*
G04 #@! TA.AperFunction,Conductor*
G36*
X145976698Y-70813554D02*
G01*
X145983023Y-70819893D01*
X145983227Y-70820426D01*
X146351495Y-71854104D01*
X146457275Y-72151012D01*
X146456824Y-72159956D01*
X146454527Y-72163212D01*
X146288212Y-72329527D01*
X146279939Y-72332954D01*
X146276013Y-72332275D01*
X144945430Y-71858228D01*
X144938788Y-71852225D01*
X144938337Y-71843281D01*
X144938536Y-71842760D01*
X145237438Y-71118785D01*
X145243762Y-71112448D01*
X145243764Y-71112446D01*
X145967744Y-70813543D01*
X145976698Y-70813554D01*
G37*
G04 #@! TD.AperFunction*
G04 #@! TA.AperFunction,Conductor*
G36*
X155878592Y-38145053D02*
G01*
X156660657Y-38761843D01*
X156665031Y-38769657D01*
X156662599Y-38778275D01*
X156661680Y-38779308D01*
X155875276Y-39564730D01*
X155867001Y-39568152D01*
X155862996Y-39567443D01*
X155077688Y-39280806D01*
X155071092Y-39274750D01*
X155070000Y-39269815D01*
X155070000Y-39028501D01*
X155073016Y-39020660D01*
X155862665Y-38146397D01*
X155870753Y-38142555D01*
X155878592Y-38145053D01*
G37*
G04 #@! TD.AperFunction*
G04 #@! TA.AperFunction,Conductor*
G36*
X153138491Y-54779794D02*
G01*
X153366926Y-54873798D01*
X153493527Y-54925896D01*
X153497369Y-54928464D01*
X153768300Y-55200752D01*
X153771706Y-55209033D01*
X153768258Y-55217298D01*
X153766975Y-55218402D01*
X153164516Y-55665182D01*
X153155830Y-55667357D01*
X153149274Y-55664057D01*
X152981271Y-55496054D01*
X152977844Y-55487781D01*
X152978086Y-55485410D01*
X153122585Y-54788237D01*
X153127619Y-54780835D01*
X153136416Y-54779158D01*
X153138491Y-54779794D01*
G37*
G04 #@! TD.AperFunction*
G04 #@! TA.AperFunction,Conductor*
G36*
X111907851Y-84769436D02*
G01*
X111914176Y-84775775D01*
X111914397Y-84776352D01*
X112414434Y-86195328D01*
X112413952Y-86204270D01*
X112411672Y-86207490D01*
X112242490Y-86376672D01*
X112234217Y-86380099D01*
X112230328Y-86379434D01*
X110811352Y-85879397D01*
X110804688Y-85873415D01*
X110804206Y-85864473D01*
X110804427Y-85863896D01*
X111122438Y-85093783D01*
X111128759Y-85087448D01*
X111898896Y-84769427D01*
X111907851Y-84769436D01*
G37*
G04 #@! TD.AperFunction*
G04 #@! TA.AperFunction,Conductor*
G36*
X102633949Y-55357394D02*
G01*
X103512826Y-56216558D01*
X103516346Y-56224790D01*
X103516347Y-56224923D01*
X103516347Y-56460103D01*
X103512920Y-56468376D01*
X103506588Y-56471641D01*
X102073623Y-56712708D01*
X102064896Y-56710701D01*
X102060144Y-56703111D01*
X102059982Y-56701193D01*
X102059006Y-55919859D01*
X102062422Y-55911583D01*
X102617506Y-55357478D01*
X102625780Y-55354060D01*
X102633949Y-55357394D01*
G37*
G04 #@! TD.AperFunction*
G04 #@! TA.AperFunction,Conductor*
G36*
X121837768Y-75866436D02*
G01*
X121844093Y-75872775D01*
X121844082Y-75881730D01*
X121843854Y-75882243D01*
X121240168Y-77158303D01*
X121233533Y-77164316D01*
X121229592Y-77165000D01*
X120990408Y-77165000D01*
X120982135Y-77161573D01*
X120979832Y-77158303D01*
X120376145Y-75882243D01*
X120375705Y-75873299D01*
X120381718Y-75866664D01*
X120382211Y-75866444D01*
X121105512Y-75565864D01*
X121114461Y-75565854D01*
X121837768Y-75866436D01*
G37*
G04 #@! TD.AperFunction*
G04 #@! TA.AperFunction,Conductor*
G36*
X164907882Y-84247633D02*
G01*
X165742952Y-85081722D01*
X165746384Y-85089993D01*
X165742962Y-85098268D01*
X165742952Y-85098278D01*
X164907883Y-85932366D01*
X164899608Y-85935788D01*
X164892022Y-85932990D01*
X164054347Y-85218503D01*
X164050277Y-85210527D01*
X164050240Y-85209601D01*
X164050240Y-84970398D01*
X164053667Y-84962125D01*
X164054333Y-84961508D01*
X164892023Y-84247008D01*
X164900540Y-84244248D01*
X164907882Y-84247633D01*
G37*
G04 #@! TD.AperFunction*
G04 #@! TA.AperFunction,Conductor*
G36*
X91448266Y-27312276D02*
G01*
X92282366Y-28147357D01*
X92285788Y-28155632D01*
X92282990Y-28163218D01*
X91568503Y-29000893D01*
X91560527Y-29004963D01*
X91559601Y-29005000D01*
X91320399Y-29005000D01*
X91312126Y-29001573D01*
X91311497Y-29000893D01*
X90597009Y-28163218D01*
X90594248Y-28154699D01*
X90597632Y-28147358D01*
X91431723Y-27312286D01*
X91439993Y-27308855D01*
X91448266Y-27312276D01*
G37*
G04 #@! TD.AperFunction*
G04 #@! TA.AperFunction,Conductor*
G36*
X108537865Y-63208427D02*
G01*
X108540168Y-63211697D01*
X109143854Y-64487756D01*
X109144294Y-64496700D01*
X109138281Y-64503335D01*
X109137768Y-64503563D01*
X108414490Y-64804134D01*
X108405536Y-64804144D01*
X108405510Y-64804134D01*
X107682231Y-64503563D01*
X107675906Y-64497224D01*
X107675917Y-64488269D01*
X107676132Y-64487785D01*
X108279832Y-63211697D01*
X108286467Y-63205684D01*
X108290408Y-63205000D01*
X108529592Y-63205000D01*
X108537865Y-63208427D01*
G37*
G04 #@! TD.AperFunction*
G04 #@! TA.AperFunction,Conductor*
G36*
X93984489Y-27305865D02*
G01*
X94753892Y-27625542D01*
X94760217Y-27631881D01*
X94760208Y-27640836D01*
X94759950Y-27641413D01*
X94108186Y-28998366D01*
X94101515Y-29004339D01*
X94097639Y-29005000D01*
X93862361Y-29005000D01*
X93854088Y-29001573D01*
X93851814Y-28998366D01*
X93200049Y-27641413D01*
X93199557Y-27632471D01*
X93205530Y-27625800D01*
X93206095Y-27625547D01*
X93975511Y-27305864D01*
X93984466Y-27305856D01*
X93984489Y-27305865D01*
G37*
G04 #@! TD.AperFunction*
G04 #@! TA.AperFunction,Conductor*
G36*
X102716690Y-61186898D02*
G01*
X102787753Y-61216430D01*
X102794078Y-61222769D01*
X102794067Y-61231724D01*
X102793833Y-61232251D01*
X102188172Y-62508317D01*
X102181529Y-62514321D01*
X102177602Y-62515000D01*
X101942398Y-62515000D01*
X101934125Y-62511573D01*
X101931828Y-62508317D01*
X101326166Y-61232251D01*
X101325715Y-61223307D01*
X101331719Y-61216664D01*
X101332234Y-61216434D01*
X102055512Y-60915864D01*
X102064461Y-60915854D01*
X102716690Y-61186898D01*
G37*
G04 #@! TD.AperFunction*
G04 #@! TA.AperFunction,Conductor*
G36*
X82376311Y-74239446D02*
G01*
X83907658Y-74863976D01*
X83965489Y-74887562D01*
X83971856Y-74893860D01*
X83971905Y-74902814D01*
X83971885Y-74902862D01*
X83647562Y-75688214D01*
X83641237Y-75694553D01*
X83641214Y-75694562D01*
X82855862Y-76018884D01*
X82846907Y-76018875D01*
X82840582Y-76012536D01*
X82840562Y-76012488D01*
X82388022Y-74902862D01*
X82192447Y-74423312D01*
X82192496Y-74414359D01*
X82195005Y-74410625D01*
X82363623Y-74242007D01*
X82371895Y-74238581D01*
X82376311Y-74239446D01*
G37*
G04 #@! TD.AperFunction*
G04 #@! TA.AperFunction,Conductor*
G36*
X111742407Y-67850153D02*
G01*
X111748951Y-67856266D01*
X111750000Y-67861108D01*
X111750000Y-68098891D01*
X111746573Y-68107164D01*
X111742407Y-68109846D01*
X111113637Y-68345591D01*
X111104688Y-68345287D01*
X111098731Y-68339138D01*
X110950875Y-67984499D01*
X110950855Y-67975550D01*
X111098732Y-67620859D01*
X111105078Y-67614543D01*
X111113635Y-67614408D01*
X111742407Y-67850153D01*
G37*
G04 #@! TD.AperFunction*
G04 #@! TA.AperFunction,Conductor*
G36*
X107375408Y-68586323D02*
G01*
X108704588Y-69061761D01*
X108711223Y-69067774D01*
X108711663Y-69076718D01*
X108711462Y-69077242D01*
X108412562Y-69801212D01*
X108406237Y-69807551D01*
X108406212Y-69807562D01*
X107682242Y-70106462D01*
X107673287Y-70106451D01*
X107666962Y-70100112D01*
X107666761Y-70099588D01*
X107562305Y-69807562D01*
X107191323Y-68770408D01*
X107191763Y-68761464D01*
X107194063Y-68758197D01*
X107363195Y-68589065D01*
X107371467Y-68585639D01*
X107375408Y-68586323D01*
G37*
G04 #@! TD.AperFunction*
G04 #@! TA.AperFunction,Conductor*
G36*
X145244489Y-27305865D02*
G01*
X146013906Y-27625548D01*
X146020231Y-27631887D01*
X146020222Y-27640842D01*
X146019970Y-27641406D01*
X145370183Y-28998353D01*
X145363519Y-29004335D01*
X145359630Y-29005000D01*
X145120370Y-29005000D01*
X145112097Y-29001573D01*
X145109817Y-28998353D01*
X144460029Y-27641406D01*
X144459547Y-27632464D01*
X144465529Y-27625800D01*
X144466093Y-27625548D01*
X145235511Y-27305865D01*
X145244466Y-27305856D01*
X145244489Y-27305865D01*
G37*
G04 #@! TD.AperFunction*
G04 #@! TA.AperFunction,Conductor*
G36*
X118273185Y-50725595D02*
G01*
X118274660Y-50726336D01*
X118879017Y-51085599D01*
X118884377Y-51092772D01*
X118884738Y-51095656D01*
X118884738Y-51333298D01*
X118881311Y-51341571D01*
X118875205Y-51344796D01*
X118123831Y-51486393D01*
X118115066Y-51484557D01*
X118110166Y-51477062D01*
X118109964Y-51474932D01*
X118109005Y-51091350D01*
X118109904Y-51086829D01*
X118257885Y-50731890D01*
X118264231Y-50725574D01*
X118273185Y-50725595D01*
G37*
G04 #@! TD.AperFunction*
G04 #@! TA.AperFunction,Conductor*
G36*
X148085176Y-55719353D02*
G01*
X148153267Y-55850000D01*
X148318200Y-56166457D01*
X148319525Y-56171864D01*
X148319525Y-56414026D01*
X148316098Y-56422299D01*
X148310859Y-56425326D01*
X148089439Y-56484767D01*
X148080560Y-56483602D01*
X148075826Y-56478464D01*
X147784018Y-55860625D01*
X147783583Y-55851680D01*
X147789599Y-55845049D01*
X148069853Y-55714159D01*
X148078797Y-55713764D01*
X148085176Y-55719353D01*
G37*
G04 #@! TD.AperFunction*
G04 #@! TA.AperFunction,Conductor*
G36*
X145250433Y-55881384D02*
G01*
X145251122Y-55883046D01*
X145527243Y-56728305D01*
X145526940Y-56736391D01*
X145369983Y-57117753D01*
X145363666Y-57124099D01*
X145359164Y-57125000D01*
X145120836Y-57125000D01*
X145112563Y-57121573D01*
X145110017Y-57117753D01*
X144953059Y-56736391D01*
X144952756Y-56728306D01*
X145228878Y-55883045D01*
X145234705Y-55876246D01*
X145243633Y-55875557D01*
X145250433Y-55881384D01*
G37*
G04 #@! TD.AperFunction*
G04 #@! TA.AperFunction,Conductor*
G36*
X142355458Y-44846086D02*
G01*
X142356051Y-44846728D01*
X142684070Y-45229213D01*
X142686889Y-45236829D01*
X142686889Y-45848776D01*
X142683462Y-45857049D01*
X142675189Y-45860476D01*
X142670060Y-45859292D01*
X141921796Y-45494365D01*
X141915863Y-45487658D01*
X141916104Y-45479399D01*
X142063105Y-45122173D01*
X142065663Y-45118342D01*
X142338911Y-44846056D01*
X142347191Y-44842645D01*
X142355458Y-44846086D01*
G37*
G04 #@! TD.AperFunction*
G04 #@! TA.AperFunction,Conductor*
G36*
X146517640Y-67162496D02*
G01*
X146521377Y-67165008D01*
X146689991Y-67333622D01*
X146693418Y-67341895D01*
X146692552Y-67346313D01*
X146044437Y-68935488D01*
X146038139Y-68941855D01*
X146029185Y-68941904D01*
X146029137Y-68941884D01*
X145243785Y-68617562D01*
X145237447Y-68611238D01*
X144913114Y-67825860D01*
X144913123Y-67816907D01*
X144919462Y-67810582D01*
X144919465Y-67810580D01*
X146508687Y-67162447D01*
X146517640Y-67162496D01*
G37*
G04 #@! TD.AperFunction*
G04 #@! TA.AperFunction,Conductor*
G36*
X106827838Y-26984441D02*
G01*
X106834163Y-26990780D01*
X106834388Y-26991370D01*
X107333031Y-28411748D01*
X107332539Y-28420690D01*
X107330265Y-28423897D01*
X107163897Y-28590265D01*
X107155624Y-28593692D01*
X107151748Y-28593031D01*
X105731370Y-28094388D01*
X105724699Y-28088415D01*
X105724207Y-28079473D01*
X105724423Y-28078905D01*
X106042438Y-27308783D01*
X106048759Y-27302448D01*
X106818884Y-26984432D01*
X106827838Y-26984441D01*
G37*
G04 #@! TD.AperFunction*
G04 #@! TA.AperFunction,Conductor*
G36*
X83961592Y-77458248D02*
G01*
X83962407Y-77458624D01*
X85230649Y-78103747D01*
X85236469Y-78110552D01*
X85237044Y-78114175D01*
X85237044Y-78349409D01*
X85233617Y-78357682D01*
X85230114Y-78360093D01*
X83962112Y-78926208D01*
X83953160Y-78926451D01*
X83946658Y-78920294D01*
X83946538Y-78920014D01*
X83645864Y-78196487D01*
X83645854Y-78187538D01*
X83946299Y-77464560D01*
X83952637Y-77458237D01*
X83961592Y-77458248D01*
G37*
G04 #@! TD.AperFunction*
G04 #@! TA.AperFunction,Conductor*
G36*
X172218284Y-46878810D02*
G01*
X172223922Y-46884818D01*
X172544134Y-47655511D01*
X172544143Y-47664466D01*
X172544134Y-47664489D01*
X172223922Y-48435181D01*
X172217583Y-48441506D01*
X172209348Y-48441768D01*
X170852931Y-47980198D01*
X170846203Y-47974289D01*
X170845000Y-47969122D01*
X170845000Y-47350877D01*
X170848427Y-47342604D01*
X170852930Y-47339801D01*
X172209348Y-46878231D01*
X172218284Y-46878810D01*
G37*
G04 #@! TD.AperFunction*
G04 #@! TA.AperFunction,Conductor*
G36*
X117886407Y-63405153D02*
G01*
X117892951Y-63411266D01*
X117894000Y-63416108D01*
X117894000Y-63653891D01*
X117890573Y-63662164D01*
X117886407Y-63664846D01*
X117257637Y-63900591D01*
X117248688Y-63900287D01*
X117242731Y-63894138D01*
X117094875Y-63539499D01*
X117094855Y-63530550D01*
X117242732Y-63175859D01*
X117249078Y-63169543D01*
X117257635Y-63169408D01*
X117886407Y-63405153D01*
G37*
G04 #@! TD.AperFunction*
G04 #@! TA.AperFunction,Conductor*
G36*
X132841112Y-80861006D02*
G01*
X132843256Y-80863954D01*
X133057339Y-81283029D01*
X133532639Y-82213447D01*
X133533351Y-82222374D01*
X133527543Y-82229189D01*
X133526709Y-82229575D01*
X132757589Y-82549134D01*
X132748634Y-82549143D01*
X132748611Y-82549134D01*
X131978972Y-82229360D01*
X131972647Y-82223021D01*
X131972656Y-82214066D01*
X131972793Y-82213750D01*
X132586881Y-80864433D01*
X132593427Y-80858322D01*
X132597530Y-80857579D01*
X132832839Y-80857579D01*
X132841112Y-80861006D01*
G37*
G04 #@! TD.AperFunction*
G04 #@! TA.AperFunction,Conductor*
G36*
X135036712Y-38598548D02*
G01*
X135043037Y-38604887D01*
X135043238Y-38605411D01*
X135518676Y-39934591D01*
X135518236Y-39943535D01*
X135515933Y-39946805D01*
X135346805Y-40115933D01*
X135338532Y-40119360D01*
X135334591Y-40118676D01*
X134005411Y-39643238D01*
X133998776Y-39637225D01*
X133998336Y-39628281D01*
X133998527Y-39627782D01*
X134297438Y-38903785D01*
X134303762Y-38897448D01*
X134303764Y-38897446D01*
X135027758Y-38598537D01*
X135036712Y-38598548D01*
G37*
G04 #@! TD.AperFunction*
G04 #@! TA.AperFunction,Conductor*
G36*
X171701588Y-56976580D02*
G01*
X172537712Y-57811722D01*
X172541144Y-57819993D01*
X172537722Y-57828268D01*
X172537712Y-57828278D01*
X171701588Y-58663419D01*
X171693313Y-58666841D01*
X171687109Y-58665056D01*
X170850489Y-58140938D01*
X170845297Y-58133642D01*
X170845000Y-58131023D01*
X170845000Y-57508976D01*
X170848427Y-57500703D01*
X170850489Y-57499061D01*
X171687110Y-56974942D01*
X171695939Y-56973455D01*
X171701588Y-56976580D01*
G37*
G04 #@! TD.AperFunction*
G04 #@! TA.AperFunction,Conductor*
G36*
X97288584Y-55135577D02*
G01*
X97292374Y-55138111D01*
X97574314Y-55420051D01*
X97577741Y-55428324D01*
X97576300Y-55433950D01*
X97285029Y-55965092D01*
X97278046Y-55970698D01*
X97270323Y-55970288D01*
X97257677Y-55965092D01*
X96990150Y-55855168D01*
X96983800Y-55848854D01*
X96983775Y-55839901D01*
X97273296Y-55141898D01*
X97279629Y-55135572D01*
X97288584Y-55135577D01*
G37*
G04 #@! TD.AperFunction*
G04 #@! TA.AperFunction,Conductor*
G36*
X104305071Y-50149252D02*
G01*
X104917760Y-50425793D01*
X104923891Y-50432320D01*
X104923767Y-50440909D01*
X104777563Y-50796195D01*
X104771245Y-50802542D01*
X104771195Y-50802563D01*
X104415909Y-50948767D01*
X104406955Y-50948746D01*
X104400793Y-50942760D01*
X104336676Y-50800707D01*
X104174279Y-50440909D01*
X104124252Y-50330071D01*
X104123972Y-50321121D01*
X104126641Y-50316987D01*
X104291986Y-50151642D01*
X104300258Y-50148216D01*
X104305071Y-50149252D01*
G37*
G04 #@! TD.AperFunction*
G04 #@! TA.AperFunction,Conductor*
G36*
X90357275Y-82229938D02*
G01*
X90363600Y-82236277D01*
X90364156Y-82237985D01*
X90730114Y-83746672D01*
X90728734Y-83755520D01*
X90727017Y-83757703D01*
X90557813Y-83926907D01*
X90549540Y-83930334D01*
X90544660Y-83929268D01*
X89260589Y-83339992D01*
X89254499Y-83333427D01*
X89254654Y-83324894D01*
X89573078Y-82553783D01*
X89579399Y-82547448D01*
X90348321Y-82229929D01*
X90357275Y-82229938D01*
G37*
G04 #@! TD.AperFunction*
G04 #@! TA.AperFunction,Conductor*
G36*
X167516753Y-84769605D02*
G01*
X168286752Y-85088143D01*
X168293086Y-85094472D01*
X168293093Y-85094488D01*
X168610734Y-85863707D01*
X168610725Y-85872662D01*
X168604386Y-85878987D01*
X168603627Y-85879270D01*
X167090027Y-86384853D01*
X167081094Y-86384224D01*
X167075223Y-86377463D01*
X167074620Y-86373756D01*
X167074620Y-86141787D01*
X167075154Y-86138293D01*
X167156290Y-85878987D01*
X167501123Y-84776923D01*
X167506863Y-84770053D01*
X167515782Y-84769253D01*
X167516753Y-84769605D01*
G37*
G04 #@! TD.AperFunction*
G04 #@! TA.AperFunction,Conductor*
G36*
X160815940Y-56856973D02*
G01*
X161914599Y-56978846D01*
X161922444Y-56983164D01*
X161925009Y-56990465D01*
X161925702Y-57775846D01*
X161922282Y-57784122D01*
X161922265Y-57784139D01*
X161367761Y-58337259D01*
X161359483Y-58340676D01*
X161351215Y-58337239D01*
X161351088Y-58337109D01*
X160369286Y-57313635D01*
X160366033Y-57305294D01*
X160369456Y-57297265D01*
X160806392Y-56860329D01*
X160814664Y-56856903D01*
X160815940Y-56856973D01*
G37*
G04 #@! TD.AperFunction*
G04 #@! TA.AperFunction,Conductor*
G36*
X121309172Y-49957660D02*
G01*
X121313874Y-49960529D01*
X121480680Y-50127335D01*
X121484107Y-50135608D01*
X121480680Y-50143881D01*
X121478246Y-50145747D01*
X120814594Y-50527917D01*
X120805714Y-50529076D01*
X120798616Y-50523617D01*
X120797959Y-50522286D01*
X120651165Y-50170199D01*
X120651145Y-50161247D01*
X120798945Y-49805385D01*
X120805283Y-49799060D01*
X120813319Y-49798732D01*
X121309172Y-49957660D01*
G37*
G04 #@! TD.AperFunction*
G04 #@! TA.AperFunction,Conductor*
G36*
X95070713Y-44723886D02*
G01*
X95074970Y-44731764D01*
X95075032Y-44732935D01*
X95076000Y-45120000D01*
X95076000Y-45120058D01*
X95075032Y-45507064D01*
X95071584Y-45515329D01*
X95063303Y-45518735D01*
X95062132Y-45518673D01*
X94285500Y-45438582D01*
X94277622Y-45434325D01*
X94275000Y-45426944D01*
X94275000Y-44813055D01*
X94278427Y-44804782D01*
X94285499Y-44801417D01*
X95062134Y-44721326D01*
X95070713Y-44723886D01*
G37*
G04 #@! TD.AperFunction*
G04 #@! TA.AperFunction,Conductor*
G36*
X113021495Y-57167866D02*
G01*
X113425419Y-57351498D01*
X113632801Y-57445778D01*
X113638914Y-57452322D01*
X113638779Y-57460881D01*
X113492563Y-57816195D01*
X113486245Y-57822542D01*
X113486195Y-57822563D01*
X113130881Y-57968779D01*
X113121927Y-57968758D01*
X113115778Y-57962801D01*
X113052023Y-57822563D01*
X112837866Y-57351496D01*
X112837563Y-57342549D01*
X112840243Y-57338385D01*
X113008384Y-57170244D01*
X113016656Y-57166818D01*
X113021495Y-57167866D01*
G37*
G04 #@! TD.AperFunction*
G04 #@! TA.AperFunction,Conductor*
G36*
X123348335Y-55266718D02*
G01*
X123348563Y-55267231D01*
X123649134Y-55990510D01*
X123649144Y-55999463D01*
X123649135Y-55999485D01*
X123649134Y-55999490D01*
X123348563Y-56722768D01*
X123342224Y-56729093D01*
X123333269Y-56729082D01*
X123332756Y-56728854D01*
X122056697Y-56125168D01*
X122050684Y-56118533D01*
X122050000Y-56114592D01*
X122050000Y-55875407D01*
X122053427Y-55867134D01*
X122056693Y-55864833D01*
X123332757Y-55261144D01*
X123341700Y-55260705D01*
X123348335Y-55266718D01*
G37*
G04 #@! TD.AperFunction*
G04 #@! TA.AperFunction,Conductor*
G36*
X142433072Y-48781241D02*
G01*
X142439221Y-48787198D01*
X142717132Y-49398501D01*
X142717436Y-49407450D01*
X142714754Y-49411616D01*
X142546616Y-49579754D01*
X142538343Y-49583181D01*
X142533501Y-49582132D01*
X141922198Y-49304221D01*
X141916085Y-49297677D01*
X141916219Y-49289119D01*
X142062437Y-48933802D01*
X142068753Y-48927457D01*
X142424119Y-48781220D01*
X142433072Y-48781241D01*
G37*
G04 #@! TD.AperFunction*
G04 #@! TA.AperFunction,Conductor*
G36*
X90620485Y-55847420D02*
G01*
X90628006Y-55852281D01*
X90630054Y-55859663D01*
X90569574Y-56820144D01*
X90565634Y-56828186D01*
X90565610Y-56828207D01*
X90273415Y-57084377D01*
X90264935Y-57087254D01*
X90257429Y-57083852D01*
X90092907Y-56919330D01*
X90089480Y-56911057D01*
X90089742Y-56908596D01*
X90327610Y-55805289D01*
X90332703Y-55797925D01*
X90341153Y-55796248D01*
X90620485Y-55847420D01*
G37*
G04 #@! TD.AperFunction*
G04 #@! TA.AperFunction,Conductor*
G36*
X142842604Y-60691706D02*
G01*
X142844078Y-60697391D01*
X142844078Y-61308671D01*
X142841815Y-61315587D01*
X142530892Y-61739858D01*
X142523238Y-61744505D01*
X142514539Y-61742379D01*
X142513196Y-61741230D01*
X142240665Y-61469659D01*
X142238104Y-61465823D01*
X142090886Y-61108069D01*
X142090907Y-61099115D01*
X142096019Y-61093393D01*
X142826693Y-60687164D01*
X142835589Y-60686140D01*
X142842604Y-60691706D01*
G37*
G04 #@! TD.AperFunction*
G04 #@! TA.AperFunction,Conductor*
G36*
X84373014Y-48636538D02*
G01*
X84379339Y-48642877D01*
X84379328Y-48651832D01*
X84379208Y-48652112D01*
X83813094Y-49920114D01*
X83806592Y-49926271D01*
X83802410Y-49927044D01*
X83567175Y-49927044D01*
X83558902Y-49923617D01*
X83556747Y-49920649D01*
X82911624Y-48652407D01*
X82910927Y-48643479D01*
X82916747Y-48636674D01*
X82917540Y-48636308D01*
X83640512Y-48335864D01*
X83649461Y-48335854D01*
X84373014Y-48636538D01*
G37*
G04 #@! TD.AperFunction*
G04 #@! TA.AperFunction,Conductor*
G36*
X139893717Y-50030965D02*
G01*
X139894727Y-50033310D01*
X140157322Y-50889669D01*
X140156471Y-50898583D01*
X140149715Y-50904238D01*
X139870175Y-50994055D01*
X139861250Y-50993323D01*
X139855826Y-50987487D01*
X139561146Y-50292932D01*
X139561071Y-50283979D01*
X139563643Y-50280093D01*
X139736552Y-50107184D01*
X139739042Y-50105287D01*
X139877768Y-50026563D01*
X139886653Y-50025461D01*
X139893717Y-50030965D01*
G37*
G04 #@! TD.AperFunction*
G04 #@! TA.AperFunction,Conductor*
G36*
X130261112Y-80901006D02*
G01*
X130263256Y-80903954D01*
X130477339Y-81323029D01*
X130952639Y-82253447D01*
X130953351Y-82262374D01*
X130947543Y-82269189D01*
X130946709Y-82269575D01*
X130177589Y-82589134D01*
X130168634Y-82589143D01*
X130168611Y-82589134D01*
X129398972Y-82269360D01*
X129392647Y-82263021D01*
X129392656Y-82254066D01*
X129392793Y-82253750D01*
X130006881Y-80904433D01*
X130013427Y-80898322D01*
X130017530Y-80897579D01*
X130252839Y-80897579D01*
X130261112Y-80901006D01*
G37*
G04 #@! TD.AperFunction*
G04 #@! TA.AperFunction,Conductor*
G36*
X114550385Y-49917468D02*
G01*
X114551250Y-49918251D01*
X114721780Y-50088781D01*
X114725207Y-50097054D01*
X114724581Y-50100831D01*
X114428509Y-50968917D01*
X114422595Y-50975641D01*
X114414480Y-50976461D01*
X114135118Y-50903532D01*
X114127978Y-50898126D01*
X114126631Y-50889766D01*
X114328689Y-49944377D01*
X114333769Y-49937005D01*
X114338960Y-49935184D01*
X114541812Y-49914882D01*
X114550385Y-49917468D01*
G37*
G04 #@! TD.AperFunction*
G04 #@! TA.AperFunction,Conductor*
G36*
X158093013Y-40974246D02*
G01*
X158096968Y-40976847D01*
X158264707Y-41144586D01*
X158268134Y-41152859D01*
X158264707Y-41161132D01*
X158262864Y-41162634D01*
X156987956Y-42001335D01*
X156979161Y-42003019D01*
X156971751Y-41997990D01*
X156970722Y-41996050D01*
X156671157Y-41275192D01*
X156671146Y-41266239D01*
X156971732Y-40541538D01*
X156978067Y-40535210D01*
X156986856Y-40535147D01*
X158093013Y-40974246D01*
G37*
G04 #@! TD.AperFunction*
G04 #@! TA.AperFunction,Conductor*
G36*
X101330196Y-55612692D02*
G01*
X102053465Y-55911303D01*
X102059804Y-55917628D01*
X102060700Y-55922128D01*
X102060009Y-56704583D01*
X102056575Y-56712853D01*
X102049653Y-56716196D01*
X100860582Y-56853662D01*
X100851970Y-56851208D01*
X100850965Y-56850312D01*
X100684654Y-56684001D01*
X100681227Y-56675728D01*
X100682901Y-56669698D01*
X101315709Y-55617476D01*
X101322908Y-55612154D01*
X101330196Y-55612692D01*
G37*
G04 #@! TD.AperFunction*
G04 #@! TA.AperFunction,Conductor*
G36*
X133765881Y-83787211D02*
G01*
X133769242Y-83789557D01*
X133935626Y-83955941D01*
X133939053Y-83964214D01*
X133938458Y-83967897D01*
X133462353Y-85403353D01*
X133456496Y-85410127D01*
X133447565Y-85410775D01*
X133446782Y-85410484D01*
X132676885Y-85092562D01*
X132670547Y-85086238D01*
X132352464Y-84315950D01*
X132352473Y-84306996D01*
X132358812Y-84300671D01*
X132359198Y-84300520D01*
X133756936Y-83786848D01*
X133765881Y-83787211D01*
G37*
G04 #@! TD.AperFunction*
G04 #@! TA.AperFunction,Conductor*
G36*
X125095165Y-78959427D02*
G01*
X125097847Y-78963593D01*
X125333591Y-79592362D01*
X125333287Y-79601311D01*
X125327138Y-79607268D01*
X124972502Y-79755123D01*
X124963548Y-79755144D01*
X124963498Y-79755123D01*
X124608861Y-79607268D01*
X124602543Y-79600921D01*
X124602408Y-79592364D01*
X124838153Y-78963592D01*
X124844266Y-78957049D01*
X124849108Y-78956000D01*
X125086892Y-78956000D01*
X125095165Y-78959427D01*
G37*
G04 #@! TD.AperFunction*
G04 #@! TA.AperFunction,Conductor*
G36*
X134296214Y-36397437D02*
G01*
X134302553Y-36403762D01*
X134302562Y-36403785D01*
X134626884Y-37189137D01*
X134626875Y-37198092D01*
X134620536Y-37204417D01*
X134620488Y-37204437D01*
X133031313Y-37852552D01*
X133022359Y-37852503D01*
X133018622Y-37849991D01*
X132850008Y-37681377D01*
X132846581Y-37673104D01*
X132847446Y-37668689D01*
X133495562Y-36079509D01*
X133501860Y-36073143D01*
X133510812Y-36073094D01*
X134296214Y-36397437D01*
G37*
G04 #@! TD.AperFunction*
G04 #@! TA.AperFunction,Conductor*
G36*
X115702275Y-55620172D02*
G01*
X115990860Y-55864495D01*
X115994960Y-55872456D01*
X115995000Y-55873424D01*
X115995000Y-56113808D01*
X115991573Y-56122081D01*
X115987303Y-56124802D01*
X115702945Y-56228335D01*
X115693999Y-56227945D01*
X115689760Y-56224592D01*
X115401275Y-55859214D01*
X115398838Y-55850598D01*
X115403208Y-55842781D01*
X115403215Y-55842775D01*
X115687497Y-55619894D01*
X115696122Y-55617488D01*
X115702275Y-55620172D01*
G37*
G04 #@! TD.AperFunction*
G04 #@! TA.AperFunction,Conductor*
G36*
X148087876Y-50569432D02*
G01*
X148373314Y-50704828D01*
X148379321Y-50711470D01*
X148380000Y-50715399D01*
X148380000Y-50955861D01*
X148376573Y-50964134D01*
X148374949Y-50965488D01*
X148087581Y-51163958D01*
X148078826Y-51165840D01*
X148073132Y-51163052D01*
X147787750Y-50907825D01*
X147783868Y-50899756D01*
X147786828Y-50891305D01*
X148074167Y-50572173D01*
X148082250Y-50568319D01*
X148087876Y-50569432D01*
G37*
G04 #@! TD.AperFunction*
G04 #@! TA.AperFunction,Conductor*
G36*
X108726730Y-64070917D02*
G01*
X108727230Y-64071139D01*
X110003304Y-64674832D01*
X110009316Y-64681466D01*
X110010000Y-64685407D01*
X110010000Y-64924592D01*
X110006573Y-64932865D01*
X110003303Y-64935168D01*
X108727243Y-65538854D01*
X108718299Y-65539294D01*
X108711664Y-65533281D01*
X108711436Y-65532768D01*
X108462136Y-64932865D01*
X108410864Y-64809487D01*
X108410854Y-64800538D01*
X108711436Y-64077230D01*
X108717775Y-64070906D01*
X108726730Y-64070917D01*
G37*
G04 #@! TD.AperFunction*
G04 #@! TA.AperFunction,Conductor*
G36*
X107363389Y-49763105D02*
G01*
X107631488Y-49922140D01*
X107636855Y-49929308D01*
X107637101Y-49930548D01*
X107774177Y-50889999D01*
X107771955Y-50898674D01*
X107765154Y-50903071D01*
X107485729Y-50965693D01*
X107476906Y-50964158D01*
X107471934Y-50957538D01*
X107177897Y-49944715D01*
X107178881Y-49935816D01*
X107180856Y-49933186D01*
X107349148Y-49764894D01*
X107357420Y-49761468D01*
X107363389Y-49763105D01*
G37*
G04 #@! TD.AperFunction*
G04 #@! TA.AperFunction,Conductor*
G36*
X94567437Y-49628427D02*
G01*
X94569983Y-49632247D01*
X94726940Y-50013608D01*
X94727243Y-50021694D01*
X94451122Y-50866953D01*
X94445295Y-50873753D01*
X94436367Y-50874442D01*
X94429567Y-50868615D01*
X94428878Y-50866953D01*
X94152756Y-50021694D01*
X94153058Y-50013610D01*
X94310017Y-49632246D01*
X94316334Y-49625901D01*
X94320836Y-49625000D01*
X94559164Y-49625000D01*
X94567437Y-49628427D01*
G37*
G04 #@! TD.AperFunction*
G04 #@! TA.AperFunction,Conductor*
G36*
X119839890Y-71613849D02*
G01*
X121334219Y-72221433D01*
X121430472Y-72260569D01*
X121436845Y-72266859D01*
X121436903Y-72275814D01*
X121436879Y-72275873D01*
X121112562Y-73061214D01*
X121106237Y-73067553D01*
X121106214Y-73067562D01*
X120320873Y-73391879D01*
X120311918Y-73391870D01*
X120305593Y-73385531D01*
X120305569Y-73385472D01*
X120173728Y-73061214D01*
X119658850Y-71794892D01*
X119658908Y-71785939D01*
X119661412Y-71782217D01*
X119827215Y-71616414D01*
X119835487Y-71612988D01*
X119839890Y-71613849D01*
G37*
G04 #@! TD.AperFunction*
G04 #@! TA.AperFunction,Conductor*
G36*
X114371138Y-42206731D02*
G01*
X114377456Y-42213078D01*
X114377591Y-42221637D01*
X114141847Y-42850407D01*
X114135734Y-42856951D01*
X114130892Y-42858000D01*
X113893108Y-42858000D01*
X113884835Y-42854573D01*
X113882153Y-42850407D01*
X113646408Y-42221635D01*
X113646712Y-42212688D01*
X113652859Y-42206732D01*
X114007500Y-42058875D01*
X114016449Y-42058855D01*
X114371138Y-42206731D01*
G37*
G04 #@! TD.AperFunction*
G04 #@! TA.AperFunction,Conductor*
G36*
X94737845Y-55792811D02*
G01*
X94742711Y-55799708D01*
X94755623Y-55851248D01*
X95011810Y-56873886D01*
X95010497Y-56882744D01*
X95008734Y-56885002D01*
X94841146Y-57052590D01*
X94832873Y-57056017D01*
X94825656Y-57053525D01*
X94538041Y-56828089D01*
X94533645Y-56820290D01*
X94533619Y-56820059D01*
X94440315Y-55859813D01*
X94442926Y-55851248D01*
X94449655Y-55847211D01*
X94729061Y-55791081D01*
X94737845Y-55792811D01*
G37*
G04 #@! TD.AperFunction*
G04 #@! TA.AperFunction,Conductor*
G36*
X139866341Y-55556320D02*
G01*
X140032057Y-55721485D01*
X140152685Y-55841713D01*
X140156126Y-55849981D01*
X140152713Y-55858259D01*
X140152685Y-55858287D01*
X139866344Y-56143677D01*
X139858066Y-56147090D01*
X139852240Y-56145525D01*
X139565855Y-55980376D01*
X139560400Y-55973275D01*
X139560000Y-55970241D01*
X139560000Y-55729758D01*
X139563427Y-55721485D01*
X139565851Y-55719625D01*
X139852242Y-55554473D01*
X139861119Y-55553309D01*
X139866341Y-55556320D01*
G37*
G04 #@! TD.AperFunction*
G04 #@! TA.AperFunction,Conductor*
G36*
X115816132Y-49739797D02*
G01*
X115984136Y-49907801D01*
X115987563Y-49916074D01*
X115987132Y-49919219D01*
X115697966Y-50955346D01*
X115692442Y-50962394D01*
X115684215Y-50963635D01*
X115404787Y-50902984D01*
X115397429Y-50897880D01*
X115395665Y-50890057D01*
X115519351Y-49930297D01*
X115523806Y-49922532D01*
X115524470Y-49922056D01*
X115801390Y-49738320D01*
X115810179Y-49736602D01*
X115816132Y-49739797D01*
G37*
G04 #@! TD.AperFunction*
G04 #@! TA.AperFunction,Conductor*
G36*
X146812874Y-83393427D02*
G01*
X146813503Y-83394107D01*
X147527990Y-84231781D01*
X147530751Y-84240300D01*
X147527366Y-84247642D01*
X146693278Y-85082712D01*
X146685007Y-85086144D01*
X146676732Y-85082722D01*
X146676722Y-85082712D01*
X145842633Y-84247642D01*
X145839211Y-84239367D01*
X145842007Y-84231783D01*
X146556497Y-83394107D01*
X146564473Y-83390037D01*
X146565399Y-83390000D01*
X146804601Y-83390000D01*
X146812874Y-83393427D01*
G37*
G04 #@! TD.AperFunction*
G04 #@! TA.AperFunction,Conductor*
G36*
X91277848Y-61231325D02*
G01*
X92054500Y-61311417D01*
X92062378Y-61315674D01*
X92065000Y-61323055D01*
X92065000Y-61936944D01*
X92061573Y-61945217D01*
X92054500Y-61948582D01*
X91277867Y-62028673D01*
X91269286Y-62026113D01*
X91265029Y-62018235D01*
X91264967Y-62017077D01*
X91264000Y-61630000D01*
X91264967Y-61242933D01*
X91268415Y-61234670D01*
X91276696Y-61231264D01*
X91277848Y-61231325D01*
G37*
G04 #@! TD.AperFunction*
G04 #@! TA.AperFunction,Conductor*
G36*
X117955311Y-50723712D02*
G01*
X117961268Y-50729861D01*
X118109123Y-51084498D01*
X118109144Y-51093452D01*
X118109123Y-51093502D01*
X117961268Y-51448138D01*
X117954921Y-51454456D01*
X117946362Y-51454591D01*
X117317593Y-51218846D01*
X117311049Y-51212733D01*
X117310000Y-51207891D01*
X117310000Y-50970108D01*
X117313427Y-50961835D01*
X117317593Y-50959153D01*
X117946364Y-50723408D01*
X117955311Y-50723712D01*
G37*
G04 #@! TD.AperFunction*
G04 #@! TA.AperFunction,Conductor*
G36*
X126954826Y-37808427D02*
G01*
X126955506Y-37809168D01*
X127618093Y-38596790D01*
X127620797Y-38605327D01*
X127617418Y-38612590D01*
X126833278Y-39397711D01*
X126825007Y-39401143D01*
X126816732Y-39397721D01*
X126816722Y-39397711D01*
X126032581Y-38612590D01*
X126029159Y-38604315D01*
X126031905Y-38596791D01*
X126694494Y-37809168D01*
X126702442Y-37805043D01*
X126703447Y-37805000D01*
X126946553Y-37805000D01*
X126954826Y-37808427D01*
G37*
G04 #@! TD.AperFunction*
G04 #@! TA.AperFunction,Conductor*
G36*
X108744496Y-49639614D02*
G01*
X108854435Y-49748165D01*
X109030113Y-49921624D01*
X109033592Y-49929804D01*
X109045580Y-50890570D01*
X109042257Y-50898885D01*
X109035691Y-50902275D01*
X108756489Y-50945990D01*
X108747785Y-50943884D01*
X108743131Y-50936311D01*
X108560411Y-49814139D01*
X108562464Y-49805423D01*
X108563680Y-49803992D01*
X108728005Y-49639667D01*
X108736277Y-49636241D01*
X108744496Y-49639614D01*
G37*
G04 #@! TD.AperFunction*
G04 #@! TA.AperFunction,Conductor*
G36*
X109948015Y-83552134D02*
G01*
X109951709Y-83554628D01*
X110120371Y-83723290D01*
X110123798Y-83731563D01*
X110122949Y-83735938D01*
X109439412Y-85431138D01*
X109433140Y-85437530D01*
X109424186Y-85437614D01*
X109424094Y-85437577D01*
X108588784Y-85092562D01*
X108582446Y-85086236D01*
X108237422Y-84250904D01*
X108237431Y-84241950D01*
X108243767Y-84235625D01*
X109939063Y-83552050D01*
X109948015Y-83552134D01*
G37*
G04 #@! TD.AperFunction*
G04 #@! TA.AperFunction,Conductor*
G36*
X127954665Y-80884139D02*
G01*
X127957347Y-80888305D01*
X128454432Y-82214141D01*
X128454128Y-82223090D01*
X128447966Y-82229053D01*
X127677589Y-82549134D01*
X127668634Y-82549143D01*
X127668611Y-82549134D01*
X126900363Y-82229938D01*
X126894038Y-82223599D01*
X126894047Y-82214644D01*
X126894837Y-82213084D01*
X127697086Y-80886358D01*
X127704299Y-80881052D01*
X127707098Y-80880712D01*
X127946392Y-80880712D01*
X127954665Y-80884139D01*
G37*
G04 #@! TD.AperFunction*
G04 #@! TA.AperFunction,Conductor*
G36*
X100000174Y-67614839D02*
G01*
X100006364Y-67621091D01*
X100154123Y-67975498D01*
X100154144Y-67984452D01*
X100154123Y-67984502D01*
X100006186Y-68339334D01*
X99999839Y-68345652D01*
X99991489Y-68345863D01*
X99365786Y-68124757D01*
X99359127Y-68118770D01*
X99357984Y-68113726D01*
X99357984Y-67875921D01*
X99361411Y-67867648D01*
X99365337Y-67865058D01*
X99991220Y-67614730D01*
X100000174Y-67614839D01*
G37*
G04 #@! TD.AperFunction*
G04 #@! TA.AperFunction,Conductor*
G36*
X133301281Y-65201048D02*
G01*
X133304314Y-65206311D01*
X133513266Y-65991110D01*
X133512083Y-65999986D01*
X133510238Y-66002388D01*
X132724527Y-66789081D01*
X132716256Y-66792513D01*
X132707981Y-66789091D01*
X132706897Y-66787844D01*
X132119378Y-66006401D01*
X132117146Y-65997729D01*
X132121123Y-65990480D01*
X133044716Y-65200429D01*
X133052321Y-65197621D01*
X133293008Y-65197621D01*
X133301281Y-65201048D01*
G37*
G04 #@! TD.AperFunction*
G04 #@! TA.AperFunction,Conductor*
G36*
X94715880Y-48781219D02*
G01*
X95071195Y-48927436D01*
X95077542Y-48933754D01*
X95077563Y-48933804D01*
X95223779Y-49289118D01*
X95223758Y-49298072D01*
X95217801Y-49304221D01*
X94606498Y-49582132D01*
X94597549Y-49582436D01*
X94593383Y-49579754D01*
X94425245Y-49411616D01*
X94421818Y-49403343D01*
X94422866Y-49398505D01*
X94700779Y-48787197D01*
X94707322Y-48781085D01*
X94715880Y-48781219D01*
G37*
G04 #@! TD.AperFunction*
G04 #@! TA.AperFunction,Conductor*
G36*
X94693890Y-67128849D02*
G01*
X96188219Y-67736433D01*
X96284472Y-67775569D01*
X96290845Y-67781859D01*
X96290903Y-67790814D01*
X96290879Y-67790873D01*
X95966562Y-68576214D01*
X95960237Y-68582553D01*
X95960214Y-68582562D01*
X95174873Y-68906879D01*
X95165918Y-68906870D01*
X95159593Y-68900531D01*
X95159569Y-68900472D01*
X95027728Y-68576214D01*
X94512850Y-67309892D01*
X94512908Y-67300939D01*
X94515412Y-67297217D01*
X94681215Y-67131414D01*
X94689487Y-67127988D01*
X94693890Y-67128849D01*
G37*
G04 #@! TD.AperFunction*
G04 #@! TA.AperFunction,Conductor*
G36*
X146520945Y-55883179D02*
G01*
X146521828Y-55885208D01*
X146797470Y-56728999D01*
X146797598Y-56735846D01*
X146688857Y-57116514D01*
X146683290Y-57123527D01*
X146677607Y-57125000D01*
X146439509Y-57125000D01*
X146431236Y-57121573D01*
X146429147Y-57118733D01*
X146418025Y-57097521D01*
X146247566Y-56772431D01*
X146246686Y-56763765D01*
X146499463Y-55885604D01*
X146505044Y-55878602D01*
X146513942Y-55877598D01*
X146520945Y-55883179D01*
G37*
G04 #@! TD.AperFunction*
G04 #@! TA.AperFunction,Conductor*
G36*
X154150311Y-45354712D02*
G01*
X154156268Y-45360861D01*
X154304123Y-45715498D01*
X154304144Y-45724452D01*
X154304123Y-45724502D01*
X154156268Y-46079138D01*
X154149921Y-46085456D01*
X154141362Y-46085591D01*
X153512593Y-45849846D01*
X153506049Y-45843733D01*
X153505000Y-45838891D01*
X153505000Y-45601108D01*
X153508427Y-45592835D01*
X153512593Y-45590153D01*
X154141364Y-45354408D01*
X154150311Y-45354712D01*
G37*
G04 #@! TD.AperFunction*
G04 #@! TA.AperFunction,Conductor*
G36*
X124386698Y-60693554D02*
G01*
X124393023Y-60699893D01*
X124393227Y-60700426D01*
X124761495Y-61734104D01*
X124867275Y-62031012D01*
X124866824Y-62039956D01*
X124864527Y-62043212D01*
X124698212Y-62209527D01*
X124689939Y-62212954D01*
X124686013Y-62212275D01*
X123355430Y-61738228D01*
X123348788Y-61732225D01*
X123348337Y-61723281D01*
X123348536Y-61722760D01*
X123647438Y-60998785D01*
X123653762Y-60992448D01*
X123653764Y-60992446D01*
X124377744Y-60693543D01*
X124386698Y-60693554D01*
G37*
G04 #@! TD.AperFunction*
G04 #@! TA.AperFunction,Conductor*
G36*
X99160880Y-58306219D02*
G01*
X99516195Y-58452436D01*
X99522542Y-58458754D01*
X99522563Y-58458804D01*
X99668779Y-58814118D01*
X99668758Y-58823072D01*
X99662801Y-58829221D01*
X99051498Y-59107132D01*
X99042549Y-59107436D01*
X99038383Y-59104754D01*
X98870245Y-58936616D01*
X98866818Y-58928343D01*
X98867866Y-58923505D01*
X99145779Y-58312197D01*
X99152322Y-58306085D01*
X99160880Y-58306219D01*
G37*
G04 #@! TD.AperFunction*
G04 #@! TA.AperFunction,Conductor*
G36*
X97931730Y-46845917D02*
G01*
X97932230Y-46846139D01*
X99208304Y-47449832D01*
X99214316Y-47456466D01*
X99215000Y-47460407D01*
X99215000Y-47699592D01*
X99211573Y-47707865D01*
X99208303Y-47710168D01*
X97932243Y-48313854D01*
X97923299Y-48314294D01*
X97916664Y-48308281D01*
X97916436Y-48307768D01*
X97667136Y-47707865D01*
X97615864Y-47584487D01*
X97615854Y-47575538D01*
X97916436Y-46852230D01*
X97922775Y-46845906D01*
X97931730Y-46845917D01*
G37*
G04 #@! TD.AperFunction*
G04 #@! TA.AperFunction,Conductor*
G36*
X117886407Y-63405153D02*
G01*
X117892951Y-63411266D01*
X117894000Y-63416108D01*
X117894000Y-63653891D01*
X117890573Y-63662164D01*
X117886407Y-63664846D01*
X117257637Y-63900591D01*
X117248688Y-63900287D01*
X117242731Y-63894138D01*
X117094875Y-63539499D01*
X117094855Y-63530550D01*
X117242732Y-63175859D01*
X117249078Y-63169543D01*
X117257635Y-63169408D01*
X117886407Y-63405153D01*
G37*
G04 #@! TD.AperFunction*
G04 #@! TA.AperFunction,Conductor*
G36*
X145600446Y-44845464D02*
G01*
X145601088Y-44846057D01*
X145874334Y-45118340D01*
X145876895Y-45122176D01*
X146023894Y-45479397D01*
X146023873Y-45488351D01*
X146018203Y-45494365D01*
X145269940Y-45859292D01*
X145261002Y-45859838D01*
X145254295Y-45853905D01*
X145253111Y-45848776D01*
X145253111Y-45236829D01*
X145255929Y-45229213D01*
X145583949Y-44846727D01*
X145591935Y-44842679D01*
X145600446Y-44845464D01*
G37*
G04 #@! TD.AperFunction*
G04 #@! TA.AperFunction,Conductor*
G36*
X109901064Y-49774067D02*
G01*
X110165070Y-49922194D01*
X110170608Y-49929231D01*
X110170917Y-49930671D01*
X110314105Y-50889976D01*
X110311937Y-50898664D01*
X110305126Y-50903112D01*
X110025703Y-50966629D01*
X110016876Y-50965121D01*
X110011889Y-50958536D01*
X109715700Y-49956003D01*
X109716643Y-49947099D01*
X109718645Y-49944419D01*
X109887067Y-49775997D01*
X109895339Y-49772571D01*
X109901064Y-49774067D01*
G37*
G04 #@! TD.AperFunction*
G04 #@! TA.AperFunction,Conductor*
G36*
X170002354Y-47359785D02*
G01*
X170005000Y-47367196D01*
X170005000Y-47965915D01*
X170001573Y-47974188D01*
X169993416Y-47977614D01*
X169252986Y-47984951D01*
X169244679Y-47981607D01*
X169241171Y-47973368D01*
X169244515Y-47965061D01*
X169245454Y-47964201D01*
X169985890Y-47358141D01*
X169994462Y-47355554D01*
X170002354Y-47359785D01*
G37*
G04 #@! TD.AperFunction*
M02*
