G04 #@! TF.GenerationSoftware,KiCad,Pcbnew,8.0.4*
G04 #@! TF.CreationDate,2024-08-16T16:00:28+02:00*
G04 #@! TF.ProjectId,Purrtico_M,50757272-7469-4636-9f5f-4d2e6b696361,01*
G04 #@! TF.SameCoordinates,Original*
G04 #@! TF.FileFunction,Copper,L2,Bot*
G04 #@! TF.FilePolarity,Positive*
%FSLAX46Y46*%
G04 Gerber Fmt 4.6, Leading zero omitted, Abs format (unit mm)*
G04 Created by KiCad (PCBNEW 8.0.4) date 2024-08-16 16:00:28*
%MOMM*%
%LPD*%
G01*
G04 APERTURE LIST*
G04 Aperture macros list*
%AMRoundRect*
0 Rectangle with rounded corners*
0 $1 Rounding radius*
0 $2 $3 $4 $5 $6 $7 $8 $9 X,Y pos of 4 corners*
0 Add a 4 corners polygon primitive as box body*
4,1,4,$2,$3,$4,$5,$6,$7,$8,$9,$2,$3,0*
0 Add four circle primitives for the rounded corners*
1,1,$1+$1,$2,$3*
1,1,$1+$1,$4,$5*
1,1,$1+$1,$6,$7*
1,1,$1+$1,$8,$9*
0 Add four rect primitives between the rounded corners*
20,1,$1+$1,$2,$3,$4,$5,0*
20,1,$1+$1,$4,$5,$6,$7,0*
20,1,$1+$1,$6,$7,$8,$9,0*
20,1,$1+$1,$8,$9,$2,$3,0*%
G04 Aperture macros list end*
G04 #@! TA.AperFunction,ComponentPad*
%ADD10C,1.000000*%
G04 #@! TD*
G04 #@! TA.AperFunction,ComponentPad*
%ADD11R,1.700000X1.700000*%
G04 #@! TD*
G04 #@! TA.AperFunction,ComponentPad*
%ADD12O,1.700000X1.700000*%
G04 #@! TD*
G04 #@! TA.AperFunction,ComponentPad*
%ADD13C,5.600000*%
G04 #@! TD*
G04 #@! TA.AperFunction,ComponentPad*
%ADD14R,1.600000X1.600000*%
G04 #@! TD*
G04 #@! TA.AperFunction,ComponentPad*
%ADD15C,1.600000*%
G04 #@! TD*
G04 #@! TA.AperFunction,SMDPad,CuDef*
%ADD16RoundRect,0.250000X-0.312500X-0.625000X0.312500X-0.625000X0.312500X0.625000X-0.312500X0.625000X0*%
G04 #@! TD*
G04 #@! TA.AperFunction,SMDPad,CuDef*
%ADD17RoundRect,0.250000X0.312500X0.625000X-0.312500X0.625000X-0.312500X-0.625000X0.312500X-0.625000X0*%
G04 #@! TD*
G04 #@! TA.AperFunction,ViaPad*
%ADD18C,0.800000*%
G04 #@! TD*
G04 #@! TA.AperFunction,Conductor*
%ADD19C,0.254000*%
G04 #@! TD*
G04 #@! TA.AperFunction,Conductor*
%ADD20C,0.250000*%
G04 #@! TD*
G04 #@! TA.AperFunction,Conductor*
%ADD21C,1.270000*%
G04 #@! TD*
G04 APERTURE END LIST*
D10*
X111204000Y-70266000D03*
X124158000Y-36830000D03*
X126190000Y-58836000D03*
D11*
X172545000Y-57820000D03*
D12*
X170005000Y-57820000D03*
X172545000Y-55280000D03*
X170005000Y-55280000D03*
X172545000Y-52740000D03*
X170005000Y-52740000D03*
X172545000Y-50200000D03*
X170005000Y-50200000D03*
X172545000Y-47660000D03*
X170005000Y-47660000D03*
D13*
X172085000Y-29210000D03*
D10*
X131270000Y-41310000D03*
D14*
X156670000Y-38770000D03*
D15*
X156670000Y-41270000D03*
D10*
X128016000Y-61722000D03*
D11*
X91440000Y-27305000D03*
D12*
X93980000Y-27305000D03*
X96520000Y-27305000D03*
D14*
X132715000Y-66797621D03*
D15*
X132715000Y-69297621D03*
D14*
X83645000Y-75692000D03*
D15*
X83645000Y-78192000D03*
X97615000Y-42580000D03*
X97615000Y-47580000D03*
D14*
X95964000Y-68580000D03*
D15*
X95964000Y-71080000D03*
D10*
X101346000Y-45212000D03*
X135588000Y-42580000D03*
X100330000Y-63500000D03*
X162512000Y-39530000D03*
X146510000Y-74584000D03*
D11*
X89575640Y-85090000D03*
D12*
X92075640Y-85090000D03*
X94575640Y-85090000D03*
X89575640Y-82550000D03*
X92075640Y-82590000D03*
X94655640Y-82550000D03*
D10*
X93424000Y-65440000D03*
D14*
X161290000Y-47660000D03*
D15*
X161290000Y-50160000D03*
D10*
X83185000Y-67945000D03*
X116332000Y-34544000D03*
D11*
X103505000Y-27305000D03*
D12*
X106045000Y-27305000D03*
D15*
X108410000Y-64805000D03*
X108410000Y-69805000D03*
D11*
X127673100Y-85090000D03*
D12*
X130173100Y-85090000D03*
X132673100Y-85090000D03*
X127673100Y-82550000D03*
X130173100Y-82590000D03*
X132753100Y-82550000D03*
D15*
X123650000Y-60995000D03*
X123650000Y-55995000D03*
D10*
X86868000Y-63500000D03*
D14*
X121110000Y-73065000D03*
D15*
X121110000Y-75565000D03*
D14*
X126825000Y-39405000D03*
D15*
X126825000Y-41905000D03*
D11*
X142700000Y-27305000D03*
D12*
X145240000Y-27305000D03*
D10*
X131524000Y-44866000D03*
D15*
X83645000Y-63246000D03*
X83645000Y-58246000D03*
D14*
X134300000Y-36400000D03*
D15*
X134300000Y-38900000D03*
D10*
X118110000Y-79375000D03*
X157480000Y-71628000D03*
D14*
X113030000Y-29210000D03*
D15*
X113030000Y-31710000D03*
D10*
X88392000Y-76962000D03*
X134318000Y-60614000D03*
X123904000Y-49946000D03*
X89662000Y-74930000D03*
D11*
X146685000Y-85090000D03*
D12*
X149225000Y-85090000D03*
X151765000Y-85090000D03*
D10*
X105870000Y-66710000D03*
X109426000Y-59598000D03*
D11*
X165750240Y-85090000D03*
D12*
X168290240Y-85090000D03*
X170830240Y-85090000D03*
D10*
X120015000Y-69215000D03*
X146764000Y-65186000D03*
D15*
X83645000Y-48335000D03*
X83645000Y-53335000D03*
X102060000Y-55915000D03*
X102060000Y-60915000D03*
D13*
X83820000Y-29210000D03*
D14*
X128095000Y-46390000D03*
D15*
X128095000Y-48890000D03*
D10*
X156845000Y-83820000D03*
D11*
X108585000Y-85090000D03*
D12*
X111125000Y-85090000D03*
X113665000Y-85090000D03*
D14*
X145240000Y-68615000D03*
D15*
X145240000Y-71115000D03*
D14*
X154432000Y-75565000D03*
D15*
X154432000Y-78065000D03*
D14*
X161925000Y-55280000D03*
D15*
X161925000Y-57780000D03*
D10*
X103886000Y-32004000D03*
D11*
X119380000Y-27305000D03*
D12*
X121920000Y-27305000D03*
D10*
X98758000Y-38770000D03*
X135255000Y-73660000D03*
X124158000Y-44358000D03*
X100330000Y-71755000D03*
D16*
X164399500Y-29210000D03*
X167324500Y-29210000D03*
D17*
X92140500Y-30226000D03*
X89215500Y-30226000D03*
D18*
X132540000Y-56550000D03*
X132540000Y-50835000D03*
X153495000Y-65440000D03*
X157305000Y-50835000D03*
X148415000Y-65440000D03*
X157305000Y-55280000D03*
X155400000Y-50835000D03*
X152860000Y-63535000D03*
X117094000Y-63535000D03*
X155400000Y-55280000D03*
X111125000Y-64770000D03*
X113030000Y-71120000D03*
X142065000Y-48930000D03*
X113490000Y-57820000D03*
X91900000Y-53375000D03*
X113285000Y-45550000D03*
X109885000Y-45550000D03*
X142157000Y-57820000D03*
X95075000Y-45120000D03*
X142065000Y-45120000D03*
X91265000Y-61630000D03*
X87884000Y-74168000D03*
X145832433Y-57779946D03*
X95075000Y-61630000D03*
X124968000Y-79756000D03*
X109855000Y-48260000D03*
X95075000Y-48930000D03*
X139192000Y-77470000D03*
X109772000Y-57809128D03*
X113490000Y-60995000D03*
X142240000Y-61468000D03*
X111379000Y-79375000D03*
X111760000Y-76835000D03*
X91440000Y-48895000D03*
X163020000Y-34960000D03*
X91265000Y-45120000D03*
X145796000Y-61468000D03*
X145875000Y-45120000D03*
X109680000Y-60995000D03*
X130000000Y-33055000D03*
X154305000Y-45720000D03*
X89916000Y-58420000D03*
X87439500Y-56324500D03*
X153495000Y-54927500D03*
X150320000Y-47660000D03*
X89916000Y-43180000D03*
X89916000Y-40640000D03*
X120650000Y-58420000D03*
X120650000Y-50165000D03*
X118110000Y-51089000D03*
X118110000Y-58420000D03*
X110950000Y-67980000D03*
X99520000Y-58455000D03*
X99520000Y-51627000D03*
X100155000Y-67980000D03*
X104775000Y-50800000D03*
X104775000Y-62230000D03*
X114125000Y-39405000D03*
X114012000Y-42058000D03*
D19*
X132540000Y-56550000D02*
X132540000Y-50835000D01*
X148415000Y-65440000D02*
X153495000Y-65440000D01*
X157305000Y-50835000D02*
X157305000Y-55280000D01*
X117094000Y-63535000D02*
X152860000Y-63535000D01*
X155400000Y-55280000D02*
X155400000Y-50835000D01*
X113030000Y-71120000D02*
X113030000Y-66675000D01*
X113030000Y-66675000D02*
X111125000Y-64770000D01*
D20*
X89535000Y-58420000D02*
X87439500Y-56324500D01*
X89916000Y-58420000D02*
X89535000Y-58420000D01*
D19*
X150320000Y-48295000D02*
X150320000Y-47660000D01*
X153495000Y-51470000D02*
X150320000Y-48295000D01*
X153495000Y-54927500D02*
X153495000Y-51470000D01*
D20*
X89916000Y-40640000D02*
X89916000Y-43180000D01*
D19*
X120650000Y-58420000D02*
X120650000Y-50165000D01*
X118110000Y-58420000D02*
X118110000Y-51089000D01*
X99520000Y-58455000D02*
X99520000Y-51627000D01*
X105870000Y-67980000D02*
X110950000Y-67980000D01*
X100155000Y-67980000D02*
X105870000Y-67980000D01*
D20*
X105870000Y-66710000D02*
X105870000Y-67980000D01*
X104775000Y-50800000D02*
X104775000Y-62230000D01*
D19*
X114125000Y-41945000D02*
X114125000Y-39405000D01*
X114012000Y-42058000D02*
X114125000Y-41945000D01*
D21*
X89215500Y-30226000D02*
X84836000Y-30226000D01*
X167324500Y-29210000D02*
X172085000Y-29210000D01*
G04 #@! TA.AperFunction,Conductor*
G36*
X132899138Y-50983731D02*
G01*
X132905456Y-50990078D01*
X132905591Y-50998637D01*
X132669847Y-51627407D01*
X132663734Y-51633951D01*
X132658892Y-51635000D01*
X132421108Y-51635000D01*
X132412835Y-51631573D01*
X132410153Y-51627407D01*
X132174408Y-50998635D01*
X132174712Y-50989688D01*
X132180859Y-50983732D01*
X132535500Y-50835875D01*
X132544449Y-50835855D01*
X132899138Y-50983731D01*
G37*
G04 #@! TD.AperFunction*
G04 #@! TA.AperFunction,Conductor*
G36*
X118237165Y-57623427D02*
G01*
X118239847Y-57627593D01*
X118475591Y-58256362D01*
X118475287Y-58265311D01*
X118469138Y-58271268D01*
X118114502Y-58419123D01*
X118105548Y-58419144D01*
X118105498Y-58419123D01*
X117750861Y-58271268D01*
X117744543Y-58264921D01*
X117744408Y-58256364D01*
X117980153Y-57627592D01*
X117986266Y-57621049D01*
X117991108Y-57620000D01*
X118228892Y-57620000D01*
X118237165Y-57623427D01*
G37*
G04 #@! TD.AperFunction*
G04 #@! TA.AperFunction,Conductor*
G36*
X132667165Y-55753427D02*
G01*
X132669847Y-55757593D01*
X132905591Y-56386362D01*
X132905287Y-56395311D01*
X132899138Y-56401268D01*
X132544502Y-56549123D01*
X132535548Y-56549144D01*
X132535498Y-56549123D01*
X132180861Y-56401268D01*
X132174543Y-56394921D01*
X132174408Y-56386364D01*
X132410153Y-55757592D01*
X132416266Y-55751049D01*
X132421108Y-55750000D01*
X132658892Y-55750000D01*
X132667165Y-55753427D01*
G37*
G04 #@! TD.AperFunction*
G04 #@! TA.AperFunction,Conductor*
G36*
X89912411Y-58023505D02*
G01*
X89916018Y-58031701D01*
X89916021Y-58031936D01*
X89916698Y-58415831D01*
X89913286Y-58424111D01*
X89913250Y-58424146D01*
X89641497Y-58694544D01*
X89633216Y-58697950D01*
X89624951Y-58694502D01*
X89624905Y-58694456D01*
X89156060Y-58217970D01*
X89152700Y-58209669D01*
X89156126Y-58201492D01*
X89321377Y-58036241D01*
X89329391Y-58032818D01*
X89904066Y-58020260D01*
X89912411Y-58023505D01*
G37*
G04 #@! TD.AperFunction*
G04 #@! TA.AperFunction,Conductor*
G36*
X120777165Y-57623427D02*
G01*
X120779847Y-57627593D01*
X121015591Y-58256362D01*
X121015287Y-58265311D01*
X121009138Y-58271268D01*
X120654502Y-58419123D01*
X120645548Y-58419144D01*
X120645498Y-58419123D01*
X120290861Y-58271268D01*
X120284543Y-58264921D01*
X120284408Y-58256364D01*
X120520153Y-57627592D01*
X120526266Y-57621049D01*
X120531108Y-57620000D01*
X120768892Y-57620000D01*
X120777165Y-57623427D01*
G37*
G04 #@! TD.AperFunction*
G04 #@! TA.AperFunction,Conductor*
G36*
X121009138Y-50313731D02*
G01*
X121015456Y-50320078D01*
X121015591Y-50328637D01*
X120779847Y-50957407D01*
X120773734Y-50963951D01*
X120768892Y-50965000D01*
X120531108Y-50965000D01*
X120522835Y-50961573D01*
X120520153Y-50957407D01*
X120284408Y-50328635D01*
X120284712Y-50319688D01*
X120290859Y-50313732D01*
X120645500Y-50165875D01*
X120654449Y-50165855D01*
X121009138Y-50313731D01*
G37*
G04 #@! TD.AperFunction*
G04 #@! TA.AperFunction,Conductor*
G36*
X155527165Y-54483427D02*
G01*
X155529847Y-54487593D01*
X155765591Y-55116362D01*
X155765287Y-55125311D01*
X155759138Y-55131268D01*
X155404502Y-55279123D01*
X155395548Y-55279144D01*
X155395498Y-55279123D01*
X155040861Y-55131268D01*
X155034543Y-55124921D01*
X155034408Y-55116364D01*
X155270153Y-54487592D01*
X155276266Y-54481049D01*
X155281108Y-54480000D01*
X155518892Y-54480000D01*
X155527165Y-54483427D01*
G37*
G04 #@! TD.AperFunction*
G04 #@! TA.AperFunction,Conductor*
G36*
X157664138Y-50983731D02*
G01*
X157670456Y-50990078D01*
X157670591Y-50998637D01*
X157434847Y-51627407D01*
X157428734Y-51633951D01*
X157423892Y-51635000D01*
X157186108Y-51635000D01*
X157177835Y-51631573D01*
X157175153Y-51627407D01*
X156939408Y-50998635D01*
X156939712Y-50989688D01*
X156945859Y-50983732D01*
X157300500Y-50835875D01*
X157309449Y-50835855D01*
X157664138Y-50983731D01*
G37*
G04 #@! TD.AperFunction*
G04 #@! TA.AperFunction,Conductor*
G36*
X149207407Y-65310153D02*
G01*
X149213951Y-65316266D01*
X149215000Y-65321108D01*
X149215000Y-65558891D01*
X149211573Y-65567164D01*
X149207407Y-65569846D01*
X148578637Y-65805591D01*
X148569688Y-65805287D01*
X148563731Y-65799138D01*
X148415875Y-65444499D01*
X148415855Y-65435550D01*
X148563732Y-65080859D01*
X148570078Y-65074543D01*
X148578635Y-65074408D01*
X149207407Y-65310153D01*
G37*
G04 #@! TD.AperFunction*
G04 #@! TA.AperFunction,Conductor*
G36*
X100947407Y-67850153D02*
G01*
X100953951Y-67856266D01*
X100955000Y-67861108D01*
X100955000Y-68098891D01*
X100951573Y-68107164D01*
X100947407Y-68109846D01*
X100318637Y-68345591D01*
X100309688Y-68345287D01*
X100303731Y-68339138D01*
X100155875Y-67984499D01*
X100155855Y-67975550D01*
X100303732Y-67620859D01*
X100310078Y-67614543D01*
X100318635Y-67614408D01*
X100947407Y-67850153D01*
G37*
G04 #@! TD.AperFunction*
G04 #@! TA.AperFunction,Conductor*
G36*
X153340311Y-65074712D02*
G01*
X153346268Y-65080861D01*
X153494123Y-65435498D01*
X153494144Y-65444452D01*
X153494123Y-65444502D01*
X153346268Y-65799138D01*
X153339921Y-65805456D01*
X153331362Y-65805591D01*
X152702593Y-65569846D01*
X152696049Y-65563733D01*
X152695000Y-65558891D01*
X152695000Y-65321108D01*
X152698427Y-65312835D01*
X152702593Y-65310153D01*
X153331364Y-65074408D01*
X153340311Y-65074712D01*
G37*
G04 #@! TD.AperFunction*
G04 #@! TA.AperFunction,Conductor*
G36*
X114484138Y-39553731D02*
G01*
X114490456Y-39560078D01*
X114490591Y-39568637D01*
X114254847Y-40197407D01*
X114248734Y-40203951D01*
X114243892Y-40205000D01*
X114006108Y-40205000D01*
X113997835Y-40201573D01*
X113995153Y-40197407D01*
X113759408Y-39568635D01*
X113759712Y-39559688D01*
X113765859Y-39553732D01*
X114120500Y-39405875D01*
X114129449Y-39405855D01*
X114484138Y-39553731D01*
G37*
G04 #@! TD.AperFunction*
G04 #@! TA.AperFunction,Conductor*
G36*
X172079075Y-55087007D02*
G01*
X172045000Y-55214174D01*
X172045000Y-55345826D01*
X172079075Y-55472993D01*
X172111988Y-55530000D01*
X170438012Y-55530000D01*
X170470925Y-55472993D01*
X170505000Y-55345826D01*
X170505000Y-55214174D01*
X170470925Y-55087007D01*
X170438012Y-55030000D01*
X172111988Y-55030000D01*
X172079075Y-55087007D01*
G37*
G04 #@! TD.AperFunction*
G04 #@! TA.AperFunction,Conductor*
G36*
X170255000Y-54846988D02*
G01*
X170197993Y-54814075D01*
X170070826Y-54780000D01*
X169939174Y-54780000D01*
X169812007Y-54814075D01*
X169755000Y-54846988D01*
X169755000Y-53173012D01*
X169812007Y-53205925D01*
X169939174Y-53240000D01*
X170070826Y-53240000D01*
X170197993Y-53205925D01*
X170255000Y-53173012D01*
X170255000Y-54846988D01*
G37*
G04 #@! TD.AperFunction*
G04 #@! TA.AperFunction,Conductor*
G36*
X172795000Y-54846988D02*
G01*
X172737993Y-54814075D01*
X172610826Y-54780000D01*
X172479174Y-54780000D01*
X172352007Y-54814075D01*
X172295000Y-54846988D01*
X172295000Y-53173012D01*
X172352007Y-53205925D01*
X172479174Y-53240000D01*
X172610826Y-53240000D01*
X172737993Y-53205925D01*
X172795000Y-53173012D01*
X172795000Y-54846988D01*
G37*
G04 #@! TD.AperFunction*
G04 #@! TA.AperFunction,Conductor*
G36*
X172079075Y-52547007D02*
G01*
X172045000Y-52674174D01*
X172045000Y-52805826D01*
X172079075Y-52932993D01*
X172111988Y-52990000D01*
X170438012Y-52990000D01*
X170470925Y-52932993D01*
X170505000Y-52805826D01*
X170505000Y-52674174D01*
X170470925Y-52547007D01*
X170438012Y-52490000D01*
X172111988Y-52490000D01*
X172079075Y-52547007D01*
G37*
G04 #@! TD.AperFunction*
G04 #@! TA.AperFunction,Conductor*
G36*
X170255000Y-52306988D02*
G01*
X170197993Y-52274075D01*
X170070826Y-52240000D01*
X169939174Y-52240000D01*
X169812007Y-52274075D01*
X169755000Y-52306988D01*
X169755000Y-50633012D01*
X169812007Y-50665925D01*
X169939174Y-50700000D01*
X170070826Y-50700000D01*
X170197993Y-50665925D01*
X170255000Y-50633012D01*
X170255000Y-52306988D01*
G37*
G04 #@! TD.AperFunction*
G04 #@! TA.AperFunction,Conductor*
G36*
X172795000Y-52306988D02*
G01*
X172737993Y-52274075D01*
X172610826Y-52240000D01*
X172479174Y-52240000D01*
X172352007Y-52274075D01*
X172295000Y-52306988D01*
X172295000Y-50633012D01*
X172352007Y-50665925D01*
X172479174Y-50700000D01*
X172610826Y-50700000D01*
X172737993Y-50665925D01*
X172795000Y-50633012D01*
X172795000Y-52306988D01*
G37*
G04 #@! TD.AperFunction*
G04 #@! TA.AperFunction,Conductor*
G36*
X172079075Y-50007007D02*
G01*
X172045000Y-50134174D01*
X172045000Y-50265826D01*
X172079075Y-50392993D01*
X172111988Y-50450000D01*
X170438012Y-50450000D01*
X170470925Y-50392993D01*
X170505000Y-50265826D01*
X170505000Y-50134174D01*
X170470925Y-50007007D01*
X170438012Y-49950000D01*
X172111988Y-49950000D01*
X172079075Y-50007007D01*
G37*
G04 #@! TD.AperFunction*
G04 #@! TA.AperFunction,Conductor*
G36*
X176473039Y-24784685D02*
G01*
X176518794Y-24837489D01*
X176530000Y-24889000D01*
X176530000Y-87506000D01*
X176510315Y-87573039D01*
X176457511Y-87618794D01*
X176406000Y-87630000D01*
X79499000Y-87630000D01*
X79431961Y-87610315D01*
X79386206Y-87557511D01*
X79375000Y-87506000D01*
X79375000Y-84220247D01*
X88525140Y-84220247D01*
X88525140Y-85959752D01*
X88536771Y-86018229D01*
X88536772Y-86018230D01*
X88581087Y-86084552D01*
X88647409Y-86128867D01*
X88647410Y-86128868D01*
X88705887Y-86140499D01*
X88705890Y-86140500D01*
X88705892Y-86140500D01*
X90445390Y-86140500D01*
X90445391Y-86140499D01*
X90460208Y-86137552D01*
X90503869Y-86128868D01*
X90503869Y-86128867D01*
X90503871Y-86128867D01*
X90570192Y-86084552D01*
X90614507Y-86018231D01*
X90614507Y-86018229D01*
X90614508Y-86018229D01*
X90626139Y-85959752D01*
X90626140Y-85959750D01*
X90626140Y-85090000D01*
X91020057Y-85090000D01*
X91040339Y-85295932D01*
X91040340Y-85295934D01*
X91100408Y-85493954D01*
X91197955Y-85676450D01*
X91197957Y-85676452D01*
X91329229Y-85836410D01*
X91425849Y-85915702D01*
X91489190Y-85967685D01*
X91671686Y-86065232D01*
X91869706Y-86125300D01*
X91869705Y-86125300D01*
X91888169Y-86127118D01*
X92075640Y-86145583D01*
X92281574Y-86125300D01*
X92479594Y-86065232D01*
X92662090Y-85967685D01*
X92822050Y-85836410D01*
X92953325Y-85676450D01*
X93050872Y-85493954D01*
X93110940Y-85295934D01*
X93131223Y-85090000D01*
X93520057Y-85090000D01*
X93540339Y-85295932D01*
X93540340Y-85295934D01*
X93600408Y-85493954D01*
X93697955Y-85676450D01*
X93697957Y-85676452D01*
X93829229Y-85836410D01*
X93925849Y-85915702D01*
X93989190Y-85967685D01*
X94171686Y-86065232D01*
X94369706Y-86125300D01*
X94369705Y-86125300D01*
X94388169Y-86127118D01*
X94575640Y-86145583D01*
X94781574Y-86125300D01*
X94979594Y-86065232D01*
X95162090Y-85967685D01*
X95322050Y-85836410D01*
X95453325Y-85676450D01*
X95550872Y-85493954D01*
X95610940Y-85295934D01*
X95631223Y-85090000D01*
X95610940Y-84884066D01*
X95550872Y-84686046D01*
X95453325Y-84503550D01*
X95401342Y-84440209D01*
X95322050Y-84343589D01*
X95171761Y-84220252D01*
X95171755Y-84220247D01*
X107534500Y-84220247D01*
X107534500Y-85959752D01*
X107546131Y-86018229D01*
X107546132Y-86018230D01*
X107590447Y-86084552D01*
X107656769Y-86128867D01*
X107656770Y-86128868D01*
X107715247Y-86140499D01*
X107715250Y-86140500D01*
X107715252Y-86140500D01*
X109454750Y-86140500D01*
X109454751Y-86140499D01*
X109469568Y-86137552D01*
X109513229Y-86128868D01*
X109513229Y-86128867D01*
X109513231Y-86128867D01*
X109579552Y-86084552D01*
X109623867Y-86018231D01*
X109623867Y-86018229D01*
X109623868Y-86018229D01*
X109635499Y-85959752D01*
X109635500Y-85959750D01*
X109635500Y-85090000D01*
X110069417Y-85090000D01*
X110089699Y-85295932D01*
X110089700Y-85295934D01*
X110149768Y-85493954D01*
X110247315Y-85676450D01*
X110247317Y-85676452D01*
X110378589Y-85836410D01*
X110475209Y-85915702D01*
X110538550Y-85967685D01*
X110721046Y-86065232D01*
X110919066Y-86125300D01*
X110919065Y-86125300D01*
X110937529Y-86127118D01*
X111125000Y-86145583D01*
X111330934Y-86125300D01*
X111528954Y-86065232D01*
X111711450Y-85967685D01*
X111871410Y-85836410D01*
X112002685Y-85676450D01*
X112100232Y-85493954D01*
X112160300Y-85295934D01*
X112180583Y-85090000D01*
X112609417Y-85090000D01*
X112629699Y-85295932D01*
X112629700Y-85295934D01*
X112689768Y-85493954D01*
X112787315Y-85676450D01*
X112787317Y-85676452D01*
X112918589Y-85836410D01*
X113015209Y-85915702D01*
X113078550Y-85967685D01*
X113261046Y-86065232D01*
X113459066Y-86125300D01*
X113459065Y-86125300D01*
X113477529Y-86127118D01*
X113665000Y-86145583D01*
X113870934Y-86125300D01*
X114068954Y-86065232D01*
X114251450Y-85967685D01*
X114411410Y-85836410D01*
X114542685Y-85676450D01*
X114640232Y-85493954D01*
X114700300Y-85295934D01*
X114720583Y-85090000D01*
X114700300Y-84884066D01*
X114640232Y-84686046D01*
X114542685Y-84503550D01*
X114490702Y-84440209D01*
X114411410Y-84343589D01*
X114261121Y-84220252D01*
X114261115Y-84220247D01*
X126622600Y-84220247D01*
X126622600Y-85959752D01*
X126634231Y-86018229D01*
X126634232Y-86018230D01*
X126678547Y-86084552D01*
X126744869Y-86128867D01*
X126744870Y-86128868D01*
X126803347Y-86140499D01*
X126803350Y-86140500D01*
X126803352Y-86140500D01*
X128542850Y-86140500D01*
X128542851Y-86140499D01*
X128557668Y-86137552D01*
X128601329Y-86128868D01*
X128601329Y-86128867D01*
X128601331Y-86128867D01*
X128667652Y-86084552D01*
X128711967Y-86018231D01*
X128711967Y-86018229D01*
X128711968Y-86018229D01*
X128723599Y-85959752D01*
X128723600Y-85959750D01*
X128723600Y-85090000D01*
X129117517Y-85090000D01*
X129137799Y-85295932D01*
X129137800Y-85295934D01*
X129197868Y-85493954D01*
X129295415Y-85676450D01*
X129295417Y-85676452D01*
X129426689Y-85836410D01*
X129523309Y-85915702D01*
X129586650Y-85967685D01*
X129769146Y-86065232D01*
X129967166Y-86125300D01*
X129967165Y-86125300D01*
X129985629Y-86127118D01*
X130173100Y-86145583D01*
X130379034Y-86125300D01*
X130577054Y-86065232D01*
X130759550Y-85967685D01*
X130919510Y-85836410D01*
X131050785Y-85676450D01*
X131148332Y-85493954D01*
X131208400Y-85295934D01*
X131228683Y-85090000D01*
X131617517Y-85090000D01*
X131637799Y-85295932D01*
X131637800Y-85295934D01*
X131697868Y-85493954D01*
X131795415Y-85676450D01*
X131795417Y-85676452D01*
X131926689Y-85836410D01*
X132023309Y-85915702D01*
X132086650Y-85967685D01*
X132269146Y-86065232D01*
X132467166Y-86125300D01*
X132467165Y-86125300D01*
X132485629Y-86127118D01*
X132673100Y-86145583D01*
X132879034Y-86125300D01*
X133077054Y-86065232D01*
X133259550Y-85967685D01*
X133419510Y-85836410D01*
X133550785Y-85676450D01*
X133648332Y-85493954D01*
X133708400Y-85295934D01*
X133728683Y-85090000D01*
X133708400Y-84884066D01*
X133648332Y-84686046D01*
X133550785Y-84503550D01*
X133498802Y-84440209D01*
X133419510Y-84343589D01*
X133269221Y-84220252D01*
X133269215Y-84220247D01*
X145634500Y-84220247D01*
X145634500Y-85959752D01*
X145646131Y-86018229D01*
X145646132Y-86018230D01*
X145690447Y-86084552D01*
X145756769Y-86128867D01*
X145756770Y-86128868D01*
X145815247Y-86140499D01*
X145815250Y-86140500D01*
X145815252Y-86140500D01*
X147554750Y-86140500D01*
X147554751Y-86140499D01*
X147569568Y-86137552D01*
X147613229Y-86128868D01*
X147613229Y-86128867D01*
X147613231Y-86128867D01*
X147679552Y-86084552D01*
X147723867Y-86018231D01*
X147723867Y-86018229D01*
X147723868Y-86018229D01*
X147735499Y-85959752D01*
X147735500Y-85959750D01*
X147735500Y-85090000D01*
X148169417Y-85090000D01*
X148189699Y-85295932D01*
X148189700Y-85295934D01*
X148249768Y-85493954D01*
X148347315Y-85676450D01*
X148347317Y-85676452D01*
X148478589Y-85836410D01*
X148575209Y-85915702D01*
X148638550Y-85967685D01*
X148821046Y-86065232D01*
X149019066Y-86125300D01*
X149019065Y-86125300D01*
X149037529Y-86127118D01*
X149225000Y-86145583D01*
X149430934Y-86125300D01*
X149628954Y-86065232D01*
X149811450Y-85967685D01*
X149971410Y-85836410D01*
X150102685Y-85676450D01*
X150200232Y-85493954D01*
X150260300Y-85295934D01*
X150280583Y-85090000D01*
X150709417Y-85090000D01*
X150729699Y-85295932D01*
X150729700Y-85295934D01*
X150789768Y-85493954D01*
X150887315Y-85676450D01*
X150887317Y-85676452D01*
X151018589Y-85836410D01*
X151115209Y-85915702D01*
X151178550Y-85967685D01*
X151361046Y-86065232D01*
X151559066Y-86125300D01*
X151559065Y-86125300D01*
X151577529Y-86127118D01*
X151765000Y-86145583D01*
X151970934Y-86125300D01*
X152168954Y-86065232D01*
X152351450Y-85967685D01*
X152511410Y-85836410D01*
X152642685Y-85676450D01*
X152740232Y-85493954D01*
X152800300Y-85295934D01*
X152820583Y-85090000D01*
X152800300Y-84884066D01*
X152740232Y-84686046D01*
X152642685Y-84503550D01*
X152590702Y-84440209D01*
X152511410Y-84343589D01*
X152361121Y-84220252D01*
X152351450Y-84212315D01*
X152168954Y-84114768D01*
X151970934Y-84054700D01*
X151970932Y-84054699D01*
X151970934Y-84054699D01*
X151765000Y-84034417D01*
X151559067Y-84054699D01*
X151361043Y-84114769D01*
X151273114Y-84161769D01*
X151178550Y-84212315D01*
X151178548Y-84212316D01*
X151178547Y-84212317D01*
X151018589Y-84343589D01*
X150887317Y-84503547D01*
X150789769Y-84686043D01*
X150729699Y-84884067D01*
X150709417Y-85090000D01*
X150280583Y-85090000D01*
X150260300Y-84884066D01*
X150200232Y-84686046D01*
X150102685Y-84503550D01*
X150050702Y-84440209D01*
X149971410Y-84343589D01*
X149821121Y-84220252D01*
X149811450Y-84212315D01*
X149628954Y-84114768D01*
X149430934Y-84054700D01*
X149430932Y-84054699D01*
X149430934Y-84054699D01*
X149225000Y-84034417D01*
X149019067Y-84054699D01*
X148821043Y-84114769D01*
X148733114Y-84161769D01*
X148638550Y-84212315D01*
X148638548Y-84212316D01*
X148638547Y-84212317D01*
X148478589Y-84343589D01*
X148347317Y-84503547D01*
X148249769Y-84686043D01*
X148189699Y-84884067D01*
X148169417Y-85090000D01*
X147735500Y-85090000D01*
X147735500Y-84220249D01*
X147735499Y-84220247D01*
X147723868Y-84161770D01*
X147723867Y-84161769D01*
X147679552Y-84095447D01*
X147613230Y-84051132D01*
X147613229Y-84051131D01*
X147554752Y-84039500D01*
X147554748Y-84039500D01*
X145815252Y-84039500D01*
X145815247Y-84039500D01*
X145756770Y-84051131D01*
X145756769Y-84051132D01*
X145690447Y-84095447D01*
X145646132Y-84161769D01*
X145646131Y-84161770D01*
X145634500Y-84220247D01*
X133269215Y-84220247D01*
X133259550Y-84212315D01*
X133077054Y-84114768D01*
X132879034Y-84054700D01*
X132879032Y-84054699D01*
X132879034Y-84054699D01*
X132673100Y-84034417D01*
X132467167Y-84054699D01*
X132269143Y-84114769D01*
X132181214Y-84161769D01*
X132086650Y-84212315D01*
X132086648Y-84212316D01*
X132086647Y-84212317D01*
X131926689Y-84343589D01*
X131795417Y-84503547D01*
X131697869Y-84686043D01*
X131637799Y-84884067D01*
X131617517Y-85090000D01*
X131228683Y-85090000D01*
X131208400Y-84884066D01*
X131148332Y-84686046D01*
X131050785Y-84503550D01*
X130998802Y-84440209D01*
X130919510Y-84343589D01*
X130769221Y-84220252D01*
X130759550Y-84212315D01*
X130577054Y-84114768D01*
X130379034Y-84054700D01*
X130379032Y-84054699D01*
X130379034Y-84054699D01*
X130173100Y-84034417D01*
X129967167Y-84054699D01*
X129769143Y-84114769D01*
X129681214Y-84161769D01*
X129586650Y-84212315D01*
X129586648Y-84212316D01*
X129586647Y-84212317D01*
X129426689Y-84343589D01*
X129295417Y-84503547D01*
X129197869Y-84686043D01*
X129137799Y-84884067D01*
X129117517Y-85090000D01*
X128723600Y-85090000D01*
X128723600Y-84220249D01*
X128723599Y-84220247D01*
X128711968Y-84161770D01*
X128711967Y-84161769D01*
X128667652Y-84095447D01*
X128601330Y-84051132D01*
X128601329Y-84051131D01*
X128542852Y-84039500D01*
X128542848Y-84039500D01*
X126803352Y-84039500D01*
X126803347Y-84039500D01*
X126744870Y-84051131D01*
X126744869Y-84051132D01*
X126678547Y-84095447D01*
X126634232Y-84161769D01*
X126634231Y-84161770D01*
X126622600Y-84220247D01*
X114261115Y-84220247D01*
X114251450Y-84212315D01*
X114068954Y-84114768D01*
X113870934Y-84054700D01*
X113870932Y-84054699D01*
X113870934Y-84054699D01*
X113665000Y-84034417D01*
X113459067Y-84054699D01*
X113261043Y-84114769D01*
X113173114Y-84161769D01*
X113078550Y-84212315D01*
X113078548Y-84212316D01*
X113078547Y-84212317D01*
X112918589Y-84343589D01*
X112787317Y-84503547D01*
X112689769Y-84686043D01*
X112629699Y-84884067D01*
X112609417Y-85090000D01*
X112180583Y-85090000D01*
X112160300Y-84884066D01*
X112100232Y-84686046D01*
X112002685Y-84503550D01*
X111950702Y-84440209D01*
X111871410Y-84343589D01*
X111721121Y-84220252D01*
X111711450Y-84212315D01*
X111528954Y-84114768D01*
X111330934Y-84054700D01*
X111330932Y-84054699D01*
X111330934Y-84054699D01*
X111125000Y-84034417D01*
X110919067Y-84054699D01*
X110721043Y-84114769D01*
X110633114Y-84161769D01*
X110538550Y-84212315D01*
X110538548Y-84212316D01*
X110538547Y-84212317D01*
X110378589Y-84343589D01*
X110247317Y-84503547D01*
X110149769Y-84686043D01*
X110089699Y-84884067D01*
X110069417Y-85090000D01*
X109635500Y-85090000D01*
X109635500Y-84220249D01*
X109635499Y-84220247D01*
X109623868Y-84161770D01*
X109623867Y-84161769D01*
X109579552Y-84095447D01*
X109513230Y-84051132D01*
X109513229Y-84051131D01*
X109454752Y-84039500D01*
X109454748Y-84039500D01*
X107715252Y-84039500D01*
X107715247Y-84039500D01*
X107656770Y-84051131D01*
X107656769Y-84051132D01*
X107590447Y-84095447D01*
X107546132Y-84161769D01*
X107546131Y-84161770D01*
X107534500Y-84220247D01*
X95171755Y-84220247D01*
X95162090Y-84212315D01*
X94979594Y-84114768D01*
X94781574Y-84054700D01*
X94781572Y-84054699D01*
X94781574Y-84054699D01*
X94575640Y-84034417D01*
X94369707Y-84054699D01*
X94171683Y-84114769D01*
X94083754Y-84161769D01*
X93989190Y-84212315D01*
X93989188Y-84212316D01*
X93989187Y-84212317D01*
X93829229Y-84343589D01*
X93697957Y-84503547D01*
X93600409Y-84686043D01*
X93540339Y-84884067D01*
X93520057Y-85090000D01*
X93131223Y-85090000D01*
X93110940Y-84884066D01*
X93050872Y-84686046D01*
X92953325Y-84503550D01*
X92901342Y-84440209D01*
X92822050Y-84343589D01*
X92671761Y-84220252D01*
X92662090Y-84212315D01*
X92479594Y-84114768D01*
X92281574Y-84054700D01*
X92281572Y-84054699D01*
X92281574Y-84054699D01*
X92075640Y-84034417D01*
X91869707Y-84054699D01*
X91671683Y-84114769D01*
X91583754Y-84161769D01*
X91489190Y-84212315D01*
X91489188Y-84212316D01*
X91489187Y-84212317D01*
X91329229Y-84343589D01*
X91197957Y-84503547D01*
X91100409Y-84686043D01*
X91040339Y-84884067D01*
X91020057Y-85090000D01*
X90626140Y-85090000D01*
X90626140Y-84220249D01*
X90626139Y-84220247D01*
X90614508Y-84161770D01*
X90614507Y-84161769D01*
X90570192Y-84095447D01*
X90503870Y-84051132D01*
X90503869Y-84051131D01*
X90445392Y-84039500D01*
X90445388Y-84039500D01*
X88705892Y-84039500D01*
X88705887Y-84039500D01*
X88647410Y-84051131D01*
X88647409Y-84051132D01*
X88581087Y-84095447D01*
X88536772Y-84161769D01*
X88536771Y-84161770D01*
X88525140Y-84220247D01*
X79375000Y-84220247D01*
X79375000Y-83820000D01*
X156139355Y-83820000D01*
X156159859Y-83988869D01*
X156159860Y-83988874D01*
X156220182Y-84147931D01*
X156282475Y-84238177D01*
X156316817Y-84287929D01*
X156379646Y-84343590D01*
X156444150Y-84400736D01*
X156594773Y-84479789D01*
X156594775Y-84479790D01*
X156759944Y-84520500D01*
X156930056Y-84520500D01*
X157095225Y-84479790D01*
X157174692Y-84438081D01*
X157245849Y-84400736D01*
X157245850Y-84400734D01*
X157245852Y-84400734D01*
X157373183Y-84287929D01*
X157419901Y-84220247D01*
X164699740Y-84220247D01*
X164699740Y-85959752D01*
X164711371Y-86018229D01*
X164711372Y-86018230D01*
X164755687Y-86084552D01*
X164822009Y-86128867D01*
X164822010Y-86128868D01*
X164880487Y-86140499D01*
X164880490Y-86140500D01*
X164880492Y-86140500D01*
X166619990Y-86140500D01*
X166619991Y-86140499D01*
X166634808Y-86137552D01*
X166678469Y-86128868D01*
X166678469Y-86128867D01*
X166678471Y-86128867D01*
X166744792Y-86084552D01*
X166789107Y-86018231D01*
X166789107Y-86018229D01*
X166789108Y-86018229D01*
X166800739Y-85959752D01*
X166800740Y-85959750D01*
X166800740Y-85090000D01*
X167234657Y-85090000D01*
X167254939Y-85295932D01*
X167254940Y-85295934D01*
X167315008Y-85493954D01*
X167412555Y-85676450D01*
X167412557Y-85676452D01*
X167543829Y-85836410D01*
X167640449Y-85915702D01*
X167703790Y-85967685D01*
X167886286Y-86065232D01*
X168084306Y-86125300D01*
X168084305Y-86125300D01*
X168102769Y-86127118D01*
X168290240Y-86145583D01*
X168496174Y-86125300D01*
X168694194Y-86065232D01*
X168876690Y-85967685D01*
X169036650Y-85836410D01*
X169167925Y-85676450D01*
X169265472Y-85493954D01*
X169325540Y-85295934D01*
X169345823Y-85090000D01*
X169774657Y-85090000D01*
X169794939Y-85295932D01*
X169794940Y-85295934D01*
X169855008Y-85493954D01*
X169952555Y-85676450D01*
X169952557Y-85676452D01*
X170083829Y-85836410D01*
X170180449Y-85915702D01*
X170243790Y-85967685D01*
X170426286Y-86065232D01*
X170624306Y-86125300D01*
X170624305Y-86125300D01*
X170642769Y-86127118D01*
X170830240Y-86145583D01*
X171036174Y-86125300D01*
X171234194Y-86065232D01*
X171416690Y-85967685D01*
X171576650Y-85836410D01*
X171707925Y-85676450D01*
X171805472Y-85493954D01*
X171865540Y-85295934D01*
X171885823Y-85090000D01*
X171865540Y-84884066D01*
X171805472Y-84686046D01*
X171707925Y-84503550D01*
X171655942Y-84440209D01*
X171576650Y-84343589D01*
X171426361Y-84220252D01*
X171416690Y-84212315D01*
X171234194Y-84114768D01*
X171036174Y-84054700D01*
X171036172Y-84054699D01*
X171036174Y-84054699D01*
X170830240Y-84034417D01*
X170624307Y-84054699D01*
X170426283Y-84114769D01*
X170338354Y-84161769D01*
X170243790Y-84212315D01*
X170243788Y-84212316D01*
X170243787Y-84212317D01*
X170083829Y-84343589D01*
X169952557Y-84503547D01*
X169855009Y-84686043D01*
X169794939Y-84884067D01*
X169774657Y-85090000D01*
X169345823Y-85090000D01*
X169325540Y-84884066D01*
X169265472Y-84686046D01*
X169167925Y-84503550D01*
X169115942Y-84440209D01*
X169036650Y-84343589D01*
X168886361Y-84220252D01*
X168876690Y-84212315D01*
X168694194Y-84114768D01*
X168496174Y-84054700D01*
X168496172Y-84054699D01*
X168496174Y-84054699D01*
X168290240Y-84034417D01*
X168084307Y-84054699D01*
X167886283Y-84114769D01*
X167798354Y-84161769D01*
X167703790Y-84212315D01*
X167703788Y-84212316D01*
X167703787Y-84212317D01*
X167543829Y-84343589D01*
X167412557Y-84503547D01*
X167315009Y-84686043D01*
X167254939Y-84884067D01*
X167234657Y-85090000D01*
X166800740Y-85090000D01*
X166800740Y-84220249D01*
X166800739Y-84220247D01*
X166789108Y-84161770D01*
X166789107Y-84161769D01*
X166744792Y-84095447D01*
X166678470Y-84051132D01*
X166678469Y-84051131D01*
X166619992Y-84039500D01*
X166619988Y-84039500D01*
X164880492Y-84039500D01*
X164880487Y-84039500D01*
X164822010Y-84051131D01*
X164822009Y-84051132D01*
X164755687Y-84095447D01*
X164711372Y-84161769D01*
X164711371Y-84161770D01*
X164699740Y-84220247D01*
X157419901Y-84220247D01*
X157469818Y-84147930D01*
X157530140Y-83988872D01*
X157550645Y-83820000D01*
X157530140Y-83651128D01*
X157469818Y-83492070D01*
X157373183Y-83352071D01*
X157245852Y-83239266D01*
X157245849Y-83239263D01*
X157095226Y-83160210D01*
X156930056Y-83119500D01*
X156759944Y-83119500D01*
X156594773Y-83160210D01*
X156444150Y-83239263D01*
X156316816Y-83352072D01*
X156220182Y-83492068D01*
X156159860Y-83651125D01*
X156159859Y-83651130D01*
X156139355Y-83820000D01*
X79375000Y-83820000D01*
X79375000Y-82550000D01*
X88520057Y-82550000D01*
X88540339Y-82755932D01*
X88570374Y-82854944D01*
X88600408Y-82953954D01*
X88697955Y-83136450D01*
X88697957Y-83136452D01*
X88829229Y-83296410D01*
X88925849Y-83375702D01*
X88989190Y-83427685D01*
X89171686Y-83525232D01*
X89369706Y-83585300D01*
X89369705Y-83585300D01*
X89388169Y-83587118D01*
X89575640Y-83605583D01*
X89781574Y-83585300D01*
X89979594Y-83525232D01*
X90162090Y-83427685D01*
X90322050Y-83296410D01*
X90453325Y-83136450D01*
X90550872Y-82953954D01*
X90610940Y-82755934D01*
X90627283Y-82590000D01*
X91020057Y-82590000D01*
X91040339Y-82795932D01*
X91040340Y-82795934D01*
X91100408Y-82993954D01*
X91197955Y-83176450D01*
X91197957Y-83176452D01*
X91329229Y-83336410D01*
X91348314Y-83352072D01*
X91489190Y-83467685D01*
X91671686Y-83565232D01*
X91869706Y-83625300D01*
X91869705Y-83625300D01*
X91888169Y-83627118D01*
X92075640Y-83645583D01*
X92281574Y-83625300D01*
X92479594Y-83565232D01*
X92662090Y-83467685D01*
X92822050Y-83336410D01*
X92953325Y-83176450D01*
X93050872Y-82993954D01*
X93110940Y-82795934D01*
X93131223Y-82590000D01*
X93127283Y-82550000D01*
X93600057Y-82550000D01*
X93620339Y-82755932D01*
X93650374Y-82854944D01*
X93680408Y-82953954D01*
X93777955Y-83136450D01*
X93777957Y-83136452D01*
X93909229Y-83296410D01*
X94005849Y-83375702D01*
X94069190Y-83427685D01*
X94251686Y-83525232D01*
X94449706Y-83585300D01*
X94449705Y-83585300D01*
X94468169Y-83587118D01*
X94655640Y-83605583D01*
X94861574Y-83585300D01*
X95059594Y-83525232D01*
X95242090Y-83427685D01*
X95402050Y-83296410D01*
X95533325Y-83136450D01*
X95630872Y-82953954D01*
X95690940Y-82755934D01*
X95711223Y-82550000D01*
X126617517Y-82550000D01*
X126637799Y-82755932D01*
X126667834Y-82854944D01*
X126697868Y-82953954D01*
X126795415Y-83136450D01*
X126795417Y-83136452D01*
X126926689Y-83296410D01*
X127023309Y-83375702D01*
X127086650Y-83427685D01*
X127269146Y-83525232D01*
X127467166Y-83585300D01*
X127467165Y-83585300D01*
X127485629Y-83587118D01*
X127673100Y-83605583D01*
X127879034Y-83585300D01*
X128077054Y-83525232D01*
X128259550Y-83427685D01*
X128419510Y-83296410D01*
X128550785Y-83136450D01*
X128648332Y-82953954D01*
X128708400Y-82755934D01*
X128724743Y-82590000D01*
X129117517Y-82590000D01*
X129137799Y-82795932D01*
X129137800Y-82795934D01*
X129197868Y-82993954D01*
X129295415Y-83176450D01*
X129295417Y-83176452D01*
X129426689Y-83336410D01*
X129445774Y-83352072D01*
X129586650Y-83467685D01*
X129769146Y-83565232D01*
X129967166Y-83625300D01*
X129967165Y-83625300D01*
X129985629Y-83627118D01*
X130173100Y-83645583D01*
X130379034Y-83625300D01*
X130577054Y-83565232D01*
X130759550Y-83467685D01*
X130919510Y-83336410D01*
X131050785Y-83176450D01*
X131148332Y-82993954D01*
X131208400Y-82795934D01*
X131228683Y-82590000D01*
X131224743Y-82550000D01*
X131697517Y-82550000D01*
X131717799Y-82755932D01*
X131747834Y-82854944D01*
X131777868Y-82953954D01*
X131875415Y-83136450D01*
X131875417Y-83136452D01*
X132006689Y-83296410D01*
X132103309Y-83375702D01*
X132166650Y-83427685D01*
X132349146Y-83525232D01*
X132547166Y-83585300D01*
X132547165Y-83585300D01*
X132565629Y-83587118D01*
X132753100Y-83605583D01*
X132959034Y-83585300D01*
X133157054Y-83525232D01*
X133339550Y-83427685D01*
X133499510Y-83296410D01*
X133630785Y-83136450D01*
X133728332Y-82953954D01*
X133788400Y-82755934D01*
X133808683Y-82550000D01*
X133788400Y-82344066D01*
X133728332Y-82146046D01*
X133630785Y-81963550D01*
X133532337Y-81843590D01*
X133499510Y-81803589D01*
X133339552Y-81672317D01*
X133339553Y-81672317D01*
X133339550Y-81672315D01*
X133157054Y-81574768D01*
X132959034Y-81514700D01*
X132959032Y-81514699D01*
X132959034Y-81514699D01*
X132753100Y-81494417D01*
X132547167Y-81514699D01*
X132349143Y-81574769D01*
X132274312Y-81614768D01*
X132166650Y-81672315D01*
X132166648Y-81672316D01*
X132166647Y-81672317D01*
X132006689Y-81803589D01*
X131875417Y-81963547D01*
X131875415Y-81963550D01*
X131836743Y-82035898D01*
X131777869Y-82146043D01*
X131717799Y-82344067D01*
X131697517Y-82550000D01*
X131224743Y-82550000D01*
X131208400Y-82384066D01*
X131148332Y-82186046D01*
X131050785Y-82003550D01*
X130998802Y-81940209D01*
X130919510Y-81843589D01*
X130759552Y-81712317D01*
X130759553Y-81712317D01*
X130759550Y-81712315D01*
X130577054Y-81614768D01*
X130379034Y-81554700D01*
X130379032Y-81554699D01*
X130379034Y-81554699D01*
X130173100Y-81534417D01*
X129967167Y-81554699D01*
X129769143Y-81614769D01*
X129661484Y-81672315D01*
X129586650Y-81712315D01*
X129586648Y-81712316D01*
X129586647Y-81712317D01*
X129426689Y-81843589D01*
X129295417Y-82003547D01*
X129197869Y-82186043D01*
X129137799Y-82384067D01*
X129117517Y-82590000D01*
X128724743Y-82590000D01*
X128728683Y-82550000D01*
X128708400Y-82344066D01*
X128648332Y-82146046D01*
X128550785Y-81963550D01*
X128452337Y-81843590D01*
X128419510Y-81803589D01*
X128259552Y-81672317D01*
X128259553Y-81672317D01*
X128259550Y-81672315D01*
X128077054Y-81574768D01*
X127879034Y-81514700D01*
X127879032Y-81514699D01*
X127879034Y-81514699D01*
X127673100Y-81494417D01*
X127467167Y-81514699D01*
X127269143Y-81574769D01*
X127194312Y-81614768D01*
X127086650Y-81672315D01*
X127086648Y-81672316D01*
X127086647Y-81672317D01*
X126926689Y-81803589D01*
X126795417Y-81963547D01*
X126795415Y-81963550D01*
X126756743Y-82035898D01*
X126697869Y-82146043D01*
X126637799Y-82344067D01*
X126617517Y-82550000D01*
X95711223Y-82550000D01*
X95690940Y-82344066D01*
X95630872Y-82146046D01*
X95533325Y-81963550D01*
X95434877Y-81843590D01*
X95402050Y-81803589D01*
X95242092Y-81672317D01*
X95242093Y-81672317D01*
X95242090Y-81672315D01*
X95059594Y-81574768D01*
X94861574Y-81514700D01*
X94861572Y-81514699D01*
X94861574Y-81514699D01*
X94655640Y-81494417D01*
X94449707Y-81514699D01*
X94251683Y-81574769D01*
X94176852Y-81614768D01*
X94069190Y-81672315D01*
X94069188Y-81672316D01*
X94069187Y-81672317D01*
X93909229Y-81803589D01*
X93777957Y-81963547D01*
X93777955Y-81963550D01*
X93739283Y-82035898D01*
X93680409Y-82146043D01*
X93620339Y-82344067D01*
X93600057Y-82550000D01*
X93127283Y-82550000D01*
X93110940Y-82384066D01*
X93050872Y-82186046D01*
X92953325Y-82003550D01*
X92901342Y-81940209D01*
X92822050Y-81843589D01*
X92662092Y-81712317D01*
X92662093Y-81712317D01*
X92662090Y-81712315D01*
X92479594Y-81614768D01*
X92281574Y-81554700D01*
X92281572Y-81554699D01*
X92281574Y-81554699D01*
X92075640Y-81534417D01*
X91869707Y-81554699D01*
X91671683Y-81614769D01*
X91564024Y-81672315D01*
X91489190Y-81712315D01*
X91489188Y-81712316D01*
X91489187Y-81712317D01*
X91329229Y-81843589D01*
X91197957Y-82003547D01*
X91100409Y-82186043D01*
X91040339Y-82384067D01*
X91020057Y-82590000D01*
X90627283Y-82590000D01*
X90631223Y-82550000D01*
X90610940Y-82344066D01*
X90550872Y-82146046D01*
X90453325Y-81963550D01*
X90354877Y-81843590D01*
X90322050Y-81803589D01*
X90162092Y-81672317D01*
X90162093Y-81672317D01*
X90162090Y-81672315D01*
X89979594Y-81574768D01*
X89781574Y-81514700D01*
X89781572Y-81514699D01*
X89781574Y-81514699D01*
X89575640Y-81494417D01*
X89369707Y-81514699D01*
X89171683Y-81574769D01*
X89096852Y-81614768D01*
X88989190Y-81672315D01*
X88989188Y-81672316D01*
X88989187Y-81672317D01*
X88829229Y-81803589D01*
X88697957Y-81963547D01*
X88697955Y-81963550D01*
X88659283Y-82035898D01*
X88600409Y-82146043D01*
X88540339Y-82344067D01*
X88520057Y-82550000D01*
X79375000Y-82550000D01*
X79375000Y-79375000D01*
X117404355Y-79375000D01*
X117424859Y-79543869D01*
X117424860Y-79543874D01*
X117485182Y-79702931D01*
X117547475Y-79793177D01*
X117581817Y-79842929D01*
X117687505Y-79936560D01*
X117709150Y-79955736D01*
X117859773Y-80034789D01*
X117859775Y-80034790D01*
X118024944Y-80075500D01*
X118195056Y-80075500D01*
X118360225Y-80034790D01*
X118439692Y-79993081D01*
X118510849Y-79955736D01*
X118510850Y-79955734D01*
X118510852Y-79955734D01*
X118638183Y-79842929D01*
X118734818Y-79702930D01*
X118795140Y-79543872D01*
X118815645Y-79375000D01*
X118795140Y-79206128D01*
X118734818Y-79047070D01*
X118638183Y-78907071D01*
X118510852Y-78794266D01*
X118510849Y-78794263D01*
X118360226Y-78715210D01*
X118195056Y-78674500D01*
X118024944Y-78674500D01*
X117859773Y-78715210D01*
X117709150Y-78794263D01*
X117592638Y-78897484D01*
X117588773Y-78900909D01*
X117581816Y-78907072D01*
X117485182Y-79047068D01*
X117424860Y-79206125D01*
X117424859Y-79206130D01*
X117404355Y-79375000D01*
X79375000Y-79375000D01*
X79375000Y-78192000D01*
X82639659Y-78192000D01*
X82658975Y-78388129D01*
X82716188Y-78576733D01*
X82809086Y-78750532D01*
X82809090Y-78750539D01*
X82934116Y-78902883D01*
X83086460Y-79027909D01*
X83086467Y-79027913D01*
X83260266Y-79120811D01*
X83260269Y-79120811D01*
X83260273Y-79120814D01*
X83448868Y-79178024D01*
X83645000Y-79197341D01*
X83841132Y-79178024D01*
X84029727Y-79120814D01*
X84203538Y-79027910D01*
X84355883Y-78902883D01*
X84480910Y-78750538D01*
X84527362Y-78663632D01*
X84573811Y-78576733D01*
X84573811Y-78576732D01*
X84573814Y-78576727D01*
X84631024Y-78388132D01*
X84650341Y-78192000D01*
X84637833Y-78065000D01*
X153426659Y-78065000D01*
X153445975Y-78261129D01*
X153503188Y-78449733D01*
X153596086Y-78623532D01*
X153596090Y-78623539D01*
X153721116Y-78775883D01*
X153873460Y-78900909D01*
X153873467Y-78900913D01*
X154047266Y-78993811D01*
X154047269Y-78993811D01*
X154047273Y-78993814D01*
X154235868Y-79051024D01*
X154432000Y-79070341D01*
X154628132Y-79051024D01*
X154816727Y-78993814D01*
X154990538Y-78900910D01*
X155142883Y-78775883D01*
X155267910Y-78623538D01*
X155360814Y-78449727D01*
X155418024Y-78261132D01*
X155437341Y-78065000D01*
X155418024Y-77868868D01*
X155360814Y-77680273D01*
X155360811Y-77680269D01*
X155360811Y-77680266D01*
X155267913Y-77506467D01*
X155267909Y-77506460D01*
X155142883Y-77354116D01*
X154990539Y-77229090D01*
X154990532Y-77229086D01*
X154816733Y-77136188D01*
X154816727Y-77136186D01*
X154628132Y-77078976D01*
X154628129Y-77078975D01*
X154432000Y-77059659D01*
X154235870Y-77078975D01*
X154047266Y-77136188D01*
X153873467Y-77229086D01*
X153873460Y-77229090D01*
X153721116Y-77354116D01*
X153596090Y-77506460D01*
X153596086Y-77506467D01*
X153503188Y-77680266D01*
X153445975Y-77868870D01*
X153426659Y-78065000D01*
X84637833Y-78065000D01*
X84631024Y-77995868D01*
X84573814Y-77807273D01*
X84573811Y-77807269D01*
X84573811Y-77807266D01*
X84480913Y-77633467D01*
X84480909Y-77633460D01*
X84355883Y-77481116D01*
X84203539Y-77356090D01*
X84203532Y-77356086D01*
X84029733Y-77263188D01*
X84029727Y-77263186D01*
X83841132Y-77205976D01*
X83841129Y-77205975D01*
X83645000Y-77186659D01*
X83448870Y-77205975D01*
X83260266Y-77263188D01*
X83086467Y-77356086D01*
X83086460Y-77356090D01*
X82934116Y-77481116D01*
X82809090Y-77633460D01*
X82809086Y-77633467D01*
X82716188Y-77807266D01*
X82658975Y-77995870D01*
X82639659Y-78192000D01*
X79375000Y-78192000D01*
X79375000Y-76962000D01*
X87686355Y-76962000D01*
X87706859Y-77130869D01*
X87706860Y-77130874D01*
X87767182Y-77289931D01*
X87812849Y-77356090D01*
X87863817Y-77429929D01*
X87921597Y-77481117D01*
X87991150Y-77542736D01*
X88141773Y-77621789D01*
X88141775Y-77621790D01*
X88306944Y-77662500D01*
X88477056Y-77662500D01*
X88642225Y-77621790D01*
X88721692Y-77580081D01*
X88792849Y-77542736D01*
X88792850Y-77542734D01*
X88792852Y-77542734D01*
X88920183Y-77429929D01*
X89016818Y-77289930D01*
X89077140Y-77130872D01*
X89097645Y-76962000D01*
X89077140Y-76793128D01*
X89016818Y-76634070D01*
X88920183Y-76494071D01*
X88815026Y-76400910D01*
X88792849Y-76381263D01*
X88642226Y-76302210D01*
X88477056Y-76261500D01*
X88306944Y-76261500D01*
X88141773Y-76302210D01*
X87991150Y-76381263D01*
X87874638Y-76484484D01*
X87864111Y-76493811D01*
X87863816Y-76494072D01*
X87767182Y-76634068D01*
X87706860Y-76793125D01*
X87706859Y-76793130D01*
X87686355Y-76962000D01*
X79375000Y-76962000D01*
X79375000Y-74872247D01*
X82644500Y-74872247D01*
X82644500Y-76511752D01*
X82656131Y-76570229D01*
X82656132Y-76570230D01*
X82700447Y-76636552D01*
X82766769Y-76680867D01*
X82766770Y-76680868D01*
X82825247Y-76692499D01*
X82825250Y-76692500D01*
X82825252Y-76692500D01*
X84464750Y-76692500D01*
X84464751Y-76692499D01*
X84479568Y-76689552D01*
X84523229Y-76680868D01*
X84523229Y-76680867D01*
X84523231Y-76680867D01*
X84589552Y-76636552D01*
X84633867Y-76570231D01*
X84633867Y-76570229D01*
X84633868Y-76570229D01*
X84645499Y-76511752D01*
X84645500Y-76511750D01*
X84645500Y-74930000D01*
X88956355Y-74930000D01*
X88976859Y-75098869D01*
X88976860Y-75098874D01*
X89037182Y-75257931D01*
X89055522Y-75284500D01*
X89133817Y-75397929D01*
X89239505Y-75491560D01*
X89261150Y-75510736D01*
X89411773Y-75589789D01*
X89411775Y-75589790D01*
X89576944Y-75630500D01*
X89747056Y-75630500D01*
X89912225Y-75589790D01*
X89959457Y-75565000D01*
X120104659Y-75565000D01*
X120123975Y-75761129D01*
X120181188Y-75949733D01*
X120274086Y-76123532D01*
X120274090Y-76123539D01*
X120399116Y-76275883D01*
X120551460Y-76400909D01*
X120551467Y-76400913D01*
X120725266Y-76493811D01*
X120725269Y-76493811D01*
X120725273Y-76493814D01*
X120913868Y-76551024D01*
X121110000Y-76570341D01*
X121306132Y-76551024D01*
X121494727Y-76493814D01*
X121668538Y-76400910D01*
X121820883Y-76275883D01*
X121945910Y-76123538D01*
X122038814Y-75949727D01*
X122096024Y-75761132D01*
X122115341Y-75565000D01*
X122096024Y-75368868D01*
X122038814Y-75180273D01*
X122038811Y-75180269D01*
X122038811Y-75180266D01*
X121945913Y-75006467D01*
X121945909Y-75006460D01*
X121820883Y-74854116D01*
X121668539Y-74729090D01*
X121668532Y-74729086D01*
X121494733Y-74636188D01*
X121494727Y-74636186D01*
X121322694Y-74584000D01*
X145804355Y-74584000D01*
X145824859Y-74752869D01*
X145824860Y-74752874D01*
X145885182Y-74911931D01*
X145947475Y-75002177D01*
X145981817Y-75051929D01*
X146087505Y-75145560D01*
X146109150Y-75164736D01*
X146259773Y-75243789D01*
X146259775Y-75243790D01*
X146424944Y-75284500D01*
X146595056Y-75284500D01*
X146760225Y-75243790D01*
X146839692Y-75202081D01*
X146910849Y-75164736D01*
X146910850Y-75164734D01*
X146910852Y-75164734D01*
X147038183Y-75051929D01*
X147134818Y-74911930D01*
X147195140Y-74752872D01*
X147196066Y-74745247D01*
X153431500Y-74745247D01*
X153431500Y-76384751D01*
X153443131Y-76443229D01*
X153443132Y-76443230D01*
X153487447Y-76509552D01*
X153553769Y-76553867D01*
X153553770Y-76553868D01*
X153612247Y-76565499D01*
X153612250Y-76565500D01*
X153612252Y-76565500D01*
X155251750Y-76565500D01*
X155251751Y-76565499D01*
X155266568Y-76562552D01*
X155310229Y-76553868D01*
X155310229Y-76553867D01*
X155310231Y-76553867D01*
X155376552Y-76509552D01*
X155420867Y-76443231D01*
X155420867Y-76443229D01*
X155420868Y-76443229D01*
X155432500Y-76384751D01*
X155432500Y-74745249D01*
X155432499Y-74745247D01*
X155420868Y-74686770D01*
X155420867Y-74686769D01*
X155376552Y-74620447D01*
X155310230Y-74576132D01*
X155310229Y-74576131D01*
X155251752Y-74564500D01*
X155251748Y-74564500D01*
X153612252Y-74564500D01*
X153612247Y-74564500D01*
X153553770Y-74576131D01*
X153553769Y-74576132D01*
X153487447Y-74620447D01*
X153443132Y-74686769D01*
X153443131Y-74686770D01*
X153431500Y-74745247D01*
X147196066Y-74745247D01*
X147215645Y-74584000D01*
X147195140Y-74415128D01*
X147134818Y-74256070D01*
X147124232Y-74240734D01*
X147100476Y-74206318D01*
X147038183Y-74116071D01*
X146943316Y-74032026D01*
X146910849Y-74003263D01*
X146760226Y-73924210D01*
X146595056Y-73883500D01*
X146424944Y-73883500D01*
X146259773Y-73924210D01*
X146109150Y-74003263D01*
X145981816Y-74116072D01*
X145885182Y-74256068D01*
X145824860Y-74415125D01*
X145824859Y-74415130D01*
X145804355Y-74584000D01*
X121322694Y-74584000D01*
X121306132Y-74578976D01*
X121306129Y-74578975D01*
X121110000Y-74559659D01*
X120913870Y-74578975D01*
X120725266Y-74636188D01*
X120551467Y-74729086D01*
X120551460Y-74729090D01*
X120399116Y-74854116D01*
X120274090Y-75006460D01*
X120274086Y-75006467D01*
X120181188Y-75180266D01*
X120123975Y-75368870D01*
X120104659Y-75565000D01*
X89959457Y-75565000D01*
X89991692Y-75548081D01*
X90062849Y-75510736D01*
X90062850Y-75510734D01*
X90062852Y-75510734D01*
X90190183Y-75397929D01*
X90286818Y-75257930D01*
X90347140Y-75098872D01*
X90367645Y-74930000D01*
X90347140Y-74761128D01*
X90286818Y-74602070D01*
X90268913Y-74576131D01*
X90252476Y-74552318D01*
X90190183Y-74462071D01*
X90062852Y-74349266D01*
X90062849Y-74349263D01*
X89912226Y-74270210D01*
X89747056Y-74229500D01*
X89576944Y-74229500D01*
X89411773Y-74270210D01*
X89261150Y-74349263D01*
X89133816Y-74462072D01*
X89037182Y-74602068D01*
X88976860Y-74761125D01*
X88976859Y-74761130D01*
X88956355Y-74930000D01*
X84645500Y-74930000D01*
X84645500Y-74872249D01*
X84645499Y-74872247D01*
X84633868Y-74813770D01*
X84633867Y-74813769D01*
X84589552Y-74747447D01*
X84523230Y-74703132D01*
X84523229Y-74703131D01*
X84464752Y-74691500D01*
X84464748Y-74691500D01*
X82825252Y-74691500D01*
X82825247Y-74691500D01*
X82766770Y-74703131D01*
X82766769Y-74703132D01*
X82700447Y-74747447D01*
X82656132Y-74813769D01*
X82656131Y-74813770D01*
X82644500Y-74872247D01*
X79375000Y-74872247D01*
X79375000Y-71080000D01*
X94958659Y-71080000D01*
X94977975Y-71276129D01*
X95035188Y-71464733D01*
X95128086Y-71638532D01*
X95128090Y-71638539D01*
X95253116Y-71790883D01*
X95405460Y-71915909D01*
X95405467Y-71915913D01*
X95579266Y-72008811D01*
X95579269Y-72008811D01*
X95579273Y-72008814D01*
X95767868Y-72066024D01*
X95964000Y-72085341D01*
X96160132Y-72066024D01*
X96348727Y-72008814D01*
X96522538Y-71915910D01*
X96674883Y-71790883D01*
X96704332Y-71755000D01*
X99624355Y-71755000D01*
X99644859Y-71923869D01*
X99644860Y-71923874D01*
X99705182Y-72082931D01*
X99717671Y-72101024D01*
X99801817Y-72222929D01*
X99907505Y-72316560D01*
X99929150Y-72335736D01*
X100079773Y-72414789D01*
X100079775Y-72414790D01*
X100244944Y-72455500D01*
X100415056Y-72455500D01*
X100580225Y-72414790D01*
X100659692Y-72373081D01*
X100730849Y-72335736D01*
X100730850Y-72335734D01*
X100730852Y-72335734D01*
X100832991Y-72245247D01*
X120109500Y-72245247D01*
X120109500Y-73884752D01*
X120121131Y-73943229D01*
X120121132Y-73943230D01*
X120165447Y-74009552D01*
X120231769Y-74053867D01*
X120231770Y-74053868D01*
X120290247Y-74065499D01*
X120290250Y-74065500D01*
X120290252Y-74065500D01*
X121929750Y-74065500D01*
X121929751Y-74065499D01*
X121944568Y-74062552D01*
X121988229Y-74053868D01*
X121988229Y-74053867D01*
X121988231Y-74053867D01*
X122054552Y-74009552D01*
X122098867Y-73943231D01*
X122098867Y-73943229D01*
X122098868Y-73943229D01*
X122110499Y-73884752D01*
X122110500Y-73884750D01*
X122110500Y-73660000D01*
X134549355Y-73660000D01*
X134569859Y-73828869D01*
X134569860Y-73828874D01*
X134630182Y-73987931D01*
X134675695Y-74053867D01*
X134726817Y-74127929D01*
X134832505Y-74221560D01*
X134854150Y-74240736D01*
X135004773Y-74319789D01*
X135004775Y-74319790D01*
X135169944Y-74360500D01*
X135340056Y-74360500D01*
X135505225Y-74319790D01*
X135626636Y-74256068D01*
X135655849Y-74240736D01*
X135655850Y-74240734D01*
X135655852Y-74240734D01*
X135783183Y-74127929D01*
X135879818Y-73987930D01*
X135940140Y-73828872D01*
X135960645Y-73660000D01*
X135940140Y-73491128D01*
X135879818Y-73332070D01*
X135783183Y-73192071D01*
X135655852Y-73079266D01*
X135655849Y-73079263D01*
X135505226Y-73000210D01*
X135340056Y-72959500D01*
X135169944Y-72959500D01*
X135004773Y-73000210D01*
X134854150Y-73079263D01*
X134726816Y-73192072D01*
X134630182Y-73332068D01*
X134569860Y-73491125D01*
X134569859Y-73491130D01*
X134549355Y-73660000D01*
X122110500Y-73660000D01*
X122110500Y-72245249D01*
X122110499Y-72245247D01*
X122098868Y-72186770D01*
X122098867Y-72186769D01*
X122054552Y-72120447D01*
X121988230Y-72076132D01*
X121988229Y-72076131D01*
X121929752Y-72064500D01*
X121929748Y-72064500D01*
X120290252Y-72064500D01*
X120290247Y-72064500D01*
X120231770Y-72076131D01*
X120231769Y-72076132D01*
X120165447Y-72120447D01*
X120121132Y-72186769D01*
X120121131Y-72186770D01*
X120109500Y-72245247D01*
X100832991Y-72245247D01*
X100858183Y-72222929D01*
X100954818Y-72082930D01*
X101015140Y-71923872D01*
X101035645Y-71755000D01*
X101015140Y-71586128D01*
X100954818Y-71427070D01*
X100858183Y-71287071D01*
X100730852Y-71174266D01*
X100730849Y-71174263D01*
X100580226Y-71095210D01*
X100415056Y-71054500D01*
X100244944Y-71054500D01*
X100079773Y-71095210D01*
X99929150Y-71174263D01*
X99801816Y-71287072D01*
X99705182Y-71427068D01*
X99644860Y-71586125D01*
X99644859Y-71586130D01*
X99624355Y-71755000D01*
X96704332Y-71755000D01*
X96799910Y-71638538D01*
X96892814Y-71464727D01*
X96950024Y-71276132D01*
X96969341Y-71080000D01*
X96950024Y-70883868D01*
X96892814Y-70695273D01*
X96892811Y-70695269D01*
X96892811Y-70695266D01*
X96799913Y-70521467D01*
X96799909Y-70521460D01*
X96674883Y-70369116D01*
X96522539Y-70244090D01*
X96522532Y-70244086D01*
X96348733Y-70151188D01*
X96348727Y-70151186D01*
X96211832Y-70109659D01*
X96160129Y-70093975D01*
X95964000Y-70074659D01*
X95767870Y-70093975D01*
X95579266Y-70151188D01*
X95405467Y-70244086D01*
X95405460Y-70244090D01*
X95253116Y-70369116D01*
X95128090Y-70521460D01*
X95128086Y-70521467D01*
X95035188Y-70695266D01*
X94977975Y-70883870D01*
X94958659Y-71080000D01*
X79375000Y-71080000D01*
X79375000Y-69805000D01*
X107404659Y-69805000D01*
X107423975Y-70001129D01*
X107423976Y-70001132D01*
X107480112Y-70186188D01*
X107481188Y-70189733D01*
X107574086Y-70363532D01*
X107574090Y-70363539D01*
X107699116Y-70515883D01*
X107851460Y-70640909D01*
X107851467Y-70640913D01*
X108025266Y-70733811D01*
X108025269Y-70733811D01*
X108025273Y-70733814D01*
X108213868Y-70791024D01*
X108410000Y-70810341D01*
X108606132Y-70791024D01*
X108794727Y-70733814D01*
X108968538Y-70640910D01*
X109120883Y-70515883D01*
X109245910Y-70363538D01*
X109298045Y-70266000D01*
X110498355Y-70266000D01*
X110518859Y-70434869D01*
X110518860Y-70434874D01*
X110579182Y-70593931D01*
X110641475Y-70684177D01*
X110675817Y-70733929D01*
X110762068Y-70810340D01*
X110803150Y-70846736D01*
X110940586Y-70918868D01*
X110953775Y-70925790D01*
X111118944Y-70966500D01*
X111289056Y-70966500D01*
X111454225Y-70925790D01*
X111534100Y-70883868D01*
X111604849Y-70846736D01*
X111604850Y-70846734D01*
X111604852Y-70846734D01*
X111732183Y-70733929D01*
X111828818Y-70593930D01*
X111889140Y-70434872D01*
X111909645Y-70266000D01*
X111889140Y-70097128D01*
X111828818Y-69938070D01*
X111732183Y-69798071D01*
X111604852Y-69685266D01*
X111604849Y-69685263D01*
X111454226Y-69606210D01*
X111289056Y-69565500D01*
X111118944Y-69565500D01*
X110953773Y-69606210D01*
X110803150Y-69685263D01*
X110675816Y-69798072D01*
X110579182Y-69938068D01*
X110518860Y-70097125D01*
X110518859Y-70097130D01*
X110498355Y-70266000D01*
X109298045Y-70266000D01*
X109309756Y-70244090D01*
X109338811Y-70189733D01*
X109338811Y-70189732D01*
X109338814Y-70189727D01*
X109396024Y-70001132D01*
X109415341Y-69805000D01*
X109396024Y-69608868D01*
X109338814Y-69420273D01*
X109338811Y-69420269D01*
X109338811Y-69420266D01*
X109245913Y-69246467D01*
X109245909Y-69246460D01*
X109120883Y-69094116D01*
X108968539Y-68969090D01*
X108968532Y-68969086D01*
X108794733Y-68876188D01*
X108794727Y-68876186D01*
X108606132Y-68818976D01*
X108606129Y-68818975D01*
X108410000Y-68799659D01*
X108213870Y-68818975D01*
X108025266Y-68876188D01*
X107851467Y-68969086D01*
X107851460Y-68969090D01*
X107699116Y-69094116D01*
X107574090Y-69246460D01*
X107574086Y-69246467D01*
X107481188Y-69420266D01*
X107481186Y-69420273D01*
X107424783Y-69606210D01*
X107423976Y-69608869D01*
X107404659Y-69805000D01*
X79375000Y-69805000D01*
X79375000Y-67945000D01*
X82479355Y-67945000D01*
X82499859Y-68113869D01*
X82499860Y-68113874D01*
X82560182Y-68272931D01*
X82567023Y-68282841D01*
X82656817Y-68412929D01*
X82711881Y-68461711D01*
X82784150Y-68525736D01*
X82898368Y-68585682D01*
X82934775Y-68604790D01*
X83099944Y-68645500D01*
X83270056Y-68645500D01*
X83435225Y-68604790D01*
X83554662Y-68542104D01*
X83585849Y-68525736D01*
X83585850Y-68525734D01*
X83585852Y-68525734D01*
X83713183Y-68412929D01*
X83809818Y-68272930D01*
X83870140Y-68113872D01*
X83890645Y-67945000D01*
X83870140Y-67776128D01*
X83864117Y-67760247D01*
X94963500Y-67760247D01*
X94963500Y-69399752D01*
X94975131Y-69458229D01*
X94975132Y-69458230D01*
X95019447Y-69524552D01*
X95085769Y-69568867D01*
X95085770Y-69568868D01*
X95144247Y-69580499D01*
X95144250Y-69580500D01*
X95144252Y-69580500D01*
X96783750Y-69580500D01*
X96783751Y-69580499D01*
X96798568Y-69577552D01*
X96842229Y-69568868D01*
X96842229Y-69568867D01*
X96842231Y-69568867D01*
X96908552Y-69524552D01*
X96952867Y-69458231D01*
X96952867Y-69458229D01*
X96952868Y-69458229D01*
X96964499Y-69399752D01*
X96964500Y-69399750D01*
X96964500Y-67979998D01*
X99549318Y-67979998D01*
X99549318Y-67980001D01*
X99569955Y-68136760D01*
X99569956Y-68136762D01*
X99630464Y-68282841D01*
X99726718Y-68408282D01*
X99852159Y-68504536D01*
X99998238Y-68565044D01*
X100076619Y-68575363D01*
X100154999Y-68585682D01*
X100155000Y-68585682D01*
X100155001Y-68585682D01*
X100207254Y-68578802D01*
X100311762Y-68565044D01*
X100354773Y-68547227D01*
X100382181Y-68539419D01*
X100390781Y-68538011D01*
X100984539Y-68315392D01*
X101028071Y-68307500D01*
X105826884Y-68307500D01*
X110076929Y-68307500D01*
X110120461Y-68315393D01*
X110714209Y-68538008D01*
X110714213Y-68538009D01*
X110714218Y-68538011D01*
X110724280Y-68539753D01*
X110750576Y-68547372D01*
X110793238Y-68565044D01*
X110931762Y-68583280D01*
X110949999Y-68585682D01*
X110950000Y-68585682D01*
X110950001Y-68585682D01*
X111002254Y-68578802D01*
X111106762Y-68565044D01*
X111252841Y-68504536D01*
X111378282Y-68408282D01*
X111474536Y-68282841D01*
X111535044Y-68136762D01*
X111555682Y-67980000D01*
X111535044Y-67823238D01*
X111474536Y-67677159D01*
X111378282Y-67551718D01*
X111252841Y-67455464D01*
X111168616Y-67420577D01*
X111106762Y-67394956D01*
X111106760Y-67394955D01*
X110950001Y-67374318D01*
X110949999Y-67374318D01*
X110793238Y-67394956D01*
X110750227Y-67412771D01*
X110722830Y-67420577D01*
X110714221Y-67421987D01*
X110120455Y-67644608D01*
X110076923Y-67652500D01*
X106319500Y-67652500D01*
X106252461Y-67632815D01*
X106206706Y-67580011D01*
X106195500Y-67528500D01*
X106195500Y-67405242D01*
X106215185Y-67338203D01*
X106261875Y-67295445D01*
X106270852Y-67290734D01*
X106398183Y-67177929D01*
X106494818Y-67037930D01*
X106555140Y-66878872D01*
X106575645Y-66710000D01*
X106555140Y-66541128D01*
X106494818Y-66382070D01*
X106398183Y-66242071D01*
X106270852Y-66129266D01*
X106270849Y-66129263D01*
X106120226Y-66050210D01*
X105955056Y-66009500D01*
X105784944Y-66009500D01*
X105619773Y-66050210D01*
X105469150Y-66129263D01*
X105341816Y-66242072D01*
X105245182Y-66382068D01*
X105184860Y-66541125D01*
X105184859Y-66541130D01*
X105164355Y-66710000D01*
X105184859Y-66878869D01*
X105184860Y-66878874D01*
X105245182Y-67037931D01*
X105307475Y-67128177D01*
X105341817Y-67177929D01*
X105469148Y-67290734D01*
X105478124Y-67295445D01*
X105528337Y-67344027D01*
X105544500Y-67405242D01*
X105544500Y-67528500D01*
X105524815Y-67595539D01*
X105472011Y-67641294D01*
X105420500Y-67652500D01*
X101028077Y-67652500D01*
X100984545Y-67644608D01*
X100853669Y-67595539D01*
X100390779Y-67421988D01*
X100390773Y-67421987D01*
X100390769Y-67421985D01*
X100380711Y-67420244D01*
X100354419Y-67412624D01*
X100311764Y-67394956D01*
X100311765Y-67394956D01*
X100155001Y-67374318D01*
X100154999Y-67374318D01*
X99998239Y-67394955D01*
X99998237Y-67394956D01*
X99852160Y-67455463D01*
X99726718Y-67551718D01*
X99630463Y-67677160D01*
X99569956Y-67823237D01*
X99569955Y-67823239D01*
X99549318Y-67979998D01*
X96964500Y-67979998D01*
X96964500Y-67760249D01*
X96964499Y-67760247D01*
X96952868Y-67701770D01*
X96952867Y-67701769D01*
X96908552Y-67635447D01*
X96842230Y-67591132D01*
X96842229Y-67591131D01*
X96783752Y-67579500D01*
X96783748Y-67579500D01*
X95144252Y-67579500D01*
X95144247Y-67579500D01*
X95085770Y-67591131D01*
X95085769Y-67591132D01*
X95019447Y-67635447D01*
X94975132Y-67701769D01*
X94975131Y-67701770D01*
X94963500Y-67760247D01*
X83864117Y-67760247D01*
X83809818Y-67617070D01*
X83791913Y-67591131D01*
X83748682Y-67528500D01*
X83713183Y-67477071D01*
X83618316Y-67393026D01*
X83585849Y-67364263D01*
X83435226Y-67285210D01*
X83270056Y-67244500D01*
X83099944Y-67244500D01*
X82934773Y-67285210D01*
X82784150Y-67364263D01*
X82656816Y-67477072D01*
X82560182Y-67617068D01*
X82499860Y-67776125D01*
X82499859Y-67776130D01*
X82479355Y-67945000D01*
X79375000Y-67945000D01*
X79375000Y-65440000D01*
X92718355Y-65440000D01*
X92738859Y-65608869D01*
X92738860Y-65608874D01*
X92799182Y-65767931D01*
X92852925Y-65845790D01*
X92895817Y-65907929D01*
X92974768Y-65977873D01*
X93023150Y-66020736D01*
X93173773Y-66099789D01*
X93173775Y-66099790D01*
X93338944Y-66140500D01*
X93509056Y-66140500D01*
X93674225Y-66099790D01*
X93777318Y-66045682D01*
X93824849Y-66020736D01*
X93824850Y-66020734D01*
X93824852Y-66020734D01*
X93952183Y-65907929D01*
X94048818Y-65767930D01*
X94109140Y-65608872D01*
X94129645Y-65440000D01*
X94109140Y-65271128D01*
X94048818Y-65112070D01*
X94043667Y-65104608D01*
X93983285Y-65017130D01*
X93952183Y-64972071D01*
X93824852Y-64859266D01*
X93824849Y-64859263D01*
X93721459Y-64805000D01*
X107404659Y-64805000D01*
X107423975Y-65001129D01*
X107423976Y-65001132D01*
X107480055Y-65186000D01*
X107481188Y-65189733D01*
X107574086Y-65363532D01*
X107574090Y-65363539D01*
X107699116Y-65515883D01*
X107851460Y-65640909D01*
X107851467Y-65640913D01*
X108025266Y-65733811D01*
X108025269Y-65733811D01*
X108025273Y-65733814D01*
X108213868Y-65791024D01*
X108410000Y-65810341D01*
X108606132Y-65791024D01*
X108794727Y-65733814D01*
X108968538Y-65640910D01*
X109120883Y-65515883D01*
X109245910Y-65363538D01*
X109338814Y-65189727D01*
X109396024Y-65001132D01*
X109415341Y-64805000D01*
X109411894Y-64769998D01*
X110519318Y-64769998D01*
X110519318Y-64770001D01*
X110539955Y-64926760D01*
X110539956Y-64926762D01*
X110600464Y-65072841D01*
X110696718Y-65198282D01*
X110822159Y-65294536D01*
X110968238Y-65355044D01*
X110999047Y-65359100D01*
X111124999Y-65375682D01*
X111124999Y-65375681D01*
X111125000Y-65375682D01*
X111190318Y-65367082D01*
X111259353Y-65377847D01*
X111294185Y-65402340D01*
X112666181Y-66774336D01*
X112699666Y-66835659D01*
X112702500Y-66862017D01*
X112702500Y-70553234D01*
X112682815Y-70620273D01*
X112653988Y-70651608D01*
X112601721Y-70691715D01*
X112601719Y-70691716D01*
X112601718Y-70691718D01*
X112529527Y-70785798D01*
X112505463Y-70817160D01*
X112444956Y-70963237D01*
X112444955Y-70963239D01*
X112424318Y-71119998D01*
X112424318Y-71120001D01*
X112444955Y-71276760D01*
X112444956Y-71276762D01*
X112454610Y-71300070D01*
X112505464Y-71422841D01*
X112601718Y-71548282D01*
X112727159Y-71644536D01*
X112873238Y-71705044D01*
X112951619Y-71715363D01*
X113029999Y-71725682D01*
X113030000Y-71725682D01*
X113030001Y-71725682D01*
X113082254Y-71718802D01*
X113186762Y-71705044D01*
X113332841Y-71644536D01*
X113458282Y-71548282D01*
X113554536Y-71422841D01*
X113615044Y-71276762D01*
X113635682Y-71120000D01*
X113635024Y-71115000D01*
X144234659Y-71115000D01*
X144253975Y-71311129D01*
X144253976Y-71311132D01*
X144298869Y-71459125D01*
X144311188Y-71499733D01*
X144404086Y-71673532D01*
X144404090Y-71673539D01*
X144529116Y-71825883D01*
X144681460Y-71950909D01*
X144681467Y-71950913D01*
X144855266Y-72043811D01*
X144855269Y-72043811D01*
X144855273Y-72043814D01*
X145043868Y-72101024D01*
X145240000Y-72120341D01*
X145436132Y-72101024D01*
X145624727Y-72043814D01*
X145798538Y-71950910D01*
X145950883Y-71825883D01*
X146075910Y-71673538D01*
X146100251Y-71628000D01*
X156774355Y-71628000D01*
X156794859Y-71796869D01*
X156794860Y-71796874D01*
X156855182Y-71955931D01*
X156891683Y-72008811D01*
X156951817Y-72095929D01*
X157054355Y-72186769D01*
X157079150Y-72208736D01*
X157229773Y-72287789D01*
X157229775Y-72287790D01*
X157394944Y-72328500D01*
X157565056Y-72328500D01*
X157730225Y-72287790D01*
X157853810Y-72222927D01*
X157880849Y-72208736D01*
X157880850Y-72208734D01*
X157880852Y-72208734D01*
X158008183Y-72095929D01*
X158104818Y-71955930D01*
X158165140Y-71796872D01*
X158185645Y-71628000D01*
X158165140Y-71459128D01*
X158104818Y-71300070D01*
X158095845Y-71287071D01*
X158017979Y-71174263D01*
X158008183Y-71160071D01*
X157880852Y-71047266D01*
X157880849Y-71047263D01*
X157730226Y-70968210D01*
X157565056Y-70927500D01*
X157394944Y-70927500D01*
X157229773Y-70968210D01*
X157079150Y-71047263D01*
X156951816Y-71160072D01*
X156855182Y-71300068D01*
X156794860Y-71459125D01*
X156794859Y-71459130D01*
X156774355Y-71628000D01*
X146100251Y-71628000D01*
X146168814Y-71499727D01*
X146226024Y-71311132D01*
X146245341Y-71115000D01*
X146226024Y-70918868D01*
X146168814Y-70730273D01*
X146168811Y-70730269D01*
X146168811Y-70730266D01*
X146075913Y-70556467D01*
X146075909Y-70556460D01*
X145950883Y-70404116D01*
X145798539Y-70279090D01*
X145798532Y-70279086D01*
X145624733Y-70186188D01*
X145624727Y-70186186D01*
X145451148Y-70133531D01*
X145436129Y-70128975D01*
X145240000Y-70109659D01*
X145043870Y-70128975D01*
X144855266Y-70186188D01*
X144681467Y-70279086D01*
X144681460Y-70279090D01*
X144529116Y-70404116D01*
X144404090Y-70556460D01*
X144404086Y-70556467D01*
X144311188Y-70730266D01*
X144253975Y-70918870D01*
X144234659Y-71115000D01*
X113635024Y-71115000D01*
X113632418Y-71095210D01*
X113621923Y-71015492D01*
X113615044Y-70963238D01*
X113554536Y-70817159D01*
X113458282Y-70691718D01*
X113456216Y-70690132D01*
X113406012Y-70651608D01*
X113364810Y-70595180D01*
X113357500Y-70553234D01*
X113357500Y-69215000D01*
X119309355Y-69215000D01*
X119329859Y-69383869D01*
X119329860Y-69383874D01*
X119390182Y-69542931D01*
X119432244Y-69603867D01*
X119486817Y-69682929D01*
X119592505Y-69776560D01*
X119614150Y-69795736D01*
X119764773Y-69874789D01*
X119764775Y-69874790D01*
X119929944Y-69915500D01*
X120100056Y-69915500D01*
X120265225Y-69874790D01*
X120344692Y-69833081D01*
X120415849Y-69795736D01*
X120415850Y-69795734D01*
X120415852Y-69795734D01*
X120543183Y-69682929D01*
X120639818Y-69542930D01*
X120700140Y-69383872D01*
X120710613Y-69297621D01*
X131709659Y-69297621D01*
X131728975Y-69493750D01*
X131728976Y-69493753D01*
X131765907Y-69615499D01*
X131786188Y-69682354D01*
X131879086Y-69856153D01*
X131879090Y-69856160D01*
X132004116Y-70008504D01*
X132156460Y-70133530D01*
X132156467Y-70133534D01*
X132330266Y-70226432D01*
X132330269Y-70226432D01*
X132330273Y-70226435D01*
X132518868Y-70283645D01*
X132715000Y-70302962D01*
X132911132Y-70283645D01*
X133099727Y-70226435D01*
X133273538Y-70133531D01*
X133425883Y-70008504D01*
X133550910Y-69856159D01*
X133642256Y-69685263D01*
X133643811Y-69682354D01*
X133643811Y-69682353D01*
X133643814Y-69682348D01*
X133701024Y-69493753D01*
X133720341Y-69297621D01*
X133701024Y-69101489D01*
X133643814Y-68912894D01*
X133643811Y-68912890D01*
X133643811Y-68912887D01*
X133550913Y-68739088D01*
X133550909Y-68739081D01*
X133425883Y-68586737D01*
X133273539Y-68461711D01*
X133273532Y-68461707D01*
X133099733Y-68368809D01*
X133099727Y-68368807D01*
X132911132Y-68311597D01*
X132911129Y-68311596D01*
X132715000Y-68292280D01*
X132518870Y-68311596D01*
X132330266Y-68368809D01*
X132156467Y-68461707D01*
X132156460Y-68461711D01*
X132004116Y-68586737D01*
X131879090Y-68739081D01*
X131879086Y-68739088D01*
X131786188Y-68912887D01*
X131728975Y-69101491D01*
X131709659Y-69297621D01*
X120710613Y-69297621D01*
X120720645Y-69215000D01*
X120700140Y-69046128D01*
X120639818Y-68887070D01*
X120632305Y-68876186D01*
X120579482Y-68799659D01*
X120543183Y-68747071D01*
X120415852Y-68634266D01*
X120415849Y-68634263D01*
X120265226Y-68555210D01*
X120100056Y-68514500D01*
X119929944Y-68514500D01*
X119764773Y-68555210D01*
X119614150Y-68634263D01*
X119486816Y-68747072D01*
X119390182Y-68887068D01*
X119329860Y-69046125D01*
X119329859Y-69046130D01*
X119309355Y-69215000D01*
X113357500Y-69215000D01*
X113357500Y-66631885D01*
X113357500Y-66631884D01*
X113335181Y-66548590D01*
X113292065Y-66473910D01*
X113231090Y-66412935D01*
X112796023Y-65977868D01*
X131714500Y-65977868D01*
X131714500Y-67617373D01*
X131726131Y-67675850D01*
X131726132Y-67675851D01*
X131770447Y-67742173D01*
X131836769Y-67786488D01*
X131836770Y-67786489D01*
X131895247Y-67798120D01*
X131895250Y-67798121D01*
X131895252Y-67798121D01*
X133534750Y-67798121D01*
X133534751Y-67798120D01*
X133549196Y-67795247D01*
X144239500Y-67795247D01*
X144239500Y-69434752D01*
X144251131Y-69493229D01*
X144251132Y-69493230D01*
X144295447Y-69559552D01*
X144361769Y-69603867D01*
X144361770Y-69603868D01*
X144420247Y-69615499D01*
X144420250Y-69615500D01*
X144420252Y-69615500D01*
X146059750Y-69615500D01*
X146059751Y-69615499D01*
X146074568Y-69612552D01*
X146118229Y-69603868D01*
X146118229Y-69603867D01*
X146118231Y-69603867D01*
X146184552Y-69559552D01*
X146228867Y-69493231D01*
X146228867Y-69493229D01*
X146228868Y-69493229D01*
X146240499Y-69434752D01*
X146240500Y-69434750D01*
X146240500Y-67795249D01*
X146240499Y-67795247D01*
X146228868Y-67736770D01*
X146228867Y-67736769D01*
X146184552Y-67670447D01*
X146118230Y-67626132D01*
X146118229Y-67626131D01*
X146059752Y-67614500D01*
X146059748Y-67614500D01*
X144420252Y-67614500D01*
X144420247Y-67614500D01*
X144361770Y-67626131D01*
X144361769Y-67626132D01*
X144295447Y-67670447D01*
X144251132Y-67736769D01*
X144251131Y-67736770D01*
X144239500Y-67795247D01*
X133549196Y-67795247D01*
X133549568Y-67795173D01*
X133593229Y-67786489D01*
X133593229Y-67786488D01*
X133593231Y-67786488D01*
X133659552Y-67742173D01*
X133703867Y-67675852D01*
X133703867Y-67675850D01*
X133703868Y-67675850D01*
X133715499Y-67617373D01*
X133715500Y-67617371D01*
X133715500Y-65977870D01*
X133715499Y-65977868D01*
X133703868Y-65919391D01*
X133703867Y-65919390D01*
X133659552Y-65853068D01*
X133593230Y-65808753D01*
X133593229Y-65808752D01*
X133534752Y-65797121D01*
X133534748Y-65797121D01*
X131895252Y-65797121D01*
X131895247Y-65797121D01*
X131836770Y-65808752D01*
X131836769Y-65808753D01*
X131770447Y-65853068D01*
X131726132Y-65919390D01*
X131726131Y-65919391D01*
X131714500Y-65977868D01*
X112796023Y-65977868D01*
X112004155Y-65186000D01*
X146058355Y-65186000D01*
X146078859Y-65354869D01*
X146078860Y-65354874D01*
X146139182Y-65513931D01*
X146196356Y-65596760D01*
X146235817Y-65653929D01*
X146325989Y-65733814D01*
X146363150Y-65766736D01*
X146513773Y-65845789D01*
X146513775Y-65845790D01*
X146678944Y-65886500D01*
X146849056Y-65886500D01*
X147014225Y-65845790D01*
X147148354Y-65775393D01*
X147164849Y-65766736D01*
X147164850Y-65766734D01*
X147164852Y-65766734D01*
X147292183Y-65653929D01*
X147388818Y-65513930D01*
X147416856Y-65439998D01*
X147809318Y-65439998D01*
X147809318Y-65440001D01*
X147829955Y-65596760D01*
X147829956Y-65596762D01*
X147886723Y-65733811D01*
X147890464Y-65742841D01*
X147986718Y-65868282D01*
X148112159Y-65964536D01*
X148258238Y-66025044D01*
X148336619Y-66035363D01*
X148414999Y-66045682D01*
X148415000Y-66045682D01*
X148415001Y-66045682D01*
X148467254Y-66038802D01*
X148571762Y-66025044D01*
X148614773Y-66007227D01*
X148642181Y-65999419D01*
X148650781Y-65998011D01*
X149244539Y-65775392D01*
X149288071Y-65767500D01*
X152621929Y-65767500D01*
X152665461Y-65775393D01*
X153259209Y-65998008D01*
X153259213Y-65998009D01*
X153259218Y-65998011D01*
X153269280Y-65999753D01*
X153295576Y-66007372D01*
X153338238Y-66025044D01*
X153476762Y-66043280D01*
X153494999Y-66045682D01*
X153495000Y-66045682D01*
X153495001Y-66045682D01*
X153547254Y-66038802D01*
X153651762Y-66025044D01*
X153797841Y-65964536D01*
X153923282Y-65868282D01*
X154019536Y-65742841D01*
X154080044Y-65596762D01*
X154100682Y-65440000D01*
X154092499Y-65377847D01*
X154080044Y-65283239D01*
X154080044Y-65283238D01*
X154019536Y-65137159D01*
X153923282Y-65011718D01*
X153797841Y-64915464D01*
X153713616Y-64880577D01*
X153651762Y-64854956D01*
X153651760Y-64854955D01*
X153495001Y-64834318D01*
X153494999Y-64834318D01*
X153338238Y-64854956D01*
X153295227Y-64872771D01*
X153267830Y-64880577D01*
X153259221Y-64881987D01*
X152665455Y-65104608D01*
X152621923Y-65112500D01*
X149288077Y-65112500D01*
X149244545Y-65104608D01*
X149187926Y-65083380D01*
X148650779Y-64881988D01*
X148650773Y-64881987D01*
X148650769Y-64881985D01*
X148640711Y-64880244D01*
X148614419Y-64872624D01*
X148571764Y-64854956D01*
X148571765Y-64854956D01*
X148415001Y-64834318D01*
X148414999Y-64834318D01*
X148258239Y-64854955D01*
X148258237Y-64854956D01*
X148112160Y-64915463D01*
X147986718Y-65011718D01*
X147890463Y-65137160D01*
X147829956Y-65283237D01*
X147829955Y-65283239D01*
X147809318Y-65439998D01*
X147416856Y-65439998D01*
X147449140Y-65354872D01*
X147469645Y-65186000D01*
X147449140Y-65017128D01*
X147443072Y-65001129D01*
X147397888Y-64881987D01*
X147388818Y-64858070D01*
X147292183Y-64718071D01*
X147173851Y-64613238D01*
X147164849Y-64605263D01*
X147014226Y-64526210D01*
X146849056Y-64485500D01*
X146678944Y-64485500D01*
X146513773Y-64526210D01*
X146363150Y-64605263D01*
X146235816Y-64718072D01*
X146139182Y-64858068D01*
X146078860Y-65017125D01*
X146078859Y-65017130D01*
X146058355Y-65186000D01*
X112004155Y-65186000D01*
X111757340Y-64939185D01*
X111723855Y-64877862D01*
X111722082Y-64835317D01*
X111730682Y-64769999D01*
X111730682Y-64769998D01*
X111710044Y-64613239D01*
X111710044Y-64613238D01*
X111649536Y-64467159D01*
X111553282Y-64341718D01*
X111427841Y-64245464D01*
X111319288Y-64200500D01*
X111281762Y-64184956D01*
X111281760Y-64184955D01*
X111125001Y-64164318D01*
X111124999Y-64164318D01*
X110968239Y-64184955D01*
X110968237Y-64184956D01*
X110822160Y-64245463D01*
X110696718Y-64341718D01*
X110600463Y-64467160D01*
X110539956Y-64613237D01*
X110539955Y-64613239D01*
X110519318Y-64769998D01*
X109411894Y-64769998D01*
X109396024Y-64608868D01*
X109338814Y-64420273D01*
X109338811Y-64420269D01*
X109338811Y-64420266D01*
X109245913Y-64246467D01*
X109245909Y-64246460D01*
X109120883Y-64094116D01*
X108968539Y-63969090D01*
X108968532Y-63969086D01*
X108794733Y-63876188D01*
X108794727Y-63876186D01*
X108606132Y-63818976D01*
X108606129Y-63818975D01*
X108410000Y-63799659D01*
X108213870Y-63818975D01*
X108025266Y-63876188D01*
X107851467Y-63969086D01*
X107851460Y-63969090D01*
X107699116Y-64094116D01*
X107574090Y-64246460D01*
X107574086Y-64246467D01*
X107481188Y-64420266D01*
X107423975Y-64608870D01*
X107404659Y-64805000D01*
X93721459Y-64805000D01*
X93674226Y-64780210D01*
X93509056Y-64739500D01*
X93338944Y-64739500D01*
X93173773Y-64780210D01*
X93023150Y-64859263D01*
X92895816Y-64972072D01*
X92799182Y-65112068D01*
X92738860Y-65271125D01*
X92738859Y-65271130D01*
X92718355Y-65440000D01*
X79375000Y-65440000D01*
X79375000Y-63246000D01*
X82639659Y-63246000D01*
X82658975Y-63442129D01*
X82716188Y-63630733D01*
X82809086Y-63804532D01*
X82809090Y-63804539D01*
X82934116Y-63956883D01*
X83086460Y-64081909D01*
X83086467Y-64081913D01*
X83260266Y-64174811D01*
X83260269Y-64174811D01*
X83260273Y-64174814D01*
X83448868Y-64232024D01*
X83645000Y-64251341D01*
X83841132Y-64232024D01*
X84029727Y-64174814D01*
X84093584Y-64140682D01*
X84132196Y-64120043D01*
X84203538Y-64081910D01*
X84355883Y-63956883D01*
X84480910Y-63804538D01*
X84573814Y-63630727D01*
X84613470Y-63500000D01*
X86162355Y-63500000D01*
X86182859Y-63668869D01*
X86182860Y-63668874D01*
X86243182Y-63827931D01*
X86250023Y-63837841D01*
X86339817Y-63967929D01*
X86443220Y-64059536D01*
X86467150Y-64080736D01*
X86581368Y-64140682D01*
X86617775Y-64159790D01*
X86782944Y-64200500D01*
X86953056Y-64200500D01*
X87118225Y-64159790D01*
X87237662Y-64097104D01*
X87268849Y-64080736D01*
X87268850Y-64080734D01*
X87268852Y-64080734D01*
X87396183Y-63967929D01*
X87492818Y-63827930D01*
X87553140Y-63668872D01*
X87573645Y-63500000D01*
X99624355Y-63500000D01*
X99644859Y-63668869D01*
X99644860Y-63668874D01*
X99705182Y-63827931D01*
X99712023Y-63837841D01*
X99801817Y-63967929D01*
X99905220Y-64059536D01*
X99929150Y-64080736D01*
X100043368Y-64140682D01*
X100079775Y-64159790D01*
X100244944Y-64200500D01*
X100415056Y-64200500D01*
X100580225Y-64159790D01*
X100699662Y-64097104D01*
X100730849Y-64080736D01*
X100730850Y-64080734D01*
X100730852Y-64080734D01*
X100858183Y-63967929D01*
X100954818Y-63827930D01*
X101015140Y-63668872D01*
X101031395Y-63534998D01*
X116488318Y-63534998D01*
X116488318Y-63535001D01*
X116508955Y-63691760D01*
X116508956Y-63691762D01*
X116569464Y-63837841D01*
X116665718Y-63963282D01*
X116791159Y-64059536D01*
X116937238Y-64120044D01*
X117015619Y-64130363D01*
X117093999Y-64140682D01*
X117094000Y-64140682D01*
X117094001Y-64140682D01*
X117146254Y-64133802D01*
X117250762Y-64120044D01*
X117293773Y-64102227D01*
X117321181Y-64094419D01*
X117329781Y-64093011D01*
X117923539Y-63870392D01*
X117967071Y-63862500D01*
X151986929Y-63862500D01*
X152030461Y-63870393D01*
X152624209Y-64093008D01*
X152624213Y-64093009D01*
X152624218Y-64093011D01*
X152634280Y-64094753D01*
X152660576Y-64102372D01*
X152703238Y-64120044D01*
X152841762Y-64138280D01*
X152859999Y-64140682D01*
X152860000Y-64140682D01*
X152860001Y-64140682D01*
X152912254Y-64133802D01*
X153016762Y-64120044D01*
X153162841Y-64059536D01*
X153288282Y-63963282D01*
X153384536Y-63837841D01*
X153445044Y-63691762D01*
X153465682Y-63535000D01*
X153445044Y-63378238D01*
X153384536Y-63232159D01*
X153288282Y-63106718D01*
X153162841Y-63010464D01*
X153078616Y-62975577D01*
X153016762Y-62949956D01*
X153016760Y-62949955D01*
X152860001Y-62929318D01*
X152859999Y-62929318D01*
X152703238Y-62949956D01*
X152660227Y-62967771D01*
X152632830Y-62975577D01*
X152624221Y-62976987D01*
X152030455Y-63199608D01*
X151986923Y-63207500D01*
X117967077Y-63207500D01*
X117923545Y-63199608D01*
X117850091Y-63172068D01*
X117329779Y-62976988D01*
X117329773Y-62976987D01*
X117329769Y-62976985D01*
X117319711Y-62975244D01*
X117293419Y-62967624D01*
X117250764Y-62949956D01*
X117250765Y-62949956D01*
X117094001Y-62929318D01*
X117093999Y-62929318D01*
X116937239Y-62949955D01*
X116937237Y-62949956D01*
X116791160Y-63010463D01*
X116665718Y-63106718D01*
X116569463Y-63232160D01*
X116508956Y-63378237D01*
X116508955Y-63378239D01*
X116488318Y-63534998D01*
X101031395Y-63534998D01*
X101035645Y-63500000D01*
X101015140Y-63331128D01*
X100954818Y-63172070D01*
X100858183Y-63032071D01*
X100763316Y-62948026D01*
X100730849Y-62919263D01*
X100580226Y-62840210D01*
X100415056Y-62799500D01*
X100244944Y-62799500D01*
X100079773Y-62840210D01*
X99929150Y-62919263D01*
X99801816Y-63032072D01*
X99705182Y-63172068D01*
X99644860Y-63331125D01*
X99644859Y-63331130D01*
X99624355Y-63500000D01*
X87573645Y-63500000D01*
X87553140Y-63331128D01*
X87492818Y-63172070D01*
X87396183Y-63032071D01*
X87301316Y-62948026D01*
X87268849Y-62919263D01*
X87118226Y-62840210D01*
X86953056Y-62799500D01*
X86782944Y-62799500D01*
X86617773Y-62840210D01*
X86467150Y-62919263D01*
X86339816Y-63032072D01*
X86243182Y-63172068D01*
X86182860Y-63331125D01*
X86182859Y-63331130D01*
X86162355Y-63500000D01*
X84613470Y-63500000D01*
X84631024Y-63442132D01*
X84650341Y-63246000D01*
X84631024Y-63049868D01*
X84573814Y-62861273D01*
X84573811Y-62861269D01*
X84573811Y-62861266D01*
X84480913Y-62687467D01*
X84480909Y-62687460D01*
X84355883Y-62535116D01*
X84203539Y-62410090D01*
X84203532Y-62410086D01*
X84029733Y-62317188D01*
X84029727Y-62317186D01*
X83841132Y-62259976D01*
X83841129Y-62259975D01*
X83645000Y-62240659D01*
X83448870Y-62259975D01*
X83260266Y-62317188D01*
X83086467Y-62410086D01*
X83086460Y-62410090D01*
X82934116Y-62535116D01*
X82809090Y-62687460D01*
X82809086Y-62687467D01*
X82716188Y-62861266D01*
X82658975Y-63049870D01*
X82639659Y-63246000D01*
X79375000Y-63246000D01*
X79375000Y-60915000D01*
X101054659Y-60915000D01*
X101073975Y-61111129D01*
X101131188Y-61299733D01*
X101224086Y-61473532D01*
X101224090Y-61473539D01*
X101349116Y-61625883D01*
X101501460Y-61750909D01*
X101501467Y-61750913D01*
X101675266Y-61843811D01*
X101675269Y-61843811D01*
X101675273Y-61843814D01*
X101863868Y-61901024D01*
X102060000Y-61920341D01*
X102256132Y-61901024D01*
X102444727Y-61843814D01*
X102618538Y-61750910D01*
X102770883Y-61625883D01*
X102895910Y-61473538D01*
X102988814Y-61299727D01*
X103046024Y-61111132D01*
X103065341Y-60915000D01*
X103046024Y-60718868D01*
X102988814Y-60530273D01*
X102988811Y-60530269D01*
X102988811Y-60530266D01*
X102895913Y-60356467D01*
X102895909Y-60356460D01*
X102770883Y-60204116D01*
X102618539Y-60079090D01*
X102618532Y-60079086D01*
X102444733Y-59986188D01*
X102444727Y-59986186D01*
X102256132Y-59928976D01*
X102256129Y-59928975D01*
X102060000Y-59909659D01*
X101863870Y-59928975D01*
X101675266Y-59986188D01*
X101501467Y-60079086D01*
X101501460Y-60079090D01*
X101349116Y-60204116D01*
X101224090Y-60356460D01*
X101224086Y-60356467D01*
X101131188Y-60530266D01*
X101073975Y-60718870D01*
X101054659Y-60915000D01*
X79375000Y-60915000D01*
X79375000Y-58245997D01*
X82340034Y-58245997D01*
X82340034Y-58246002D01*
X82359858Y-58472599D01*
X82359860Y-58472610D01*
X82418730Y-58692317D01*
X82418735Y-58692331D01*
X82514863Y-58898478D01*
X82565974Y-58971472D01*
X83245000Y-58292446D01*
X83245000Y-58298661D01*
X83272259Y-58400394D01*
X83324920Y-58491606D01*
X83399394Y-58566080D01*
X83490606Y-58618741D01*
X83592339Y-58646000D01*
X83598553Y-58646000D01*
X82919526Y-59325025D01*
X82992513Y-59376132D01*
X82992521Y-59376136D01*
X83198668Y-59472264D01*
X83198682Y-59472269D01*
X83418389Y-59531139D01*
X83418400Y-59531141D01*
X83644998Y-59550966D01*
X83645002Y-59550966D01*
X83871599Y-59531141D01*
X83871610Y-59531139D01*
X84091317Y-59472269D01*
X84091331Y-59472264D01*
X84297478Y-59376136D01*
X84370471Y-59325024D01*
X83691447Y-58646000D01*
X83697661Y-58646000D01*
X83799394Y-58618741D01*
X83890606Y-58566080D01*
X83965080Y-58491606D01*
X84017741Y-58400394D01*
X84045000Y-58298661D01*
X84045000Y-58292447D01*
X84724024Y-58971471D01*
X84775136Y-58898478D01*
X84871264Y-58692331D01*
X84871269Y-58692317D01*
X84930139Y-58472610D01*
X84930141Y-58472599D01*
X84949966Y-58246002D01*
X84949966Y-58245997D01*
X84930141Y-58019400D01*
X84930139Y-58019389D01*
X84871269Y-57799682D01*
X84871264Y-57799668D01*
X84775136Y-57593521D01*
X84775132Y-57593513D01*
X84724025Y-57520526D01*
X84045000Y-58199551D01*
X84045000Y-58193339D01*
X84017741Y-58091606D01*
X83965080Y-58000394D01*
X83890606Y-57925920D01*
X83799394Y-57873259D01*
X83697661Y-57846000D01*
X83691448Y-57846000D01*
X84370472Y-57166974D01*
X84297478Y-57115863D01*
X84091331Y-57019735D01*
X84091317Y-57019730D01*
X83871610Y-56960860D01*
X83871599Y-56960858D01*
X83645002Y-56941034D01*
X83644998Y-56941034D01*
X83418400Y-56960858D01*
X83418389Y-56960860D01*
X83198682Y-57019730D01*
X83198673Y-57019734D01*
X82992516Y-57115866D01*
X82992512Y-57115868D01*
X82919526Y-57166973D01*
X82919526Y-57166974D01*
X83598553Y-57846000D01*
X83592339Y-57846000D01*
X83490606Y-57873259D01*
X83399394Y-57925920D01*
X83324920Y-58000394D01*
X83272259Y-58091606D01*
X83245000Y-58193339D01*
X83245000Y-58199552D01*
X82565974Y-57520526D01*
X82565973Y-57520526D01*
X82514868Y-57593512D01*
X82514866Y-57593516D01*
X82418734Y-57799673D01*
X82418730Y-57799682D01*
X82359860Y-58019389D01*
X82359858Y-58019400D01*
X82340034Y-58245997D01*
X79375000Y-58245997D01*
X79375000Y-56324498D01*
X86833818Y-56324498D01*
X86833818Y-56324501D01*
X86854455Y-56481260D01*
X86854456Y-56481262D01*
X86895060Y-56579290D01*
X86914964Y-56627341D01*
X87011218Y-56752782D01*
X87136659Y-56849036D01*
X87136660Y-56849036D01*
X87136661Y-56849037D01*
X87180161Y-56867055D01*
X87204795Y-56880722D01*
X87212198Y-56886011D01*
X87790273Y-57146928D01*
X87826942Y-57172268D01*
X88986830Y-58332156D01*
X89002804Y-58351781D01*
X89009578Y-58362098D01*
X89009578Y-58362099D01*
X89478480Y-58838643D01*
X89479603Y-58839774D01*
X89480673Y-58840844D01*
X89483476Y-58844040D01*
X89487717Y-58848282D01*
X89613157Y-58944535D01*
X89613158Y-58944535D01*
X89613159Y-58944536D01*
X89759238Y-59005044D01*
X89837619Y-59015363D01*
X89915999Y-59025682D01*
X89916000Y-59025682D01*
X89916001Y-59025682D01*
X89979949Y-59017263D01*
X90072762Y-59005044D01*
X90218841Y-58944536D01*
X90344282Y-58848282D01*
X90440536Y-58722841D01*
X90501044Y-58576762D01*
X90521682Y-58420000D01*
X90519898Y-58406452D01*
X90507923Y-58315492D01*
X90501044Y-58263238D01*
X90440536Y-58117159D01*
X90344282Y-57991718D01*
X90218841Y-57895464D01*
X90211557Y-57892447D01*
X90165233Y-57873259D01*
X90072762Y-57834956D01*
X90033571Y-57829796D01*
X89916003Y-57814318D01*
X89907880Y-57814318D01*
X89907880Y-57814086D01*
X89905651Y-57814147D01*
X89905663Y-57814676D01*
X89453973Y-57824546D01*
X89386519Y-57806331D01*
X89363583Y-57788257D01*
X88287268Y-56711942D01*
X88261928Y-56675274D01*
X88251644Y-56652489D01*
X88001011Y-56097198D01*
X87994975Y-56088598D01*
X87981915Y-56064823D01*
X87964036Y-56021659D01*
X87867782Y-55896218D01*
X87742341Y-55799964D01*
X87596262Y-55739456D01*
X87596260Y-55739455D01*
X87439501Y-55718818D01*
X87439499Y-55718818D01*
X87282739Y-55739455D01*
X87282737Y-55739456D01*
X87136660Y-55799963D01*
X87011218Y-55896218D01*
X86914963Y-56021660D01*
X86854456Y-56167737D01*
X86854455Y-56167739D01*
X86833818Y-56324498D01*
X79375000Y-56324498D01*
X79375000Y-53335000D01*
X82639659Y-53335000D01*
X82658975Y-53531129D01*
X82716188Y-53719733D01*
X82809086Y-53893532D01*
X82809090Y-53893539D01*
X82934116Y-54045883D01*
X83086460Y-54170909D01*
X83086467Y-54170913D01*
X83260266Y-54263811D01*
X83260269Y-54263811D01*
X83260273Y-54263814D01*
X83448868Y-54321024D01*
X83645000Y-54340341D01*
X83841132Y-54321024D01*
X84029727Y-54263814D01*
X84070737Y-54241894D01*
X84203532Y-54170913D01*
X84203538Y-54170910D01*
X84355883Y-54045883D01*
X84480910Y-53893538D01*
X84573814Y-53719727D01*
X84631024Y-53531132D01*
X84650341Y-53335000D01*
X84631024Y-53138868D01*
X84573814Y-52950273D01*
X84573811Y-52950269D01*
X84573811Y-52950266D01*
X84480913Y-52776467D01*
X84480909Y-52776460D01*
X84355883Y-52624116D01*
X84203539Y-52499090D01*
X84203532Y-52499086D01*
X84029733Y-52406188D01*
X84029727Y-52406186D01*
X83841132Y-52348976D01*
X83841129Y-52348975D01*
X83645000Y-52329659D01*
X83448870Y-52348975D01*
X83260266Y-52406188D01*
X83086467Y-52499086D01*
X83086460Y-52499090D01*
X82934116Y-52624116D01*
X82809090Y-52776460D01*
X82809086Y-52776467D01*
X82716188Y-52950266D01*
X82658975Y-53138870D01*
X82639659Y-53335000D01*
X79375000Y-53335000D01*
X79375000Y-51626998D01*
X98914318Y-51626998D01*
X98914318Y-51627001D01*
X98934955Y-51783760D01*
X98934956Y-51783761D01*
X98952771Y-51826772D01*
X98960577Y-51854169D01*
X98961987Y-51862778D01*
X98999217Y-51962075D01*
X99165727Y-52406186D01*
X99184608Y-52456543D01*
X99192500Y-52500075D01*
X99192500Y-57581922D01*
X99184608Y-57625454D01*
X98961988Y-58219218D01*
X98960244Y-58229290D01*
X98952625Y-58255579D01*
X98934956Y-58298236D01*
X98914318Y-58454998D01*
X98914318Y-58455001D01*
X98934955Y-58611760D01*
X98934956Y-58611762D01*
X98991482Y-58748229D01*
X98995464Y-58757841D01*
X99091718Y-58883282D01*
X99217159Y-58979536D01*
X99363238Y-59040044D01*
X99441619Y-59050363D01*
X99519999Y-59060682D01*
X99520000Y-59060682D01*
X99520001Y-59060682D01*
X99572254Y-59053802D01*
X99676762Y-59040044D01*
X99822841Y-58979536D01*
X99948282Y-58883282D01*
X100044536Y-58757841D01*
X100105044Y-58611762D01*
X100125682Y-58455000D01*
X100105044Y-58298238D01*
X100087224Y-58255217D01*
X100079420Y-58227821D01*
X100078011Y-58219218D01*
X99855392Y-57625454D01*
X99847500Y-57581923D01*
X99847500Y-55915000D01*
X101054659Y-55915000D01*
X101073975Y-56111129D01*
X101131188Y-56299733D01*
X101224086Y-56473532D01*
X101224090Y-56473539D01*
X101349116Y-56625883D01*
X101501460Y-56750909D01*
X101501467Y-56750913D01*
X101675266Y-56843811D01*
X101675269Y-56843811D01*
X101675273Y-56843814D01*
X101863868Y-56901024D01*
X102060000Y-56920341D01*
X102256132Y-56901024D01*
X102444727Y-56843814D01*
X102479088Y-56825448D01*
X102537967Y-56793976D01*
X102618538Y-56750910D01*
X102770883Y-56625883D01*
X102895910Y-56473538D01*
X102981067Y-56314220D01*
X102988811Y-56299733D01*
X102988811Y-56299732D01*
X102988814Y-56299727D01*
X103046024Y-56111132D01*
X103065341Y-55915000D01*
X103046024Y-55718868D01*
X102988814Y-55530273D01*
X102988811Y-55530269D01*
X102988811Y-55530266D01*
X102895913Y-55356467D01*
X102895909Y-55356460D01*
X102770883Y-55204116D01*
X102618539Y-55079090D01*
X102618532Y-55079086D01*
X102444733Y-54986188D01*
X102444727Y-54986186D01*
X102256132Y-54928976D01*
X102256129Y-54928975D01*
X102060000Y-54909659D01*
X101863870Y-54928975D01*
X101675266Y-54986188D01*
X101501467Y-55079086D01*
X101501460Y-55079090D01*
X101349116Y-55204116D01*
X101224090Y-55356460D01*
X101224086Y-55356467D01*
X101131188Y-55530266D01*
X101073975Y-55718870D01*
X101054659Y-55915000D01*
X99847500Y-55915000D01*
X99847500Y-52500075D01*
X99855392Y-52456543D01*
X99874272Y-52406188D01*
X100078011Y-51862781D01*
X100079753Y-51852718D01*
X100087375Y-51826417D01*
X100105044Y-51783762D01*
X100125682Y-51627000D01*
X100118090Y-51569336D01*
X100105044Y-51470239D01*
X100105044Y-51470238D01*
X100044536Y-51324159D01*
X99948282Y-51198718D01*
X99822841Y-51102464D01*
X99790338Y-51089001D01*
X99676762Y-51041956D01*
X99676760Y-51041955D01*
X99520001Y-51021318D01*
X99519999Y-51021318D01*
X99363239Y-51041955D01*
X99363237Y-51041956D01*
X99217160Y-51102463D01*
X99091718Y-51198718D01*
X98995463Y-51324160D01*
X98934956Y-51470237D01*
X98934955Y-51470239D01*
X98914318Y-51626998D01*
X79375000Y-51626998D01*
X79375000Y-50799998D01*
X104169318Y-50799998D01*
X104169318Y-50800001D01*
X104173926Y-50835000D01*
X104189956Y-50956762D01*
X104199306Y-50979335D01*
X104207974Y-51000263D01*
X104215725Y-51027328D01*
X104217223Y-51036316D01*
X104217225Y-51036323D01*
X104441489Y-51629580D01*
X104449500Y-51673426D01*
X104449500Y-61356571D01*
X104441489Y-61400417D01*
X104217225Y-61993676D01*
X104217223Y-61993684D01*
X104215408Y-62004038D01*
X104207833Y-62030077D01*
X104189956Y-62073236D01*
X104169318Y-62229998D01*
X104169318Y-62230001D01*
X104189955Y-62386760D01*
X104189956Y-62386762D01*
X104250464Y-62532841D01*
X104346718Y-62658282D01*
X104472159Y-62754536D01*
X104618238Y-62815044D01*
X104696619Y-62825363D01*
X104774999Y-62835682D01*
X104775000Y-62835682D01*
X104775001Y-62835682D01*
X104827254Y-62828802D01*
X104931762Y-62815044D01*
X105077841Y-62754536D01*
X105203282Y-62658282D01*
X105299536Y-62532841D01*
X105360044Y-62386762D01*
X105380682Y-62230000D01*
X105360044Y-62073238D01*
X105342021Y-62029727D01*
X105334271Y-62002659D01*
X105332775Y-61993679D01*
X105108511Y-61400419D01*
X105100500Y-61356573D01*
X105100500Y-60995000D01*
X122644659Y-60995000D01*
X122663975Y-61191129D01*
X122663976Y-61191132D01*
X122721034Y-61379227D01*
X122721188Y-61379733D01*
X122814086Y-61553532D01*
X122814090Y-61553539D01*
X122939116Y-61705883D01*
X123091460Y-61830909D01*
X123091467Y-61830913D01*
X123265266Y-61923811D01*
X123265269Y-61923811D01*
X123265273Y-61923814D01*
X123453868Y-61981024D01*
X123650000Y-62000341D01*
X123846132Y-61981024D01*
X124034727Y-61923814D01*
X124041227Y-61920340D01*
X124208532Y-61830913D01*
X124208538Y-61830910D01*
X124341244Y-61722000D01*
X127310355Y-61722000D01*
X127330859Y-61890869D01*
X127330860Y-61890874D01*
X127391182Y-62049931D01*
X127407269Y-62073236D01*
X127487817Y-62189929D01*
X127545080Y-62240659D01*
X127615150Y-62302736D01*
X127765773Y-62381789D01*
X127765775Y-62381790D01*
X127930944Y-62422500D01*
X128101056Y-62422500D01*
X128266225Y-62381790D01*
X128389313Y-62317188D01*
X128416849Y-62302736D01*
X128416850Y-62302734D01*
X128416852Y-62302734D01*
X128544183Y-62189929D01*
X128640818Y-62049930D01*
X128701140Y-61890872D01*
X128721645Y-61722000D01*
X128701140Y-61553128D01*
X128640818Y-61394070D01*
X128544183Y-61254071D01*
X128416852Y-61141266D01*
X128416849Y-61141263D01*
X128266226Y-61062210D01*
X128101056Y-61021500D01*
X127930944Y-61021500D01*
X127765773Y-61062210D01*
X127615150Y-61141263D01*
X127487816Y-61254072D01*
X127391182Y-61394068D01*
X127330860Y-61553125D01*
X127330859Y-61553130D01*
X127310355Y-61722000D01*
X124341244Y-61722000D01*
X124360883Y-61705883D01*
X124485910Y-61553538D01*
X124567755Y-61400417D01*
X124578811Y-61379733D01*
X124578811Y-61379732D01*
X124578814Y-61379727D01*
X124636024Y-61191132D01*
X124655341Y-60995000D01*
X124636024Y-60798868D01*
X124579945Y-60614000D01*
X133612355Y-60614000D01*
X133632859Y-60782869D01*
X133632860Y-60782874D01*
X133693182Y-60941931D01*
X133729814Y-60995000D01*
X133789817Y-61081929D01*
X133856795Y-61141266D01*
X133917150Y-61194736D01*
X134067773Y-61273789D01*
X134067775Y-61273790D01*
X134232944Y-61314500D01*
X134403056Y-61314500D01*
X134568225Y-61273790D01*
X134647692Y-61232081D01*
X134718849Y-61194736D01*
X134718850Y-61194734D01*
X134718852Y-61194734D01*
X134846183Y-61081929D01*
X134942818Y-60941930D01*
X135003140Y-60782872D01*
X135023645Y-60614000D01*
X135003140Y-60445128D01*
X134999853Y-60436462D01*
X134942817Y-60286068D01*
X134908476Y-60236318D01*
X134846183Y-60146071D01*
X134718852Y-60033266D01*
X134718849Y-60033263D01*
X134568226Y-59954210D01*
X134403056Y-59913500D01*
X134232944Y-59913500D01*
X134067773Y-59954210D01*
X133917150Y-60033263D01*
X133789816Y-60146072D01*
X133693182Y-60286068D01*
X133632860Y-60445125D01*
X133632859Y-60445130D01*
X133612355Y-60614000D01*
X124579945Y-60614000D01*
X124578814Y-60610273D01*
X124578811Y-60610269D01*
X124578811Y-60610266D01*
X124485913Y-60436467D01*
X124485909Y-60436460D01*
X124360883Y-60284116D01*
X124208539Y-60159090D01*
X124208532Y-60159086D01*
X124034733Y-60066188D01*
X124034727Y-60066186D01*
X123846132Y-60008976D01*
X123846129Y-60008975D01*
X123650000Y-59989659D01*
X123453870Y-60008975D01*
X123265266Y-60066188D01*
X123091467Y-60159086D01*
X123091460Y-60159090D01*
X122939116Y-60284116D01*
X122814090Y-60436460D01*
X122814086Y-60436467D01*
X122721188Y-60610266D01*
X122663975Y-60798870D01*
X122644659Y-60995000D01*
X105100500Y-60995000D01*
X105100500Y-59598000D01*
X108720355Y-59598000D01*
X108740859Y-59766869D01*
X108740860Y-59766874D01*
X108801182Y-59925931D01*
X108820702Y-59954210D01*
X108897817Y-60065929D01*
X108988279Y-60146071D01*
X109025150Y-60178736D01*
X109175773Y-60257789D01*
X109175775Y-60257790D01*
X109340944Y-60298500D01*
X109511056Y-60298500D01*
X109676225Y-60257790D01*
X109755692Y-60216081D01*
X109826849Y-60178736D01*
X109826850Y-60178734D01*
X109826852Y-60178734D01*
X109954183Y-60065929D01*
X110050818Y-59925930D01*
X110111140Y-59766872D01*
X110131645Y-59598000D01*
X110111140Y-59429128D01*
X110106440Y-59416736D01*
X110050817Y-59270068D01*
X109977554Y-59163930D01*
X109954183Y-59130071D01*
X109826852Y-59017266D01*
X109826849Y-59017263D01*
X109676226Y-58938210D01*
X109511056Y-58897500D01*
X109340944Y-58897500D01*
X109175773Y-58938210D01*
X109025150Y-59017263D01*
X108897816Y-59130072D01*
X108801182Y-59270068D01*
X108740860Y-59429125D01*
X108740859Y-59429130D01*
X108720355Y-59598000D01*
X105100500Y-59598000D01*
X105100500Y-51673426D01*
X105108511Y-51629580D01*
X105151069Y-51516998D01*
X105312862Y-51088998D01*
X117504318Y-51088998D01*
X117504318Y-51089001D01*
X117524955Y-51245760D01*
X117524956Y-51245761D01*
X117542771Y-51288772D01*
X117550577Y-51316169D01*
X117551987Y-51324778D01*
X117682706Y-51673426D01*
X117756003Y-51868922D01*
X117774608Y-51918543D01*
X117782500Y-51962075D01*
X117782500Y-57546922D01*
X117774608Y-57590454D01*
X117551988Y-58184218D01*
X117550244Y-58194290D01*
X117542625Y-58220579D01*
X117524956Y-58263236D01*
X117504318Y-58419998D01*
X117504318Y-58420001D01*
X117524955Y-58576760D01*
X117524956Y-58576762D01*
X117579652Y-58708811D01*
X117585464Y-58722841D01*
X117681718Y-58848282D01*
X117807159Y-58944536D01*
X117953238Y-59005044D01*
X118031619Y-59015363D01*
X118109999Y-59025682D01*
X118110000Y-59025682D01*
X118110001Y-59025682D01*
X118173949Y-59017263D01*
X118266762Y-59005044D01*
X118412841Y-58944536D01*
X118538282Y-58848282D01*
X118634536Y-58722841D01*
X118695044Y-58576762D01*
X118715682Y-58420000D01*
X118713898Y-58406452D01*
X118704117Y-58332156D01*
X118695044Y-58263238D01*
X118677224Y-58220217D01*
X118669420Y-58192821D01*
X118668011Y-58184218D01*
X118515206Y-57776662D01*
X118445392Y-57590455D01*
X118437500Y-57546923D01*
X118437500Y-51962075D01*
X118445392Y-51918543D01*
X118463995Y-51868926D01*
X118668011Y-51324781D01*
X118669753Y-51314718D01*
X118677375Y-51288417D01*
X118685455Y-51268911D01*
X118695044Y-51245762D01*
X118715682Y-51089000D01*
X118713283Y-51070781D01*
X118695044Y-50932239D01*
X118695044Y-50932238D01*
X118634536Y-50786159D01*
X118538282Y-50660718D01*
X118412841Y-50564464D01*
X118334852Y-50532160D01*
X118266762Y-50503956D01*
X118266760Y-50503955D01*
X118110001Y-50483318D01*
X118109999Y-50483318D01*
X117953239Y-50503955D01*
X117953237Y-50503956D01*
X117807160Y-50564463D01*
X117681718Y-50660718D01*
X117585463Y-50786160D01*
X117524956Y-50932237D01*
X117524955Y-50932239D01*
X117504318Y-51088998D01*
X105312862Y-51088998D01*
X105332775Y-51036320D01*
X105334587Y-51025973D01*
X105342165Y-50999922D01*
X105360044Y-50956762D01*
X105376074Y-50835000D01*
X105380682Y-50800001D01*
X105380682Y-50799998D01*
X105360044Y-50643239D01*
X105360044Y-50643238D01*
X105299536Y-50497159D01*
X105203282Y-50371718D01*
X105077841Y-50275464D01*
X105016259Y-50249956D01*
X104931762Y-50214956D01*
X104931760Y-50214955D01*
X104775001Y-50194318D01*
X104774999Y-50194318D01*
X104618239Y-50214955D01*
X104618237Y-50214956D01*
X104472160Y-50275463D01*
X104346718Y-50371718D01*
X104250463Y-50497160D01*
X104189956Y-50643237D01*
X104189955Y-50643239D01*
X104169318Y-50799998D01*
X79375000Y-50799998D01*
X79375000Y-50164998D01*
X120044318Y-50164998D01*
X120044318Y-50165001D01*
X120064955Y-50321760D01*
X120064956Y-50321761D01*
X120082771Y-50364772D01*
X120090577Y-50392169D01*
X120091987Y-50400778D01*
X120196016Y-50678239D01*
X120313564Y-50991760D01*
X120314608Y-50994543D01*
X120322500Y-51038075D01*
X120322500Y-57546922D01*
X120314608Y-57590454D01*
X120091988Y-58184218D01*
X120090244Y-58194290D01*
X120082625Y-58220579D01*
X120064956Y-58263236D01*
X120044318Y-58419998D01*
X120044318Y-58420001D01*
X120064955Y-58576760D01*
X120064956Y-58576762D01*
X120119652Y-58708811D01*
X120125464Y-58722841D01*
X120221718Y-58848282D01*
X120347159Y-58944536D01*
X120493238Y-59005044D01*
X120571619Y-59015363D01*
X120649999Y-59025682D01*
X120650000Y-59025682D01*
X120650001Y-59025682D01*
X120713949Y-59017263D01*
X120806762Y-59005044D01*
X120952841Y-58944536D01*
X121078282Y-58848282D01*
X121087706Y-58836000D01*
X125484355Y-58836000D01*
X125504859Y-59004869D01*
X125504860Y-59004874D01*
X125565182Y-59163931D01*
X125627475Y-59254177D01*
X125661817Y-59303929D01*
X125743318Y-59376132D01*
X125789150Y-59416736D01*
X125939773Y-59495789D01*
X125939775Y-59495790D01*
X126104944Y-59536500D01*
X126275056Y-59536500D01*
X126440225Y-59495790D01*
X126567234Y-59429130D01*
X126590849Y-59416736D01*
X126590850Y-59416734D01*
X126590852Y-59416734D01*
X126718183Y-59303929D01*
X126814818Y-59163930D01*
X126875140Y-59004872D01*
X126895645Y-58836000D01*
X126875140Y-58667128D01*
X126814818Y-58508070D01*
X126718183Y-58368071D01*
X126599851Y-58263238D01*
X126590849Y-58255263D01*
X126440226Y-58176210D01*
X126275056Y-58135500D01*
X126104944Y-58135500D01*
X125939773Y-58176210D01*
X125789150Y-58255263D01*
X125661816Y-58368072D01*
X125565182Y-58508068D01*
X125504860Y-58667125D01*
X125504859Y-58667130D01*
X125484355Y-58836000D01*
X121087706Y-58836000D01*
X121174536Y-58722841D01*
X121235044Y-58576762D01*
X121255682Y-58420000D01*
X121253898Y-58406452D01*
X121244117Y-58332156D01*
X121235044Y-58263238D01*
X121217224Y-58220217D01*
X121209420Y-58192821D01*
X121208011Y-58184218D01*
X121055206Y-57776662D01*
X120985392Y-57590455D01*
X120977500Y-57546923D01*
X120977500Y-55995000D01*
X122644659Y-55995000D01*
X122663975Y-56191129D01*
X122663976Y-56191132D01*
X122708485Y-56337859D01*
X122721188Y-56379733D01*
X122814086Y-56553532D01*
X122814090Y-56553539D01*
X122939116Y-56705883D01*
X123091460Y-56830909D01*
X123091467Y-56830913D01*
X123265266Y-56923811D01*
X123265269Y-56923811D01*
X123265273Y-56923814D01*
X123453868Y-56981024D01*
X123650000Y-57000341D01*
X123846132Y-56981024D01*
X124034727Y-56923814D01*
X124041227Y-56920340D01*
X124130768Y-56872479D01*
X124208538Y-56830910D01*
X124360883Y-56705883D01*
X124485910Y-56553538D01*
X124578814Y-56379727D01*
X124636024Y-56191132D01*
X124655341Y-55995000D01*
X124636024Y-55798868D01*
X124578814Y-55610273D01*
X124578811Y-55610269D01*
X124578811Y-55610266D01*
X124485913Y-55436467D01*
X124485909Y-55436460D01*
X124360883Y-55284116D01*
X124208539Y-55159090D01*
X124208532Y-55159086D01*
X124034733Y-55066188D01*
X124034727Y-55066186D01*
X123846132Y-55008976D01*
X123846129Y-55008975D01*
X123650000Y-54989659D01*
X123453870Y-55008975D01*
X123265266Y-55066188D01*
X123091467Y-55159086D01*
X123091460Y-55159090D01*
X122939116Y-55284116D01*
X122814090Y-55436460D01*
X122814086Y-55436467D01*
X122721188Y-55610266D01*
X122663975Y-55798870D01*
X122644659Y-55995000D01*
X120977500Y-55995000D01*
X120977500Y-51038075D01*
X120985392Y-50994543D01*
X120986435Y-50991761D01*
X121045210Y-50834998D01*
X131934318Y-50834998D01*
X131934318Y-50835001D01*
X131954955Y-50991760D01*
X131954956Y-50991761D01*
X131972771Y-51034772D01*
X131980577Y-51062169D01*
X131981987Y-51070778D01*
X132204608Y-51664543D01*
X132212500Y-51708075D01*
X132212500Y-55676922D01*
X132204608Y-55720454D01*
X131981988Y-56314218D01*
X131980244Y-56324290D01*
X131972625Y-56350579D01*
X131954956Y-56393236D01*
X131934318Y-56549998D01*
X131934318Y-56550001D01*
X131954955Y-56706760D01*
X131954956Y-56706762D01*
X132012119Y-56844767D01*
X132015464Y-56852841D01*
X132111718Y-56978282D01*
X132237159Y-57074536D01*
X132383238Y-57135044D01*
X132461619Y-57145363D01*
X132539999Y-57155682D01*
X132540000Y-57155682D01*
X132540001Y-57155682D01*
X132592254Y-57148802D01*
X132696762Y-57135044D01*
X132842841Y-57074536D01*
X132968282Y-56978282D01*
X133064536Y-56852841D01*
X133125044Y-56706762D01*
X133140922Y-56586158D01*
X133145682Y-56550001D01*
X133145682Y-56549998D01*
X133125044Y-56393240D01*
X133125044Y-56393238D01*
X133107224Y-56350217D01*
X133099420Y-56322821D01*
X133098011Y-56314218D01*
X132875392Y-55720454D01*
X132867500Y-55676923D01*
X132867500Y-51708075D01*
X132875392Y-51664543D01*
X132897471Y-51605655D01*
X133098011Y-51070781D01*
X133099753Y-51060718D01*
X133107375Y-51034417D01*
X133125044Y-50991762D01*
X133145682Y-50835000D01*
X133125044Y-50678238D01*
X133064536Y-50532159D01*
X132968282Y-50406718D01*
X132842841Y-50310464D01*
X132696762Y-50249956D01*
X132696760Y-50249955D01*
X132540001Y-50229318D01*
X132539999Y-50229318D01*
X132383239Y-50249955D01*
X132383237Y-50249956D01*
X132237160Y-50310463D01*
X132111718Y-50406718D01*
X132015463Y-50532160D01*
X131954956Y-50678237D01*
X131954955Y-50678239D01*
X131934318Y-50834998D01*
X121045210Y-50834998D01*
X121208011Y-50400781D01*
X121209753Y-50390718D01*
X121217375Y-50364417D01*
X121235044Y-50321762D01*
X121255682Y-50165000D01*
X121255023Y-50159997D01*
X121235044Y-50008239D01*
X121235044Y-50008238D01*
X121209264Y-49946000D01*
X123198355Y-49946000D01*
X123218859Y-50114869D01*
X123218860Y-50114874D01*
X123279182Y-50273931D01*
X123312198Y-50321762D01*
X123375817Y-50413929D01*
X123469765Y-50497159D01*
X123503150Y-50526736D01*
X123642932Y-50600099D01*
X123653775Y-50605790D01*
X123818944Y-50646500D01*
X123989056Y-50646500D01*
X124154225Y-50605790D01*
X124294516Y-50532159D01*
X124304849Y-50526736D01*
X124304850Y-50526734D01*
X124304852Y-50526734D01*
X124432183Y-50413929D01*
X124528818Y-50273930D01*
X124589140Y-50114872D01*
X124609645Y-49946000D01*
X124589140Y-49777128D01*
X124528818Y-49618070D01*
X124432183Y-49478071D01*
X124304852Y-49365266D01*
X124304849Y-49365263D01*
X124154226Y-49286210D01*
X123989056Y-49245500D01*
X123818944Y-49245500D01*
X123653773Y-49286210D01*
X123503150Y-49365263D01*
X123375816Y-49478072D01*
X123279182Y-49618068D01*
X123218860Y-49777125D01*
X123218859Y-49777130D01*
X123198355Y-49946000D01*
X121209264Y-49946000D01*
X121174536Y-49862159D01*
X121078282Y-49736718D01*
X120952841Y-49640464D01*
X120898772Y-49618068D01*
X120806762Y-49579956D01*
X120806760Y-49579955D01*
X120650001Y-49559318D01*
X120649999Y-49559318D01*
X120493239Y-49579955D01*
X120493237Y-49579956D01*
X120347160Y-49640463D01*
X120221718Y-49736718D01*
X120125463Y-49862160D01*
X120064956Y-50008237D01*
X120064955Y-50008239D01*
X120044318Y-50164998D01*
X79375000Y-50164998D01*
X79375000Y-48335000D01*
X82639659Y-48335000D01*
X82658975Y-48531129D01*
X82658976Y-48531132D01*
X82701518Y-48671375D01*
X82716188Y-48719733D01*
X82809086Y-48893532D01*
X82809090Y-48893539D01*
X82934116Y-49045883D01*
X83086460Y-49170909D01*
X83086467Y-49170913D01*
X83260266Y-49263811D01*
X83260269Y-49263811D01*
X83260273Y-49263814D01*
X83448868Y-49321024D01*
X83645000Y-49340341D01*
X83841132Y-49321024D01*
X84029727Y-49263814D01*
X84203538Y-49170910D01*
X84355883Y-49045883D01*
X84480910Y-48893538D01*
X84482801Y-48890000D01*
X127089659Y-48890000D01*
X127108975Y-49086129D01*
X127166188Y-49274733D01*
X127259086Y-49448532D01*
X127259090Y-49448539D01*
X127384116Y-49600883D01*
X127536460Y-49725909D01*
X127536467Y-49725913D01*
X127710266Y-49818811D01*
X127710269Y-49818811D01*
X127710273Y-49818814D01*
X127898868Y-49876024D01*
X128095000Y-49895341D01*
X128291132Y-49876024D01*
X128479727Y-49818814D01*
X128653538Y-49725910D01*
X128805883Y-49600883D01*
X128930910Y-49448538D01*
X129023814Y-49274727D01*
X129081024Y-49086132D01*
X129100341Y-48890000D01*
X129081024Y-48693868D01*
X129023814Y-48505273D01*
X129023811Y-48505269D01*
X129023811Y-48505266D01*
X128930913Y-48331467D01*
X128930909Y-48331460D01*
X128805883Y-48179116D01*
X128653539Y-48054090D01*
X128653532Y-48054086D01*
X128479733Y-47961188D01*
X128479727Y-47961186D01*
X128307575Y-47908964D01*
X128291129Y-47903975D01*
X128095000Y-47884659D01*
X127898870Y-47903975D01*
X127710266Y-47961188D01*
X127536467Y-48054086D01*
X127536460Y-48054090D01*
X127384116Y-48179116D01*
X127259090Y-48331460D01*
X127259086Y-48331467D01*
X127166188Y-48505266D01*
X127108975Y-48693870D01*
X127089659Y-48890000D01*
X84482801Y-48890000D01*
X84533778Y-48794629D01*
X84573811Y-48719733D01*
X84573811Y-48719732D01*
X84573814Y-48719727D01*
X84631024Y-48531132D01*
X84650341Y-48335000D01*
X84631024Y-48138868D01*
X84573814Y-47950273D01*
X84573811Y-47950269D01*
X84573811Y-47950266D01*
X84480913Y-47776467D01*
X84480909Y-47776460D01*
X84355883Y-47624116D01*
X84302128Y-47580000D01*
X96609659Y-47580000D01*
X96628975Y-47776129D01*
X96628976Y-47776132D01*
X96685112Y-47961188D01*
X96686188Y-47964733D01*
X96779086Y-48138532D01*
X96779090Y-48138539D01*
X96904116Y-48290883D01*
X97056460Y-48415909D01*
X97056467Y-48415913D01*
X97230266Y-48508811D01*
X97230269Y-48508811D01*
X97230273Y-48508814D01*
X97418868Y-48566024D01*
X97615000Y-48585341D01*
X97811132Y-48566024D01*
X97999727Y-48508814D01*
X98173538Y-48415910D01*
X98325883Y-48290883D01*
X98450910Y-48138538D01*
X98543814Y-47964727D01*
X98601024Y-47776132D01*
X98612462Y-47659998D01*
X149714318Y-47659998D01*
X149714318Y-47660001D01*
X149734955Y-47816760D01*
X149734957Y-47816765D01*
X149769947Y-47901239D01*
X149772850Y-47908964D01*
X149778997Y-47927141D01*
X149779000Y-47927146D01*
X149780962Y-47930554D01*
X149788064Y-47944976D01*
X149795464Y-47962841D01*
X149806878Y-47977717D01*
X149815944Y-47991302D01*
X149975956Y-48269168D01*
X149992500Y-48331047D01*
X149992500Y-48338116D01*
X150010800Y-48406410D01*
X150014819Y-48421410D01*
X150057934Y-48496088D01*
X150057936Y-48496091D01*
X150176205Y-48614360D01*
X150184024Y-48622948D01*
X150187883Y-48627608D01*
X150192925Y-48632288D01*
X150200687Y-48638842D01*
X153131181Y-51569336D01*
X153164666Y-51630659D01*
X153167500Y-51657017D01*
X153167500Y-54054422D01*
X153159608Y-54097954D01*
X152936988Y-54691718D01*
X152935244Y-54701790D01*
X152927625Y-54728079D01*
X152909956Y-54770736D01*
X152889318Y-54927498D01*
X152889318Y-54927501D01*
X152909955Y-55084260D01*
X152909956Y-55084262D01*
X152969220Y-55227339D01*
X152970464Y-55230341D01*
X153066718Y-55355782D01*
X153192159Y-55452036D01*
X153338238Y-55512544D01*
X153416619Y-55522863D01*
X153494999Y-55533182D01*
X153495000Y-55533182D01*
X153495001Y-55533182D01*
X153552546Y-55525606D01*
X153651762Y-55512544D01*
X153797841Y-55452036D01*
X153923282Y-55355782D01*
X154019536Y-55230341D01*
X154080044Y-55084262D01*
X154100682Y-54927500D01*
X154080044Y-54770738D01*
X154062224Y-54727717D01*
X154054420Y-54700321D01*
X154053011Y-54691718D01*
X153857745Y-54170910D01*
X153830392Y-54097955D01*
X153822500Y-54054423D01*
X153822500Y-51426885D01*
X153811617Y-51386269D01*
X153800181Y-51343590D01*
X153757065Y-51268910D01*
X153696090Y-51207935D01*
X153323153Y-50834998D01*
X154794318Y-50834998D01*
X154794318Y-50835001D01*
X154814955Y-50991760D01*
X154814956Y-50991761D01*
X154832771Y-51034772D01*
X154840577Y-51062169D01*
X154841987Y-51070778D01*
X155064608Y-51664543D01*
X155072500Y-51708075D01*
X155072500Y-54406922D01*
X155064608Y-54450454D01*
X154841988Y-55044218D01*
X154840244Y-55054290D01*
X154832625Y-55080579D01*
X154814956Y-55123236D01*
X154794318Y-55279998D01*
X154794318Y-55280001D01*
X154814955Y-55436760D01*
X154814956Y-55436762D01*
X154854894Y-55533182D01*
X154875464Y-55582841D01*
X154971718Y-55708282D01*
X155097159Y-55804536D01*
X155243238Y-55865044D01*
X155321619Y-55875363D01*
X155399999Y-55885682D01*
X155400000Y-55885682D01*
X155400001Y-55885682D01*
X155452254Y-55878802D01*
X155556762Y-55865044D01*
X155702841Y-55804536D01*
X155828282Y-55708282D01*
X155924536Y-55582841D01*
X155985044Y-55436762D01*
X156005682Y-55280000D01*
X155985044Y-55123238D01*
X155967224Y-55080217D01*
X155959420Y-55052821D01*
X155958011Y-55044218D01*
X155735392Y-54450454D01*
X155727500Y-54406923D01*
X155727500Y-51708075D01*
X155735392Y-51664543D01*
X155757471Y-51605655D01*
X155958011Y-51070781D01*
X155959753Y-51060718D01*
X155967375Y-51034417D01*
X155985044Y-50991762D01*
X156005682Y-50835000D01*
X156005682Y-50834998D01*
X156699318Y-50834998D01*
X156699318Y-50835001D01*
X156719955Y-50991760D01*
X156719956Y-50991761D01*
X156737771Y-51034772D01*
X156745577Y-51062169D01*
X156746987Y-51070778D01*
X156969608Y-51664543D01*
X156977500Y-51708075D01*
X156977500Y-54406922D01*
X156969608Y-54450454D01*
X156746988Y-55044218D01*
X156745244Y-55054290D01*
X156737625Y-55080579D01*
X156719956Y-55123236D01*
X156699318Y-55279998D01*
X156699318Y-55280001D01*
X156719955Y-55436760D01*
X156719956Y-55436762D01*
X156759894Y-55533182D01*
X156780464Y-55582841D01*
X156876718Y-55708282D01*
X157002159Y-55804536D01*
X157148238Y-55865044D01*
X157226619Y-55875363D01*
X157304999Y-55885682D01*
X157305000Y-55885682D01*
X157305001Y-55885682D01*
X157357254Y-55878802D01*
X157461762Y-55865044D01*
X157607841Y-55804536D01*
X157733282Y-55708282D01*
X157829536Y-55582841D01*
X157890044Y-55436762D01*
X157910682Y-55280000D01*
X157890044Y-55123238D01*
X157872224Y-55080217D01*
X157864420Y-55052821D01*
X157863011Y-55044218D01*
X157640392Y-54450454D01*
X157637074Y-54432155D01*
X160625000Y-54432155D01*
X160625000Y-55030000D01*
X161609314Y-55030000D01*
X161604920Y-55034394D01*
X161552259Y-55125606D01*
X161525000Y-55227339D01*
X161525000Y-55332661D01*
X161552259Y-55434394D01*
X161604920Y-55525606D01*
X161609314Y-55530000D01*
X160625000Y-55530000D01*
X160625000Y-56127844D01*
X160631401Y-56187372D01*
X160631403Y-56187379D01*
X160681645Y-56322086D01*
X160681649Y-56322093D01*
X160767809Y-56437187D01*
X160767812Y-56437190D01*
X160882906Y-56523350D01*
X160882913Y-56523354D01*
X161017620Y-56573596D01*
X161017627Y-56573598D01*
X161077155Y-56579999D01*
X161077172Y-56580000D01*
X161598313Y-56580000D01*
X161665352Y-56599685D01*
X161711107Y-56652489D01*
X161721051Y-56721647D01*
X161692026Y-56785203D01*
X161634310Y-56822659D01*
X161561430Y-56844768D01*
X161540266Y-56851188D01*
X161366467Y-56944086D01*
X161366460Y-56944090D01*
X161214116Y-57069116D01*
X161089090Y-57221460D01*
X161089086Y-57221467D01*
X160996188Y-57395266D01*
X160938975Y-57583870D01*
X160919659Y-57780000D01*
X160938975Y-57976129D01*
X160996188Y-58164733D01*
X161089086Y-58338532D01*
X161089090Y-58338539D01*
X161214116Y-58490883D01*
X161366460Y-58615909D01*
X161366467Y-58615913D01*
X161540266Y-58708811D01*
X161540269Y-58708811D01*
X161540273Y-58708814D01*
X161728868Y-58766024D01*
X161925000Y-58785341D01*
X162121132Y-58766024D01*
X162309727Y-58708814D01*
X162330554Y-58697682D01*
X162396632Y-58662362D01*
X162483538Y-58615910D01*
X162635883Y-58490883D01*
X162760910Y-58338538D01*
X162822155Y-58223956D01*
X162853811Y-58164733D01*
X162853811Y-58164732D01*
X162853814Y-58164727D01*
X162911024Y-57976132D01*
X162930341Y-57780000D01*
X162911024Y-57583868D01*
X162853814Y-57395273D01*
X162853811Y-57395269D01*
X162853811Y-57395266D01*
X162760913Y-57221467D01*
X162760909Y-57221460D01*
X162635883Y-57069116D01*
X162483539Y-56944090D01*
X162483532Y-56944086D01*
X162309733Y-56851188D01*
X162309727Y-56851186D01*
X162215689Y-56822659D01*
X162157253Y-56784363D01*
X162128796Y-56720551D01*
X162139357Y-56651484D01*
X162185581Y-56599090D01*
X162251687Y-56580000D01*
X162772828Y-56580000D01*
X162772844Y-56579999D01*
X162832372Y-56573598D01*
X162832379Y-56573596D01*
X162967086Y-56523354D01*
X162967093Y-56523350D01*
X163082187Y-56437190D01*
X163082190Y-56437187D01*
X163168350Y-56322093D01*
X163168354Y-56322086D01*
X163218596Y-56187379D01*
X163218598Y-56187372D01*
X163224999Y-56127844D01*
X163225000Y-56127827D01*
X163225000Y-55530000D01*
X162240686Y-55530000D01*
X162245080Y-55525606D01*
X162297741Y-55434394D01*
X162325000Y-55332661D01*
X162325000Y-55227339D01*
X162297741Y-55125606D01*
X162245080Y-55034394D01*
X162240686Y-55030000D01*
X163225000Y-55030000D01*
X163225000Y-54432172D01*
X163224999Y-54432155D01*
X163218598Y-54372627D01*
X163218596Y-54372620D01*
X163168354Y-54237913D01*
X163168350Y-54237906D01*
X163082190Y-54122812D01*
X163082187Y-54122809D01*
X162967093Y-54036649D01*
X162967086Y-54036645D01*
X162832379Y-53986403D01*
X162832372Y-53986401D01*
X162772844Y-53980000D01*
X162175000Y-53980000D01*
X162175000Y-54964314D01*
X162170606Y-54959920D01*
X162079394Y-54907259D01*
X161977661Y-54880000D01*
X161872339Y-54880000D01*
X161770606Y-54907259D01*
X161679394Y-54959920D01*
X161675000Y-54964314D01*
X161675000Y-53980000D01*
X161077155Y-53980000D01*
X161017627Y-53986401D01*
X161017620Y-53986403D01*
X160882913Y-54036645D01*
X160882906Y-54036649D01*
X160767812Y-54122809D01*
X160767809Y-54122812D01*
X160681649Y-54237906D01*
X160681645Y-54237913D01*
X160631403Y-54372620D01*
X160631401Y-54372627D01*
X160625000Y-54432155D01*
X157637074Y-54432155D01*
X157632500Y-54406923D01*
X157632500Y-51708075D01*
X157640392Y-51664543D01*
X157662471Y-51605655D01*
X157863011Y-51070781D01*
X157864753Y-51060718D01*
X157872375Y-51034417D01*
X157890044Y-50991762D01*
X157910682Y-50835000D01*
X157890044Y-50678238D01*
X157829536Y-50532159D01*
X157733282Y-50406718D01*
X157607841Y-50310464D01*
X157461762Y-50249956D01*
X157461760Y-50249955D01*
X157305001Y-50229318D01*
X157304999Y-50229318D01*
X157148239Y-50249955D01*
X157148237Y-50249956D01*
X157002160Y-50310463D01*
X156876718Y-50406718D01*
X156780463Y-50532160D01*
X156719956Y-50678237D01*
X156719955Y-50678239D01*
X156699318Y-50834998D01*
X156005682Y-50834998D01*
X155985044Y-50678238D01*
X155924536Y-50532159D01*
X155828282Y-50406718D01*
X155702841Y-50310464D01*
X155556762Y-50249956D01*
X155556760Y-50249955D01*
X155400001Y-50229318D01*
X155399999Y-50229318D01*
X155243239Y-50249955D01*
X155243237Y-50249956D01*
X155097160Y-50310463D01*
X154971718Y-50406718D01*
X154875463Y-50532160D01*
X154814956Y-50678237D01*
X154814955Y-50678239D01*
X154794318Y-50834998D01*
X153323153Y-50834998D01*
X152648152Y-50159997D01*
X159985034Y-50159997D01*
X159985034Y-50160002D01*
X160004858Y-50386599D01*
X160004860Y-50386610D01*
X160063730Y-50606317D01*
X160063735Y-50606331D01*
X160159863Y-50812478D01*
X160210974Y-50885472D01*
X160890000Y-50206446D01*
X160890000Y-50212661D01*
X160917259Y-50314394D01*
X160969920Y-50405606D01*
X161044394Y-50480080D01*
X161135606Y-50532741D01*
X161237339Y-50560000D01*
X161243553Y-50560000D01*
X160564526Y-51239025D01*
X160637513Y-51290132D01*
X160637521Y-51290136D01*
X160843668Y-51386264D01*
X160843682Y-51386269D01*
X161063389Y-51445139D01*
X161063400Y-51445141D01*
X161289998Y-51464966D01*
X161290002Y-51464966D01*
X161516599Y-51445141D01*
X161516610Y-51445139D01*
X161736317Y-51386269D01*
X161736331Y-51386264D01*
X161942478Y-51290136D01*
X162015471Y-51239024D01*
X161336447Y-50560000D01*
X161342661Y-50560000D01*
X161444394Y-50532741D01*
X161535606Y-50480080D01*
X161610080Y-50405606D01*
X161662741Y-50314394D01*
X161690000Y-50212661D01*
X161690000Y-50206447D01*
X162369024Y-50885471D01*
X162420136Y-50812478D01*
X162516264Y-50606331D01*
X162516269Y-50606317D01*
X162575139Y-50386610D01*
X162575141Y-50386599D01*
X162594966Y-50160002D01*
X162594966Y-50159997D01*
X162576593Y-49949999D01*
X168674364Y-49949999D01*
X168674364Y-49950000D01*
X169571988Y-49950000D01*
X169539075Y-50007007D01*
X169505000Y-50134174D01*
X169505000Y-50265826D01*
X169539075Y-50392993D01*
X169571988Y-50450000D01*
X168674364Y-50450000D01*
X168731567Y-50663486D01*
X168731570Y-50663492D01*
X168831399Y-50877578D01*
X168966894Y-51071082D01*
X169133917Y-51238105D01*
X169320031Y-51368425D01*
X169363656Y-51423003D01*
X169370848Y-51492501D01*
X169339326Y-51554856D01*
X169320031Y-51571575D01*
X169133922Y-51701890D01*
X169133920Y-51701891D01*
X168966891Y-51868920D01*
X168966886Y-51868926D01*
X168831400Y-52062420D01*
X168831399Y-52062422D01*
X168731570Y-52276507D01*
X168731567Y-52276513D01*
X168674364Y-52489999D01*
X168674364Y-52490000D01*
X169571988Y-52490000D01*
X169539075Y-52547007D01*
X169505000Y-52674174D01*
X169505000Y-52805826D01*
X169539075Y-52932993D01*
X169571988Y-52990000D01*
X168674364Y-52990000D01*
X168731567Y-53203486D01*
X168731570Y-53203492D01*
X168831399Y-53417578D01*
X168966894Y-53611082D01*
X169133917Y-53778105D01*
X169320031Y-53908425D01*
X169363656Y-53963003D01*
X169370848Y-54032501D01*
X169339326Y-54094856D01*
X169320031Y-54111575D01*
X169133922Y-54241890D01*
X169133920Y-54241891D01*
X168966891Y-54408920D01*
X168966886Y-54408926D01*
X168831400Y-54602420D01*
X168831399Y-54602422D01*
X168731570Y-54816507D01*
X168731567Y-54816513D01*
X168674364Y-55029999D01*
X168674364Y-55030000D01*
X169571988Y-55030000D01*
X169539075Y-55087007D01*
X169505000Y-55214174D01*
X169505000Y-55345826D01*
X169539075Y-55472993D01*
X169571988Y-55530000D01*
X168674364Y-55530000D01*
X168731567Y-55743486D01*
X168731570Y-55743492D01*
X168831399Y-55957578D01*
X168966894Y-56151082D01*
X169133917Y-56318105D01*
X169327421Y-56453600D01*
X169541507Y-56553429D01*
X169541516Y-56553433D01*
X169663649Y-56586158D01*
X169723310Y-56622523D01*
X169753839Y-56685369D01*
X169745545Y-56754745D01*
X169701059Y-56808623D01*
X169667552Y-56824593D01*
X169601046Y-56844767D01*
X169513112Y-56891770D01*
X169418550Y-56942315D01*
X169418548Y-56942316D01*
X169418547Y-56942317D01*
X169258589Y-57073589D01*
X169127317Y-57233547D01*
X169029769Y-57416043D01*
X168969699Y-57614067D01*
X168949417Y-57820000D01*
X168969699Y-58025932D01*
X168969700Y-58025934D01*
X169029768Y-58223954D01*
X169127315Y-58406450D01*
X169138435Y-58420000D01*
X169258589Y-58566410D01*
X169318905Y-58615909D01*
X169418550Y-58697685D01*
X169601046Y-58795232D01*
X169799066Y-58855300D01*
X169799065Y-58855300D01*
X169817529Y-58857118D01*
X170005000Y-58875583D01*
X170210934Y-58855300D01*
X170408954Y-58795232D01*
X170591450Y-58697685D01*
X170751410Y-58566410D01*
X170882685Y-58406450D01*
X170980232Y-58223954D01*
X171040300Y-58025934D01*
X171060583Y-57820000D01*
X171040300Y-57614066D01*
X170980232Y-57416046D01*
X170882685Y-57233550D01*
X170801843Y-57135043D01*
X170751410Y-57073589D01*
X170601121Y-56950252D01*
X170591450Y-56942315D01*
X170408954Y-56844768D01*
X170342447Y-56824593D01*
X170284009Y-56786296D01*
X170255553Y-56722484D01*
X170266113Y-56653417D01*
X170312337Y-56601023D01*
X170346350Y-56586158D01*
X170468483Y-56553433D01*
X170468492Y-56553429D01*
X170682578Y-56453600D01*
X170876082Y-56318105D01*
X171043105Y-56151082D01*
X171173425Y-55964968D01*
X171228002Y-55921344D01*
X171297501Y-55914151D01*
X171359855Y-55945673D01*
X171376575Y-55964968D01*
X171506894Y-56151082D01*
X171673917Y-56318105D01*
X171867421Y-56453600D01*
X172037948Y-56533118D01*
X172090387Y-56579290D01*
X172109539Y-56646484D01*
X172089323Y-56713365D01*
X172036158Y-56758700D01*
X171985543Y-56769500D01*
X171675247Y-56769500D01*
X171616770Y-56781131D01*
X171616769Y-56781132D01*
X171550447Y-56825447D01*
X171506132Y-56891769D01*
X171506131Y-56891770D01*
X171494500Y-56950247D01*
X171494500Y-58689752D01*
X171506131Y-58748229D01*
X171506132Y-58748230D01*
X171550447Y-58814552D01*
X171616769Y-58858867D01*
X171616770Y-58858868D01*
X171675247Y-58870499D01*
X171675250Y-58870500D01*
X171675252Y-58870500D01*
X173414750Y-58870500D01*
X173414751Y-58870499D01*
X173429568Y-58867552D01*
X173473229Y-58858868D01*
X173473229Y-58858867D01*
X173473231Y-58858867D01*
X173539552Y-58814552D01*
X173583867Y-58748231D01*
X173583867Y-58748229D01*
X173583868Y-58748229D01*
X173595499Y-58689752D01*
X173595500Y-58689750D01*
X173595500Y-56950249D01*
X173595499Y-56950247D01*
X173583868Y-56891770D01*
X173583867Y-56891769D01*
X173539552Y-56825447D01*
X173473230Y-56781132D01*
X173473229Y-56781131D01*
X173414752Y-56769500D01*
X173414748Y-56769500D01*
X173104457Y-56769500D01*
X173037418Y-56749815D01*
X172991663Y-56697011D01*
X172981719Y-56627853D01*
X173010744Y-56564297D01*
X173052052Y-56533118D01*
X173222578Y-56453600D01*
X173416082Y-56318105D01*
X173583105Y-56151082D01*
X173718600Y-55957578D01*
X173818429Y-55743492D01*
X173818432Y-55743486D01*
X173875636Y-55530000D01*
X172978012Y-55530000D01*
X173010925Y-55472993D01*
X173045000Y-55345826D01*
X173045000Y-55214174D01*
X173010925Y-55087007D01*
X172978012Y-55030000D01*
X173875636Y-55030000D01*
X173875635Y-55029999D01*
X173818432Y-54816513D01*
X173818429Y-54816507D01*
X173718600Y-54602422D01*
X173718599Y-54602420D01*
X173583113Y-54408926D01*
X173583108Y-54408920D01*
X173416082Y-54241894D01*
X173229968Y-54111575D01*
X173186344Y-54056998D01*
X173179151Y-53987499D01*
X173210673Y-53925145D01*
X173229968Y-53908425D01*
X173416082Y-53778105D01*
X173583105Y-53611082D01*
X173718600Y-53417578D01*
X173818429Y-53203492D01*
X173818432Y-53203486D01*
X173875636Y-52990000D01*
X172978012Y-52990000D01*
X173010925Y-52932993D01*
X173045000Y-52805826D01*
X173045000Y-52674174D01*
X173010925Y-52547007D01*
X172978012Y-52490000D01*
X173875636Y-52490000D01*
X173875635Y-52489999D01*
X173818432Y-52276513D01*
X173818429Y-52276507D01*
X173718600Y-52062422D01*
X173718599Y-52062420D01*
X173583113Y-51868926D01*
X173583108Y-51868920D01*
X173416082Y-51701894D01*
X173229968Y-51571575D01*
X173186344Y-51516998D01*
X173179151Y-51447499D01*
X173210673Y-51385145D01*
X173229968Y-51368425D01*
X173416082Y-51238105D01*
X173583105Y-51071082D01*
X173718600Y-50877578D01*
X173818429Y-50663492D01*
X173818432Y-50663486D01*
X173875636Y-50450000D01*
X172978012Y-50450000D01*
X173010925Y-50392993D01*
X173045000Y-50265826D01*
X173045000Y-50134174D01*
X173010925Y-50007007D01*
X172978012Y-49950000D01*
X173875636Y-49950000D01*
X173875635Y-49949999D01*
X173818432Y-49736513D01*
X173818429Y-49736507D01*
X173718600Y-49522422D01*
X173718599Y-49522420D01*
X173583113Y-49328926D01*
X173583108Y-49328920D01*
X173416082Y-49161894D01*
X173222578Y-49026399D01*
X173008492Y-48926570D01*
X173008486Y-48926567D01*
X172886349Y-48893841D01*
X172826689Y-48857476D01*
X172796160Y-48794629D01*
X172804455Y-48725253D01*
X172848940Y-48671375D01*
X172882444Y-48655407D01*
X172948954Y-48635232D01*
X173131450Y-48537685D01*
X173291410Y-48406410D01*
X173422685Y-48246450D01*
X173520232Y-48063954D01*
X173580300Y-47865934D01*
X173600583Y-47660000D01*
X173580300Y-47454066D01*
X173520232Y-47256046D01*
X173422685Y-47073550D01*
X173370702Y-47010209D01*
X173291410Y-46913589D01*
X173131452Y-46782317D01*
X173131453Y-46782317D01*
X173131450Y-46782315D01*
X172948954Y-46684768D01*
X172750934Y-46624700D01*
X172750932Y-46624699D01*
X172750934Y-46624699D01*
X172545000Y-46604417D01*
X172339067Y-46624699D01*
X172141043Y-46684769D01*
X172083650Y-46715447D01*
X171958550Y-46782315D01*
X171958548Y-46782316D01*
X171958547Y-46782317D01*
X171798589Y-46913589D01*
X171683098Y-47054318D01*
X171667315Y-47073550D01*
X171634222Y-47135463D01*
X171569769Y-47256043D01*
X171509699Y-47454067D01*
X171489417Y-47660000D01*
X171509699Y-47865932D01*
X171535284Y-47950273D01*
X171569768Y-48063954D01*
X171667315Y-48246450D01*
X171667317Y-48246452D01*
X171798589Y-48406410D01*
X171887953Y-48479748D01*
X171958550Y-48537685D01*
X172141046Y-48635232D01*
X172207551Y-48655405D01*
X172265989Y-48693702D01*
X172294446Y-48757514D01*
X172283887Y-48826581D01*
X172237663Y-48878975D01*
X172203650Y-48893841D01*
X172081514Y-48926567D01*
X172081507Y-48926570D01*
X171867422Y-49026399D01*
X171867420Y-49026400D01*
X171673926Y-49161886D01*
X171673920Y-49161891D01*
X171506891Y-49328920D01*
X171506890Y-49328922D01*
X171376575Y-49515031D01*
X171321998Y-49558655D01*
X171252499Y-49565848D01*
X171190145Y-49534326D01*
X171173425Y-49515031D01*
X171043109Y-49328922D01*
X171043108Y-49328920D01*
X170876082Y-49161894D01*
X170682578Y-49026399D01*
X170468492Y-48926570D01*
X170468486Y-48926567D01*
X170346349Y-48893841D01*
X170286689Y-48857476D01*
X170256160Y-48794629D01*
X170264455Y-48725253D01*
X170308940Y-48671375D01*
X170342444Y-48655407D01*
X170408954Y-48635232D01*
X170591450Y-48537685D01*
X170751410Y-48406410D01*
X170882685Y-48246450D01*
X170980232Y-48063954D01*
X171040300Y-47865934D01*
X171060583Y-47660000D01*
X171040300Y-47454066D01*
X170980232Y-47256046D01*
X170882685Y-47073550D01*
X170830702Y-47010209D01*
X170751410Y-46913589D01*
X170591452Y-46782317D01*
X170591453Y-46782317D01*
X170591450Y-46782315D01*
X170408954Y-46684768D01*
X170210934Y-46624700D01*
X170210932Y-46624699D01*
X170210934Y-46624699D01*
X170005000Y-46604417D01*
X169799067Y-46624699D01*
X169601043Y-46684769D01*
X169543650Y-46715447D01*
X169418550Y-46782315D01*
X169418548Y-46782316D01*
X169418547Y-46782317D01*
X169258589Y-46913589D01*
X169143098Y-47054318D01*
X169127315Y-47073550D01*
X169094222Y-47135463D01*
X169029769Y-47256043D01*
X168969699Y-47454067D01*
X168949417Y-47660000D01*
X168969699Y-47865932D01*
X168995284Y-47950273D01*
X169029768Y-48063954D01*
X169127315Y-48246450D01*
X169127317Y-48246452D01*
X169258589Y-48406410D01*
X169347953Y-48479748D01*
X169418550Y-48537685D01*
X169601046Y-48635232D01*
X169667551Y-48655405D01*
X169725989Y-48693702D01*
X169754446Y-48757514D01*
X169743887Y-48826581D01*
X169697663Y-48878975D01*
X169663650Y-48893841D01*
X169541514Y-48926567D01*
X169541507Y-48926570D01*
X169327422Y-49026399D01*
X169327420Y-49026400D01*
X169133926Y-49161886D01*
X169133920Y-49161891D01*
X168966891Y-49328920D01*
X168966886Y-49328926D01*
X168831400Y-49522420D01*
X168831399Y-49522422D01*
X168731570Y-49736507D01*
X168731567Y-49736513D01*
X168674364Y-49949999D01*
X162576593Y-49949999D01*
X162575141Y-49933400D01*
X162575139Y-49933389D01*
X162516269Y-49713682D01*
X162516264Y-49713668D01*
X162420136Y-49507521D01*
X162420132Y-49507513D01*
X162369025Y-49434526D01*
X161690000Y-50113551D01*
X161690000Y-50107339D01*
X161662741Y-50005606D01*
X161610080Y-49914394D01*
X161535606Y-49839920D01*
X161444394Y-49787259D01*
X161342661Y-49760000D01*
X161336448Y-49760000D01*
X162015472Y-49080974D01*
X161942478Y-49029863D01*
X161736331Y-48933735D01*
X161736317Y-48933730D01*
X161626387Y-48904275D01*
X161566726Y-48867910D01*
X161536197Y-48805063D01*
X161544492Y-48735688D01*
X161588977Y-48681810D01*
X161655529Y-48660535D01*
X161658480Y-48660500D01*
X162109750Y-48660500D01*
X162109751Y-48660499D01*
X162124568Y-48657552D01*
X162168229Y-48648868D01*
X162168229Y-48648867D01*
X162168231Y-48648867D01*
X162234552Y-48604552D01*
X162278867Y-48538231D01*
X162278867Y-48538229D01*
X162278868Y-48538229D01*
X162290499Y-48479752D01*
X162290500Y-48479750D01*
X162290500Y-46840249D01*
X162290499Y-46840247D01*
X162278868Y-46781770D01*
X162278867Y-46781769D01*
X162234552Y-46715447D01*
X162168230Y-46671132D01*
X162168229Y-46671131D01*
X162109752Y-46659500D01*
X162109748Y-46659500D01*
X160470252Y-46659500D01*
X160470247Y-46659500D01*
X160411770Y-46671131D01*
X160411769Y-46671132D01*
X160345447Y-46715447D01*
X160301132Y-46781769D01*
X160301131Y-46781770D01*
X160289500Y-46840247D01*
X160289500Y-48479752D01*
X160301131Y-48538229D01*
X160301132Y-48538230D01*
X160345447Y-48604552D01*
X160411769Y-48648867D01*
X160411770Y-48648868D01*
X160470247Y-48660499D01*
X160470250Y-48660500D01*
X160921520Y-48660500D01*
X160988559Y-48680185D01*
X161034314Y-48732989D01*
X161044258Y-48802147D01*
X161015233Y-48865703D01*
X160956455Y-48903477D01*
X160953613Y-48904275D01*
X160843682Y-48933730D01*
X160843673Y-48933734D01*
X160637516Y-49029866D01*
X160637512Y-49029868D01*
X160564526Y-49080973D01*
X160564526Y-49080974D01*
X161243553Y-49760000D01*
X161237339Y-49760000D01*
X161135606Y-49787259D01*
X161044394Y-49839920D01*
X160969920Y-49914394D01*
X160917259Y-50005606D01*
X160890000Y-50107339D01*
X160890000Y-50113552D01*
X160210974Y-49434526D01*
X160210973Y-49434526D01*
X160159868Y-49507512D01*
X160159866Y-49507516D01*
X160063734Y-49713673D01*
X160063730Y-49713682D01*
X160004860Y-49933389D01*
X160004858Y-49933400D01*
X159985034Y-50159997D01*
X152648152Y-50159997D01*
X150812207Y-48324052D01*
X150778722Y-48262729D01*
X150781804Y-48198525D01*
X150881961Y-47886044D01*
X150882530Y-47881844D01*
X150890848Y-47851031D01*
X150905044Y-47816762D01*
X150925682Y-47660000D01*
X150905044Y-47503238D01*
X150844536Y-47357159D01*
X150748282Y-47231718D01*
X150622841Y-47135464D01*
X150476762Y-47074956D01*
X150476760Y-47074955D01*
X150320001Y-47054318D01*
X150319999Y-47054318D01*
X150163239Y-47074955D01*
X150163237Y-47074956D01*
X150017160Y-47135463D01*
X149891718Y-47231718D01*
X149795463Y-47357160D01*
X149734956Y-47503237D01*
X149734955Y-47503239D01*
X149714318Y-47659998D01*
X98612462Y-47659998D01*
X98620341Y-47580000D01*
X98601024Y-47383868D01*
X98543814Y-47195273D01*
X98543811Y-47195269D01*
X98543811Y-47195266D01*
X98450913Y-47021467D01*
X98450909Y-47021460D01*
X98325883Y-46869116D01*
X98173539Y-46744090D01*
X98173532Y-46744086D01*
X97999733Y-46651188D01*
X97999727Y-46651186D01*
X97811132Y-46593976D01*
X97811129Y-46593975D01*
X97615000Y-46574659D01*
X97418870Y-46593975D01*
X97230266Y-46651188D01*
X97056467Y-46744086D01*
X97056460Y-46744090D01*
X96904116Y-46869116D01*
X96779090Y-47021460D01*
X96779086Y-47021467D01*
X96686188Y-47195266D01*
X96628975Y-47383870D01*
X96609659Y-47580000D01*
X84302128Y-47580000D01*
X84203539Y-47499090D01*
X84203532Y-47499086D01*
X84029733Y-47406188D01*
X84029727Y-47406186D01*
X83841132Y-47348976D01*
X83841129Y-47348975D01*
X83645000Y-47329659D01*
X83448870Y-47348975D01*
X83260266Y-47406188D01*
X83086467Y-47499086D01*
X83086460Y-47499090D01*
X82934116Y-47624116D01*
X82809090Y-47776460D01*
X82809086Y-47776467D01*
X82716188Y-47950266D01*
X82658975Y-48138870D01*
X82639659Y-48335000D01*
X79375000Y-48335000D01*
X79375000Y-45212000D01*
X100640355Y-45212000D01*
X100660859Y-45380869D01*
X100660860Y-45380874D01*
X100721182Y-45539931D01*
X100783475Y-45630177D01*
X100817817Y-45679929D01*
X100923505Y-45773560D01*
X100945150Y-45792736D01*
X101095773Y-45871789D01*
X101095775Y-45871790D01*
X101260944Y-45912500D01*
X101431056Y-45912500D01*
X101596225Y-45871790D01*
X101675692Y-45830081D01*
X101746849Y-45792736D01*
X101746850Y-45792734D01*
X101746852Y-45792734D01*
X101874183Y-45679929D01*
X101949892Y-45570247D01*
X127094500Y-45570247D01*
X127094500Y-47209752D01*
X127106131Y-47268229D01*
X127106132Y-47268230D01*
X127150447Y-47334552D01*
X127216769Y-47378867D01*
X127216770Y-47378868D01*
X127275247Y-47390499D01*
X127275250Y-47390500D01*
X127275252Y-47390500D01*
X128914750Y-47390500D01*
X128914751Y-47390499D01*
X128929568Y-47387552D01*
X128973229Y-47378868D01*
X128973229Y-47378867D01*
X128973231Y-47378867D01*
X129039552Y-47334552D01*
X129083867Y-47268231D01*
X129083867Y-47268229D01*
X129083868Y-47268229D01*
X129095499Y-47209752D01*
X129095500Y-47209750D01*
X129095500Y-45570249D01*
X129095499Y-45570247D01*
X129083868Y-45511770D01*
X129083867Y-45511769D01*
X129039552Y-45445447D01*
X128973230Y-45401132D01*
X128973229Y-45401131D01*
X128914752Y-45389500D01*
X128914748Y-45389500D01*
X127275252Y-45389500D01*
X127275247Y-45389500D01*
X127216770Y-45401131D01*
X127216769Y-45401132D01*
X127150447Y-45445447D01*
X127106132Y-45511769D01*
X127106131Y-45511770D01*
X127094500Y-45570247D01*
X101949892Y-45570247D01*
X101970818Y-45539930D01*
X102031140Y-45380872D01*
X102051645Y-45212000D01*
X102031140Y-45043128D01*
X101970818Y-44884070D01*
X101874183Y-44744071D01*
X101746852Y-44631266D01*
X101746849Y-44631263D01*
X101596226Y-44552210D01*
X101431056Y-44511500D01*
X101260944Y-44511500D01*
X101095773Y-44552210D01*
X100945150Y-44631263D01*
X100817816Y-44744072D01*
X100721182Y-44884068D01*
X100660860Y-45043125D01*
X100660859Y-45043130D01*
X100640355Y-45212000D01*
X79375000Y-45212000D01*
X79375000Y-44358000D01*
X123452355Y-44358000D01*
X123472859Y-44526869D01*
X123472860Y-44526874D01*
X123533182Y-44685931D01*
X123573314Y-44744071D01*
X123629817Y-44825929D01*
X123695443Y-44884068D01*
X123757150Y-44938736D01*
X123907773Y-45017789D01*
X123907775Y-45017790D01*
X124072944Y-45058500D01*
X124243056Y-45058500D01*
X124408225Y-45017790D01*
X124487692Y-44976081D01*
X124558849Y-44938736D01*
X124558850Y-44938734D01*
X124558852Y-44938734D01*
X124640952Y-44866000D01*
X130818355Y-44866000D01*
X130838859Y-45034869D01*
X130838860Y-45034874D01*
X130899182Y-45193931D01*
X130961475Y-45284177D01*
X130995817Y-45333929D01*
X131058544Y-45389500D01*
X131123150Y-45446736D01*
X131247062Y-45511770D01*
X131273775Y-45525790D01*
X131438944Y-45566500D01*
X131609056Y-45566500D01*
X131774225Y-45525790D01*
X131853692Y-45484081D01*
X131924849Y-45446736D01*
X131924850Y-45446734D01*
X131924852Y-45446734D01*
X132052183Y-45333929D01*
X132148818Y-45193930D01*
X132209140Y-45034872D01*
X132229645Y-44866000D01*
X132209140Y-44697128D01*
X132148818Y-44538070D01*
X132141086Y-44526869D01*
X132114476Y-44488318D01*
X132052183Y-44398071D01*
X131924852Y-44285266D01*
X131924849Y-44285263D01*
X131774226Y-44206210D01*
X131609056Y-44165500D01*
X131438944Y-44165500D01*
X131273773Y-44206210D01*
X131123150Y-44285263D01*
X130995816Y-44398072D01*
X130899182Y-44538068D01*
X130838860Y-44697125D01*
X130838859Y-44697130D01*
X130818355Y-44866000D01*
X124640952Y-44866000D01*
X124686183Y-44825929D01*
X124782818Y-44685930D01*
X124843140Y-44526872D01*
X124863645Y-44358000D01*
X124843140Y-44189128D01*
X124782818Y-44030070D01*
X124686183Y-43890071D01*
X124558852Y-43777266D01*
X124558849Y-43777263D01*
X124408226Y-43698210D01*
X124243056Y-43657500D01*
X124072944Y-43657500D01*
X123907773Y-43698210D01*
X123757150Y-43777263D01*
X123629816Y-43890072D01*
X123533182Y-44030068D01*
X123472860Y-44189125D01*
X123472859Y-44189130D01*
X123452355Y-44358000D01*
X79375000Y-44358000D01*
X79375000Y-40639998D01*
X89310318Y-40639998D01*
X89310318Y-40640001D01*
X89330955Y-40796760D01*
X89330956Y-40796762D01*
X89367618Y-40885273D01*
X89391464Y-40942841D01*
X89487718Y-41068282D01*
X89541987Y-41109924D01*
X89583189Y-41166349D01*
X89590500Y-41208298D01*
X89590500Y-42611699D01*
X89570815Y-42678738D01*
X89541988Y-42710074D01*
X89487720Y-42751715D01*
X89391463Y-42877160D01*
X89330956Y-43023237D01*
X89330955Y-43023239D01*
X89310318Y-43179998D01*
X89310318Y-43180001D01*
X89330955Y-43336760D01*
X89330956Y-43336762D01*
X89391464Y-43482841D01*
X89487718Y-43608282D01*
X89613159Y-43704536D01*
X89759238Y-43765044D01*
X89837619Y-43775363D01*
X89915999Y-43785682D01*
X89916000Y-43785682D01*
X89916001Y-43785682D01*
X89979949Y-43777263D01*
X90072762Y-43765044D01*
X90218841Y-43704536D01*
X90344282Y-43608282D01*
X90440536Y-43482841D01*
X90501044Y-43336762D01*
X90521682Y-43180000D01*
X90516223Y-43138538D01*
X90501044Y-43023239D01*
X90501044Y-43023238D01*
X90440536Y-42877159D01*
X90344282Y-42751718D01*
X90344280Y-42751716D01*
X90344279Y-42751715D01*
X90290012Y-42710074D01*
X90248810Y-42653646D01*
X90241500Y-42611699D01*
X90241500Y-42580000D01*
X96609659Y-42580000D01*
X96628975Y-42776129D01*
X96686188Y-42964733D01*
X96779086Y-43138532D01*
X96779090Y-43138539D01*
X96904116Y-43290883D01*
X97056460Y-43415909D01*
X97056467Y-43415913D01*
X97230266Y-43508811D01*
X97230269Y-43508811D01*
X97230273Y-43508814D01*
X97418868Y-43566024D01*
X97615000Y-43585341D01*
X97811132Y-43566024D01*
X97999727Y-43508814D01*
X98173538Y-43415910D01*
X98325883Y-43290883D01*
X98450910Y-43138538D01*
X98543814Y-42964727D01*
X98601024Y-42776132D01*
X98620341Y-42580000D01*
X98601024Y-42383868D01*
X98543814Y-42195273D01*
X98543811Y-42195269D01*
X98543811Y-42195266D01*
X98470439Y-42057998D01*
X113406318Y-42057998D01*
X113406318Y-42058001D01*
X113426955Y-42214760D01*
X113426956Y-42214762D01*
X113458007Y-42289727D01*
X113487464Y-42360841D01*
X113583718Y-42486282D01*
X113709159Y-42582536D01*
X113855238Y-42643044D01*
X113933619Y-42653363D01*
X114011999Y-42663682D01*
X114012000Y-42663682D01*
X114012001Y-42663682D01*
X114088231Y-42653646D01*
X114168762Y-42643044D01*
X114314841Y-42582536D01*
X114440282Y-42486282D01*
X114536536Y-42360841D01*
X114597044Y-42214762D01*
X114617682Y-42058000D01*
X114597539Y-41905000D01*
X125819659Y-41905000D01*
X125838975Y-42101129D01*
X125838976Y-42101132D01*
X125873445Y-42214762D01*
X125896188Y-42289733D01*
X125989086Y-42463532D01*
X125989090Y-42463539D01*
X126114116Y-42615883D01*
X126266460Y-42740909D01*
X126266467Y-42740913D01*
X126440266Y-42833811D01*
X126440269Y-42833811D01*
X126440273Y-42833814D01*
X126628868Y-42891024D01*
X126825000Y-42910341D01*
X127021132Y-42891024D01*
X127209727Y-42833814D01*
X127383538Y-42740910D01*
X127535883Y-42615883D01*
X127565332Y-42580000D01*
X134882355Y-42580000D01*
X134902859Y-42748869D01*
X134902860Y-42748874D01*
X134963182Y-42907931D01*
X135025475Y-42998177D01*
X135059817Y-43047929D01*
X135162087Y-43138532D01*
X135187150Y-43160736D01*
X135337773Y-43239789D01*
X135337775Y-43239790D01*
X135502944Y-43280500D01*
X135673056Y-43280500D01*
X135838225Y-43239790D01*
X135917692Y-43198081D01*
X135988849Y-43160736D01*
X135988850Y-43160734D01*
X135988852Y-43160734D01*
X136116183Y-43047929D01*
X136212818Y-42907930D01*
X136273140Y-42748872D01*
X136293645Y-42580000D01*
X136273140Y-42411128D01*
X136212818Y-42252070D01*
X136116183Y-42112071D01*
X135988852Y-41999266D01*
X135988849Y-41999263D01*
X135838226Y-41920210D01*
X135673056Y-41879500D01*
X135502944Y-41879500D01*
X135337773Y-41920210D01*
X135187150Y-41999263D01*
X135072168Y-42101129D01*
X135066773Y-42105909D01*
X135059816Y-42112072D01*
X134963182Y-42252068D01*
X134902860Y-42411125D01*
X134902859Y-42411130D01*
X134882355Y-42580000D01*
X127565332Y-42580000D01*
X127660910Y-42463538D01*
X127753814Y-42289727D01*
X127811024Y-42101132D01*
X127830341Y-41905000D01*
X127811024Y-41708868D01*
X127753814Y-41520273D01*
X127753811Y-41520269D01*
X127753811Y-41520266D01*
X127660913Y-41346467D01*
X127660909Y-41346460D01*
X127630987Y-41310000D01*
X130564355Y-41310000D01*
X130584859Y-41478869D01*
X130584860Y-41478874D01*
X130645182Y-41637931D01*
X130654333Y-41651188D01*
X130741817Y-41777929D01*
X130803849Y-41832884D01*
X130869150Y-41890736D01*
X131019773Y-41969789D01*
X131019775Y-41969790D01*
X131184944Y-42010500D01*
X131355056Y-42010500D01*
X131520225Y-41969790D01*
X131650839Y-41901238D01*
X131670849Y-41890736D01*
X131670850Y-41890734D01*
X131670852Y-41890734D01*
X131798183Y-41777929D01*
X131894818Y-41637930D01*
X131955140Y-41478872D01*
X131975645Y-41310000D01*
X131970788Y-41270000D01*
X155664659Y-41270000D01*
X155683975Y-41466129D01*
X155683976Y-41466132D01*
X155740112Y-41651188D01*
X155741188Y-41654733D01*
X155834086Y-41828532D01*
X155834090Y-41828539D01*
X155959116Y-41980883D01*
X156111460Y-42105909D01*
X156111467Y-42105913D01*
X156285266Y-42198811D01*
X156285269Y-42198811D01*
X156285273Y-42198814D01*
X156473868Y-42256024D01*
X156670000Y-42275341D01*
X156866132Y-42256024D01*
X157054727Y-42198814D01*
X157228538Y-42105910D01*
X157380883Y-41980883D01*
X157505910Y-41828538D01*
X157598814Y-41654727D01*
X157656024Y-41466132D01*
X157675341Y-41270000D01*
X157656024Y-41073868D01*
X157598814Y-40885273D01*
X157598811Y-40885269D01*
X157598811Y-40885266D01*
X157505913Y-40711467D01*
X157505909Y-40711460D01*
X157380883Y-40559116D01*
X157228539Y-40434090D01*
X157228532Y-40434086D01*
X157054733Y-40341188D01*
X157054727Y-40341186D01*
X156866132Y-40283976D01*
X156866129Y-40283975D01*
X156670000Y-40264659D01*
X156473870Y-40283975D01*
X156285266Y-40341188D01*
X156111467Y-40434086D01*
X156111460Y-40434090D01*
X155959116Y-40559116D01*
X155834090Y-40711460D01*
X155834086Y-40711467D01*
X155741188Y-40885266D01*
X155683975Y-41073870D01*
X155664659Y-41270000D01*
X131970788Y-41270000D01*
X131955140Y-41141128D01*
X131894818Y-40982070D01*
X131798183Y-40842071D01*
X131670852Y-40729266D01*
X131670849Y-40729263D01*
X131520226Y-40650210D01*
X131355056Y-40609500D01*
X131184944Y-40609500D01*
X131019773Y-40650210D01*
X130869150Y-40729263D01*
X130741816Y-40842072D01*
X130645182Y-40982068D01*
X130584860Y-41141125D01*
X130584859Y-41141130D01*
X130564355Y-41310000D01*
X127630987Y-41310000D01*
X127535883Y-41194116D01*
X127383539Y-41069090D01*
X127383532Y-41069086D01*
X127209733Y-40976188D01*
X127209727Y-40976186D01*
X127021132Y-40918976D01*
X127021129Y-40918975D01*
X126825000Y-40899659D01*
X126628870Y-40918975D01*
X126440266Y-40976188D01*
X126266467Y-41069086D01*
X126266460Y-41069090D01*
X126114116Y-41194116D01*
X125989090Y-41346460D01*
X125989086Y-41346467D01*
X125896188Y-41520266D01*
X125838975Y-41708870D01*
X125819659Y-41905000D01*
X114597539Y-41905000D01*
X114597044Y-41901238D01*
X114588735Y-41881178D01*
X114581881Y-41858914D01*
X114455085Y-41247746D01*
X114452500Y-41222557D01*
X114452500Y-40278075D01*
X114460392Y-40234543D01*
X114464064Y-40224750D01*
X114683011Y-39640781D01*
X114684753Y-39630718D01*
X114692375Y-39604417D01*
X114710044Y-39561762D01*
X114730682Y-39405000D01*
X114724906Y-39361130D01*
X114710044Y-39248239D01*
X114710044Y-39248238D01*
X114649536Y-39102159D01*
X114553282Y-38976718D01*
X114427841Y-38880464D01*
X114281762Y-38819956D01*
X114281760Y-38819955D01*
X114125001Y-38799318D01*
X114124999Y-38799318D01*
X113968239Y-38819955D01*
X113968237Y-38819956D01*
X113822160Y-38880463D01*
X113696718Y-38976718D01*
X113600463Y-39102160D01*
X113539956Y-39248237D01*
X113539955Y-39248239D01*
X113519318Y-39404998D01*
X113519318Y-39405001D01*
X113539955Y-39561760D01*
X113539956Y-39561761D01*
X113557771Y-39604772D01*
X113565577Y-39632169D01*
X113566987Y-39640778D01*
X113666180Y-39905340D01*
X113785935Y-40224748D01*
X113789608Y-40234543D01*
X113797500Y-40278075D01*
X113797500Y-41184462D01*
X113781257Y-41245817D01*
X113506331Y-41728663D01*
X113496955Y-41742788D01*
X113487462Y-41755159D01*
X113480329Y-41772381D01*
X113473534Y-41786267D01*
X113470407Y-41791759D01*
X113464539Y-41802839D01*
X113463824Y-41804297D01*
X113463422Y-41805120D01*
X113461532Y-41813313D01*
X113455268Y-41832884D01*
X113426956Y-41901234D01*
X113406318Y-42057998D01*
X98470439Y-42057998D01*
X98450913Y-42021467D01*
X98450909Y-42021460D01*
X98325883Y-41869116D01*
X98173539Y-41744090D01*
X98173532Y-41744086D01*
X97999733Y-41651188D01*
X97999727Y-41651186D01*
X97811132Y-41593976D01*
X97811129Y-41593975D01*
X97615000Y-41574659D01*
X97418870Y-41593975D01*
X97230266Y-41651188D01*
X97056467Y-41744086D01*
X97056460Y-41744090D01*
X96904116Y-41869116D01*
X96779090Y-42021460D01*
X96779086Y-42021467D01*
X96686188Y-42195266D01*
X96628975Y-42383870D01*
X96609659Y-42580000D01*
X90241500Y-42580000D01*
X90241500Y-41208298D01*
X90261185Y-41141259D01*
X90290010Y-41109925D01*
X90344282Y-41068282D01*
X90440536Y-40942841D01*
X90501044Y-40796762D01*
X90521682Y-40640000D01*
X90511033Y-40559116D01*
X90501044Y-40483239D01*
X90501044Y-40483238D01*
X90440536Y-40337159D01*
X90344282Y-40211718D01*
X90218841Y-40115464D01*
X90072762Y-40054956D01*
X90072760Y-40054955D01*
X89916001Y-40034318D01*
X89915999Y-40034318D01*
X89759239Y-40054955D01*
X89759237Y-40054956D01*
X89613160Y-40115463D01*
X89487718Y-40211718D01*
X89391463Y-40337160D01*
X89330956Y-40483237D01*
X89330955Y-40483239D01*
X89310318Y-40639998D01*
X79375000Y-40639998D01*
X79375000Y-38770000D01*
X98052355Y-38770000D01*
X98072859Y-38938869D01*
X98072860Y-38938874D01*
X98133182Y-39097931D01*
X98195475Y-39188177D01*
X98229817Y-39237929D01*
X98335505Y-39331560D01*
X98357150Y-39350736D01*
X98507773Y-39429789D01*
X98507775Y-39429790D01*
X98672944Y-39470500D01*
X98843056Y-39470500D01*
X99008225Y-39429790D01*
X99087692Y-39388081D01*
X99158849Y-39350736D01*
X99158850Y-39350734D01*
X99158852Y-39350734D01*
X99286183Y-39237929D01*
X99382818Y-39097930D01*
X99443140Y-38938872D01*
X99463645Y-38770000D01*
X99443140Y-38601128D01*
X99437117Y-38585247D01*
X125824500Y-38585247D01*
X125824500Y-40224752D01*
X125836131Y-40283229D01*
X125836132Y-40283230D01*
X125880447Y-40349552D01*
X125946769Y-40393867D01*
X125946770Y-40393868D01*
X126005247Y-40405499D01*
X126005250Y-40405500D01*
X126005252Y-40405500D01*
X127644750Y-40405500D01*
X127644751Y-40405499D01*
X127659568Y-40402552D01*
X127703229Y-40393868D01*
X127703229Y-40393867D01*
X127703231Y-40393867D01*
X127769552Y-40349552D01*
X127813867Y-40283231D01*
X127813867Y-40283229D01*
X127813868Y-40283229D01*
X127825499Y-40224752D01*
X127825500Y-40224750D01*
X127825500Y-38900000D01*
X133294659Y-38900000D01*
X133313975Y-39096129D01*
X133313976Y-39096132D01*
X133360117Y-39248239D01*
X133371188Y-39284733D01*
X133464086Y-39458532D01*
X133464090Y-39458539D01*
X133589116Y-39610883D01*
X133741460Y-39735909D01*
X133741467Y-39735913D01*
X133915266Y-39828811D01*
X133915269Y-39828811D01*
X133915273Y-39828814D01*
X134103868Y-39886024D01*
X134300000Y-39905341D01*
X134496132Y-39886024D01*
X134684727Y-39828814D01*
X134858538Y-39735910D01*
X135010883Y-39610883D01*
X135135910Y-39458538D01*
X135193531Y-39350736D01*
X135228811Y-39284733D01*
X135228811Y-39284732D01*
X135228814Y-39284727D01*
X135286024Y-39096132D01*
X135305341Y-38900000D01*
X135286024Y-38703868D01*
X135228814Y-38515273D01*
X135228811Y-38515269D01*
X135228811Y-38515266D01*
X135135913Y-38341467D01*
X135135909Y-38341460D01*
X135010883Y-38189116D01*
X134858539Y-38064090D01*
X134858532Y-38064086D01*
X134684733Y-37971188D01*
X134684727Y-37971186D01*
X134615701Y-37950247D01*
X155669500Y-37950247D01*
X155669500Y-39589752D01*
X155681131Y-39648229D01*
X155681132Y-39648230D01*
X155725447Y-39714552D01*
X155791769Y-39758867D01*
X155791770Y-39758868D01*
X155850247Y-39770499D01*
X155850250Y-39770500D01*
X155850252Y-39770500D01*
X157489750Y-39770500D01*
X157489751Y-39770499D01*
X157504568Y-39767552D01*
X157548229Y-39758868D01*
X157548229Y-39758867D01*
X157548231Y-39758867D01*
X157614552Y-39714552D01*
X157658867Y-39648231D01*
X157658867Y-39648229D01*
X157658868Y-39648229D01*
X157670499Y-39589752D01*
X157670500Y-39589750D01*
X157670500Y-39530000D01*
X161806355Y-39530000D01*
X161826859Y-39698869D01*
X161826860Y-39698874D01*
X161887182Y-39857931D01*
X161949475Y-39948177D01*
X161983817Y-39997929D01*
X162089505Y-40091560D01*
X162111150Y-40110736D01*
X162261773Y-40189789D01*
X162261775Y-40189790D01*
X162426944Y-40230500D01*
X162597056Y-40230500D01*
X162762225Y-40189790D01*
X162841692Y-40148081D01*
X162912849Y-40110736D01*
X162912850Y-40110734D01*
X162912852Y-40110734D01*
X163040183Y-39997929D01*
X163136818Y-39857930D01*
X163197140Y-39698872D01*
X163217645Y-39530000D01*
X163197140Y-39361128D01*
X163136818Y-39202070D01*
X163040183Y-39062071D01*
X162912852Y-38949266D01*
X162912849Y-38949263D01*
X162762226Y-38870210D01*
X162597056Y-38829500D01*
X162426944Y-38829500D01*
X162261773Y-38870210D01*
X162111150Y-38949263D01*
X161983816Y-39062072D01*
X161887182Y-39202068D01*
X161826860Y-39361125D01*
X161826859Y-39361130D01*
X161806355Y-39530000D01*
X157670500Y-39530000D01*
X157670500Y-37950249D01*
X157670499Y-37950247D01*
X157658868Y-37891770D01*
X157658867Y-37891769D01*
X157614552Y-37825447D01*
X157548230Y-37781132D01*
X157548229Y-37781131D01*
X157489752Y-37769500D01*
X157489748Y-37769500D01*
X155850252Y-37769500D01*
X155850247Y-37769500D01*
X155791770Y-37781131D01*
X155791769Y-37781132D01*
X155725447Y-37825447D01*
X155681132Y-37891769D01*
X155681131Y-37891770D01*
X155669500Y-37950247D01*
X134615701Y-37950247D01*
X134496132Y-37913976D01*
X134496129Y-37913975D01*
X134300000Y-37894659D01*
X134103870Y-37913975D01*
X133915266Y-37971188D01*
X133741467Y-38064086D01*
X133741460Y-38064090D01*
X133589116Y-38189116D01*
X133464090Y-38341460D01*
X133464086Y-38341467D01*
X133371188Y-38515266D01*
X133313975Y-38703870D01*
X133294659Y-38900000D01*
X127825500Y-38900000D01*
X127825500Y-38585249D01*
X127825499Y-38585247D01*
X127813868Y-38526770D01*
X127813867Y-38526769D01*
X127769552Y-38460447D01*
X127703230Y-38416132D01*
X127703229Y-38416131D01*
X127644752Y-38404500D01*
X127644748Y-38404500D01*
X126005252Y-38404500D01*
X126005247Y-38404500D01*
X125946770Y-38416131D01*
X125946769Y-38416132D01*
X125880447Y-38460447D01*
X125836132Y-38526769D01*
X125836131Y-38526770D01*
X125824500Y-38585247D01*
X99437117Y-38585247D01*
X99382818Y-38442070D01*
X99364913Y-38416131D01*
X99313376Y-38341467D01*
X99286183Y-38302071D01*
X99158852Y-38189266D01*
X99158849Y-38189263D01*
X99008226Y-38110210D01*
X98843056Y-38069500D01*
X98672944Y-38069500D01*
X98507773Y-38110210D01*
X98357150Y-38189263D01*
X98229816Y-38302072D01*
X98133182Y-38442068D01*
X98072860Y-38601125D01*
X98072859Y-38601130D01*
X98052355Y-38770000D01*
X79375000Y-38770000D01*
X79375000Y-36830000D01*
X123452355Y-36830000D01*
X123472859Y-36998869D01*
X123472860Y-36998874D01*
X123533182Y-37157931D01*
X123575855Y-37219752D01*
X123629817Y-37297929D01*
X123682444Y-37344552D01*
X123757150Y-37410736D01*
X123907773Y-37489789D01*
X123907775Y-37489790D01*
X124072944Y-37530500D01*
X124243056Y-37530500D01*
X124408225Y-37489790D01*
X124487692Y-37448081D01*
X124558849Y-37410736D01*
X124558850Y-37410734D01*
X124558852Y-37410734D01*
X124686183Y-37297929D01*
X124782818Y-37157930D01*
X124843140Y-36998872D01*
X124863645Y-36830000D01*
X124843140Y-36661128D01*
X124782818Y-36502070D01*
X124686183Y-36362071D01*
X124558852Y-36249266D01*
X124558849Y-36249263D01*
X124408226Y-36170210D01*
X124243056Y-36129500D01*
X124072944Y-36129500D01*
X123907773Y-36170210D01*
X123757150Y-36249263D01*
X123629816Y-36362072D01*
X123533182Y-36502068D01*
X123472860Y-36661125D01*
X123472859Y-36661130D01*
X123452355Y-36830000D01*
X79375000Y-36830000D01*
X79375000Y-35580247D01*
X133299500Y-35580247D01*
X133299500Y-37219752D01*
X133311131Y-37278229D01*
X133311132Y-37278230D01*
X133355447Y-37344552D01*
X133421769Y-37388867D01*
X133421770Y-37388868D01*
X133480247Y-37400499D01*
X133480250Y-37400500D01*
X133480252Y-37400500D01*
X135119750Y-37400500D01*
X135119751Y-37400499D01*
X135134568Y-37397552D01*
X135178229Y-37388868D01*
X135178229Y-37388867D01*
X135178231Y-37388867D01*
X135244552Y-37344552D01*
X135288867Y-37278231D01*
X135288867Y-37278229D01*
X135288868Y-37278229D01*
X135300499Y-37219752D01*
X135300500Y-37219750D01*
X135300500Y-35580249D01*
X135300499Y-35580247D01*
X135288868Y-35521770D01*
X135288867Y-35521769D01*
X135244552Y-35455447D01*
X135178230Y-35411132D01*
X135178229Y-35411131D01*
X135119752Y-35399500D01*
X135119748Y-35399500D01*
X133480252Y-35399500D01*
X133480247Y-35399500D01*
X133421770Y-35411131D01*
X133421769Y-35411132D01*
X133355447Y-35455447D01*
X133311132Y-35521769D01*
X133311131Y-35521770D01*
X133299500Y-35580247D01*
X79375000Y-35580247D01*
X79375000Y-34544000D01*
X115626355Y-34544000D01*
X115646859Y-34712869D01*
X115646860Y-34712874D01*
X115707182Y-34871931D01*
X115769475Y-34962177D01*
X115803817Y-35011929D01*
X115909505Y-35105560D01*
X115931150Y-35124736D01*
X116081773Y-35203789D01*
X116081775Y-35203790D01*
X116246944Y-35244500D01*
X116417056Y-35244500D01*
X116582225Y-35203790D01*
X116661692Y-35162081D01*
X116732849Y-35124736D01*
X116732850Y-35124734D01*
X116732852Y-35124734D01*
X116860183Y-35011929D01*
X116956818Y-34871930D01*
X117017140Y-34712872D01*
X117037645Y-34544000D01*
X117017140Y-34375128D01*
X116956818Y-34216070D01*
X116860183Y-34076071D01*
X116732852Y-33963266D01*
X116732849Y-33963263D01*
X116582226Y-33884210D01*
X116417056Y-33843500D01*
X116246944Y-33843500D01*
X116081773Y-33884210D01*
X115931150Y-33963263D01*
X115803816Y-34076072D01*
X115707182Y-34216068D01*
X115646860Y-34375125D01*
X115646859Y-34375130D01*
X115626355Y-34544000D01*
X79375000Y-34544000D01*
X79375000Y-29209996D01*
X80814415Y-29209996D01*
X80814415Y-29210003D01*
X80834738Y-29558927D01*
X80834739Y-29558938D01*
X80895428Y-29903127D01*
X80895430Y-29903134D01*
X80995674Y-30237972D01*
X81134107Y-30558895D01*
X81134113Y-30558908D01*
X81308870Y-30861597D01*
X81517584Y-31141949D01*
X81517589Y-31141955D01*
X81623103Y-31253792D01*
X81757442Y-31396183D01*
X81897694Y-31513868D01*
X82025186Y-31620847D01*
X82025194Y-31620853D01*
X82317203Y-31812911D01*
X82317207Y-31812913D01*
X82629549Y-31969777D01*
X82957989Y-32089319D01*
X83298086Y-32169923D01*
X83645241Y-32210500D01*
X83645248Y-32210500D01*
X83994752Y-32210500D01*
X83994759Y-32210500D01*
X84341914Y-32169923D01*
X84682011Y-32089319D01*
X84916424Y-32004000D01*
X103180355Y-32004000D01*
X103200859Y-32172869D01*
X103200860Y-32172874D01*
X103261182Y-32331931D01*
X103322582Y-32420883D01*
X103357817Y-32471929D01*
X103441325Y-32545910D01*
X103485150Y-32584736D01*
X103635773Y-32663789D01*
X103635775Y-32663790D01*
X103800944Y-32704500D01*
X103971056Y-32704500D01*
X104136225Y-32663790D01*
X104215692Y-32622081D01*
X104286849Y-32584736D01*
X104286850Y-32584734D01*
X104286852Y-32584734D01*
X104414183Y-32471929D01*
X104510818Y-32331930D01*
X104571140Y-32172872D01*
X104591645Y-32004000D01*
X104571140Y-31835128D01*
X104523686Y-31710000D01*
X112024659Y-31710000D01*
X112043975Y-31906129D01*
X112043976Y-31906132D01*
X112099545Y-32089319D01*
X112101188Y-32094733D01*
X112194086Y-32268532D01*
X112194090Y-32268539D01*
X112319116Y-32420883D01*
X112471460Y-32545909D01*
X112471467Y-32545913D01*
X112645266Y-32638811D01*
X112645269Y-32638811D01*
X112645273Y-32638814D01*
X112833868Y-32696024D01*
X113030000Y-32715341D01*
X113226132Y-32696024D01*
X113414727Y-32638814D01*
X113588538Y-32545910D01*
X113740883Y-32420883D01*
X113865910Y-32268538D01*
X113958814Y-32094727D01*
X114016024Y-31906132D01*
X114035341Y-31710000D01*
X114016024Y-31513868D01*
X113958814Y-31325273D01*
X113958811Y-31325269D01*
X113958811Y-31325266D01*
X113865913Y-31151467D01*
X113865909Y-31151460D01*
X113740883Y-30999116D01*
X113588539Y-30874090D01*
X113588532Y-30874086D01*
X113414733Y-30781188D01*
X113414727Y-30781186D01*
X113226132Y-30723976D01*
X113226129Y-30723975D01*
X113030000Y-30704659D01*
X112833870Y-30723975D01*
X112645266Y-30781188D01*
X112471467Y-30874086D01*
X112471460Y-30874090D01*
X112319116Y-30999116D01*
X112194090Y-31151460D01*
X112194086Y-31151467D01*
X112101188Y-31325266D01*
X112043975Y-31513870D01*
X112024659Y-31710000D01*
X104523686Y-31710000D01*
X104510818Y-31676070D01*
X104414183Y-31536071D01*
X104286852Y-31423266D01*
X104286849Y-31423263D01*
X104136226Y-31344210D01*
X103971056Y-31303500D01*
X103800944Y-31303500D01*
X103635773Y-31344210D01*
X103485150Y-31423263D01*
X103357816Y-31536072D01*
X103261182Y-31676068D01*
X103200860Y-31835125D01*
X103200859Y-31835130D01*
X103180355Y-32004000D01*
X84916424Y-32004000D01*
X85010451Y-31969777D01*
X85322793Y-31812913D01*
X85614811Y-31620849D01*
X85882558Y-31396183D01*
X86122412Y-31141953D01*
X86129414Y-31132547D01*
X86185231Y-31090526D01*
X86227187Y-31082601D01*
X87398707Y-31066638D01*
X87408517Y-31064582D01*
X87410647Y-31064136D01*
X87436078Y-31061500D01*
X88435851Y-31061500D01*
X88502890Y-31081185D01*
X88535619Y-31111864D01*
X88580850Y-31173150D01*
X88690118Y-31253793D01*
X88732845Y-31268744D01*
X88818299Y-31298646D01*
X88848730Y-31301500D01*
X88848734Y-31301500D01*
X89582270Y-31301500D01*
X89612699Y-31298646D01*
X89612701Y-31298646D01*
X89676790Y-31276219D01*
X89740882Y-31253793D01*
X89850150Y-31173150D01*
X89930793Y-31063882D01*
X89953456Y-30999116D01*
X89975646Y-30935701D01*
X89975646Y-30935699D01*
X89978500Y-30905269D01*
X89978500Y-30900986D01*
X91078001Y-30900986D01*
X91088494Y-31003697D01*
X91143641Y-31170119D01*
X91143643Y-31170124D01*
X91235684Y-31319345D01*
X91359654Y-31443315D01*
X91508875Y-31535356D01*
X91508880Y-31535358D01*
X91675302Y-31590505D01*
X91675309Y-31590506D01*
X91778019Y-31600999D01*
X91890499Y-31600999D01*
X92390500Y-31600999D01*
X92502972Y-31600999D01*
X92502986Y-31600998D01*
X92605697Y-31590505D01*
X92772119Y-31535358D01*
X92772124Y-31535356D01*
X92921345Y-31443315D01*
X93045315Y-31319345D01*
X93137356Y-31170124D01*
X93137358Y-31170119D01*
X93192505Y-31003697D01*
X93192506Y-31003690D01*
X93202999Y-30900986D01*
X93203000Y-30900973D01*
X93203000Y-30476000D01*
X92390500Y-30476000D01*
X92390500Y-31600999D01*
X91890499Y-31600999D01*
X91890500Y-31600998D01*
X91890500Y-30476000D01*
X91078001Y-30476000D01*
X91078001Y-30900986D01*
X89978500Y-30900986D01*
X89978500Y-30591888D01*
X89987939Y-30544435D01*
X89998327Y-30519356D01*
X90018893Y-30469706D01*
X90051000Y-30308290D01*
X90051000Y-30143710D01*
X90018893Y-29982294D01*
X89987938Y-29907563D01*
X89978500Y-29860112D01*
X89978500Y-29551013D01*
X91078000Y-29551013D01*
X91078000Y-29976000D01*
X91890500Y-29976000D01*
X92390500Y-29976000D01*
X93202999Y-29976000D01*
X93202999Y-29551028D01*
X93202998Y-29551013D01*
X93192505Y-29448302D01*
X93137358Y-29281880D01*
X93137356Y-29281875D01*
X93045315Y-29132654D01*
X92921345Y-29008684D01*
X92772124Y-28916643D01*
X92772119Y-28916641D01*
X92605697Y-28861494D01*
X92605690Y-28861493D01*
X92502986Y-28851000D01*
X92390500Y-28851000D01*
X92390500Y-29976000D01*
X91890500Y-29976000D01*
X91890500Y-28851000D01*
X91778027Y-28851000D01*
X91778012Y-28851001D01*
X91675302Y-28861494D01*
X91508880Y-28916641D01*
X91508875Y-28916643D01*
X91359654Y-29008684D01*
X91235684Y-29132654D01*
X91143643Y-29281875D01*
X91143641Y-29281880D01*
X91088494Y-29448302D01*
X91088493Y-29448309D01*
X91078000Y-29551013D01*
X89978500Y-29551013D01*
X89978500Y-29546730D01*
X89975646Y-29516300D01*
X89975646Y-29516298D01*
X89930793Y-29388119D01*
X89930792Y-29388117D01*
X89926561Y-29382384D01*
X89850150Y-29278850D01*
X89740882Y-29198207D01*
X89740880Y-29198206D01*
X89612700Y-29153353D01*
X89582270Y-29150500D01*
X89582266Y-29150500D01*
X88848734Y-29150500D01*
X88848730Y-29150500D01*
X88818300Y-29153353D01*
X88818298Y-29153353D01*
X88690119Y-29198206D01*
X88690117Y-29198207D01*
X88580850Y-29278850D01*
X88535621Y-29340134D01*
X88479974Y-29382384D01*
X88435851Y-29390500D01*
X87526865Y-29390500D01*
X87459826Y-29370815D01*
X87450775Y-29364410D01*
X87419538Y-29340134D01*
X86843332Y-28892337D01*
X86802478Y-28835658D01*
X86797308Y-28815967D01*
X86747772Y-28535028D01*
X86744571Y-28516872D01*
X86744569Y-28516865D01*
X86744569Y-28516864D01*
X86706662Y-28390247D01*
X112029500Y-28390247D01*
X112029500Y-30029752D01*
X112041131Y-30088229D01*
X112041132Y-30088230D01*
X112085447Y-30154552D01*
X112151769Y-30198867D01*
X112151770Y-30198868D01*
X112210247Y-30210499D01*
X112210250Y-30210500D01*
X112210252Y-30210500D01*
X113849750Y-30210500D01*
X113849751Y-30210499D01*
X113864568Y-30207552D01*
X113908229Y-30198868D01*
X113908229Y-30198867D01*
X113908231Y-30198867D01*
X113974552Y-30154552D01*
X114018867Y-30088231D01*
X114018867Y-30088229D01*
X114018868Y-30088229D01*
X114030499Y-30029752D01*
X114030500Y-30029750D01*
X114030500Y-29884986D01*
X163337001Y-29884986D01*
X163347494Y-29987697D01*
X163402641Y-30154119D01*
X163402643Y-30154124D01*
X163494684Y-30303345D01*
X163618654Y-30427315D01*
X163767875Y-30519356D01*
X163767880Y-30519358D01*
X163934302Y-30574505D01*
X163934309Y-30574506D01*
X164037019Y-30584999D01*
X164149499Y-30584999D01*
X164649500Y-30584999D01*
X164761972Y-30584999D01*
X164761986Y-30584998D01*
X164864697Y-30574505D01*
X165031119Y-30519358D01*
X165031124Y-30519356D01*
X165180345Y-30427315D01*
X165304315Y-30303345D01*
X165396356Y-30154124D01*
X165396358Y-30154119D01*
X165451505Y-29987697D01*
X165451506Y-29987690D01*
X165461999Y-29884986D01*
X165462000Y-29884973D01*
X165462000Y-29460000D01*
X164649500Y-29460000D01*
X164649500Y-30584999D01*
X164149499Y-30584999D01*
X164149500Y-30584998D01*
X164149500Y-29460000D01*
X163337001Y-29460000D01*
X163337001Y-29884986D01*
X114030500Y-29884986D01*
X114030500Y-29127705D01*
X166489000Y-29127705D01*
X166489000Y-29292294D01*
X166521105Y-29453698D01*
X166521107Y-29453706D01*
X166552061Y-29528435D01*
X166561500Y-29575888D01*
X166561500Y-29889269D01*
X166564353Y-29919699D01*
X166564353Y-29919701D01*
X166609206Y-30047880D01*
X166609207Y-30047882D01*
X166689850Y-30157150D01*
X166799118Y-30237793D01*
X166841845Y-30252744D01*
X166927299Y-30282646D01*
X166957730Y-30285500D01*
X166957734Y-30285500D01*
X167691270Y-30285500D01*
X167721699Y-30282646D01*
X167721701Y-30282646D01*
X167785790Y-30260219D01*
X167849882Y-30237793D01*
X167959150Y-30157150D01*
X168004379Y-30095865D01*
X168060026Y-30053616D01*
X168104149Y-30045500D01*
X168219724Y-30045500D01*
X168255630Y-30050812D01*
X169263530Y-30355734D01*
X169321997Y-30393987D01*
X169341482Y-30425307D01*
X169399107Y-30558895D01*
X169399113Y-30558908D01*
X169573870Y-30861597D01*
X169782584Y-31141949D01*
X169782589Y-31141955D01*
X169888103Y-31253792D01*
X170022442Y-31396183D01*
X170162694Y-31513868D01*
X170290186Y-31620847D01*
X170290194Y-31620853D01*
X170582203Y-31812911D01*
X170582207Y-31812913D01*
X170894549Y-31969777D01*
X171222989Y-32089319D01*
X171563086Y-32169923D01*
X171910241Y-32210500D01*
X171910248Y-32210500D01*
X172259752Y-32210500D01*
X172259759Y-32210500D01*
X172606914Y-32169923D01*
X172947011Y-32089319D01*
X173275451Y-31969777D01*
X173587793Y-31812913D01*
X173879811Y-31620849D01*
X174147558Y-31396183D01*
X174387412Y-31141953D01*
X174596130Y-30861596D01*
X174770889Y-30558904D01*
X174909326Y-30237971D01*
X175009569Y-29903136D01*
X175012015Y-29889269D01*
X175070260Y-29558938D01*
X175070259Y-29558938D01*
X175070262Y-29558927D01*
X175090585Y-29210000D01*
X175070262Y-28861073D01*
X175033926Y-28654999D01*
X175009571Y-28516872D01*
X175009569Y-28516865D01*
X175009569Y-28516864D01*
X174909326Y-28182029D01*
X174770889Y-27861096D01*
X174596130Y-27558404D01*
X174560790Y-27510934D01*
X174387415Y-27278050D01*
X174387410Y-27278044D01*
X174230761Y-27112007D01*
X174147558Y-27023817D01*
X173927391Y-26839075D01*
X173879813Y-26799152D01*
X173879805Y-26799146D01*
X173587796Y-26607088D01*
X173275458Y-26450226D01*
X173275452Y-26450223D01*
X172947012Y-26330681D01*
X172947009Y-26330680D01*
X172606915Y-26250077D01*
X172563519Y-26245004D01*
X172259759Y-26209500D01*
X171910241Y-26209500D01*
X171606480Y-26245004D01*
X171563085Y-26250077D01*
X171563083Y-26250077D01*
X171222990Y-26330680D01*
X171222987Y-26330681D01*
X170894547Y-26450223D01*
X170894541Y-26450226D01*
X170582203Y-26607088D01*
X170290194Y-26799146D01*
X170290186Y-26799152D01*
X170022442Y-27023817D01*
X170022440Y-27023819D01*
X169782589Y-27278044D01*
X169782584Y-27278050D01*
X169573870Y-27558402D01*
X169399113Y-27861091D01*
X169399102Y-27861113D01*
X169341482Y-27994691D01*
X169296854Y-28048450D01*
X169263531Y-28064263D01*
X168255626Y-28369187D01*
X168219719Y-28374500D01*
X168104149Y-28374500D01*
X168037110Y-28354815D01*
X168004379Y-28324134D01*
X167971978Y-28280232D01*
X167959150Y-28262850D01*
X167849882Y-28182207D01*
X167849880Y-28182206D01*
X167721700Y-28137353D01*
X167691270Y-28134500D01*
X167691266Y-28134500D01*
X166957734Y-28134500D01*
X166957730Y-28134500D01*
X166927300Y-28137353D01*
X166927298Y-28137353D01*
X166799119Y-28182206D01*
X166799117Y-28182207D01*
X166689850Y-28262850D01*
X166609207Y-28372117D01*
X166609206Y-28372119D01*
X166564353Y-28500298D01*
X166564353Y-28500300D01*
X166561500Y-28530730D01*
X166561500Y-28844112D01*
X166552061Y-28891564D01*
X166521108Y-28966290D01*
X166521105Y-28966302D01*
X166489000Y-29127705D01*
X114030500Y-29127705D01*
X114030500Y-28390249D01*
X114030499Y-28390247D01*
X114018868Y-28331770D01*
X114018867Y-28331769D01*
X113974552Y-28265447D01*
X113908230Y-28221132D01*
X113908229Y-28221131D01*
X113849752Y-28209500D01*
X113849748Y-28209500D01*
X112210252Y-28209500D01*
X112210247Y-28209500D01*
X112151770Y-28221131D01*
X112151769Y-28221132D01*
X112085447Y-28265447D01*
X112041132Y-28331769D01*
X112041131Y-28331770D01*
X112029500Y-28390247D01*
X86706662Y-28390247D01*
X86644326Y-28182029D01*
X86505889Y-27861096D01*
X86331130Y-27558404D01*
X86295790Y-27510934D01*
X86122415Y-27278050D01*
X86122410Y-27278044D01*
X85965761Y-27112007D01*
X85882558Y-27023817D01*
X85662391Y-26839075D01*
X85614813Y-26799152D01*
X85614805Y-26799146D01*
X85322796Y-26607088D01*
X85010458Y-26450226D01*
X85010452Y-26450223D01*
X84969306Y-26435247D01*
X90389500Y-26435247D01*
X90389500Y-28174752D01*
X90401131Y-28233229D01*
X90401132Y-28233230D01*
X90445447Y-28299552D01*
X90511769Y-28343867D01*
X90511770Y-28343868D01*
X90570247Y-28355499D01*
X90570250Y-28355500D01*
X90570252Y-28355500D01*
X92309750Y-28355500D01*
X92309751Y-28355499D01*
X92324568Y-28352552D01*
X92368229Y-28343868D01*
X92368229Y-28343867D01*
X92368231Y-28343867D01*
X92434552Y-28299552D01*
X92478867Y-28233231D01*
X92478867Y-28233229D01*
X92478868Y-28233229D01*
X92489016Y-28182207D01*
X92490500Y-28174748D01*
X92490500Y-27305000D01*
X92924417Y-27305000D01*
X92944699Y-27510932D01*
X92974734Y-27609944D01*
X93004768Y-27708954D01*
X93102315Y-27891450D01*
X93136969Y-27933677D01*
X93233589Y-28051410D01*
X93330209Y-28130702D01*
X93393550Y-28182685D01*
X93576046Y-28280232D01*
X93774066Y-28340300D01*
X93774065Y-28340300D01*
X93792529Y-28342118D01*
X93980000Y-28360583D01*
X94185934Y-28340300D01*
X94383954Y-28280232D01*
X94566450Y-28182685D01*
X94726410Y-28051410D01*
X94857685Y-27891450D01*
X94955232Y-27708954D01*
X95015300Y-27510934D01*
X95035583Y-27305000D01*
X95464417Y-27305000D01*
X95484699Y-27510932D01*
X95514734Y-27609944D01*
X95544768Y-27708954D01*
X95642315Y-27891450D01*
X95676969Y-27933677D01*
X95773589Y-28051410D01*
X95870209Y-28130702D01*
X95933550Y-28182685D01*
X96116046Y-28280232D01*
X96314066Y-28340300D01*
X96314065Y-28340300D01*
X96332529Y-28342118D01*
X96520000Y-28360583D01*
X96725934Y-28340300D01*
X96923954Y-28280232D01*
X97106450Y-28182685D01*
X97266410Y-28051410D01*
X97397685Y-27891450D01*
X97495232Y-27708954D01*
X97555300Y-27510934D01*
X97575583Y-27305000D01*
X97555300Y-27099066D01*
X97495232Y-26901046D01*
X97397685Y-26718550D01*
X97306211Y-26607088D01*
X97266410Y-26558589D01*
X97134367Y-26450226D01*
X97116115Y-26435247D01*
X102454500Y-26435247D01*
X102454500Y-28174752D01*
X102466131Y-28233229D01*
X102466132Y-28233230D01*
X102510447Y-28299552D01*
X102576769Y-28343867D01*
X102576770Y-28343868D01*
X102635247Y-28355499D01*
X102635250Y-28355500D01*
X102635252Y-28355500D01*
X104374750Y-28355500D01*
X104374751Y-28355499D01*
X104389568Y-28352552D01*
X104433229Y-28343868D01*
X104433229Y-28343867D01*
X104433231Y-28343867D01*
X104499552Y-28299552D01*
X104543867Y-28233231D01*
X104543867Y-28233229D01*
X104543868Y-28233229D01*
X104554016Y-28182207D01*
X104555500Y-28174748D01*
X104555500Y-27305000D01*
X104989417Y-27305000D01*
X105009699Y-27510932D01*
X105039734Y-27609944D01*
X105069768Y-27708954D01*
X105167315Y-27891450D01*
X105201969Y-27933677D01*
X105298589Y-28051410D01*
X105395209Y-28130702D01*
X105458550Y-28182685D01*
X105641046Y-28280232D01*
X105839066Y-28340300D01*
X105839065Y-28340300D01*
X105857529Y-28342118D01*
X106045000Y-28360583D01*
X106250934Y-28340300D01*
X106448954Y-28280232D01*
X106631450Y-28182685D01*
X106791410Y-28051410D01*
X106922685Y-27891450D01*
X107020232Y-27708954D01*
X107080300Y-27510934D01*
X107100583Y-27305000D01*
X107080300Y-27099066D01*
X107020232Y-26901046D01*
X106922685Y-26718550D01*
X106831211Y-26607088D01*
X106791410Y-26558589D01*
X106659367Y-26450226D01*
X106631450Y-26427315D01*
X106593734Y-26407155D01*
X118030000Y-26407155D01*
X118030000Y-27055000D01*
X118946988Y-27055000D01*
X118914075Y-27112007D01*
X118880000Y-27239174D01*
X118880000Y-27370826D01*
X118914075Y-27497993D01*
X118946988Y-27555000D01*
X118030000Y-27555000D01*
X118030000Y-28202844D01*
X118036401Y-28262372D01*
X118036403Y-28262379D01*
X118086645Y-28397086D01*
X118086649Y-28397093D01*
X118172809Y-28512187D01*
X118172812Y-28512190D01*
X118287906Y-28598350D01*
X118287913Y-28598354D01*
X118422620Y-28648596D01*
X118422627Y-28648598D01*
X118482155Y-28654999D01*
X118482172Y-28655000D01*
X119130000Y-28655000D01*
X119130000Y-27738012D01*
X119187007Y-27770925D01*
X119314174Y-27805000D01*
X119445826Y-27805000D01*
X119572993Y-27770925D01*
X119630000Y-27738012D01*
X119630000Y-28655000D01*
X120277828Y-28655000D01*
X120277844Y-28654999D01*
X120337372Y-28648598D01*
X120337379Y-28648596D01*
X120472086Y-28598354D01*
X120472093Y-28598350D01*
X120587187Y-28512190D01*
X120587190Y-28512187D01*
X120673350Y-28397093D01*
X120673354Y-28397086D01*
X120723596Y-28262379D01*
X120723598Y-28262372D01*
X120729999Y-28202844D01*
X120730000Y-28202827D01*
X120730000Y-27802186D01*
X120749685Y-27735147D01*
X120802489Y-27689392D01*
X120871647Y-27679448D01*
X120935203Y-27708473D01*
X120963356Y-27743729D01*
X121042315Y-27891450D01*
X121076969Y-27933677D01*
X121173589Y-28051410D01*
X121270209Y-28130702D01*
X121333550Y-28182685D01*
X121516046Y-28280232D01*
X121714066Y-28340300D01*
X121714065Y-28340300D01*
X121732529Y-28342118D01*
X121920000Y-28360583D01*
X122125934Y-28340300D01*
X122323954Y-28280232D01*
X122506450Y-28182685D01*
X122666410Y-28051410D01*
X122797685Y-27891450D01*
X122895232Y-27708954D01*
X122955300Y-27510934D01*
X122975583Y-27305000D01*
X122955300Y-27099066D01*
X122895232Y-26901046D01*
X122797685Y-26718550D01*
X122706211Y-26607088D01*
X122666410Y-26558589D01*
X122534367Y-26450226D01*
X122506450Y-26427315D01*
X122468734Y-26407155D01*
X141350000Y-26407155D01*
X141350000Y-27055000D01*
X142266988Y-27055000D01*
X142234075Y-27112007D01*
X142200000Y-27239174D01*
X142200000Y-27370826D01*
X142234075Y-27497993D01*
X142266988Y-27555000D01*
X141350000Y-27555000D01*
X141350000Y-28202844D01*
X141356401Y-28262372D01*
X141356403Y-28262379D01*
X141406645Y-28397086D01*
X141406649Y-28397093D01*
X141492809Y-28512187D01*
X141492812Y-28512190D01*
X141607906Y-28598350D01*
X141607913Y-28598354D01*
X141742620Y-28648596D01*
X141742627Y-28648598D01*
X141802155Y-28654999D01*
X141802172Y-28655000D01*
X142450000Y-28655000D01*
X142450000Y-27738012D01*
X142507007Y-27770925D01*
X142634174Y-27805000D01*
X142765826Y-27805000D01*
X142892993Y-27770925D01*
X142950000Y-27738012D01*
X142950000Y-28655000D01*
X143597828Y-28655000D01*
X143597844Y-28654999D01*
X143657372Y-28648598D01*
X143657379Y-28648596D01*
X143792086Y-28598354D01*
X143792093Y-28598350D01*
X143876700Y-28535013D01*
X163337000Y-28535013D01*
X163337000Y-28960000D01*
X164149500Y-28960000D01*
X164649500Y-28960000D01*
X165461999Y-28960000D01*
X165461999Y-28535028D01*
X165461998Y-28535013D01*
X165451505Y-28432302D01*
X165396358Y-28265880D01*
X165396356Y-28265875D01*
X165304315Y-28116654D01*
X165180345Y-27992684D01*
X165031124Y-27900643D01*
X165031119Y-27900641D01*
X164864697Y-27845494D01*
X164864690Y-27845493D01*
X164761986Y-27835000D01*
X164649500Y-27835000D01*
X164649500Y-28960000D01*
X164149500Y-28960000D01*
X164149500Y-27835000D01*
X164037027Y-27835000D01*
X164037012Y-27835001D01*
X163934302Y-27845494D01*
X163767880Y-27900641D01*
X163767875Y-27900643D01*
X163618654Y-27992684D01*
X163494684Y-28116654D01*
X163402643Y-28265875D01*
X163402641Y-28265880D01*
X163347494Y-28432302D01*
X163347493Y-28432309D01*
X163337000Y-28535013D01*
X143876700Y-28535013D01*
X143907187Y-28512190D01*
X143907190Y-28512187D01*
X143993350Y-28397093D01*
X143993354Y-28397086D01*
X144043596Y-28262379D01*
X144043598Y-28262372D01*
X144049999Y-28202844D01*
X144050000Y-28202827D01*
X144050000Y-27802186D01*
X144069685Y-27735147D01*
X144122489Y-27689392D01*
X144191647Y-27679448D01*
X144255203Y-27708473D01*
X144283356Y-27743729D01*
X144362315Y-27891450D01*
X144396969Y-27933677D01*
X144493589Y-28051410D01*
X144590209Y-28130702D01*
X144653550Y-28182685D01*
X144836046Y-28280232D01*
X145034066Y-28340300D01*
X145034065Y-28340300D01*
X145052529Y-28342118D01*
X145240000Y-28360583D01*
X145445934Y-28340300D01*
X145643954Y-28280232D01*
X145826450Y-28182685D01*
X145986410Y-28051410D01*
X146117685Y-27891450D01*
X146215232Y-27708954D01*
X146275300Y-27510934D01*
X146295583Y-27305000D01*
X146275300Y-27099066D01*
X146215232Y-26901046D01*
X146117685Y-26718550D01*
X146026211Y-26607088D01*
X145986410Y-26558589D01*
X145854367Y-26450226D01*
X145826450Y-26427315D01*
X145643954Y-26329768D01*
X145445934Y-26269700D01*
X145445932Y-26269699D01*
X145445934Y-26269699D01*
X145240000Y-26249417D01*
X145034067Y-26269699D01*
X144836043Y-26329769D01*
X144802634Y-26347627D01*
X144653550Y-26427315D01*
X144653548Y-26427316D01*
X144653547Y-26427317D01*
X144493589Y-26558589D01*
X144362317Y-26718547D01*
X144362315Y-26718550D01*
X144290887Y-26852181D01*
X144283358Y-26866267D01*
X144234395Y-26916111D01*
X144166257Y-26931571D01*
X144100578Y-26907739D01*
X144058209Y-26852181D01*
X144050000Y-26807813D01*
X144050000Y-26407172D01*
X144049999Y-26407155D01*
X144043598Y-26347627D01*
X144043596Y-26347620D01*
X143993354Y-26212913D01*
X143993350Y-26212906D01*
X143907190Y-26097812D01*
X143907187Y-26097809D01*
X143792093Y-26011649D01*
X143792086Y-26011645D01*
X143657379Y-25961403D01*
X143657372Y-25961401D01*
X143597844Y-25955000D01*
X142950000Y-25955000D01*
X142950000Y-26871988D01*
X142892993Y-26839075D01*
X142765826Y-26805000D01*
X142634174Y-26805000D01*
X142507007Y-26839075D01*
X142450000Y-26871988D01*
X142450000Y-25955000D01*
X141802155Y-25955000D01*
X141742627Y-25961401D01*
X141742620Y-25961403D01*
X141607913Y-26011645D01*
X141607906Y-26011649D01*
X141492812Y-26097809D01*
X141492809Y-26097812D01*
X141406649Y-26212906D01*
X141406645Y-26212913D01*
X141356403Y-26347620D01*
X141356401Y-26347627D01*
X141350000Y-26407155D01*
X122468734Y-26407155D01*
X122323954Y-26329768D01*
X122125934Y-26269700D01*
X122125932Y-26269699D01*
X122125934Y-26269699D01*
X121920000Y-26249417D01*
X121714067Y-26269699D01*
X121516043Y-26329769D01*
X121482634Y-26347627D01*
X121333550Y-26427315D01*
X121333548Y-26427316D01*
X121333547Y-26427317D01*
X121173589Y-26558589D01*
X121042317Y-26718547D01*
X121042315Y-26718550D01*
X120970887Y-26852181D01*
X120963358Y-26866267D01*
X120914395Y-26916111D01*
X120846257Y-26931571D01*
X120780578Y-26907739D01*
X120738209Y-26852181D01*
X120730000Y-26807813D01*
X120730000Y-26407172D01*
X120729999Y-26407155D01*
X120723598Y-26347627D01*
X120723596Y-26347620D01*
X120673354Y-26212913D01*
X120673350Y-26212906D01*
X120587190Y-26097812D01*
X120587187Y-26097809D01*
X120472093Y-26011649D01*
X120472086Y-26011645D01*
X120337379Y-25961403D01*
X120337372Y-25961401D01*
X120277844Y-25955000D01*
X119630000Y-25955000D01*
X119630000Y-26871988D01*
X119572993Y-26839075D01*
X119445826Y-26805000D01*
X119314174Y-26805000D01*
X119187007Y-26839075D01*
X119130000Y-26871988D01*
X119130000Y-25955000D01*
X118482155Y-25955000D01*
X118422627Y-25961401D01*
X118422620Y-25961403D01*
X118287913Y-26011645D01*
X118287906Y-26011649D01*
X118172812Y-26097809D01*
X118172809Y-26097812D01*
X118086649Y-26212906D01*
X118086645Y-26212913D01*
X118036403Y-26347620D01*
X118036401Y-26347627D01*
X118030000Y-26407155D01*
X106593734Y-26407155D01*
X106448954Y-26329768D01*
X106250934Y-26269700D01*
X106250932Y-26269699D01*
X106250934Y-26269699D01*
X106045000Y-26249417D01*
X105839067Y-26269699D01*
X105641043Y-26329769D01*
X105607634Y-26347627D01*
X105458550Y-26427315D01*
X105458548Y-26427316D01*
X105458547Y-26427317D01*
X105298589Y-26558589D01*
X105167317Y-26718547D01*
X105069769Y-26901043D01*
X105009699Y-27099067D01*
X104989417Y-27305000D01*
X104555500Y-27305000D01*
X104555500Y-26435252D01*
X104555500Y-26435249D01*
X104555499Y-26435247D01*
X104543868Y-26376770D01*
X104543867Y-26376769D01*
X104499552Y-26310447D01*
X104433230Y-26266132D01*
X104433229Y-26266131D01*
X104374752Y-26254500D01*
X104374748Y-26254500D01*
X102635252Y-26254500D01*
X102635247Y-26254500D01*
X102576770Y-26266131D01*
X102576769Y-26266132D01*
X102510447Y-26310447D01*
X102466132Y-26376769D01*
X102466131Y-26376770D01*
X102454500Y-26435247D01*
X97116115Y-26435247D01*
X97106450Y-26427315D01*
X96923954Y-26329768D01*
X96725934Y-26269700D01*
X96725932Y-26269699D01*
X96725934Y-26269699D01*
X96520000Y-26249417D01*
X96314067Y-26269699D01*
X96116043Y-26329769D01*
X96082634Y-26347627D01*
X95933550Y-26427315D01*
X95933548Y-26427316D01*
X95933547Y-26427317D01*
X95773589Y-26558589D01*
X95642317Y-26718547D01*
X95544769Y-26901043D01*
X95484699Y-27099067D01*
X95464417Y-27305000D01*
X95035583Y-27305000D01*
X95015300Y-27099066D01*
X94955232Y-26901046D01*
X94857685Y-26718550D01*
X94766211Y-26607088D01*
X94726410Y-26558589D01*
X94594367Y-26450226D01*
X94566450Y-26427315D01*
X94383954Y-26329768D01*
X94185934Y-26269700D01*
X94185932Y-26269699D01*
X94185934Y-26269699D01*
X93980000Y-26249417D01*
X93774067Y-26269699D01*
X93576043Y-26329769D01*
X93542634Y-26347627D01*
X93393550Y-26427315D01*
X93393548Y-26427316D01*
X93393547Y-26427317D01*
X93233589Y-26558589D01*
X93102317Y-26718547D01*
X93004769Y-26901043D01*
X92944699Y-27099067D01*
X92924417Y-27305000D01*
X92490500Y-27305000D01*
X92490500Y-26435252D01*
X92490500Y-26435249D01*
X92490499Y-26435247D01*
X92478868Y-26376770D01*
X92478867Y-26376769D01*
X92434552Y-26310447D01*
X92368230Y-26266132D01*
X92368229Y-26266131D01*
X92309752Y-26254500D01*
X92309748Y-26254500D01*
X90570252Y-26254500D01*
X90570247Y-26254500D01*
X90511770Y-26266131D01*
X90511769Y-26266132D01*
X90445447Y-26310447D01*
X90401132Y-26376769D01*
X90401131Y-26376770D01*
X90389500Y-26435247D01*
X84969306Y-26435247D01*
X84682012Y-26330681D01*
X84682009Y-26330680D01*
X84341915Y-26250077D01*
X84298519Y-26245004D01*
X83994759Y-26209500D01*
X83645241Y-26209500D01*
X83341480Y-26245004D01*
X83298085Y-26250077D01*
X83298083Y-26250077D01*
X82957990Y-26330680D01*
X82957987Y-26330681D01*
X82629547Y-26450223D01*
X82629541Y-26450226D01*
X82317203Y-26607088D01*
X82025194Y-26799146D01*
X82025186Y-26799152D01*
X81757442Y-27023817D01*
X81757440Y-27023819D01*
X81517589Y-27278044D01*
X81517584Y-27278050D01*
X81308870Y-27558402D01*
X81134113Y-27861091D01*
X81134107Y-27861104D01*
X80995674Y-28182027D01*
X80895430Y-28516865D01*
X80895428Y-28516872D01*
X80834739Y-28861061D01*
X80834738Y-28861072D01*
X80814415Y-29209996D01*
X79375000Y-29209996D01*
X79375000Y-24889000D01*
X79394685Y-24821961D01*
X79447489Y-24776206D01*
X79499000Y-24765000D01*
X176406000Y-24765000D01*
X176473039Y-24784685D01*
G37*
G04 #@! TD.AperFunction*
G04 #@! TA.AperFunction,Conductor*
G36*
X157432165Y-54483427D02*
G01*
X157434847Y-54487593D01*
X157670591Y-55116362D01*
X157670287Y-55125311D01*
X157664138Y-55131268D01*
X157309502Y-55279123D01*
X157300548Y-55279144D01*
X157300498Y-55279123D01*
X156945861Y-55131268D01*
X156939543Y-55124921D01*
X156939408Y-55116364D01*
X157175153Y-54487592D01*
X157181266Y-54481049D01*
X157186108Y-54480000D01*
X157423892Y-54480000D01*
X157432165Y-54483427D01*
G37*
G04 #@! TD.AperFunction*
G04 #@! TA.AperFunction,Conductor*
G36*
X150323803Y-47661166D02*
G01*
X150679613Y-47808945D01*
X150685939Y-47815283D01*
X150686267Y-47823321D01*
X150527339Y-48319172D01*
X150524470Y-48323874D01*
X150357664Y-48490680D01*
X150349391Y-48494107D01*
X150341118Y-48490680D01*
X150339252Y-48488246D01*
X149957082Y-47824594D01*
X149955923Y-47815714D01*
X149961382Y-47808616D01*
X149962706Y-47807962D01*
X150314800Y-47661165D01*
X150323752Y-47661145D01*
X150323803Y-47661166D01*
G37*
G04 #@! TD.AperFunction*
G04 #@! TA.AperFunction,Conductor*
G36*
X87807544Y-56175753D02*
G01*
X87813706Y-56181739D01*
X88090247Y-56794428D01*
X88090527Y-56803378D01*
X88087856Y-56807514D01*
X87922514Y-56972856D01*
X87914241Y-56976283D01*
X87909428Y-56975247D01*
X87296739Y-56698706D01*
X87290608Y-56692179D01*
X87290732Y-56683590D01*
X87436937Y-56328302D01*
X87443253Y-56321957D01*
X87798590Y-56175732D01*
X87807544Y-56175753D01*
G37*
G04 #@! TD.AperFunction*
G04 #@! TA.AperFunction,Conductor*
G36*
X99647165Y-57658427D02*
G01*
X99649847Y-57662593D01*
X99885591Y-58291362D01*
X99885287Y-58300311D01*
X99879138Y-58306268D01*
X99524502Y-58454123D01*
X99515548Y-58454144D01*
X99515498Y-58454123D01*
X99160861Y-58306268D01*
X99154543Y-58299921D01*
X99154408Y-58291364D01*
X99390153Y-57662592D01*
X99396266Y-57656049D01*
X99401108Y-57655000D01*
X99638892Y-57655000D01*
X99647165Y-57658427D01*
G37*
G04 #@! TD.AperFunction*
G04 #@! TA.AperFunction,Conductor*
G36*
X99879138Y-51775731D02*
G01*
X99885456Y-51782078D01*
X99885591Y-51790637D01*
X99649847Y-52419407D01*
X99643734Y-52425951D01*
X99638892Y-52427000D01*
X99401108Y-52427000D01*
X99392835Y-52423573D01*
X99390153Y-52419407D01*
X99154408Y-51790635D01*
X99154712Y-51781688D01*
X99160859Y-51775732D01*
X99515500Y-51627875D01*
X99524449Y-51627855D01*
X99879138Y-51775731D01*
G37*
G04 #@! TD.AperFunction*
G04 #@! TA.AperFunction,Conductor*
G36*
X118469138Y-51237731D02*
G01*
X118475456Y-51244078D01*
X118475591Y-51252637D01*
X118239847Y-51881407D01*
X118233734Y-51887951D01*
X118228892Y-51889000D01*
X117991108Y-51889000D01*
X117982835Y-51885573D01*
X117980153Y-51881407D01*
X117744408Y-51252635D01*
X117744712Y-51243688D01*
X117750859Y-51237732D01*
X118105500Y-51089875D01*
X118114449Y-51089855D01*
X118469138Y-51237731D01*
G37*
G04 #@! TD.AperFunction*
G04 #@! TA.AperFunction,Conductor*
G36*
X153622165Y-54130927D02*
G01*
X153624847Y-54135093D01*
X153860591Y-54763862D01*
X153860287Y-54772811D01*
X153854138Y-54778768D01*
X153499502Y-54926623D01*
X153490548Y-54926644D01*
X153490498Y-54926623D01*
X153135861Y-54778768D01*
X153129543Y-54772421D01*
X153129408Y-54763864D01*
X153365153Y-54135092D01*
X153371266Y-54128549D01*
X153376108Y-54127500D01*
X153613892Y-54127500D01*
X153622165Y-54130927D01*
G37*
G04 #@! TD.AperFunction*
G04 #@! TA.AperFunction,Conductor*
G36*
X117886407Y-63405153D02*
G01*
X117892951Y-63411266D01*
X117894000Y-63416108D01*
X117894000Y-63653891D01*
X117890573Y-63662164D01*
X117886407Y-63664846D01*
X117257637Y-63900591D01*
X117248688Y-63900287D01*
X117242731Y-63894138D01*
X117094875Y-63539499D01*
X117094855Y-63530550D01*
X117242732Y-63175859D01*
X117249078Y-63169543D01*
X117257635Y-63169408D01*
X117886407Y-63405153D01*
G37*
G04 #@! TD.AperFunction*
G04 #@! TA.AperFunction,Conductor*
G36*
X169495232Y-28211444D02*
G01*
X170439549Y-28575411D01*
X172057675Y-29199083D01*
X172064162Y-29205256D01*
X172064384Y-29214208D01*
X172058211Y-29220695D01*
X172057675Y-29220917D01*
X169495234Y-30208554D01*
X169487638Y-30208836D01*
X168293312Y-29847514D01*
X168286386Y-29841838D01*
X168285000Y-29836315D01*
X168285000Y-28583684D01*
X168288427Y-28575411D01*
X168293310Y-28572485D01*
X169487639Y-28211163D01*
X169495232Y-28211444D01*
G37*
G04 #@! TD.AperFunction*
G04 #@! TA.AperFunction,Conductor*
G36*
X155759138Y-50983731D02*
G01*
X155765456Y-50990078D01*
X155765591Y-50998637D01*
X155529847Y-51627407D01*
X155523734Y-51633951D01*
X155518892Y-51635000D01*
X155281108Y-51635000D01*
X155272835Y-51631573D01*
X155270153Y-51627407D01*
X155034408Y-50998635D01*
X155034712Y-50989688D01*
X155040859Y-50983732D01*
X155395500Y-50835875D01*
X155404449Y-50835855D01*
X155759138Y-50983731D01*
G37*
G04 #@! TD.AperFunction*
G04 #@! TA.AperFunction,Conductor*
G36*
X152705311Y-63169712D02*
G01*
X152711268Y-63175861D01*
X152859123Y-63530498D01*
X152859144Y-63539452D01*
X152859123Y-63539502D01*
X152711268Y-63894138D01*
X152704921Y-63900456D01*
X152696362Y-63900591D01*
X152067593Y-63664846D01*
X152061049Y-63658733D01*
X152060000Y-63653891D01*
X152060000Y-63416108D01*
X152063427Y-63407835D01*
X152067593Y-63405153D01*
X152696364Y-63169408D01*
X152705311Y-63169712D01*
G37*
G04 #@! TD.AperFunction*
G04 #@! TA.AperFunction,Conductor*
G36*
X114250751Y-41283904D02*
G01*
X114253934Y-41289800D01*
X114379589Y-41895468D01*
X114377914Y-41904265D01*
X114372635Y-41908644D01*
X114016502Y-42057123D01*
X114007548Y-42057144D01*
X114007498Y-42057123D01*
X113654659Y-41910018D01*
X113648341Y-41903671D01*
X113648362Y-41894717D01*
X113648994Y-41893430D01*
X113994634Y-41286387D01*
X114001705Y-41280894D01*
X114004801Y-41280477D01*
X114242478Y-41280477D01*
X114250751Y-41283904D01*
G37*
G04 #@! TD.AperFunction*
G04 #@! TA.AperFunction,Conductor*
G36*
X86592682Y-28957807D02*
G01*
X87402927Y-29587486D01*
X87407357Y-29595268D01*
X87407448Y-29596724D01*
X87407448Y-30849458D01*
X87404021Y-30857731D01*
X87395907Y-30861157D01*
X86049015Y-30879511D01*
X86041836Y-30877172D01*
X84334618Y-29596724D01*
X83843299Y-29228225D01*
X83838738Y-29220520D01*
X83840960Y-29211846D01*
X83848666Y-29207284D01*
X83849237Y-29207216D01*
X86584433Y-28955395D01*
X86592682Y-28957807D01*
G37*
G04 #@! TD.AperFunction*
G04 #@! TA.AperFunction,Conductor*
G36*
X110795311Y-67614712D02*
G01*
X110801268Y-67620861D01*
X110949123Y-67975498D01*
X110949144Y-67984452D01*
X110949123Y-67984502D01*
X110801268Y-68339138D01*
X110794921Y-68345456D01*
X110786362Y-68345591D01*
X110157593Y-68109846D01*
X110151049Y-68103733D01*
X110150000Y-68098891D01*
X110150000Y-67861108D01*
X110153427Y-67852835D01*
X110157593Y-67850153D01*
X110786364Y-67614408D01*
X110795311Y-67614712D01*
G37*
G04 #@! TD.AperFunction*
G04 #@! TA.AperFunction,Conductor*
G36*
X104900188Y-61433427D02*
G01*
X104902859Y-61437563D01*
X105140551Y-62066344D01*
X105140271Y-62075294D01*
X105134109Y-62081280D01*
X104779502Y-62229123D01*
X104770548Y-62229144D01*
X104770498Y-62229123D01*
X104415890Y-62081280D01*
X104409572Y-62074933D01*
X104409448Y-62066345D01*
X104647141Y-61437562D01*
X104653272Y-61431036D01*
X104658085Y-61430000D01*
X104891915Y-61430000D01*
X104900188Y-61433427D01*
G37*
G04 #@! TD.AperFunction*
G04 #@! TA.AperFunction,Conductor*
G36*
X105134109Y-50948719D02*
G01*
X105140427Y-50955066D01*
X105140551Y-50963655D01*
X104902859Y-51592437D01*
X104896728Y-51598964D01*
X104891915Y-51600000D01*
X104658085Y-51600000D01*
X104649812Y-51596573D01*
X104647141Y-51592437D01*
X104409448Y-50963655D01*
X104409728Y-50954705D01*
X104415889Y-50948719D01*
X104770500Y-50800875D01*
X104779449Y-50800855D01*
X105134109Y-50948719D01*
G37*
G04 #@! TD.AperFunction*
M02*
